<svg id="Shapes" xmlns="http://www.w3.org/2000/svg" viewBox="0 0 1000 1000"><defs></defs><g id="Shape_104" data-name="Shape 104"><path class="cls-1" d="M624.74,388.94c8-.55,16.08-.17,24.12-.27-.08,3.78.18,7.6-.23,11.38a78.21,78.21,0,0,0,0,14.19c.7,8.77-.18,17.6.5,26.38a77.58,77.58,0,0,1,0,13.2c.38,1.88-1.42,4.93.43,6.29,25.29.14,50.59,0,75.87.07,3.63,0,7.27.08,10.89-.26,20.19-.62,40.42-.05,60.62-.3.87.08,2-.26,2.47.76q.06,4.85.28,9.72c.4,4.28.27,8.58.3,12.89,0,29.56,0,59.12,0,88.68l-1,.65a30.72,30.72,0,0,0,.23,3.69c.23,2.68.26,5.4.55,8.11.43,7.51.25,15,.2,22.56a6.84,6.84,0,0,1-.93,4.12c-16.85.08-33.7-.3-50.54.19a187.38,187.38,0,0,1-22.73,0c-5-.41-10-.25-15-.26q-38,0-76.08,0a72.44,72.44,0,0,0-7.8.3c-8.38.43-16.78.13-25.16.23-4.62.31-9-1.44-13.64-1a14.17,14.17,0,0,0,1.07-2l-3.11-.64c0,.39,0,1.16,0,1.54l1.07.41a201.33,201.33,0,0,0-23.69-.11c-16,.61-31.95.09-47.93.27,0-.69,0-1.38,0-2-.62,0-1.24,0-1.85.08-.28,1.43-1,3.34-3.19,2-4.81.11-9.64-.38-14.41.21-9.63.72-19.3-.19-28.92.49-9.71.86-19.45-.37-29.16.28-16.65-.15-33.32.29-49.94-.2-2.05-.27-4.1-.24-6.11-.58a15.85,15.85,0,0,0-4-.06c-2.21.22-4.42.21-6.6.59-7,.12-14.12.92-21-.31-.24-1.18-.45-2.35-.62-3.52.67-.22,1.35-.42,2-.58l0-1.89c-.81-.23-1.61-.46-2.42-.65q-.06-4.94-.31-9.83c-.7-20.48,0-41-.35-61.5l-1.05-1c-47.29-.24-94.59,0-141.88-.13a32.49,32.49,0,0,1-5-.52c-.12-3.78.14-7.58-.29-11.33-.17-3.21-.6-6.45,0-9.63.54-19.42.25-38.89,0-58.31-.67-15.13-.1-30.29-.31-45.43-.35-5.26.71-10.43,1.09-15.64l7.39-.38a12.2,12.2,0,0,1,2.34,0c5.58.67,11.24-.12,16.81.55a33.93,33.93,0,0,0,6.13.05,115.49,115.49,0,0,1,23.29-.56,45.76,45.76,0,0,0,8.11,0l5.31-.29c.53.78,1.06,1.57,1.57,2.38,1.82-.52,3.69,0,5.52.16l.08-1-3.74-.16c2.12-1.76,5.21-1.17,7.74-1.4,8.87.15,17.76-.3,26.61.25,10.05.59,20.13.11,30.2.28,3.27-.14,6.6.28,9.85-.25a101.41,101.41,0,0,1,14.79-.05c15.68.81,31.42-.2,47.11.53l1-.55c19.29-.59,38.61.21,57.9-.41a65.07,65.07,0,0,1,13.09,0c14.18.3,28.4.47,42.58-.08a216,216,0,0,0,23.87.06,54.14,54.14,0,0,1,10.65,0,81.28,81.28,0,0,0,13.69,0c17.22-.79,34.5.22,51.72-.51m-415.49,3.64c-.3,1.65-.44,3.42,1.45,3.84.29-1.75.44-3.41-1.45-3.84M510,396.09c-.65,1.61-1.49,3.23-1,5.07a1.17,1.17,0,0,0,1.37.69c1.31-1.2.17-3.38.45-4.79l-.79-1M521.56,402a11.13,11.13,0,0,0,.42,1.95c.53-.21,1.06-.4,1.6-.58,0-.71,0-1.41-.05-2.11a6.35,6.35,0,0,0-2,.74m117.67,7.13c0,.83-.25,1.87.63,2.36,1.46,0,3.34.66,4.42-.58.19-1-.57-1.7-1-2.46-1.37.16-3-.48-4,.68m-22.44,2.37h2.26a4.39,4.39,0,0,0-.72-2.5c-1.46-.38-1.4,1.54-1.54,2.5m-206.14-2c-1.18.74-.84,3.4.85,3,1.92-.21,1.2-3.93-.85-3m-16.82,3.05c-.37.48-.74,1-1.1,1.46a8.74,8.74,0,0,0,2,1.1,5.67,5.67,0,0,0,.68-2.55h-1.59m243.5,1.57c-1.2.52-1.79,2.76-.1,2.95,2,.6,2-3.58.1-2.95m-213,2.26c-.05.95-.07,1.92-.07,2.9a10.93,10.93,0,0,0,2-.77c.13-1.17-1.2-1.57-1.95-2.13m209.88,4.87c-.25,1.45,2.06,2.73,2.93,1.28.29-1-.57-1.72-1-2.48a15.94,15.94,0,0,0-1.93,1.2m-119.3,1.33c.07.76.15,1.52.23,2.29a5.19,5.19,0,0,0,2.07-2.06c-.77-.09-1.53-.16-2.3-.23m-44.52,14.81,0,3.51h1c0-1.38,0-2.74,0-4.1l-.95.58m-13.73,10.29c1.69-.92.77-2.9.53-4.41-1.7.91-.79,2.86-.53,4.41m.87,10a17.42,17.42,0,0,0,2.59,2.09l0-2.81a16.63,16.63,0,0,0-2.62.72M349.2,464.36c0,.65-.05,1.31,0,2a3.24,3.24,0,0,0,2-.73c0-.67,0-1.32,0-2a3,3,0,0,0-2,.73M658,476.88c0,.4,0,1.19,0,1.59a5.39,5.39,0,0,0,3.61-.08,4.67,4.67,0,0,0-.72-2,11.92,11.92,0,0,0-2.91.51m-112.22.62c.14,1.95,1.44,3.47,2.29,5.18.46-.28.92-.56,1.35-.87.4-1.74-1.35-3-1.9-4.47l-1.74.16M535.13,486c1.93,1.11,3.31-.42,3.32-2-2-1.25-3.28.47-3.32,2m81.33,7.72c-.3,1.27,1.31,1.84,2.31,2q.33-.84.69-1.65c-.87-.58-2.21-1.6-3-.36m-166.32.91a13.37,13.37,0,0,0-.51,3.69c.7-.38,1.38-.8,2.05-1.21-.08-1-.07-2.85-1.54-2.48m-63,10.13a13.23,13.23,0,0,0-1,6.62,9.66,9.66,0,0,0,2,1c1.38-2.22.21-5.21.62-7.64l-1.6,0M270.41,515c.17,2,1.7,2.95,3.87,1.94-.16-1.92-1.72-3.06-3.87-1.94m.5,10.3c1.59,2,5.27-.51,3.59-2.92a34.42,34.42,0,0,0-3.59,2.92m10.26,1.83c-.64,2.62,2.66,3.3,4.54,3.61a3,3,0,0,1-.54-3.16,15.12,15.12,0,0,0-4-.45m200.46,3.52a3.92,3.92,0,0,0-.7,2.07c.9-.1,2,.12,2.64-.63.22-1.14-1-1.62-1.94-1.44m26.15,4.56h1.69a5.1,5.1,0,0,0,0-3.14c-1,.78-2.76,1-1.7,3.14M381,534.26c.15.84.05,1.83.75,2.49a2.08,2.08,0,0,0,1.87-.61c0-.76-.62-1.32-.94-1.95l-1.68.07m398.31,0a3,3,0,0,0-.73,2c.66,0,1.32,0,2,0a3.26,3.26,0,0,0,.73-2,18.59,18.59,0,0,0-2,0m-62.58,16.24c.21,1,.48,2,.71,3.08a5.57,5.57,0,0,0,1.92-.71,4.27,4.27,0,0,0-1-2.44l-1.63.07m-226.69,3a5,5,0,0,0,2.11,4.14c.9-1.4,0-2.81-.54-4.14H490M366.91,559l1.59,1.2c.66-1.89,0-3.89-.17-5.81-2.22.46-1.2,3-1.42,4.61M524.58,555c-.14.63-.33,1.26-.41,1.91a2,2,0,0,0,1.84.61c.71-.66.6-1.66.74-2.51-.73,0-1.45,0-2.17,0m-86.67,7.06c.21.48.41,1,.61,1.47.75.21,1.51.43,2.28.6a6.27,6.27,0,0,1,2.53-2.76c.23-.61.47-1.22.67-1.82a56.5,56.5,0,0,0-6.09,2.51m154.59,1c-1,1.78.54,3.15,2,3.11a33.7,33.7,0,0,0,1.08-4.73,13.15,13.15,0,0,0-3.11,1.62M444,562.58a16.45,16.45,0,0,0-.53,3.72,5.88,5.88,0,0,0,2-.78c.66-1.27-.07-3.15-1.51-2.94m244.5,4.63c-1.24.63-.64,2.89.84,2.48,1.94-.17,1-3.39-.84-2.48m-262.43,2.93c.92,0,2,.27,2.71-.55a8.47,8.47,0,0,0-.58-2.07,8.07,8.07,0,0,0-2.13,2.62m267.81,1.06a17.89,17.89,0,0,0-1,4c.69,0,1.4,0,2.11,0,.21-1.29.31-2.8.57-4l-1.63,0m-267.64,1.39a4.08,4.08,0,0,0-.09,3.18l2.23-.08a7.17,7.17,0,0,0-2.14-3.1m120.17,3.35a5.61,5.61,0,0,0,2-.79c0-.84.18-1.85-.64-2.36-1.68-.8-1.34,2.62-1.38,3.15m-21.19,6c-1.24.63-.65,2.89.84,2.48,1.94-.17,1-3.39-.84-2.48m176.43,2.46c-.76.67-.54,1.73-.63,2.64a4.31,4.31,0,0,0,2.08-.71c.17-.93-.31-2.17-1.45-1.93m-186.15,3.2a10,10,0,0,0,.91,3.44l1.69-.11A24.34,24.34,0,0,0,516.9,587a1.12,1.12,0,0,0-1.36.58m2.83,4a7.58,7.58,0,0,0,.77,2,6.15,6.15,0,0,0,2.37-.64c.9-1.65-2.83-1.5-3.14-1.39m-116.48,1a16.77,16.77,0,0,0-.44,1.92,2,2,0,0,0,2.94,0c-.1-.67-.29-1.29-.44-1.92-.69,0-1.37,0-2.06,0m11.72,2c0,.71,0,1.43,0,2.16l3.08-.67c-.08-1.66-1.72-2.21-3.06-1.49m7.1.5c0,.79,0,2.37,0,3.16.64-.22,1.28-.44,1.93-.64v-1.9c-.65-.21-1.3-.43-2-.62m119.86,3.3a19.08,19.08,0,0,1-3.09,3.91c-.25-.57-.5-1.14-.76-1.69-1.35-.16-2.63.45-2.55,2,1.31.08,2.8.36,3.43,1.67,1.19-.72,2.31-1.57,3.54-2.23.56-1.77,2.82-2.82,2.69-4.72-1-1.54-2.24.57-3.26,1.08m197.51.34c-.38,1.24,1.16,1.36,2,1.65,0-1,0-1.92,0-2.87-.66.29-2,.26-2,1.22M397,601.17l-.58.64c-1.59,1.91,1.43,4.05,2.43,2.21,1-1.64-.32-3.34-1.85-2.85m-10.3,4.07c.31,1.4.89,3.28,3.15,2-.13-.89.06-1.94-.72-2.54a3,3,0,0,0-2.43.55m216.64-.65c-.47.77-1.35,1.5-1.06,2.51a2.06,2.06,0,0,0,3,0c0-1.2-1.25-1.77-2-2.55m-53.17,1.18c-2.12,1.35,1.42,3,2.35,1.36.38-1.4-1.38-1.67-2.35-1.36m71.19,2.39,3.42,0c-.38-.82-.5-2.31-1.74-2-1.25-.36-1.44,1.13-1.68,2m169.11-1.91c-1.14.64-.64,2.9.81,2.45,1.13-.65.64-2.91-.81-2.45m-27,1.21a21.2,21.2,0,0,1,1.79,1.64l1.79.18,0-1.49c-1.13-.56-2.48-1.61-3.54-.33m-6,.23a11.39,11.39,0,0,0-.74,2H759c-.45-.75-.45-2.15-1.61-2"></path></g></svg>