<svg id="Shapes" xmlns="http://www.w3.org/2000/svg" viewBox="0 0 1000 1000"><defs></defs><g id="Shape_79" data-name="Shape 79"><path class="cls-1" d="M488.1,642.19A7.77,7.77,0,0,1,494,640c.7.81,1.45,1.62,2.22,2.43a5.22,5.22,0,0,1,2.5-2.25c4.59-.35,9.08.66,13.65.93.6.78,1.23,1.56,1.84,2.37-1,.26-2.07.51-3.11.72a27.42,27.42,0,0,0-2.64-1.86c-.08,1.14-.14,2.3-.17,3.47l4.59,1.24a17,17,0,0,0,2.31,2.26c.3-2.6,3.16-1.62,4.83-1.05l1.39-.62,1.09,1.45c1.39.27,2.79.6,4.2.88a16.11,16.11,0,0,0-2.52-4.12,7.87,7.87,0,0,1,8.52,4l-3.22.58a56.31,56.31,0,0,0,4.38,4.8l1.67-.94a41.2,41.2,0,0,0,4.05,1c.32-.5,1-1.49,1.29-2,3.58,1.64,7.1,4,9.17,7.32-.55.12-1.66.33-2.22.44a12.72,12.72,0,0,0,5.14,4.8c.72-.51,1.42-1.07,2.08-1.64a3.61,3.61,0,0,1,1.45,4.88l1.87,1.08a15.54,15.54,0,0,0,1.39,3,24,24,0,0,0,3-.51c.21,3.31,2.54,6,2.72,9.33.34,1.34,1.54,2.27,2.32,3.4,1.09,0,2.2.06,3.3.1.37,2.37.6,4.75.88,7.19l1.43,1c0,2.12,0,4.25,0,6.4l1.64,0c0-.61,0-1.84.06-2.46l1.48.12c-.23,4.28,1.49,8.25,2.22,12.41-.33,7.89,1.4,15.94-.25,23.76-3.1,6.74-2.56,14.61-7,20.86-2.14,6.15-5.7,11.72-9.13,17.24a135.93,135.93,0,0,1-22.59,17.68c-4.32,2.24-9.29,3-13.53,5.4a44.07,44.07,0,0,1-14.53,2.78l-1.12,1.26a35.51,35.51,0,0,0-6.88.54,51.31,51.31,0,0,1-18.8-1.31c-5-1.3-10.61-1.5-15.24-4a43.41,43.41,0,0,0-7.56-2.48,14.18,14.18,0,0,0-6.65-2.44c-2.81-5.23-9.18-6.66-12.49-11.32-.32-1-.66-2-1-3-1.05,0-2.1-.09-3.13-.17a74.61,74.61,0,0,0-4.28-8.87L432.4,766c-1.42-5.76-5-10.7-7.9-15.77-3.2-8.3-3.64-17.26-4.81-26-.19-5.48-1.09-11.15.85-16.41.26-6.55,4.41-12.23,4.25-18.82l2.08-.34a15.54,15.54,0,0,1,4.3-4.1c0-.9,0-1.77,0-2.63a16.54,16.54,0,0,1-1.41-1.92c1.89-3.4,3.56-7.2,7.12-9.25.71-1.88,1.53-3.79,3.35-4.89,2.45-4.26,7.23-6.47,10.84-9.67,3.78-1.44,6.95-3.92,10-6.45,2.28-.78,4.54-1.67,6.9-2.24,3.62-2,7.64-3.66,11.89-3.64a2.35,2.35,0,0,0,2.26-1.22q3-.21,5.94-.47M481.19,645c-3.33-.55-7.61,2.31-6.44,6.06l.55-.24c1.83-1.78,4.67-1.71,7.06-2.12.41-.74.81-1.48,1.22-2.21a22.13,22.13,0,0,1,7.95,0c0-.65,0-2,.06-2.61-3.47.43-6.86,1.64-10.4,1.09m12.26-.81q-.68,2,1.38,1.38.65-2-1.38-1.38m-27.83,6.15c.36.85.73,1.7,1.13,2.56.86-.81,1.72-1.63,2.56-2.46-1.24-.06-2.46-.09-3.69-.1m-13.26,7.18c-.54,2.58-.49,5.26,2.47,5.85-.23-1.95-.63-3.87-.85-5.81l-1.62,0m62.66,7c1.17.33,1.6-.08,1.28-1.23-1.13-.29-1.55.12-1.28,1.23m-71.72.35c-.06,1-.12,2-.16,3.08l4.19.08,0-4.11c-1.34.33-2.67.66-4,1M518,670.51c-.32,1.47.44,3.46,2.32,3.09,1.28-1,.9-2.77,1.07-4.19a5.63,5.63,0,0,0-3.39,1.1m-77.8-.81c-.68.93,1.06,1.95,1.69,1,1-1-1-1.87-1.69-1m-3.56,2.39q-.67,2,1.38,1.38c.43-1.34,0-1.8-1.38-1.38m79.69,4c-1,2-2.13,3.86-1.91,6.28l1.83.13c0-.6,0-1.79.08-2.39a40.91,40.91,0,0,1,3.88-2.73c.1-.49.29-1.48.39-2-1.42.29-2.85.52-4.27.68m-65.5,1.08c-.91.75.19,2.59,1.29,2,.93-.8-.09-2.83-1.29-2M434,686.27c1.1.27,1.54-.14,1.28-1.23-1.19-.36-1.63.05-1.28,1.23m57.41.36c-.88.62-.06,2.61,1,1.67,1-.6,0-2.33-1-1.67m69.7,2c0,1.08,0,2.15,0,3.25l1.66,0c0-1.1,0-2.18,0-3.25l-1.67,0m-61.48,7c-.09.32-.28,1-.39,1.27.91,2,2.29-1.71.39-1.27m10.5,1.38a15.27,15.27,0,0,0-.72,3.09,8.58,8.58,0,0,0,3.24,1.22c0-1.13,0-2.25.08-3.35l-2.6-1m-88,7.83q1.67.4,1.29-1.23-1.8-.54-1.29,1.23m132.35.59a26.62,26.62,0,0,0-1.06,4.84c.7.42,1.44.81,2.21,1.18.28-1.66.73-3.26,1-4.9a18.24,18.24,0,0,0-2.14-1.12m-82.56,0c-.52,1.94.58,3.15,2.46,3.64.5-2-.58-3.17-2.46-3.64m-2.5,1c0,1.34,0,2.69,0,4.06H471c0-1.36,0-2.71,0-4.05l-1.66,0m-9.2,4c1.27-.21,1.37-2.09.69-2.9-1.62-.66-2.43,2.67-.69,2.9m52.48-2.92c-.42,2.11-.09,4,2.36,4.49.4-2.13.09-4-2.36-4.49m-84.92,4.25c0,1.07,0,2.15,0,3.25h1.66q0-1.63,0-3.24l-1.66,0m25.59,1.68c-1.73.91.42,2.84,1.57,1.6a1.13,1.13,0,1,0-1.57-1.6M446,724.55q1.67.39,1.29-1.23-1.8-.54-1.29,1.23m67.26.12c0,.61,0,1.82,0,2.43l2.49,0c0-.61,0-1.83,0-2.44l-2.5,0m-76.43,1.42a52.78,52.78,0,0,0,0,5.48c1.46-.88,2.69-2.39,2.31-4.15a18.32,18.32,0,0,0-2.35-1.33m14.94,8.33-.16,2.62,1.58.9c0,1,0,2.11,0,3.18l.73,0c.1-.52.31-1.56.41-2.08a6.83,6.83,0,0,0,1.39-2.56,24.44,24.44,0,0,0-4-2M568.24,745a6.8,6.8,0,0,0,0,5c1.12-.8,1.16-4.21,0-5m-72.52.85q-.56,1.73,1.26,1.26c.28-1.1-.15-1.52-1.26-1.26m66.51,2.27q-.56,1.73,1.26,1.26c.27-1.11-.15-1.52-1.26-1.26m-125,3.34a29.74,29.74,0,0,0,1.82,3.49c1.53-.18,3.13-.37,4.28-1.48a22.76,22.76,0,0,0-6.1-2m124,6.29c1.78-.85,1.68-2.72,1.69-4.39-1.79.84-1.7,2.7-1.69,4.39M535.48,754c-1.8,3,.93,4.78,2.86,6.15.32-1.35.95-4.06,1.26-5.41a36.71,36.71,0,0,0-4.12-.74M494,773.29c-.29.22-.85.67-1.14.88,0,2.87,1.5,6.73,4.75,7.17,1.14-2.23,2.55-4.54,2.7-7.07-1.29-2-4.7-.57-6.31-1m27.09,2.6c0,1.05,0,2.12.07,3.2,2.4.64,4.91,1.09,7.32.12.06.66.2,2,.27,2.64.61-.77,1.21-1.54,1.79-2.32l5.47-1.08c0-1.1,0-2.18.07-3.26a136.15,136.15,0,0,0-15,.7m-22.48,15.52c-1,.77.07,2.8,1.29,2,.89-.79-.2-2.62-1.29-2"></path><path class="cls-1" d="M515.91,643.28a13.86,13.86,0,0,1,5.08,1.65c-1.77.13-3.52.2-5.28.27.06-.47.16-1.44.2-1.92"></path><path class="cls-1" d="M535,651.37c.88-.64,2.91.64,1.84,1.63-1.06,1.28-2.91-.5-1.84-1.63"></path><path class="cls-1" d="M550.66,660.38c1.07-.65,2.17,1.18,1.29,2-1.22.84-2.25-1.19-1.29-2"></path><path class="cls-1" d="M427.37,684.2c1.33,0,1.06,2.33-.18,2.32-1.43-.11-1-2.21.18-2.32"></path><path class="cls-1" d="M488.27,200.38c9.41-.55,19-.68,28.33.85l1.11,1.28a18.42,18.42,0,0,1,5.39,1.23c1.11,1.69,1.41,3.83,2.82,5.36a26,26,0,0,0,3.16,1.05c-.75-1.69-1.83-3.16-2.7-4.74,1.15-.08,2.32-.12,3.51-.13.56,1.23,1.14,2.47,1.69,3.76,2.49-.82,4.74.77,7.08,1.41.64.67,1.3,1.35,2,2.08l2.11.39c1.39,1.31,3,2.46,4.45,3.72l-2.63.15c.36.94.72,1.92,1.08,2.93,4.49,2.45,10.41,3.48,13.17,8.19.65.4,1.32.82,2,1.27.06.53.16,1.58.22,2.11a3.29,3.29,0,0,1,3.39,3.3c.65.64,1.31,1.31,2,2,.06.56.18,1.64.24,2.19l2.26,1.84c0,1,0,2.06.07,3.13-1.12,0-2.24,0-3.34,0,0,.56.08,1.69.1,2.26a18.66,18.66,0,0,1,6.26.23c.31,1.33.7,2.67,1.09,4l1.65-.92a61.1,61.1,0,0,1,1.5,9.86c.12,2.6,2,4.95,1.18,7.62.31,1-1.59,5.09.77,5.84a49.8,49.8,0,0,0,.75,5.53c.92,5.86,0,11.66-1.59,17.34L576,296.65c-.37,5.77-1,12-4.3,17-1.71,2.71-2.72,5.8-4.66,8.39a29.75,29.75,0,0,0-2.83,2c-1,8.88-10,12.95-14.75,19.64-3.42,2-6.67,4.3-10.22,6.09a5.85,5.85,0,0,0-2.94,2.9c-2.31.54-4.7.69-7,1.07L528.15,355c-3.92.22-7.26,2.56-11.18,2.77L515.84,359a148.55,148.55,0,0,1-31.55.21c-2-.26-4.07-.46-6.07-.63-.64-.75-1.27-1.48-1.88-2.17l-5.4-.43c-3.27-2.15-6.78-4.3-10.69-5l-1.1-1.26-2.24-.26c-1.29-1.69-2.38-3.7-4.47-4.51-4.54-2.07-7.63-6.07-11.66-8.8a32.16,32.16,0,0,0-7.23-9.86c-4.26-4.36-6-10.26-8.88-15.44-.87-2.54.54-5.4-1.51-7.49-5.33-6.67-3.12-15.6-3.35-23.42-1.25-6.59.05-13.28,1.83-19.63.93-6.51,3.29-12.74,5.82-18.78,3.86-5.34,8.45-10.11,12.07-15.62,1.48-4.37,6.71-6.26,10.94-7.14,1.21-3.12,3-6.6,6.64-7.26l1.24-1.13,2.06-.43c8.09-5.77,18.21-7.78,27.86-9.62m1.85,7.83c.91-.39,1.85-.76,2.8-1.09a27.83,27.83,0,0,0-1.06-3.74c-3-.6-2.41,3.08-1.74,4.83M470.49,207c.08,1.21.19,2.44.34,3.7a14.58,14.58,0,0,0,2.56-3.2,6.53,6.53,0,0,0,4-1.88,17.59,17.59,0,0,0-6.86,1.38M483,208.6c.06,1.6.15,4.81.2,6.42,2.39-1.6,3.4-5.72-.2-6.42M537.11,220c1.4-.46,2.78-1,4.16-1.58,0-1.15-.06-2.28-.08-3.39-1.32,1.68-2.77,3.27-4.08,5m-46.95-3.72c.07,1.12.18,3.38.25,4.5.43,1.78,2.94,1.43,3.84.19a41,41,0,0,0-.76-4.61c-1.13-.06-2.23-.09-3.33-.08m8.26.06c-.86,1.73.77,4.15,1.6,5.74l2.53-.06c0-1.07-.05-2.11-.06-3.13-1.38-.84-2.74-1.7-4.07-2.55m45.81,12.25,1.88,1.31c-.15,1.29-.45,3.88-.61,5.18a41.6,41.6,0,0,0-.18,5.72c.86,1.14,1.66,2.35,2.44,3.61,1.74-1.39,4.29-2.53,3.42-5.45.72-.37,1.46-.72,2.2-1,.1-2.25-.2-5,0-7.08a8.91,8.91,0,0,1-5.93-2.43c-1.06-2.12-2.15-.3-3.19.19m10.76,3c.87-.3,1.74-.64,2.59-1,0-1.12-.05-2.22-.12-3.29a9.51,9.51,0,0,0-2.47,4.32m-92.68-3.25c-1.07.77-.05,3,1.27,2.07,1-.83,0-3-1.27-2.07m76.12,6.11-2.19.18-.4,2.07c-.82,1-2.22,2.61-.84,3.78,1.32,1.45,3.12-.31,4.38-1,0-.61.07-1.81.1-2.42,1,.24,2,.56,3.06.77,2.27-2,0-5.93,1.08-8.16-4.75-2.23-4.24,2.44-5.19,4.81m-33-1.12,3.78.06c-.4-1-.81-2.05-1.27-3-2-1-2,1.75-2.51,2.94m-4.52,1c-1.19.1-1.6,2.2-.18,2.32,1.22,0,1.49-2.32.18-2.32m27.57,3.53c.58,1.33,1.22,2.64,1.89,4,.76-.6,1.54-1.19,2.33-1.75,0-.57.1-1.74.13-2.32ZM525.12,248c-.36.24-1.07.75-1.43,1,0,2.21,0,4.45,0,6.74a23.79,23.79,0,0,0,3.2-1.2q-.33-4.6-1.07-9.07c-.27.81-.53,1.65-.75,2.53m13.52-1.54c.13,2.17.12,4,.21,6.28-1.33,1.59-2.75,3.32-1.35,5.39,1.79-1.41,3.78-2.63,5.21-4.42-3.67-.9,0-6.55-4.07-7.25m10.67,1.44c-.1.32-.28.95-.39,1.27.89,2,2.26-1.73.39-1.27M569,250c-.12,1.18-.22,2.39-.3,3.62a40.37,40.37,0,0,1-5.51-.22c0,.6-.1,1.81-.13,2.42q-1.29.47-2.55,1A39,39,0,0,0,564.23,269c-.11,4.05-2.81,7.32-4.08,11.06a32.59,32.59,0,0,0,6.37,2.55c1.21-1.73,3.63-1.38,5.26-2.53.27-1.91.58-3.75.94-5.54a30.86,30.86,0,0,0-4.7-1.79l-.24,2.7-.81-.08c.15-2.24,0-5,.3-7.06,2.07-1.71,3.93-3.76,4.2-6.5a23.11,23.11,0,0,1,2-1.21q.35-1.85.81-3.6c-2.75-1.88-1.16-7.18-5.27-6.92M502.3,251.9c-.05.66-.14,2-.19,2.63,1.23-.12,2.47-.22,3.73-.32a11.17,11.17,0,0,0-3.54-2.31m14.79.93c0,2.14,0,6.45.06,8.6,3.07-.82,2.43-4.2,2.31-6.65-.82-.67-1.6-1.33-2.37-1.95m-37,2.38c.62,2.42,0,4.86-.18,7.3,4.19-.56,1.7-5.73,2.52-8.25-.79.3-1.58.62-2.34,1m48.35.31q0,1.53.06,3.15c.79.6,1.59,1.23,2.42,1.89.23-1.25.69-3.73.93-5-1.15-.05-2.29-.07-3.41-.07m27.42,1.59c.35,2.7.5,5,.76,7.85a32.94,32.94,0,0,0,3.09-1.15c-1-2.34-2-4.87-3.85-6.7m-17.43,3.49c-.45,1.3,0,1.75,1.37,1.38.42-1.35,0-1.8-1.37-1.38m8,2.38c.35,1.39,2,1.95,3.11,2.76,0-1.39,0-4.15,0-5.53-1.07.82-2.66,1.4-3.08,2.77m-95.27,2.52a1.77,1.77,0,0,0-.85,2.7c1.42.62,2.4-2.49.85-2.7m93.89,1.28c-.16,1.16-.28,2.34-.39,3.55l-2.21-.2c-.7-1-1.07-2.45-2.51-2.38-1.21,2.47-2.43,5.11-2.57,7.89a5.43,5.43,0,0,0,3.68,2,21.17,21.17,0,0,1,1.3-2.56c2.06.46,2.38,3,3.84,4.3-.21-3.35-.89-6.76-.12-10.07.31-1.06-.43-1.8-1-2.49M512.8,268.1c.21,1.29.63,3.87.85,5.17,2.3.37,2.67-2.24,2.4-3.89a6.43,6.43,0,0,0-3.25-1.28m21.58,1c-.89,1.95-2.32,3.27-2.11,5.79l1.8.14c.07-.47.2-1.42.27-1.89.73,1.44,1.37,2.94,2.08,4.44-.27-3,1.86-7.5-2-8.48m-41.31,2.77c1.09.25,1.52-.16,1.28-1.23-1.19-.37-1.63,0-1.28,1.23m28.45,2.85,2,.22c-.08-1.48-.17-3-.26-4.39a6.47,6.47,0,0,0-1.69,4.17m-45.84-1.93c0,1.05,0,2.13,0,3.24h1.65c0-1.11,0-2.18,0-3.24h-1.64m46.18,3.93a29.13,29.13,0,0,0-.87,3.66c.82,1.56,2.42.4,3.55-.12,2.92-.57,8.25-1.32,6.4-6-3.05.75-6,1.94-9.08,2.5m-37.25,8.32c-.38,1.83-.7,3.69-1,5.6h-2.38c-.38.8-.73,1.62-1.06,2.47-1.84-.22-3.64-.58-5.45-.83,0,1.3.14,2.63.08,4a7.32,7.32,0,0,0,4.58,3.32,44.38,44.38,0,0,0,4.34-3.75c1.3.27,2.62.47,4,.66-.08-1.35-.26-4-.35-5.38a49,49,0,0,1-.4-6l-2.37-.07M474.92,287a3.21,3.21,0,0,0,0,3.33c2,.44,1.59-3.41,0-3.33m92.52,5.51c1,.89,1.74,2.41,3.32,2.33.44-.77.87-1.53,1.27-2.29-1.54-.07-3.08-.09-4.59,0M532.35,295c1.08.25,1.51-.16,1.27-1.22-1.19-.38-1.62,0-1.27,1.22M505,296.59c-.41,1-.79,1.94-1.14,3a25.08,25.08,0,0,0-1.55,2.55c2.75-.56,7.26-.84,5.34-5.38l-2.65-.12m-31.85.6a1.12,1.12,0,0,0,.46,2.19c1.43-.34,1.16-2.87-.46-2.19m-13.36.49c0,2.22,0,4.47,0,6.77,1.55-.64,3.44-.76,4.63-2a22.8,22.8,0,0,0,1.08-3.6,6.32,6.32,0,0,0-5.73-1.13m82.37,3.5a1.24,1.24,0,1,0,.62,2.4c1.61-.28.78-2.8-.62-2.4m-66,3.26q0,1.57,0,3.24h1.64c0-1.11,0-2.19,0-3.24h-1.65m-.69,13.18c-.16.48-.5,1.43-.66,1.91-1.93,2.38-.7,5.84.4,8.43,2.64.3,3.91-3.7,3.44-5.55l-2-.25c.07-2.47.87-3.91,1.29-6.07a31.38,31.38,0,0,0,1.48-2.8c-2.06.56-2.65,2.89-3.95,4.33m4.58-3.35c-.7,1.66.85,4.1,1.66,5.67.66,0,1.95-.07,2.6-.09q-.4-2.87-.82-5.62c-1.17,0-2.31,0-3.44,0M533,315.68a1.24,1.24,0,1,0,.62,2.4c1.61-.28.78-2.81-.62-2.4m-89.72,1.72q-1.1,1.46.54,1.8,1.05-1.54-.54-1.8m9.92,2.41c-1,.61-.2,2.84,1,1.81,1.14-.66.21-2.79-1-1.81m15.28,10.43c.07,1.53.21,4.58.29,6.1,2-1.25,4.41-3,3.18-5.92-1.17-.09-2.32-.15-3.47-.18m54.63,1.59c-1.07,1,.72,2.92,1.75,1.76,1.39-1.11-.6-3-1.75-1.76m-51.54,10.58,2.62.08c2.83-2.93,3-7.08,2.22-10.88a15.36,15.36,0,0,0-4.84,10.8m11.86-4.51c-1,.06-1.65,2-.34,2.09,1-.12,1.62-2,.34-2.09"></path><path class="cls-1" d="M751.56,443.52a2.36,2.36,0,0,0-2.18,1.35c-2.11,3.7-5.54,6.36-9.1,8.48-1.68,1.76-3.58,3.27-5.39,4.86-3.72,1.39-7.46,2.89-10.59,5.44-4.58,1.52-8.88,4.56-13.8,4.55-1.86,1-3.93.78-5.91.46-3.55,2-7.68,1.6-11.57,1.54a15.27,15.27,0,0,1-.95-2.18c-.75-.43-1.51-.86-2.3-1.29a15.78,15.78,0,0,1-5.7,1.68L682.74,470c-5.63-3.43-12.62-2.68-18.43-5.72-5.52-.95-10-4.57-14.63-7.47-6.95-5.36-14.48-10.23-20.08-17.14-2.91-5.08-5.42-10.62-9.69-14.73l1-2.06a73.82,73.82,0,0,0-5.54-8.14c.45-.93.93-1.87,1.42-2.8-.66-.8-1.35-1.59-2.07-2.38-2.38-5.2-.43-11.43-3.56-16.48a14.24,14.24,0,0,0,1.22-7,45.49,45.49,0,0,0,1.63-7.79c.18-5.25,2.79-10.18,4.19-15.19a51.1,51.1,0,0,1,8.26-16.93,35.74,35.74,0,0,0,3.9-5.69l1.65-.34A43.92,43.92,0,0,1,641.65,329c4.16-2.5,7.34-6.4,11.44-9a135.63,135.63,0,0,1,26.6-10.73c6.5-.21,13.1-.5,19.49.72,7.62-.69,14.17,3.71,21.55,4.4,7.6,2.48,13.71,8,20.71,11.66,3.23,2.71,5.81,6.19,9.63,8.13l-.64,1.34-2.16-1.18c-.19.36-.59,1.08-.79,1.44L753,339c0,.43.13,1.31.18,1.75,2,1.46,3.91,2.84,5.78,4.35-.51,1-1,1.95-1.56,2.9.58,1.25.79,2.76,1.78,3.71,2.81,1.83,4,5.19,6.72,7a22.39,22.39,0,0,0-1.93,2.34,15.71,15.71,0,0,0,1.89,2.7v2.15a3.61,3.61,0,0,1,3.5,3.69q-1.25.44-2.46,1a12.79,12.79,0,0,0,1.59,6.85l1.49-1.71c1.88,3.49,2.12,7.69,1.75,11.61l-2.37.12a41.34,41.34,0,0,0-1.19,4c-.41.24-1.23.74-1.64,1a53.78,53.78,0,0,0,2,6.19l2.11-2.49a7.87,7.87,0,0,1-.81,9.37,16.54,16.54,0,0,0-2.31-4.25c-.47,1.37-.88,2.74-1.34,4.08.18.42.54,1.26.71,1.67-.3.23-.92.67-1.23.89-.34,1.74-.93,4.7-3.32,3.66a17.1,17.1,0,0,0,.8,3.13c-.42,1.54-.82,3.07-1.22,4.6,1,.56,2.06,1.08,3.09,1.59a27.35,27.35,0,0,0-.3-3.22c.7-.8,1.44-1.57,2.19-2.34.39.94.75,1.87,1.12,2.79-2,4.08-3.42,8.48-6,12.28a5.19,5.19,0,0,1-3.2,1c.31,1.07.64,2.12,1,3.14a7.75,7.75,0,0,1-4.82,4q-1.71,2.46-3.38,4.9m3.61-8.8-2.29-1.25a21.83,21.83,0,0,1-4,6.89l-2.52,0c-1.55,1.86-2.9,4.36-5.36,5.05l-.49.36c2.67,2.89,7.29.61,8.47-2.55,1.3-3.34,4-5.67,6.15-8.46m.18-3.64c-1,1-.86,1.62.5,1.89,1-1,.87-1.59-.5-1.89m-17,19.67c-1.13.31-2.27.65-3.41,1,.55.78,1.1,1.52,1.66,2.25.6-1.06,1.19-2.14,1.75-3.24m-13.83,9.71c-1.57-1.16-3-2.46-4.61-3.64-1,2.87,1.33,4.25,3.84,5.07.19-.35.57-1.07.77-1.43m26.25-56.81c-.84-.85-1.41-.69-1.71.5.82.79,1.39.63,1.71-.5m-35,59.44L712.2,461l-2,3.66c.93.48,1.85.95,2.76,1.4.91-1,1.87-2,2.82-3M748,396.2c-1.31-.56-2.61-1.75-4.16-1.17-1.26,1.44.08,3.1,1.52,3.55A5.58,5.58,0,0,0,748,396.2m-40.87,68.2c-1.13.08-1.12,2.1,0,2s1.36-2.32,0-2m-4.32,2c-1,1-.86,1.62.5,1.89,1-1,.87-1.59-.5-1.89m39.62-72.47-1.9-.65a41.81,41.81,0,0,1-4.3,2l-2.11-1.13-.81,1.65c2,1.4,4.17,1.36,6.4,1.49.85-1.15,1.76-2.28,2.72-3.36M705,451.34c-1.1.64-.05,2.51,1,2.1,1.35-.61.11-2.5-1-2.1M691.39,463c-.81-.77-1.38-.59-1.71.49.85.89,1.43.72,1.71-.49m25.75-51.12c-1.35.46,0,2.17,1,1.71s0-2.25-1-1.71m34.91-61.08c-.94-.52-1.88-1-2.83-1.6l-.81,1.45c1,.55,1.89,1.08,2.82,1.6l.82-1.45m-38.94,50.88,1.3.3c1.33-1.43-2.59-2.09-1.3-.3m5.82-12.21L716,387.84a8.64,8.64,0,0,0-.57,3.42,16.6,16.6,0,0,0,3,.92c.16-.9.32-1.81.47-2.73M669.4,463.94c-.81-.76-1.38-.59-1.7.5.84.89,1.42.72,1.7-.5m64.06-116.82c-1.55-.6-3.16-1-4.74-1.59-.06.85-.1,1.68-.08,2.5a27,27,0,0,0,4.72,1.5,19.19,19.19,0,0,0,.1-2.41m-43.29,70c-.52,1.87,0,3.42,1.92,4,.53-1.86,0-3.41-1.92-4m.64,4.18-3.53-2c-.21.36-.61,1.08-.82,1.45l3.54,2,.81-1.45m-6,8.29c-.37-1-2-1.85-2.87-.85-.66,1.63,2.63,2.58,2.87.85M708,380.43c-.84,2.35.68,3.6,2.71,4.29.84-2.34-.67-3.57-2.71-4.29m-42.62,74.26-2.83-1.59-.81,1.44c1,.55,1.89,1.08,2.83,1.6l.81-1.45M675.34,431c-1.65.38-1,3.21.61,2.17a1.14,1.14,0,1,0-.61-2.17m-11.05,2.4c-.81-.76-1.39-.59-1.71.5.85.89,1.42.71,1.71-.5m33-60-2.12-1.2c-.3.55-.92,1.63-1.22,2.18l2.12,1.19,1.22-2.17m-40.64,64.95c-1.34-1.21-3.26-.9-4.76-.07a54,54,0,0,0,4.73,2.77,20.22,20.22,0,0,0,0-2.7m.48-18.87a7,7,0,0,0-2.91-.07l-2-.68-.41.61,2.74,1.62c0,.45,0,1.36,0,1.81l2.36,1.18a24.63,24.63,0,0,0,.25-4.47m44.42-104.13a6.73,6.73,0,0,0,4.36,2.45c-.14-1.35-3.1-3-4.36-2.45m-33.1,63.12c-.87.89-.72,1.46.46,1.71.78-.82.63-1.4-.46-1.71m31.29-58.74c-.87.89-.72,1.46.46,1.72.78-.83.63-1.4-.46-1.72m-63.63,102c-1.53.44-2.49,1.73-3.41,3a30.74,30.74,0,0,0,2.11,3.33,23,23,0,0,0,1.3-6.29M696,318.24c-1.45-.82-3-1.84-4.64-.73,1.46.86,3,1.87,4.64.73m-12.82,19.5-5.32-1.62c.22,2.36.37,5.59,3.9,5.55a37.47,37.47,0,0,0,1.42-3.93M646.65,362c-2.27-1.14-5-1.07-7.48-1.19-1.24,3,1.36,6.25,3.84,7.69l1.33-.54c.46-1.61,3.41-3.84,2.31-6m17.09-31.44c-1-.51-1.9-1-2.86-1.57l-3.67,4.2c-1,.11-1.93.24-2.9.39l2.14,1.56c-2,1.6-2.91,4-3.55,6.39.91.58,1.83,1.13,2.74,1.67a137.66,137.66,0,0,0,8.1-12.64M629.9,352.82c-1.34.64-.09,2.54,1.06,2.1,1.11-.61.07-2.48-1.06-2.1"></path><path class="cls-1" d="M767.9,414a13.71,13.71,0,0,0,1.11-5.21c-1,1.46-1.93,2.94-2.87,4.43l1.76.78"></path><path class="cls-1" d="M770.41,393.45c1-.44.9-2.84-.49-2.41-1.64.28-1,2.78.49,2.41"></path><path class="cls-1" d="M770.46,375.34c1.11-.6.07-2.47-1.05-2.1-1.34.64-.1,2.54,1.05,2.1"></path><path class="cls-1" d="M688.2,470.21c.65-1.16-1.5-2.09-2.1-1-.63,1.29,1.41,2,2.1,1"></path><path class="cls-1" d="M241.61,652.68l-1.57-1.4-.51-1.6c-2.84-2.4-2.63-6.3-2.12-9.61-3.22-2.88-6.81-7.13-5.9-11.65-.38-6.58-2-13-2.64-19.56.83-6.5,1.89-13.07,4.34-19.18,1.64-6.39,3.85-12.83,8.23-17.91,4.11-6.66,6.67-15.5,14.61-18.61,2.82-.79,3-4,5.05-5.73,5.07-3.06,9.54-7.28,15.41-8.93a32.13,32.13,0,0,0,11.2-4.93c4.86-.35,9.53-2.26,14.49-1.79,2.22.34,4.17-.85,6.14-1.67l2.07.9,1.58-.54c3.73,1.35,7.84,1.25,11.75,1l4.89,2.33c.87-.3,1.79-.61,2.71-.94q2.73,1.29,5.58,2.49a148.53,148.53,0,0,1,27.22,16c.08.43.23,1.29.31,1.72,3.3,2.13,5,5.83,8.3,8,.11.41.32,1.22.42,1.62,1.8,1.48,3.8,2.81,5.53,4.43a5.89,5.89,0,0,0,1.1,4c2.18,3.32,3.86,6.92,5.8,10.38.81,8.2,6.51,16.18,3,24.39A26.56,26.56,0,0,0,390,609c.38,3.21-.29,6.4-.16,9.59.34,6-2.21,11.69-4.77,16.87l.6,1.61c-1.48,5.7-3.56,11.2-7.29,15.81a50.92,50.92,0,0,0-3.42,4.42c-2.42-.54-2.79,3.91-3.58,4.67-.58,2.75-3.44,3.82-4.84,6a59.1,59.1,0,0,1-6.23,7.79l-1-1.61c-1,1-2,2-3,3a18.53,18.53,0,0,1-5.53-2.93l-1.22,1.91c.93.58,1.9,1.14,2.88,1.69-.57.91-1.11,1.79-1.63,2.67-1,.16-1.95.33-2.88.47l-1.3,1.77-2.73.71a3.29,3.29,0,0,1-4.59,1.17l-1.24,1.72c-.81.05-1.6.08-2.36.1-4.75,2.7-10.39.63-15.5.51l-2.4,2,2.2,1.44c-1.92.34-3.85.56-5.71,1l-2-.72c-1,.3-1.86.56-2.75.81-2.35-.61-5.09-.36-6.84-2.31-1.12.84-2.24,1.63-3.34,2.41-1-.61-2-1.22-3-1.87,1.55-.93,3.22-1.67,4.71-2.75a28.1,28.1,0,0,0-3.25-.68c-2,.63-3.32,2.34-5.13,3.24a18.9,18.9,0,0,1-5.29-1.63l-1.59.55c-8.87-3.35-17.09-8.24-25-13.43-7.45-6.41-15.2-13.22-19.32-22.26m23.92,21.46a26.35,26.35,0,0,0,2.79-2.71c-.65-.76-1.29-1.55-1.88-2.34-1.45,1.18-3.81,4.07-.91,5m-11.43-9.21c-.25-1.55-1.38-2.6-2.49-3.61a14.31,14.31,0,0,0-.62-4.05c-.75,1-1.46,2-2.14,3a17.63,17.63,0,0,0,5.25,4.63m9.76-5.2c-.85,1.37-2.54,4.1-3.39,5.45,3.47,1.21,4.65-2.87,3.39-5.45m50.22,29c.56-.94,1.15-1.92,1.76-2.89-.92-1.18-1.83-2.35-2.81-3.45.29,2.12.74,4.23,1.05,6.34m-40.65-25a40.35,40.35,0,0,0,3-3.61c-.16-1.52-2.15-3.09-3.42-1.76-.62.94-1.84,2.84-2.46,3.78.94.55,1.91,1.08,2.92,1.59m9.06,2.31c.51-.88,1.05-1.77,1.62-2.68L282,662c-1.52,1-4.14,2.24-4.26,4.16,1.58-.07,3.18-.13,4.8-.17m43.67,14.23a9,9,0,0,1,6.35.86c.87-1.86,2.53-4.12,3.56-6.11-.47-.66-.94-1.33-1.37-2,2.21-2.09.57-4.35-.24-6.42-1.31.69-2.61,1.35-3.92,1.91a41,41,0,0,0-2.71,5c-.51,1.2-1.54,3.59-2.06,4.79l-2.28.19c.66.94.68,3.07,2.67,1.76m8.11,6c.6-.89,1.18-1.82,1.76-2.78a27,27,0,0,0-1.74-2.19,9.74,9.74,0,0,0,0,5m-79.73-49.66c-.68-1.46-2.68,0-2.13,1.16.63,1.49,2.61.08,2.13-1.16m68.93,40.69c.19-2.47,4.13-4.75,3.15-7.6-1-.35-2.05-.57-3-.86.28-.55.84-1.61,1.12-2.16-.73-1.25-1.41-3.66-3.28-3.08-1.78.32-1.38,2.44-1.16,3.7l-.69,2,1.81,1.25c-.37,2.53-3.14,6.32,2.08,6.76M293,658.83c.87-.6,1.73-1.27,2.6-2l-3.3-1.85c-.13,1.31-1.51,3.72.7,3.82m-3.11-9.05c-1.29-.61-2,1.41-1,2.09s2.06-1.48,1-2.09m28.36,15.08,1.05-2.07c-.41-.88-.78-1.78-1.14-2.68-1.25.81-2.47,1.63-3.63,2.49Zm-2.16-10.19c1.91-2.33,3.74-4.78,5.46-7.32a22.25,22.25,0,0,0-2.17-2.64c-1.2,1.95-2.34,3.88-3.41,5.81.18.4.55,1.19.73,1.58-.24.87-.44,1.73-.61,2.57M334.76,656c-.35-2.26-1.46-4.32-2.31-6.43-2.25,1.09-1.88,3.3-1.52,5.34-1.25,2-2.13,3.52-3.33,5.34,3.92,1.44,3.52-5.3,7.16-4.25m3.1,7c-.07.33-.22,1-.3,1.29,1.39,1.34,2.07-2.58.3-1.29m25.86,6c.32-1.17.69-2.34,1.1-3.52-.42-.68-.8-1.36-1.15-2.06,1.13-2.51.55-5.21-.39-7.74.75-1.93,2.28-4.24,3.28-6.26l.73.33c-.28.62-.86,1.85-1.14,2.47a31.28,31.28,0,0,0,5,.8c.59-1.73,1.24-3.48,2-5.27-.83-1.81-3.11-2.71-3.28-4.82a32.16,32.16,0,0,0-6.8-1c-.76,3.87-.07,8.05-2,11.62a38.86,38.86,0,0,0-9.25,8.65c.56.72,1.13,1.43,1.72,2.14-.28.54-.83,1.61-1.1,2.15a39.92,39.92,0,0,1,4.88,2.57c-.55,1.1-1.06,2.2-1.55,3.28,3.43,2.28,4.7-3.11,8-3.36m-60.67-31.86c-1-.72-2.06-1.42-3.06-2.14-.29.59-.87,1.77-1.15,2.37a11.07,11.07,0,0,0,4.21-.23m12.09,6.32c1.32-2.07,3.58-4.67,1.32-6.92-1.09,1.85-3.26,5.57-4.36,7.42,1-.15,2-.33,3-.5m-32.29-18c.55-2.58,5.29-5.82,1.95-8.4-1.07,2.21-1.76,4.63-3.5,6.41.49.67,1,1.34,1.55,2m43.46,23.56,1.68-4.76c-1,.15-2.05.3-3,.42q-.84,1.38-1.62,2.7c1,.56,2,1.11,3,1.64m28.25,6.82a32.83,32.83,0,0,0-2.11-2.55c-1.64,2.35-2.93,4.26-4.58,6.42,2.49-.67,4.61-2.38,6.69-3.87m-18.17-8.37c-1-1-1.61-.84-1.87.5,1,1,1.56.87,1.87-.5m7.55,6.4,2.8-4.77c-1.36.14-3.08-.19-4.07.83-.33,1.4.76,2.7,1.27,3.94M262,597.27a1.77,1.77,0,0,0-.61,2.76c1.45.6,2.15-2.59.61-2.76m83.47,47c1-3.25,3.28-5.86,5.13-8.66-1.91.41-3.46,2.43-5.47,1.8a23,23,0,0,1,.15-2.86,5.46,5.46,0,0,0-4.16-.15c-1.27,2.48-1.54,5.38-1.72,8.12,1.21.78,2.26-.31,3.36-.8l2,.93c-.52,1.1-1,2.19-1.45,3.27.87-.31,1.88-.57,2.14-1.65m-26-15.15c1.06-1.29,2-3.74-.13-4.56-.84,1-2.49,3-3.32,4a6.45,6.45,0,0,0,3.45.51m21.76,3.06c-1.36.94-2.66,1.92-4,2.8.17-.44.53-1.33.7-1.77l-1.63-.78c-1.44,2.07-.85,3.94-1.06,6.07,3.87,1.1,4.29-3.89,6-6.32m-39.9-15c.74-.8.57-1.37-.49-1.7-.9.86-.73,1.43.49,1.7m25,14.51c.8-1.2,1.61-2.43,2.42-3.67l-1.8-.78a6.41,6.41,0,0,0-.62,4.45m-38.61-24.9q.75-1.38,1.59-2.82l-1.44-.81c-.56,1-1.08,1.9-1.59,2.82l1.44.81m47.14,25.59c4-3.16-.28-6.48-2.53-8.43-.71-1-1.51-2.82-3-1.89a32.32,32.32,0,0,0-1.08,3.61c2.41,2,4.36,4.53,6.62,6.71M302.2,600.89a45.21,45.21,0,0,1,3.34-5l3-4.48c-1.26-.51-2.51-1-3.76-1.42a45,45,0,0,0-1.89-5.41,7.28,7.28,0,0,0-5.63.58c-.62,1.19-1.37,2.29-2.05,3.39,1.69.7,3.43,1.28,5.13,2-.14.89-.24,1.78-.31,2.66.52.29,1.55.89,2.06,1.19q-1.09,2.67-2,5.33l2.09,1.13m-7.88-10.5a3.25,3.25,0,0,0-1.67,2.89c1.34.85,3.61-2.28,1.67-2.89M379.54,637c0-.86,0-1.74,0-2.62-1.33-.86-2.75.08-4,.35,1.28.8,2.62,1.56,4,2.27m-32.65-20.28c.74-.8.57-1.37-.49-1.7-.9.86-.73,1.43.49,1.7m-21-15.53c3.93-3,.16-5.47-1.94-7.33a24.57,24.57,0,0,0,.07,3c-.21,1.06-.37,2.1-.49,3.13l2.36,1.22m-28.15-19.33c-1.09-1-2.58.69-1.49,1.67,1.06,1.39,2.55-.66,1.49-1.67m-7.29-3.56a24.25,24.25,0,0,0,.86-3.65c-.4-1.7-2-2.75-3-4.08q-1.79,2.94-3.4,5.85a6.27,6.27,0,0,0,5.53,1.88m69.29,34.51c-1.21-1.29-2.91.62-1.74,1.76,1,1,3-.72,1.74-1.76m-55.83-33.25q.75-1.38,1.59-2.82l-1.43-.81c-.56,1-1.09,1.9-1.6,2.82l1.44.81m5.82-6.85c.1-1,.12-2.09.12-3.16.71-2.08.74-3.73,1.91-5.91l1.85.79c1.34-1.37,2.24-5.46-.2-6.53-2.24,1.7-5,4.08-4.56,7.11-.09.49-.28,1.48-.38,2,.41,1.9-.25,4.21,1.26,5.72m4,1.23q1.74-2.18,3.52-4.46l-2.2-1.38c-1.49,1-4.05,2.29-4.28,4.08,1,.6,1.94,1.19,3,1.76M359,595.68c-1.22-1.29-2.92.63-1.75,1.76,1,1.06,3-.71,1.75-1.76m-77.21-45.87q-1.6-.52-1.38,1.29,1.51.57,1.38-1.29M292,552.9c-.52-1.49-2.34,0-1.77,1.07.55,1.44,2.42.07,1.77-1.07m19.78,1.26c2.52-1.91,1.31-4.64.2-6.72-.83,1.28-2.48,3.85-3.3,5.13,1,.55,2,1.08,3.1,1.59m47.4,23.7c-.31-1.51-2.83-.73-2.4.65.4,1.62,3.05,1,2.4-.65m-42.95-22.5c2.61-2.89,4.51-6.58,3.52-10.54-.58-.31-1.73-.94-2.31-1.24a15.39,15.39,0,0,0-1.21,11.78m10-3.92c-1.19-.57-1.6,1.42-.76,2,1.14.61,1.53-1.38.76-2"></path><path class="cls-1" d="M381.78,419.19a7.78,7.78,0,0,1-1.08,6.2c-1.06.2-2.14.45-3.22.71a5.15,5.15,0,0,1,.7,3.29c-2,4.14-5.11,7.53-7.63,11.35-1,.14-2,.29-3,.42.29-1,.59-2.06.93-3.06a30.13,30.13,0,0,0,2.93-1.35c-.95-.64-1.92-1.28-2.92-1.89l-3.37,3.35a17.63,17.63,0,0,0-3.11.88c2.1,1.55-.18,3.54-1.51,4.71,0,.38-.11,1.13-.15,1.51l-1.8.22c-.94,1.07-1.92,2.11-2.87,3.19a16,16,0,0,0,4.83-.12,7.86,7.86,0,0,1-7.7,5.39c.27-.77.82-2.31,1.1-3.08a55.39,55.39,0,0,0-6.34,1.4c0,.48,0,1.43,0,1.91a41,41,0,0,0-2.86,3l1.08,2.12c-3.2,2.28-7,4.17-10.92,4.29.18-.54.54-1.61.73-2.15a12.8,12.8,0,0,0-6.73,2.05c.09.88.22,1.76.38,2.62A3.6,3.6,0,0,1,324.3,465l-1.86,1.08a15.56,15.56,0,0,0-3.29-.29,24,24,0,0,0-1.06,2.84c-3-1.47-6.45-.79-9.44-2.31-1.32-.37-2.73.19-4.1.31-.56.94-1.15,1.88-1.74,2.81-2.24-.87-4.41-1.86-6.66-2.83l-1.6.72c-1.84-1.06-3.69-2.1-5.57-3.16-.2.35-.63,1-.84,1.4l2.1,1.28-.85,1.23c-3.59-2.34-7.89-2.84-11.85-4.28-6.66-4.24-14.51-6.76-20.45-12.1-4.29-6.06-11.38-9.52-14.59-16.46-4.25-4.93-7.3-10.8-10.37-16.52a136.45,136.45,0,0,1-4-28.41c.22-4.86,2-9.56,2.09-14.41a43.88,43.88,0,0,1,4.86-14c-.13-.4-.4-1.2-.54-1.6a35.39,35.39,0,0,0,3-6.22A51.13,51.13,0,0,1,248,338.46c3.65-3.71,6.61-8.44,11.06-11.22a44,44,0,0,0,5.93-5.3,14.34,14.34,0,0,0,5.43-4.54c5.94.18,10.36-4.62,16.05-5.16,1,.23,2.07.43,3.1.6.56-.89,1.13-1.77,1.72-2.63a73.1,73.1,0,0,0,9.81.73c.32-.46,1-1.39,1.3-1.86,5.7,1.64,11.75,1.05,17.61,1,8.79,1.39,16.77,5.48,24.88,8.81,4.84,2.58,10.2,4.63,13.79,8.94,5.54,3.51,8.38,9.94,14.17,13.1-.19.49-.56,1.48-.74,2a15.77,15.77,0,0,1,1.4,5.77l2.26,1.34a17.59,17.59,0,0,1,2.36-.27c2,3.35,4.46,6.69,4.46,10.8,1.26,1.56,2.51,3.22,2.55,5.34,2.47,4.26,2,9.51,3,14.23-.64,4-.07,8,.58,11.89-.47,2.37-.82,4.77-1.51,7.1,0,4.15-.65,8.44-2.8,12.12a2.35,2.35,0,0,0-.07,2.56q-1.29,2.67-2.56,5.38m1-7.4c2.14-2.61,1.8-7.74-2-8.61l-.06.6c.62,2.48-.87,4.89-1.7,7.17.44.72.87,1.44,1.3,2.16a22.29,22.29,0,0,1-4,6.88l2.22,1.35c1.36-3.21,2-6.76,4.26-9.55m-5.44,11c-.91-1-1.53-.88-1.88.51.94,1,1.57.87,1.88-.51m8.6-27.17c-.92-.12-1.84-.22-2.78-.31.27,1.16.55,2.31.85,3.45.67-1,1.3-2.09,1.93-3.14m.41-15.08c-2-1.76-4.31-3.05-6.3-.79,1.8.78,3.66,1.4,5.45,2.18l.85-1.39M349,431.35c-.87.85-.73,1.43.43,1.73.81-.84.67-1.41-.43-1.73m35.56-62.28c-.85-.57-1.71-1.13-2.59-1.68L379.81,371l3.57,2c.38-1.32.76-2.64,1.18-3.94m-42.24,61.84c-1.12-1-3.22-1.36-3.84.45.27,1.64,1.95,2.17,3.09,3a5.67,5.67,0,0,0,.75-3.48m39.6-67c-.46-1.06-2.22-.06-1.72,1,.39,1.37,2.13,0,1.72-1m-.29-4.28c-.91-1-1.54-.88-1.88.51.94,1,1.56.88,1.88-.51m-43.29,67c-1.23-1.86-2.28-3.77-4.48-4.79-.26.38-.78,1.14-1,1.53.51.3,1.52.93,2,1.25a41.55,41.55,0,0,1,.42,4.73l1.51,1.32c.46-1.37,1-2.72,1.55-4m31.82-57.26c-.2-1.16-2.34-1.13-2.35.14.23,1.21,2.49,1.34,2.35-.14m.52-19.16c-.78.83-.64,1.41.42,1.73.91-.85.78-1.44-.42-1.73m-29,49.55c-.1-1.08-2.23-1.37-2,0,0,1.15,2,1.15,2,0m-36.56,59.38-2.79-1.65-.85,1.43,2.8,1.65.84-1.43m24.66-56.76-.91-1c-2.2-.23.34,2.84.91,1m-6.44,8.4a15.91,15.91,0,0,0-2.32-2.17,8.8,8.8,0,0,0-2.68,2.2l2.86,1.75,2.14-1.78m37.19-80.09c-.78.82-.64,1.4.43,1.72.91-.85.77-1.43-.43-1.72M293.84,445.05a27,27,0,0,0-3.66-3.34c-.72.4-1.42.84-2.12,1.32,1.29,1.08,2.45,2.27,3.74,3.31a20.79,20.79,0,0,0,2-1.29m41.29-71.49c-1.42-1.42-3-1.08-4.38.3,1.45,1.42,3,1.08,4.38-.3m.41-2.66c-1.15-.69-2.31-1.38-3.49-2.06l-.85,1.43c1.18.68,2.35,1.37,3.5,2.06l.84-1.43m1.18-9.94c-.45,1.21,1.12,2.23,2.17,2.05,1.38-1.07-1.1-3.44-2.17-2.05M313,407.87c-1.62-1.41-3.45-2.1-5.07-.2,1.64,1.41,3.47,2.1,5.07.2m38.78-75.67-2.8-1.65-.84,1.43q1.43.82,2.79,1.65c.22-.36.64-1.07.85-1.43m-14.25,21.32c.08-1.95-2.67-1-2.18.56a1.14,1.14,0,1,0,2.18-.56m-6.05-11.94c-.78.83-.64,1.41.42,1.73.91-.85.77-1.44-.42-1.73m-33.73,58.19-2.1-1.24-1.27,2.15,2.1,1.24,1.27-2.15m37-66.9c-1.53-1-3.13-1.88-4.77-2.71,0,1.71.72,3.53,2.44,4.08a21.56,21.56,0,0,0,2.33-1.37m-14.69,8.77-2.2-1.45-1.56.93c-.91-.52-1.83-1.05-2.77-1.57l-.33.66,1.6,1.4a6.84,6.84,0,0,0,1.52,2.48,24.58,24.58,0,0,0,3.74-2.45m-67.41,95.54a6.74,6.74,0,0,0-4.3-2.54c.13,1.37,3.06,3.1,4.3,2.54m35.52-63.24c-.81-.89-1.38-.74-1.71.47.81.79,1.39.63,1.71-.47M253,430.41c-.81-.89-1.38-.74-1.72.46.82.79,1.4.63,1.72-.46m59.61-109.92a30,30,0,0,0-3.93-.17c-.61,1.41-1.25,2.89-.86,4.44a22.94,22.94,0,0,0,4.79-4.27M245.13,424.71c-.15,2,1.52,2.81,3,3.65.17-2-1.49-2.82-3-3.65m16.12-20.4c-1.73-3.07-4.6-1.58-6.76-.6,1,1,3.05,2.85,4.06,3.8a34.11,34.11,0,0,0,2.7-3.2m4.06-45.58c-.05-.35-.16-1.07-.2-1.42-2.49-1.43-6.58-2.07-8.58.52,1.36,2.11,2.65,4.49,4.77,5.88,2.39-.11,2.85-3.78,4-5m-15.8,22.17c-.91-.52-1.85-1-2.81-1.55-1.76,1.77-3.4,3.71-3.76,6.28l-2.42-1.08c.36.92.73,1.82,1.11,2.71-.6,1.76-1.2,3.51-1.8,5.28.94.56,1.87,1.12,2.78,1.69a134.54,134.54,0,0,0,6.9-13.33m-2.2-27.23c-.19-1.22-2.46-1.34-2.35.14.24,1.16,2.38,1.13,2.35-.14"></path><path class="cls-1" d="M366.93,442.74a13.8,13.8,0,0,1-4,3.56c.77-1.59,1.59-3.14,2.4-4.7l1.57,1.14"></path><path class="cls-1" d="M350.4,455.18c.12,1.08-2,2.19-2.33.78a1.23,1.23,0,0,1,2.33-.78"></path><path class="cls-1" d="M334.75,464.27c0,1.26-2.11,1.3-2.35.14-.12-1.48,2.15-1.36,2.35-.14"></path><path class="cls-1" d="M375.77,345.6c-.68,1.14-2.55-.25-1.92-1.32.8-1.19,2.42.23,1.92,1.32"></path><path class="cls-1" d="M745.37,552.06l1.88.94c.23.36.67,1.07.91,1.42,3.36,1.58,4.17,5.4,4.53,8.73,3.86,2,8.42,5.12,8.72,9.73,2.07,6.25,5.27,12,7.61,18.21.88,6.49,1.56,13.11.77,19.65.07,6.59-.4,13.38-3.32,19.43-2.24,7.49-2.42,16.69-9.3,21.75-2.51,1.5-1.89,4.63-3.39,6.85-4.1,4.27-7.33,9.5-12.57,12.61a32,32,0,0,0-9.54,7.66c-4.6,1.59-8.62,4.65-13.54,5.48-2.23.24-3.8,1.9-5.49,3.2l-2.23-.33-1.39.93c-4-.34-7.9.82-11.62,2.06l-5.32-1c-.77.51-1.57,1.05-2.38,1.61q-3-.54-6-1a148.76,148.76,0,0,1-30.42-8.36c-.19-.4-.56-1.19-.75-1.58-3.73-1.21-6.34-4.34-10.08-5.57-.21-.36-.62-1.09-.82-1.45-2.13-1-4.4-1.73-6.5-2.85a5.76,5.76,0,0,0-2.08-3.55c-3-2.65-5.52-5.69-8.29-8.53-2.91-7.71-10.48-13.95-9.18-22.79a27.14,27.14,0,0,0-2.2-2.69c-1.21-3-1.38-6.26-2.33-9.31-1.88-5.69-.89-11.86.24-17.53l-1-1.4c0-5.89.55-11.74,3-17.16a47,47,0,0,0,2.16-5.15c2.47-.11,1.68-4.5,2.26-5.44-.16-2.8,2.32-4.58,3.11-7a60.65,60.65,0,0,1,4-9.14l1.35,1.31c.73-1.21,1.46-2.41,2.11-3.61a18.67,18.67,0,0,1,6.1,1.39c.17-.54.5-1.62.68-2.16-1.05-.32-2.13-.61-3.22-.89.31-1,.61-2,.88-3l2.66-1.2.8-2,2.45-1.4a3.3,3.3,0,0,1,4.13-2.31c.19-.5.57-1.49.75-2,.77-.26,1.53-.5,2.26-.71,3.88-3.84,9.87-3.3,14.84-4.51.61-.88,1.21-1.73,1.8-2.54l-2.5-.83c1.77-.83,3.58-1.54,5.26-2.45l2.13.18,2.45-1.5c2.43,0,5-1,7.21.47.86-1.1,1.74-2.15,2.61-3.2,1.14.32,2.26.66,3.35,1-1.25,1.3-2.68,2.44-3.84,3.88a27.57,27.57,0,0,0,3.32-.19c1.76-1.12,2.61-3.12,4.12-4.46A18.53,18.53,0,0,1,692,530l1.4-.94c9.43.93,18.65,3.53,27.59,6.5,8.85,4.28,18.1,8.84,24.42,16.51m-28.66-14.54a28.36,28.36,0,0,0-2,3.34c.83.57,1.65,1.16,2.43,1.78,1.09-1.52,2.63-4.92-.43-5.12m13.43,5.94a6.44,6.44,0,0,0,3.34,2.84,14.13,14.13,0,0,0,1.64,3.76c.47-1.18.89-2.34,1.28-3.49a17.44,17.44,0,0,0-6.26-3.11M722.06,551l1.85-6.14c-3.66-.26-3.75,4-1.85,6.14m-56-15c-.3,1.06-.61,2.15-.95,3.25,1.19.9,2.38,1.8,3.61,2.61-.83-2-1.81-3.9-2.66-5.86m45.74,13.63a38,38,0,0,0-1.93,4.25c.55,1.43,2.88,2.43,3.76.81.35-1.06,1-3.21,1.4-4.28-1.06-.29-2.13-.55-3.23-.78m-9.35.11c-.27,1-.56,2-.87,3l2.43.71c1.21-1.32,3.41-3.24,3-5.12-1.51.47-3,.95-4.59,1.4m-45.87-2.44a9,9,0,0,1-6.35.82c-.37,2-1.38,4.63-1.86,6.82.63.51,1.25,1,1.85,1.59-1.6,2.59.57,4.36,1.89,6.14,1.09-1,2.17-2,3.3-2.85a42,42,0,0,0,1.3-5.58c.19-1.29.56-3.87.75-5.16l2.16-.77c-.88-.74-1.46-2.79-3-1m-9.39-3.71c-.35,1-.67,2.06-1,3.15a25.4,25.4,0,0,0,2.24,1.66,9.61,9.61,0,0,0-1.27-4.81M737,570.93c1,1.23,2.6-.66,1.75-1.68-1-1.27-2.54.6-1.75,1.68m-77.11-21.47c.45,2.44-2.76,5.66-1.07,8.16,1.06.08,2.12,0,3.14,0-.12.6-.39,1.77-.52,2.37,1,1,2.31,3.18,4,2.12,1.63-.76.7-2.7.16-3.87,0-.53.11-1.57.15-2.1l-2.07-.74c-.3-2.53,1.39-6.91-3.76-6m34.25,9.95c-.69.8-1.34,1.67-2,2.58,1.24.3,2.46.61,3.66.92-.21-1.29.5-4-1.66-3.5m5.34,7.94c1.41.25,1.55-1.88.43-2.28-1.27-.35-1.6,2-.43,2.28m-31.3-7.23c-.12.56-.35,1.71-.47,2.27.62.75,1.22,1.52,1.8,2.29,1-1.1,2-2.21,2.86-3.34ZM673,569.4c-1.24,2.75-2.37,5.58-3.37,8.49a22.2,22.2,0,0,0,2.77,2c.66-2.19,1.26-4.35,1.8-6.5L673,572c0-.9,0-1.78-.08-2.64M654.55,573c.92,2.09,2.53,3.79,3.89,5.62,1.89-1.64,1-3.68.09-5.56.7-2.22,1.14-4,1.83-6-4.15-.39-2,6-5.81,6m-4.82-6c0-.34,0-1,0-1.32-1.69-.93-1.34,3,0,1.32m-26.53.92c0,1.21-.06,2.44-.15,3.68.58.55,1.13,1.11,1.65,1.7-.45,2.71.82,5.17,2.38,7.36-.23,2.06-1.11,4.7-1.55,6.9l-.8-.13c.12-.66.36-2,.47-2.67a30.39,30.39,0,0,0-5,.51c-.12,1.82-.29,3.68-.53,5.6,1.28,1.53,3.71,1.81,4.42,3.8a32.36,32.36,0,0,0,6.82-.81c-.26-3.94-2-7.8-1.08-11.74a39.27,39.27,0,0,0,6.69-10.75c-.72-.55-1.46-1.09-2.21-1.62.13-.59.38-1.78.51-2.36a40.2,40.2,0,0,1-5.38-1.22c.24-1.21.45-2.4.64-3.57-3.9-1.32-3.73,4.21-6.88,5.32M690.05,583c1.19.42,2.36.84,3.51,1.27.13-.64.38-1.93.51-2.58a11,11,0,0,0-4,1.31m-13.31-3c-.74,2.33-2.25,5.43.52,7,.57-2.06,1.71-6.22,2.28-8.28-.91.4-1.83.83-2.8,1.27m35.86,9.07c.14,2.64-3.6,7,.3,8.62.45-2.41.49-4.93,1.71-7.1-.65-.52-1.32-1-2-1.52m-48.08-11.51c-.09,1.26-.29,3.77-.39,5,1-.42,1.91-.83,2.83-1.2.31-1,.6-2,.87-3-1.08-.3-2.18-.57-3.31-.82m-29,.73c.85.7,1.78,1.3,2.69,1.91,1-2.69,1.73-4.87,2.77-7.38-2.24,1.29-3.84,3.49-5.46,5.47m19.71,3.38c1.22.72,1.77.39,1.67-1-1.18-.76-1.73-.44-1.67,1m-9-4.22c-.37,1.32-1.11,4-1.47,5.33,1.28-.5,3-.62,3.72-1.86,0-1.43-1.44-2.41-2.25-3.47M740,610.86a1.77,1.77,0,0,0-.12-2.82c-1.56-.2-1.41,3.06.12,2.82m-92.78-23.75c-.11,3.41-1.65,6.52-2.71,9.7,1.74-.89,2.71-3.24,4.81-3.16a20,20,0,0,1,.59,2.81,5.46,5.46,0,0,0,4.07-.94c.58-2.72.09-5.59-.44-8.29-1.38-.43-2.11.89-3,1.66l-2.18-.38c.21-1.2.39-2.38.55-3.53-.76.51-1.66,1-1.64,2.13m29,7.9c-.69,1.53-1,4.15,1.31,4.38.55-1.2,1.62-3.58,2.16-4.77a6.46,6.46,0,0,0-3.47.39m-21.81,2.69c1.08-1.26,2.08-2.55,3.15-3.75-.05.47-.17,1.42-.22,1.89l1.78.33c.85-2.37-.19-4-.54-6.13-4-.06-3.14,4.87-4.17,7.66m42.43,4.19c-.51,1-.2,1.47.92,1.51.64-1.06.33-1.57-.92-1.51M669,594.33c-.46,1.36-.92,2.76-1.39,4.17l1.94.29a6.46,6.46,0,0,0-.55-4.46m43.74,14c-.25,1-.51,2.07-.81,3.14l1.6.41c.29-1.07.56-2.11.81-3.14l-1.6-.41m-52.16-12.51c-3,4.08,1.95,6.18,4.62,7.49,1,.8,2.2,2.33,3.4,1a29.68,29.68,0,0,0,.11-3.76c-2.85-1.34-5.38-3.25-8.13-4.77m39.64,21.9a48.14,48.14,0,0,1-1.93,5.68c-.43,1.28-1.3,3.83-1.73,5.1,1.35.17,2.68.32,4,.4a44.49,44.49,0,0,0,3.23,4.74,7.28,7.28,0,0,0,5.28-2c.29-1.31.73-2.57,1.1-3.81-1.81-.23-3.64-.34-5.48-.62-.09-.9-.22-1.79-.38-2.65L702,624c.24-1.92.42-3.8.52-5.67l-2.31-.54m10.33,8.09a3.2,3.2,0,0,0,.86-3.21c-1.51-.48-2.9,3.13-.86,3.21m-94.39-23c.2.84.41,1.69.64,2.55,1.51.48,2.63-.79,3.81-1.39-1.44-.44-2.93-.82-4.45-1.16M653,614c-.51,1-.2,1.47.91,1.52.65-1.07.34-1.57-.91-1.52m24.3,9.57c-3,3.89,1.25,5.32,3.76,6.58a22,22,0,0,0-.84-2.86q-.11-1.6-.33-3.15l-2.59-.57M709.47,635a1.12,1.12,0,0,0,1-2c-1.39-1.07-2.3,1.3-1,2m7.95,1.54a25,25,0,0,0,.12,3.76c.83,1.54,2.62,2.14,3.94,3.16.65-2.2,1.23-4.37,1.78-6.53a6.37,6.37,0,0,0-5.84-.39m-75.86-15.39a1.24,1.24,0,1,0,1.23-2.15c-1.25-.76-2.71,1.47-1.23,2.15m62.54,17.66c-.24,1-.51,2.07-.8,3.14l1.59.41c.29-1.07.56-2.11.81-3.14l-1.6-.41m-3.84,8.12c.17,1,.42,2.05.7,3.09-.15,2.19.25,3.79-.32,6.2l-2-.28c-.93,1.67-.75,5.86,1.89,6.25,1.73-2.22,3.81-5.24,2.56-8,0-.5-.1-1.51-.14-2-.88-1.74-.85-4.14-2.69-5.21m-4.18-.14q-1.11,2.55-2.24,5.21c.62.19,1.85.58,2.48.76,1.19-1.3,3.32-3.26,3.07-5-1.08-.34-2.18-.65-3.31-.93m-49.38-9.25c1.5.93,2.65-1.36,1.22-2.16-1.25-.75-2.7,1.47-1.22,2.16m86.45,24.32c1.12.07,1.45-.47,1-1.6-1.07-.11-1.4.43-1,1.6m-10.64-.34c.88,1.3,2.24-.64,1.43-1.49-.91-1.26-2.36.55-1.43,1.49m-19.44,3.9c-1.94,2.49-.06,4.81,1.55,6.54.47-1.45,1.39-4.36,1.85-5.81-1.11-.27-2.24-.51-3.4-.73m-51.92-10.63c.7,1.38,2.92,0,2.15-1.25-.8-1.46-3.21-.19-2.15,1.25m47.31,10.63c-1.77,3.46-2.65,7.51-.67,11.08l2.55.6a15.36,15.36,0,0,0-1.88-11.68m-8.62,6.36c1.29.24,1.17-1.79.22-2.1-1.26-.29-1.12,1.74-.22,2.1"></path></g></svg>