<svg id="Shapes" xmlns="http://www.w3.org/2000/svg" viewBox="0 0 1000 1000"><defs></defs><g id="Shape_90" data-name="Shape 90"><path class="cls-1" d="M400.29,230.62c1.37,0,3.19,0,4.1,1.27,1.29,1,.94,2.74,1,4.19-.32.34-.63.68-.92,1-.5.4-1,.82-1.43,1.25a4.42,4.42,0,0,1-5.46-2.71,4.7,4.7,0,0,1,2.72-5M399,233.17c.09,1.1-.08,2.29.5,3.28.78.93,2.16.92,3.26.93,1-1.08,2.72-3.07,1-4.34-1.12-1.83-3.42-1-4.71.13"></path><path class="cls-1" d="M466.1,230.59c2.13-.75,4.25.83,5,2.72.65,2.09-1,3.7-2.24,5.13-2.12.16-4.73-.63-5.5-2.83s.8-4.21,2.72-5m-.07,1.46c-.51.54-1,1.07-1.58,1.58a3.19,3.19,0,0,0,3.7,3.75c1.2-1.26,2.11-2.75,1.6-4.61a5,5,0,0,0-3.72-.72"></path><path class="cls-1" d="M531.47,230.56l3.56.3c1.52,1.39,2.37,3.79,1.19,5.62-.78.71-1.5,1.7-2.61,1.9a21.58,21.58,0,0,1-2.54-.37c-.64-.65-1.28-1.3-1.92-1.93.09-1.28-.41-2.82.44-4a15.72,15.72,0,0,1,1.88-1.56m0,1.53-1.18,1.12c0,.62,0,1.86,0,2.48.38.39.76.79,1.13,1.19,1,0,1.93,0,2.91,0,.38-.51,1-.91,1.18-1.55.41-1.35-.48-2.34-1.14-3.34-1,0-2,.05-2.93.09"></path><path class="cls-1" d="M596.94,230.58a5.6,5.6,0,0,1,4.71,1.1c1,1.07.88,2.64.8,4a13.63,13.63,0,0,1-1.94,2.34c-1.66-.15-3.74.47-5-1-1.14-.94-1-2.5-1-3.84l.74-.48c0-.26,0-.77.08-1,.54-.35,1.07-.71,1.6-1.11m-1.25,2.59c0,.65,0,1.94,0,2.58,1.13.63,2.13,1.73,3.62,1.2l2.1-1.6a3.38,3.38,0,0,0-2.12-3.62c-1.54-.59-2.58.63-3.61,1.44"></path><path class="cls-1" d="M661.36,231.88c1.72-2.38,5.67-1.42,6.7,1.14,1,2.18-.6,4.51-2.58,5.32-2.1.65-3.77-.92-5.11-2.24.06-1.37-.49-3.31,1-4.22m.94.53c-.45,1-1.33,2-.76,3.23a4,4,0,0,0,3.67,1.74c1-1.2,2.2-2.43,1.59-4.2a8,8,0,0,0-2-1.16,15.15,15.15,0,0,0-2.53.39"></path><path class="cls-1" d="M726.17,232.55c1-1.18,2.38-2.51,4.17-2.07,1.28-.06,2.32.9,3.28,1.65.69,1.78.86,4.06-.92,5.27-1.48,1.77-4.13,1.06-5.74-.12a7.8,7.8,0,0,1-.79-4.73m2.27-.54a11.15,11.15,0,0,0-1.05,1.67c-.56,1.33.44,2.29,1.07,3.27a5.42,5.42,0,0,0,4.13-1.17c0-.64-.06-1.91-.09-2.55-.38-.38-.75-.78-1.11-1.18-1,0-2,0-2.95,0"></path><path class="cls-1" d="M794.5,230.73c1.32-.74,2.63.05,3.78.64.74,1.23,2.09,2.29,1.63,3.95a6.07,6.07,0,0,1-2.75,3.44c-1.8.42-4,0-4.81-1.83-1.68-2.11-.35-5.49,2.15-6.2m.28,1.36c-.41.28-.81.54-1.22.78a3.66,3.66,0,0,0,0,3.57,3.14,3.14,0,0,0,3.95.39c1-.74.89-2.17.88-3.24-1-.88-2.13-1.94-3.63-1.5"></path><path class="cls-1" d="M268.21,231.35c1.5-.92,3.26-.28,4.72.36,1,1.49,2.08,3.69.49,5.21-.88,2.18-3.54,1.24-5.28,1.56-.83-1.27-2.49-2.34-1.87-4.13.29-1.17.64-2.6,1.94-3m-.64,2.42c-.66,1.12.26,2.27.9,3.16s1.91.81,2.85.66a13.2,13.2,0,0,1,1.26-1.52q0-1.42,0-2.85c-.55-.36-1.1-.74-1.62-1.14a3,3,0,0,0-3.42,1.69"></path><path class="cls-1" d="M333.59,231.28c1.26-.12,2.59-.66,3.81-.11,1.43.39,2.06,1.94,2.56,3.2.27,1.24-.7,2.2-1.22,3.22-1.53.81-3.57,1.37-5.12.41-1.05-1-2.46-2.24-1.85-3.94a8.7,8.7,0,0,1,1.82-2.78m-.32,4.34c.33,1.58,2.29,1.89,3.62,1.76,1-1.08,2.72-3.07.95-4.34-1.56-2.65-5.77-.08-4.57,2.58"></path><path class="cls-1" d="M201.62,232.09c1.22-1.32,3.23-.6,4.78-.85a13.19,13.19,0,0,1,2.24,2.81c.46,2.53-1.81,5.3-4.49,4.78-1.47.28-2.35-1.17-3.35-2,.22-1.54-.5-3.55.82-4.76m.3,1.43c0,1,0,2,0,3A4.64,4.64,0,0,0,206,237.7c.81-1.07,1.6-2.26,1.18-3.74a9.64,9.64,0,0,0-2.05-1.48c-1.32-.52-2.27.42-3.25,1"></path><path class="cls-1" d="M660.07,294.61c-.93-2.67,1.63-5,4-5.48,1.55.44,3.54,1.07,4.08,2.81.5,2.13-.19,4.86-2.56,5.52-1.49,1-3.12-.12-4.42-.88a21.43,21.43,0,0,1-1.14-2m1.4.12a9.44,9.44,0,0,0,2,1.49,2.53,2.53,0,0,0,3-1.29,3.33,3.33,0,0,0-1-3.89,3.21,3.21,0,0,0-4.06,3.69"></path><path class="cls-1" d="M334.85,289.63c1.47-.4,2.64.58,3.88,1.11.64,1.15,1.65,2.2,1.25,3.67-.1,1.44-1.55,2.31-2.34,3.4a9.87,9.87,0,0,1-4.83-.76c-.88-1.49-1.72-3.35-.93-5.05.49-1.26,1.94-1.66,3-2.37m-.46,1.84c-.39.38-.78.76-1.19,1.12,0,.62.06,1.83.09,2.45.25.39.5.78.74,1.2,1.38.92,2.8,0,4.08-.68a9.86,9.86,0,0,0,.34-1.85,7.23,7.23,0,0,0-1.53-2.3l-2.53.06"></path><path class="cls-1" d="M400.24,289.55a5,5,0,0,1,4.67,1.95c.8,1.15.41,2.64.45,3.95a9.81,9.81,0,0,0-1.24,1.49,4.82,4.82,0,0,1-5.15.14c-1.73-1.07-1.63-3.36-1.49-5.16.86-.85,1.84-1.58,2.76-2.37m-.75,2.33c-.26.4-.53.79-.82,1.17a3,3,0,0,0,2.26,3.62c1.23.19,2.09-.9,3-1.55-.12-1.11-.21-2.22-.42-3.3a10.54,10.54,0,0,0-2.21-.77,14.67,14.67,0,0,0-1.8.83"></path><path class="cls-1" d="M463.38,291.52c1.12-1.08,2.22-2.59,4.08-2a4.1,4.1,0,0,1,3.78,4.58,3.64,3.64,0,0,1-2.44,3.29h-3.48c-.4-.27-.81-.53-1.22-.76a5,5,0,0,1-.72-5.07m1.26,1.25c-.5.85,0,1.81.26,2.65.92,1.06,2.66.82,3.89.82a12.91,12.91,0,0,1,.88-1.18c-.07-1.15.23-2.49-.62-3.39a2.84,2.84,0,0,0-4.41,1.1"></path><path class="cls-1" d="M531.51,289.62a4.33,4.33,0,0,1,5.43,2.69,4.77,4.77,0,0,1-2.28,5.08c-1.58-.17-3.5.49-4.76-.76-1-1.37-2-3.63-.54-5,0-.21.16-.63.21-.84a15.22,15.22,0,0,0,1.94-1.15m-.88,2.19a7,7,0,0,0-.36,2.87c.63.64,1.26,1.29,1.88,1.95.84-.26,1.69-.49,2.54-.76a3.75,3.75,0,0,0,0-4.47,5.53,5.53,0,0,0-4.07.41"></path><path class="cls-1" d="M596.11,289.94c1.62-.2,3.51-1.11,4.85.31,3.45,1.63,1.75,8.13-2.3,7.21-1.85.64-3.44-.88-4-2.46-.07-.93-.12-1.87-.13-2.81l.73-.47c0-.25.08-.76.1-1l.76-.77m-.06,2.21c0,1,0,2,0,3a3.84,3.84,0,0,0,4.92.39c0-1.13-.08-2.28,0-3.4a12.09,12.09,0,0,0-1.66-1c-1.33-.54-2.26.41-3.24,1"></path><path class="cls-1" d="M727.66,289.84a6.65,6.65,0,0,1,5.17.53A11.36,11.36,0,0,0,734,291.9c-.18,1,.29,2.13,0,3.15a3.69,3.69,0,0,1-4.06,2.39c-1.6.5-2.69-.67-3.75-1.56a22.19,22.19,0,0,1-.4-2.93,22.49,22.49,0,0,1,1.87-3.11m.05,2a6.86,6.86,0,0,0-.42,3.27c.68.51,1.37,1,2,1.53a4.65,4.65,0,0,0,2.41-.41c1-.87.88-2.43.86-3.63a7,7,0,0,0-2.33-1.57,6.92,6.92,0,0,0-2.55.81"></path><path class="cls-1" d="M203.17,289.93a3.94,3.94,0,0,1,4.14,1.35c1.65,1.42,1.25,4,.17,5.65-.4.25-.78.52-1.16.8l-3.54.09a3.92,3.92,0,0,1-2.39-4.18c-.15-1.78,1.58-2.75,2.78-3.71m.43,1.59c-.78.48-1.72.94-2,1.92-.5,1.48.52,2.7,1.53,3.57a3.59,3.59,0,0,0,3.56-1.2c1.46-2-.75-5-3.13-4.29"></path><path class="cls-1" d="M267.84,290.37c2-1.22,5.43-.41,6.08,2a4.12,4.12,0,0,1-3,5.65c-2,.9-3.4-.65-4.71-1.78-.11-1.11-.3-2.22-.38-3.33a5.39,5.39,0,0,1,2-2.58m-.1,1.78a27.2,27.2,0,0,0-.41,3.37,4.54,4.54,0,0,0,4.11,1.17c.4-.53,1-.95,1.2-1.58a7.28,7.28,0,0,0-.8-3.34,23.51,23.51,0,0,0-4.1.38"></path><path class="cls-1" d="M792.63,290.93c1.14-1.56,3.32-.84,5-1.07,1,1.32,2.86,2.5,2.3,4.5a7.93,7.93,0,0,1-2.31,3.44c-1.73.13-3.84.28-5-1.39-1.66-1.37-1-3.92,0-5.48m1.72.5c-.4.4-.79.79-1.2,1.16,0,.64,0,1.91,0,2.54a6.68,6.68,0,0,0,2.26,1.54,10.17,10.17,0,0,0,3-1.14,10.14,10.14,0,0,0-.84-3.73,7.1,7.1,0,0,0-3.25-.37"></path><path class="cls-1" d="M465.26,349a24,24,0,0,1,3.18-.34c1.82.83,3.32,2.67,2.8,4.82.18,1.74-1.51,2.66-2.85,3.29-1.65.7-3-.4-4.3-1.09l-1.17-2.3a4.48,4.48,0,0,1,2.34-4.38m-.84,3.71a6.76,6.76,0,0,0,.48,1.76c1,1.11,2.68.91,4,.44.68-1.07,1.67-2.88.23-3.81-1.41-2.33-4.61-.63-4.67,1.61"></path><path class="cls-1" d="M531.49,348.55c1.41-.28,2.65.41,3.92.83.39.36.78.73,1.19,1.09.16,1.1.31,2.17.42,3.29-.64,1.81-2.46,3.51-4.54,3.08-1.55,0-2.56-1.5-3.75-2.33.18-1.2-.36-2.64.35-3.76a10,10,0,0,1,2.41-2.2m-1.26,5.55c.94,1,2.1,1.8,3.6,1.12,1.58-.33,1.93-2.28,1.7-3.62-.88-.67-1.74-1.76-3-1.57a3.32,3.32,0,0,0-2.33,4.07"></path><path class="cls-1" d="M594.92,350.78c.91-2,3.71-3.13,5.58-1.82a8.93,8.93,0,0,1,2.25,2.72,5.07,5.07,0,0,1-1.16,3.87c-.39.26-.77.53-1.14.82H597a24.77,24.77,0,0,1-2.45-1.83c.26-1.19-.36-2.68.42-3.76m2.79-.66a11.85,11.85,0,0,0-1.66,1c0,1,0,2,0,3,1.07.8,2.23,1.56,3.7,1.15a7.15,7.15,0,0,0,1.57-2.33,2.86,2.86,0,0,0-3.62-2.87"></path><path class="cls-1" d="M662.72,348.58c1.68-.28,3.53-.23,4.75,1.11a17.51,17.51,0,0,1,.81,4.06,3.6,3.6,0,0,1-4.14,2.64l-1.78,0c-.37-.29-.75-.57-1.13-.83a14.59,14.59,0,0,1-1.14-1.89,28.6,28.6,0,0,1,.29-3.2l2.34-1.87M661.49,353a4.69,4.69,0,0,0,1.62,2.27c1.4.47,2.62-.3,3.66-1.09q0-1.49,0-3c-.42-.36-.82-.74-1.25-1.08a3,3,0,0,0-4,2.87"></path><path class="cls-1" d="M726.2,350.45c1.2-1.1,2.65-2.22,4.41-1.94,1.27.5,2.71,1.17,3.27,2.52,1,2.18-.33,5.18-2.82,5.43a3.75,3.75,0,0,1-5.13-2.83,6.6,6.6,0,0,1,.27-3.18m2.85-.21a3.4,3.4,0,0,0-1.83,3.51c1.18.95,2.36,2.22,4.11,1.53.27-.27.55-.53.84-.79.07-1.09-.07-2.24,0-3.32-.9-.63-2-1.62-3.15-.93"></path><path class="cls-1" d="M202,349.69c.85-.18,1.68-.5,2.55-.61a11.94,11.94,0,0,1,2.17.7c1.07.59,1.43,1.84,2,2.83-.11.56-.34,1.68-.46,2.23-.63.64-1.26,1.29-1.88,2a21.86,21.86,0,0,1-4.85-.3c-.64-1.41-1.55-2.84-1.1-4.48l1.54-2.32m.39,1.49a7.13,7.13,0,0,0-.8,2.57,7.59,7.59,0,0,0,1.56,2.35,8.15,8.15,0,0,0,3.79-1.16c-.11-1.27-.24-2.54-.44-3.79a6.79,6.79,0,0,0-4.11,0"></path><path class="cls-1" d="M268.66,349a4.44,4.44,0,0,1,5.41,2.72c.86,2.93-1.91,6.49-5.08,5.41-1.81-1-3.72-2.78-3.15-5.12.7-1.18,1.4-2.6,2.82-3m-.91,2.58c-.14.83-.31,1.65-.37,2.49a12.64,12.64,0,0,1,.85,1.18c1.23.63,3,.73,3.95-.41.74-1.05.21-2.38,0-3.54-.42-.26-.83-.52-1.22-.81-1.29-.39-2.3.41-3.23,1.09"></path><path class="cls-1" d="M332.67,350.27c1.37-1.82,4.76-2.15,6,0l.95.6v3.62a4.1,4.1,0,0,1-6.9,1c-1.44-1.25-1.6-4,0-5.15m1.89.35c-1.54.48-1.53,2.56-1.35,3.83.39.38.78.78,1.16,1.19l2.55.07,1.56-2a2.72,2.72,0,0,0-3.92-3.08"></path><path class="cls-1" d="M399.44,348.91H403c3,1.11,3.37,6.07.5,7.56-.92.52-2,.28-3,.4,0-.29,0-.87,0-1.16l1.47-.05.49-.61,1.5-.48c.37-1.81-.39-4.1-2.36-4.53a8.68,8.68,0,0,0-2.17.83A5,5,0,0,0,399,355c-1.16.13-2.46-.86-1.55-2.32-.74-1.83,1.16-2.58,2-3.74"></path><path class="cls-1" d="M793.85,349.24c1.61-.95,3.5-.17,4.86.83,1.26,1.28.59,3.25.86,4.84a24.24,24.24,0,0,1-2.47,1.83c-1.14,0-2.06.1-3.15,0q-.54-.46-1.08-.87c-.68-1.1-1.74-2.15-1.29-3.62a4.6,4.6,0,0,1,2.27-3.05m.92,1.26c-1.73.4-1.89,2.59-1.67,4,.8.59,1.54,1.55,2.62,1.55,1.71-.5,3.28-2.4,2.46-4.26-.38-1.44-2.33-1.25-3.41-1.29"></path><path class="cls-1" d="M465.43,407.73c2.18-1,3.77,1,5.42,2.08-.07,1.47.36,3.25-.83,4.43-1.71,2.44-6.25,1.81-7.14-1.06-1.27-2.19.7-4.45,2.55-5.45m.16,1.7c-.92,1-1.9,2.18-1.59,3.71a4.37,4.37,0,0,0,4.08,1.14c.39-.4.8-.79,1.21-1.17,0-.62,0-1.86,0-2.48-.39-.39-.76-.78-1.12-1.18l-2.55,0"></path><path class="cls-1" d="M531.52,407.64a5.62,5.62,0,0,1,3.51.74c1.3.95,1.6,2.78,1.53,4.28a8.89,8.89,0,0,1-2.33,2.74l-3.46,0c-1.25-1.19-2.95-2.5-2.44-4.51.13-1.67,1.73-2.76,3.19-3.28m-1.45,5.29c.44,1.41,2.3,1.52,3.5,1.4a5,5,0,0,0,1.56-3,7.24,7.24,0,0,0-1.56-2.32c-2.19-.48-4.52,1.71-3.5,3.92"></path><path class="cls-1" d="M597,407.61c1.79-.67,3.36.45,4.63,1.52.71,1.06.52,2.4.47,3.62a3.71,3.71,0,0,1-4.15,2.72,5.57,5.57,0,0,1-2.95-1.2c-1.91-2.16-.64-5.79,2-6.66M595.22,411a3.37,3.37,0,0,0,4.17,3.4c1-1.08,2.71-3.07,1-4.33-1.43-2.22-4-.59-5.12.93"></path><path class="cls-1" d="M662.34,407.58a16.82,16.82,0,0,1,3.17,0,3.62,3.62,0,0,1,2.36,4.06l0,1.8c-.68.63-1.35,1.28-2,1.94h-1.79a3.58,3.58,0,0,1-4.06-2.39,22.13,22.13,0,0,1,0-3.15,18.93,18.93,0,0,0,1.28-1.41l1.05-.88m-.86,2.58c0,1,0,2,0,3,1.08.8,2.24,1.55,3.72,1.16.77-1.14,1.84-2.22,1.65-3.74l-2.08-1.6c-1.35-.37-2.3.52-3.3,1.16"></path><path class="cls-1" d="M725.8,410c1.19-1.63,3-2.87,5.15-2.36a18.91,18.91,0,0,1,2.75,2.25c.54,2.26-.35,5.22-2.86,5.77-1.55.55-2.94-.26-4.2-1-1-1.33-.92-3.08-.84-4.66m1,2.8,2.07,1.57c.89-.12,2-.25,2.91-.4a5.82,5.82,0,0,0,0-4.05,12.67,12.67,0,0,1-1.23-.76c-2.27-.66-3.84,1.66-3.71,3.64"></path><path class="cls-1" d="M200.87,409.5c1.43-.61,2.73-2.22,4.42-1.24,1.16,0,1.86.91,2.65,1.57a18,18,0,0,1,.38,3.28l-1.12,2.33c-1.38.38-2.87,1.06-4.31.57a3.3,3.3,0,0,1-2.5-2.85c-.9-1.3,0-2.5.48-3.66m1.52.75c-.93.78-.93,2.17-.88,3.27a3.51,3.51,0,0,0,5.29-.07c.42-1.45-.32-2.63-1.13-3.7-1.1.09-2.28-.08-3.28.5"></path><path class="cls-1" d="M268.71,408c2.4-.71,4.17,1.35,5.4,3.09.71,2.09-1.12,3.39-2.27,4.75-1.58.18-3.55,1.12-4.61-.59a4.07,4.07,0,0,1,.18-6.44c.52-.14,1.07-.26,1.3-.81m.31,1.53c-.54.4-1.1.77-1.67,1.13a5.23,5.23,0,0,0,1.14,4.08l2.61,0a6.75,6.75,0,0,0,1.54-2.29,2.91,2.91,0,0,0-3.62-2.89"></path><path class="cls-1" d="M334,407.93a4.58,4.58,0,0,1,5.48,2.77c.65,2.09-.92,3.75-2.23,5.11-1.1-.27-2.42.35-3.48-.22-1.14-.77-2.92-1.77-2.14-3.52-.49-1.9,1.1-3.13,2.37-4.14m.81,1.57c-1.43.56-3,2.12-1.79,3.76a3,3,0,0,0,4.37.77c1.77-1.75.17-5.56-2.58-4.53"></path><path class="cls-1" d="M399.52,408c1.38,0,3-.46,4.27.41s1.56,2.85,1.61,4.37c-.83,2.93-5.36,4.4-7.28,1.68-2.11-1.88-1.07-5.5,1.4-6.46m.31,1.5c-.39.39-.79.76-1.19,1.14,0,.61.05,1.83.07,2.45a15,15,0,0,1,1.19,1.54c.91-.1,1.9-.18,2.83-.29.82-1,1.58-2.22,1.13-3.66-.4-.39-.79-.8-1.17-1.21-1,0-1.91,0-2.86,0"></path><path class="cls-1" d="M794.06,407.94c2.1-.57,4,.58,5.48,1.88l0,1.84c.5,1.58-.63,2.71-1.53,3.76a23.57,23.57,0,0,1-3.3.4l-2.24-1.19c-.23-.42-.49-.82-.74-1.21-.32-1.66-.27-3.49,1.06-4.68.52-.12,1.11-.2,1.3-.8m.25,1.45a7.18,7.18,0,0,0-1.57,2.31,10.94,10.94,0,0,0,.8,2.2c1.31.64,2.73.29,4.1,0,0-1.22.67-2.59-.09-3.67s-2.22-.95-3.24-.88"></path><path class="cls-1" d="M531.54,466.64c1.52-.6,3,.39,4.1,1.27a3.94,3.94,0,0,1-.87,6.17,4.38,4.38,0,0,1-4.41.27,5.9,5.9,0,0,1-2-3,4.53,4.53,0,0,1,3.19-4.71m.31,1.4c-.35.32-.7.63-1.06.93l-.89,1.08c.06.82-.07,2.25.84,2.79a8.38,8.38,0,0,0,3.24.51c.81-1.07,1.58-2.28,1.17-3.74-.92-.83-1.95-1.76-3.3-1.57"></path><path class="cls-1" d="M596.92,466.57a6.39,6.39,0,0,1,3.53.45,5.91,5.91,0,0,1,2,3c.46,1.67-.93,2.71-1.6,4a9.87,9.87,0,0,1-4.28.36,3.72,3.72,0,0,1-2.45-4.09c-.15-1.79,1.58-2.75,2.78-3.71m.31,1.38L595.65,470c-.43,1.55.73,2.64,1.6,3.68a4,4,0,0,0,2.82-.88,13.47,13.47,0,0,1,.82-1.16,3.14,3.14,0,0,0-3.66-3.72"></path><path class="cls-1" d="M660,469c1.17-1.27,2.49-2.95,4.51-2.45,1.43.1,2.3,1.53,3.38,2.33-.23,1.17.4,2.65-.33,3.75a4.41,4.41,0,0,1-3.38,2.09A5.31,5.31,0,0,1,660,472.4c0-.86,0-2.59,0-3.44m2.74-.89c-.4.39-.8.78-1.21,1.16,0,1,0,1.93,0,2.9.51.39.91,1,1.55,1.19,1.33.41,2.34-.48,3.33-1.13,0-1,0-2,0-3-1-.78-2.23-1.57-3.65-1.1"></path><path class="cls-1" d="M725.78,470.68c-.5-2.42,1.9-4.25,4.1-4.11a4.54,4.54,0,0,1,3.49,2.2,4,4,0,0,1-2.08,5.58l-3.56.12c-.83-1.18-2.65-2-2-3.79m3.16-2.56a9.88,9.88,0,0,0-2,1.49c-.32,1.29.47,2.36,1.18,3.31.89.09,1.87.66,2.75.19,1.76-.69,1.89-3.5.48-4.6a3.86,3.86,0,0,0-2.37-.39"></path><path class="cls-1" d="M399.84,467c2.09-.65,3.8.44,5.18,1.87.14,1.61.56,3.34-.48,4.76A12.92,12.92,0,0,1,402,475.2a7.27,7.27,0,0,1-4-1.64,6.4,6.4,0,0,1-.44-4.72c.75-.65,1.55-1.25,2.32-1.89m.8,1.56a3.21,3.21,0,0,0-2.05,3.62c1.12,1,2.37,2.09,4.06,1.53.38-.4.79-.78,1.2-1.16,0-1,0-2,0-2.94-1-.63-1.94-1.6-3.26-1.05"></path><path class="cls-1" d="M463.92,467.92c1.34-1.54,3.61-1.06,5.36-.59.93,1,2,2.15,1.55,3.74l.05,1.85c-1.29.87-2.4,2.48-4.23,1.94-3.27.11-5.16-4.75-2.73-6.94m1.75.53-1.22,1.16c0,.95,0,1.91,0,2.86.38.39.75.78,1.12,1.19,1,0,1.94,0,2.92,0,.62-1.11,1.73-2.13,1.16-3.59l-1.17-1.26-.78-.4-2.07,0"></path><path class="cls-1" d="M792.26,468.3c1.47-1.52,4.34-2.14,5.87-.38,1.49,1.21.83,3.34,1.06,5-1.29.87-2.39,2.48-4.21,1.93-1.44.16-2.35-1.25-3.42-1.93.26-1.5-.42-3.37.7-4.62m.69,1.5c-.77,1.51.31,2.94,1.41,3.85,1.34.34,3.18-.09,3.57-1.59.56-1.43-.31-2.62-1.07-3.68-1.38.08-3.37-.21-3.91,1.42"></path><path class="cls-1" d="M202.79,467.36c1.05-.08,2.13-.05,3.19,0a10.85,10.85,0,0,0,1.48,1.23c.51,1,1.19,2,.9,3.27.17,1.84-1.61,2.94-3.15,3.39-2.1.68-3.39-1.2-4.78-2.33.18-1.27-.44-2.86.49-4,.59-.56,1.27-1,1.87-1.56m-1.26,4.07a2.87,2.87,0,0,0,3.92,2.43c1.57-.51,1.49-2.64,1.42-3.91a13.14,13.14,0,0,0-1.71-1.06,2.89,2.89,0,0,0-3.63,2.54"></path><path class="cls-1" d="M266.2,472.56c-1.33-2.28,1.18-5.88,3.79-5.29,1.89-.49,3.12,1.11,4.13,2.38.63,2.34-.9,5.34-3.49,5.43-1.75.08-3.94-.57-4.43-2.52m2.36-3.72c-.52.65-1,1.33-1.57,2a3.18,3.18,0,0,0,4.08,3.3,9.94,9.94,0,0,0,1.49-2,2.91,2.91,0,0,0-2.2-3.59,17.41,17.41,0,0,0-1.8.39"></path><path class="cls-1" d="M333.56,467.24a12.1,12.1,0,0,1,3.84.33c1.44.39,2.06,1.94,2.56,3.2.36,1.74-1.38,2.83-2.32,4l-3.61,0a13.7,13.7,0,0,1-2.35-1.94,21.67,21.67,0,0,1,.06-3.23,26.83,26.83,0,0,1,1.82-2.42m.27,1.83c-1.21.87-1.09,2.48-.59,3.75a6.71,6.71,0,0,1,1.57,1.24c2.41.36,3.94-2.35,3.3-4.49-1.14-1-3-1.67-4.28-.5"></path><path class="cls-1" d="M466.08,525.63a9,9,0,0,1,2.77.35c1.22,1.08,3,2,2.39,4.1.11,1.12-.77,1.95-1.28,2.85-.39.27-.77.54-1.13.84l-1.78,0A3.57,3.57,0,0,1,463,531.4a8.56,8.56,0,0,1,.28-4c.91-.63,1.85-1.22,2.81-1.78m-.1,1.71-1.56,2.06c-.17,1.22.71,2.24,1.11,3.33l2.63-.06a6.81,6.81,0,0,0,1.54-2.28,7.39,7.39,0,0,0-.8-2.57,9.26,9.26,0,0,0-2.92-.48"></path><path class="cls-1" d="M595.57,526.21l3.4-.66a4.89,4.89,0,0,1,2.73,1.88,4.08,4.08,0,0,1-1.6,5.91c-.62.14-1.22.29-1.82.48-1.5-.59-3.61-1-4-2.8-.74-1.85.44-3.34,1.3-4.81m.44,1.94c-.74,1.16-.12,2.55,0,3.81a8.47,8.47,0,0,0,3.26.29,18.65,18.65,0,0,1,1.66-1.13,4.09,4.09,0,0,0-1.63-4c-1.15-.21-2.73-.1-3.32,1.06"></path><path class="cls-1" d="M662.78,525.63c.92-.07,1.84-.09,2.78-.09,1.13,1,2.59,2.1,2.72,3.76-.23,1.67-1.1,3.48-2.8,4.06l-3.59.14c-.88-1.29-2.5-2.4-1.94-4.23a4.38,4.38,0,0,1,.48-2.13c.8-.48,1.51-1.11,2.35-1.51m-.13,1.43a6.56,6.56,0,0,0-1.54,2.3c0,1.13.36,2.58,1.64,2.88,1.38.57,2.61-.3,3.65-1.06,0-1-.06-1.95-.08-2.92-.39-.39-.76-.78-1.12-1.18l-2.55,0"></path><path class="cls-1" d="M727,526.38a8.22,8.22,0,0,1,3.26-.82,7.76,7.76,0,0,1,3.41,2.29c-.19,1,.19,2.19-.07,3.22-.53.87-1.21,1.61-1.82,2.42-2.17.17-5.85.39-6-2.69-1.06-1.68.3-3.19,1.27-4.42m.17,1.8a7.62,7.62,0,0,0,.16,3.26,9.33,9.33,0,0,1,1.56,1.19l1.31,0c.68-.61,1.59-1.06,1.88-2,.48-1.5-.51-2.71-1.54-3.58-1.23-.27-2.29.7-3.37,1.09"></path><path class="cls-1" d="M400,526.14c1.66-.87,3.19.18,4.6.92a8.07,8.07,0,0,1,.79,4.73,5,5,0,0,1-5.53,2,25.63,25.63,0,0,1-2.43-1.82c-.26-2.11.12-5.18,2.57-5.79M399,528.57c.07,1.41,0,2.9.77,4.15,1,0,2,0,3,0a4.73,4.73,0,0,0,1.17-4.11,13.1,13.1,0,0,0-1.7-1.07c-1.34-.54-2.29.44-3.28,1.06"></path><path class="cls-1" d="M530.68,525.92l1.81,0a3.59,3.59,0,0,1,4.07,2.39c.31,2-.48,4.86-2.78,5.29-2.27.7-4.48-1-5.34-3-.48-2,1-3.48,2.24-4.75m.32,1.5c-.8,1.07-1.58,2.24-1.16,3.71,1,.93,2.19,1.89,3.74,1.65.95-1.18,2.22-2.38,1.52-4.11-.4-.4-.78-.8-1.15-1.22-1,0-2,0-3,0"></path><path class="cls-1" d="M794,526c2-.31,4.45.4,5.29,2.43a4.32,4.32,0,0,1-2.59,5.32c-1.53.46-2.91-.23-4.28-.75-.37-.67-.8-1.3-1.11-2-.79-2.13.81-4.23,2.69-5m-1.37,2.57a8.37,8.37,0,0,0,.54,3.29c1.12,1.3,3.07.74,4.42.09,0-1.13.75-2.37.06-3.42a4.8,4.8,0,0,0-1.69-1.37c-1.27-.59-2.28,1.08-3.33,1.41"></path><path class="cls-1" d="M203.22,526.38a23.63,23.63,0,0,1,3.15-.06,15.64,15.64,0,0,0,1.41,1.28q.42.52.87,1c0,1,.06,2.18,0,3.24a18,18,0,0,1-2.33,2.29c-1.43,0-3.25.4-4.38-.79a4.71,4.71,0,0,1-1.57-3.62c.49-1.4,1.3-2.9,2.8-3.39m0,1.48c-.64,1.11-2,2-1.23,3.56a4.51,4.51,0,0,0,2.27,1.65c1.22.19,2.07-.87,2.95-1.52,0-.66,0-2,0-2.61a4.16,4.16,0,0,0-4-1.08"></path><path class="cls-1" d="M269,526.37a11.59,11.59,0,0,1,2.76-.07,4.13,4.13,0,0,1,2.12,5.41,5.33,5.33,0,0,1-2.53,2.41,4.43,4.43,0,0,1-4.93-2.44c-1.16-2.24.56-4.48,2.58-5.31m.25,1c-1.14,1.22-2.15,2.62-1.46,4.43a10.68,10.68,0,0,1,1.55,1.3,5.42,5.42,0,0,0,2.75-.85c.26-.4.54-.79.82-1.17a3.13,3.13,0,0,0-3.66-3.71"></path><path class="cls-1" d="M334.06,526.38a6,6,0,0,1,4.63.78,13.54,13.54,0,0,0,1.21,1.53,5,5,0,0,1-.79,3.89c-1,.61-1.87,1.76-3.3,1.25-1.44.5-2.25-.64-3.29-1.24a4.45,4.45,0,0,1,.33-5.47c.42-.23.82-.48,1.21-.74m.8,1-1.29,1.21c-1.36,1.58.05,3.37,1.17,4.54a4.12,4.12,0,0,0,3-1.14c1.81-1.81-.35-5.62-2.92-4.61"></path><path class="cls-1" d="M596.89,584.56c1.26,0,3-.36,4,.84s2.31,2.24,1.63,3.93c-.51,1-.84,2.64-2.2,2.84-1.54.3-3.67.86-4.72-.72-1.39-1.12-.93-3-1-4.59a17.53,17.53,0,0,1,2.34-2.3m.44,1.54c-1.14.87-2.2,2.31-1.44,3.85.5,1.57,2.61,1.48,3.9,1.41a8.16,8.16,0,0,0,1.16-2,17.54,17.54,0,0,0-.39-2.53c-1-.45-2-1.32-3.23-.76"></path><path class="cls-1" d="M662.34,584.58a10.22,10.22,0,0,1,4,.37c2.41,1.88,2,5.86-.49,7.51-1.59-.09-3.41.4-4.69-.82A3.62,3.62,0,0,1,660,587.2c.29-1.25,1.45-1.88,2.36-2.62m.8,1.56c-1.59.47-2.95,2.75-1.29,4.05.53,2.12,2.84,1,4.13.33a8.93,8.93,0,0,0,.45-3.31c-1-.63-2-1.62-3.29-1.07"></path><path class="cls-1" d="M727.31,584.88c2.27-.4,5.13-.28,6.36,2-.18,1,.22,2.17,0,3.19-.53.86-1.21,1.61-1.82,2.42-1.49-.31-3.2.43-4.55-.39-1.08-.49-1.4-1.79-1.85-2.76-.44-1.83,1.15-3,1.9-4.47m1.18,1.15c-.87,1-1.94,2.11-1.5,3.63.28.4.54.8.79,1.22a5.89,5.89,0,0,0,3.18.41c.39-.39.79-.78,1.2-1.15,0-1,0-2,0-2.95-1.06-.8-2.27-1.59-3.71-1.16"></path><path class="cls-1" d="M269,585l3.52.38c1.2,1,2.48,2.36,2.05,4.12a3.58,3.58,0,0,1-2.44,3.28l-3.6.14-.48-1.11-1-.11a6.19,6.19,0,0,1-.39-4.81c.76-.65,1.56-1.25,2.34-1.89m-1.23,4.71,1.52,2.55c1.52.17,2.7-.75,3.74-1.67,0-1,0-2,0-2.95-.59-.42-1.05-1.25-1.87-1.19-1.8-.41-4.36,1.07-3.37,3.26"></path><path class="cls-1" d="M331.68,589.35c-.24-2.4,2-5,4.53-4.46,1.1-.09,2,.79,2.92,1.21a14.17,14.17,0,0,0,.74,1.22,4.36,4.36,0,0,1-2.68,5.43,17.5,17.5,0,0,1-3.15-.39c-.38-.27-.78-.51-1.18-.74-.3-.56-.89-1.7-1.18-2.27m1.71-1.54c-.84,1.56.43,2.81,1.32,3.88h2.58a6.82,6.82,0,0,0,1.54-2.27,5.14,5.14,0,0,0-1.55-3c-1.36.06-3.36-.22-3.89,1.4"></path><path class="cls-1" d="M398.87,585.94c1.43-1.66,4-1.22,5.68-.18.38.65.81,1.29,1.13,2,.78,2.13-.83,4.23-2.71,5-1.5.46-2.9-.19-4.23-.77a12.65,12.65,0,0,0-1.19-1.54c-.33-1.62-.14-3.47,1.32-4.5m-.31,1.65c-.39,1.78,1.07,2.93,2,4.19a4.77,4.77,0,0,0,3.39-1.22c-.09-1.27-.21-2.53-.4-3.78a5.43,5.43,0,0,0-5,.81"></path><path class="cls-1" d="M465.24,584.92c1.72.13,4.36-.55,5.24,1.5,1.16,1.32.62,3,.25,4.43-.28.34-.55.7-.81,1.07s-.73.55-1.08.85c-1.1-.13-2.11.24-3.17,0a25.86,25.86,0,0,1-2.41-1.83c0-.92,0-2.73,0-3.65a11.89,11.89,0,0,1,1.95-2.36m.42,1.55c-.48,1-1.54,2-1.18,3.22,1,.88,1.8,2.72,3.55,2l1.26-1.17c.94-1.07.15-2.49,0-3.72a8.8,8.8,0,0,0-3.68-.32"></path><path class="cls-1" d="M531.18,585l3.43-.09c1.22,1.17,2.92,2.46,2.42,4.45a8.29,8.29,0,0,1-1.62,2.6c-1.23.87-2.89.34-4.26.4a3.73,3.73,0,0,1-2.45-4.09c-.15-1.58,1.25-2.62,2.48-3.27m-.58,1.76a12.28,12.28,0,0,0-.45,3.37c.53.39,1.56,1.19,2.08,1.58,1.57.56,2.66-.85,3.19-2.06s-.43-2.3-1.06-3.29c-1.26.08-2.52.2-3.76.4"></path><path class="cls-1" d="M790.82,588.69c.55-2.05,2.06-4.36,4.58-3.8,2.21-.3,3.81,1.89,4.15,3.83.13,1.31-1,2.2-1.68,3.2a11.82,11.82,0,0,0-1.11.87,27.34,27.34,0,0,1-4.41-.69c-.54-1.14-1-2.27-1.53-3.41m2.75-2.26c-.37.56-.74,1.12-1.15,1.65-.64,2.27,1.67,3.85,3.66,3.71,1.2-1.26,2.11-2.75,1.6-4.61a5.84,5.84,0,0,0-4.11-.75"></path><path class="cls-1" d="M203.12,585.3c1.72.13,4.35-.55,5.24,1.5,1.57,2,.43,4.55-1.16,6.07l-4.08,0a4,4,0,0,1-2.25-4.77,17.9,17.9,0,0,1,2.25-2.75m.4,1.58L202.34,588c0,.64,0,1.91,0,2.54,1,.94,2.17,1.86,3.69,1.64l1.59-2.08c.37-1.34-.51-2.31-1.16-3.3-1,0-2,0-2.93.09"></path><path class="cls-1" d="M528.82,648.65c-1.32-3.41,3.66-6.69,6.23-4.28.83,1,2.36,1.65,1.61,3.31.4,1.15-.35,2-.89,2.9a13,13,0,0,0-1.13.82c-1.41-.24-3.06.48-4.3-.42a8.91,8.91,0,0,1-1.52-2.33m3.1-3.58c-1.47.85-2.74,3.28-1.07,4.62,1.24,2.11,4.46.9,4.7-1.28.65-2-1.75-4-3.63-3.34"></path><path class="cls-1" d="M597,643.62c1.76-.47,3.94,0,4.76,1.81,1.59,1.34.21,3.26,0,4.83-2.09,1.63-5.57,1.69-7.05-.8-.38-1.27-1-2.85,0-4a6.76,6.76,0,0,1,2.38-1.87m.38,1.52c-1.55.34-2,2.22-1.65,3.57.66.65,1.31,1.33,2,2,.9-.15,2.5,0,2.94-1.12.67-1,.11-2.38.37-3.4-1.06-.72-2.2-1.74-3.63-1.07"></path><path class="cls-1" d="M662.36,643.6a6.35,6.35,0,0,1,5.15,1.46c.13,1.33.6,2.68.3,4-.77,1.27-1.82,3.14-3.66,2.41-1.78.44-2.93-1-4.14-2-.22-1-.64-2.06-.13-3,.26-1.38,1.54-2,2.48-2.89m.27,1.43-1.54,2c-.55,2,1.76,3.8,3.66,3.65a9.85,9.85,0,0,1,1.17-.87,11.24,11.24,0,0,0,.84-2.49,7.22,7.22,0,0,0-1.53-2.27l-2.6,0"></path><path class="cls-1" d="M726.24,644.76c1.56-1.13,3.78-1.86,5.52-.79a7,7,0,0,1,1.87,2.37c.47,1.56-.36,3-1.16,4.23a12,12,0,0,0-1.15.83c-1.74-.21-4.32.73-5.18-1.45-1.59-1.47-.51-3.57.1-5.19m1.49.69c-.55,1.07-1.35,2.23-.6,3.49.5,1.57,2.59,1.51,3.87,1.4.37-.43.76-.84,1.1-1.29.6-1.57-.38-3-1.52-3.94a7.19,7.19,0,0,0-2.85.34"></path><path class="cls-1" d="M794.09,643.85c2.47-.84,5.67,1.47,5.08,4.24.07,1.36-1.35,2.25-1.93,3.38h-4.06c-3.49-1.25-2.82-7.34.91-7.61m-.16,1.19c-.93,1-1.91,2.18-1.66,3.73,1.2,1,2.42,2.21,4.2,1.6.82-1.07,1.58-2.28,1.18-3.74-1-.92-2.19-1.94-3.72-1.59"></path><path class="cls-1" d="M267,645.87c1.08-1.2,2.68-2.75,4.45-1.6a3.93,3.93,0,0,1,.61,7.49c-1.51.45-2.9-.19-4.23-.77a13.65,13.65,0,0,0-1.18-1.54c.23-1.16-.57-2.57.35-3.58m1.16.44a4.91,4.91,0,0,0,0,3.52,7.12,7.12,0,0,1,1.59,1.26,3.7,3.7,0,0,0,3.71-4.1l-2.05-1.57c-1.11-.08-2.49-.08-3.23.89"></path><path class="cls-1" d="M332.44,645.46c1.8-1.72,5.3-2.42,6.79,0,1.24,1.07.65,2.68.7,4.08-.31.33-.61.67-.9,1a17.08,17.08,0,0,0-1.44,1.26c-2.33.79-4.07-.76-5.54-2.27a12,12,0,0,1,.39-4.06m.73,1.92c-.65,1.78,1.16,2.59,2,3.78a4.75,4.75,0,0,0,3.32-1.61c0-1.07,0-2.27,0-3.3-.55-.37-1.1-.73-1.62-1.13-1.77-.5-3.06.8-3.63,2.26"></path><path class="cls-1" d="M399.81,644A16.43,16.43,0,0,1,403,644a3.69,3.69,0,0,1,2.39,4.07,14.14,14.14,0,0,1-.43,2.21c-1,.92-2.18,2-3.75,1.58-1.62.13-2.59-1.49-3.74-2.35a21.28,21.28,0,0,1,0-2.88,14.11,14.11,0,0,1,2.31-2.69m.79,1.13c-1.07,1.17-3.11,3-1.23,4.5l.76,1.2c1.36-.15,3.36.18,3.93-1.44.75-1.38-.05-2.84-.95-3.88a9.43,9.43,0,0,0-2.51-.38"></path><path class="cls-1" d="M465.72,644a8.12,8.12,0,0,1,3.94.34c2.2,1.7,2.41,6-.49,7a14.14,14.14,0,0,1-4.77-.25c-.28-.61-.82-1.83-1.09-2.44a3.89,3.89,0,0,1,2.41-4.69m-.91,2.21c-.09,1-.27,1.83-.3,2.86a12.59,12.59,0,0,1,1.17,1.55c.7.29,1.54.74,2.27.25s1.14-1.14,1.7-1.73c0-1,.08-2,.11-3l-2.41-1.07c-1-.24-1.77.63-2.54,1.12"></path><path class="cls-1" d="M201.19,649.07a3.78,3.78,0,0,1,4.16-4.8,2.82,2.82,0,0,1,3,1.54c1.75,1.83.43,4.76-1.31,6a17.73,17.73,0,0,1-4.77-.33c-.28-.61-.82-1.83-1.09-2.44m3.13-3.62a18.09,18.09,0,0,1-1.64,1.19c.07,1.47-.36,3.62,1.39,4.24,1.32.71,2.51-.21,3.52-.93l0-3c-.91-.82-1.92-1.74-3.24-1.52"></path><path class="cls-1" d="M728.27,702.22c2.56-.67,5.63,1.74,5.08,4.5.17,1.43-1.25,2.31-1.92,3.41-1.57-.3-3.41.48-4.79-.53a8.94,8.94,0,0,1-1.5-2.3c-.41-1.71.7-3.17,1.83-4.27.51-.14,1.07-.26,1.3-.81m-.59,1.85c-.48,1.09-1.6,2.27-.93,3.52.52,1.56,2.69,1.21,3.91,1.41a3.88,3.88,0,0,0,.43-5c-1.11,0-2.36-.06-3.41,0"></path><path class="cls-1" d="M529.15,704.5c1.05-1.1,2.3-2.44,4-1.94a5.27,5.27,0,0,1,3.82,3.82c.12,1.27-.83,2.31-1.53,3.27a12.41,12.41,0,0,1-3.68.82,11.24,11.24,0,0,1-2.18-1.26c-.26-.39-.54-.76-.82-1.12.21-1.18-.55-2.57.35-3.59m2.3-.37c-.51.52-1,1-1.57,1.54-.38,1.52.66,2.66,1.54,3.69,1.09-.12,2.21-.21,3.3-.41a8,8,0,0,0,.8-2.58,7.26,7.26,0,0,0-1.54-2.3l-2.53.06"></path><path class="cls-1" d="M596.18,703l3.55-.4c1.38,1.24,3.4,2.58,2.73,4.77-.47,1-.76,2.31-1.86,2.79-1.35.77-3,0-4.41-.09-1.2-1-2.48-2.35-2.05-4.09.07-1.27,1.18-2.18,2-3m-.54,2.24a4.49,4.49,0,0,0,1.7,4.44,3,3,0,0,0,3.28-4.48c-1.07-1.8-3.66-1.23-5,0"></path><path class="cls-1" d="M661.52,702.94a9.27,9.27,0,0,1,4.82,0c.92,1,2,2.14,1.57,3.73-.12,1.55-1.34,2.67-2.33,3.76-1.22-.23-2.63.4-3.75-.33a5.05,5.05,0,0,1-2.24-3.8,6.79,6.79,0,0,1,1.93-3.38m-.2,4.64a3,3,0,0,0,3.4,1.69,11.2,11.2,0,0,1,1.23-.79,2.87,2.87,0,0,0-1.88-4.8,2.84,2.84,0,0,0-2.75,3.9"></path><path class="cls-1" d="M792.24,703.57c1.22-1.47,3.38-1.17,5-.65,0,.28,0,.82,0,1.1-1.76,0-3.72-.33-4.89,1.24-.32,1.58.11,4.51,2.58,3.77a1.19,1.19,0,0,1,.88,1.89c-1.52-.13-3.45-.4-4.23-2-1.56-1.49-.71-4.13.66-5.39"></path><path class="cls-1" d="M203.12,703.36c.61-.1,1.22-.21,1.82-.36l2.24.32c.91,1.23,2.49,2.33,1.94,4.15.1,1.87-1.71,3.2-3.35,3.62a7,7,0,0,1-3.75-1.46c-1-2.07-.93-4.88,1.1-6.27m.76,1.06a3.35,3.35,0,0,0,0,5.27c1.68.53,2.94-.54,4.06-1.54a3.27,3.27,0,0,0-4.1-3.73"></path><path class="cls-1" d="M269,703a14.5,14.5,0,0,1,4,.38c.93,1,2,2.15,1.58,3.75,0,3-4.11,5.12-6.36,2.93-1.63-1-1.54-3-1.56-4.75a17.38,17.38,0,0,0,1.29-1.42c.36-.29.72-.59,1.06-.89m-.82,2.65c-1,1.22.07,2.66.74,3.73,1.08,0,2.13-.14,3.21-.12a14.18,14.18,0,0,1,1.23-1.55c.5-1.72-.75-2.77-1.95-3.59a2.84,2.84,0,0,0-3.23,1.53"></path><path class="cls-1" d="M333.62,703.35a13.65,13.65,0,0,1,3.65-.42A3.72,3.72,0,0,1,340,707.1c.16,1.44-1.26,2.32-1.93,3.42-1.95-.14-5.08.26-5.67-2.31-.81-1.15,0-2.48.08-3.7.39-.38.77-.77,1.15-1.16m1.12.69a9.2,9.2,0,0,0-1.47,2c0,.83.12,1.67.22,2.52,1.33.44,3,2.06,4.2.38,1.71-.36,1.37-2.29.8-3.43a3.44,3.44,0,0,0-3.75-1.51"></path><path class="cls-1" d="M399.79,702.94c1.15.21,2.67-.42,3.73.36,2,.93,3.29,3.89,1.52,5.66-.46,1.46-2.21,1.55-3.41,1.52-1.69.36-3.79-.79-3.8-2.67-1.31-2.06.85-3.5,2-4.87m.75,1c-1.19,1.25-2.12,2.73-1.58,4.59a17.25,17.25,0,0,0,2.33,1.13,4.85,4.85,0,0,0,3-1.51c0-.64,0-1.93,0-2.58-1-.93-2.18-1.88-3.7-1.63"></path><path class="cls-1" d="M463.3,705c1-1.18,2.38-2.51,4.16-2.07,1.1-.09,2,.79,2.91,1.21.23.41.49.82.76,1.22a5.5,5.5,0,0,1-.77,4.26,13.26,13.26,0,0,0-1.16.8l-1.8.07c-1.86.72-3-.86-4.06-2l0-3.46m2.28-.56c-.62,1-1.62,1.92-1.06,3.27a3.5,3.5,0,0,0,4,2.12l1.58-2.08c.67-2.57-2.46-3.91-4.52-3.31"></path><path class="cls-1" d="M797.76,705.5a.78.78,0,0,1,1-1.06,12.72,12.72,0,0,1,.47,3.76c-.5.28-1,.58-1.53.83a10.48,10.48,0,0,0,.1-3.53"></path><path class="cls-1" d="M662.74,761.21c2.74-.43,6.28,2.06,5.46,5.12a19.8,19.8,0,0,1-2.25,2.76l-1.82,0c-1.6.52-2.7-.63-3.76-1.52a9.14,9.14,0,0,1,0-4.44c.76-.66,1.57-1.26,2.35-1.9m-.09,1.44a4.61,4.61,0,0,0-1.19,4.15,4.76,4.76,0,0,0,4.16,1.21,6,6,0,0,0,1.16-3.76c-1.13-1-2.43-2.1-4.13-1.6"></path><path class="cls-1" d="M597.06,761.77c1.65-.89,3.2.18,4.57,1a14,14,0,0,0,.74,1.21c0,1.32.49,3-.56,4.12a4,4,0,0,1-6.24,0c-2.14-1.83-.93-5.39,1.49-6.31m.19,1.28a6.49,6.49,0,0,0-1.57,2.33c-.17,1.21.79,2.17,1.62,2.91,2,.61,4.9-1.18,4-3.54l-1.18-1.27-.78-.4-2.11,0"></path><path class="cls-1" d="M725.51,764.33c.79-1.66,2.42-3.25,4.45-2.8a5,5,0,0,1,2.48.89,12.6,12.6,0,0,0,1.21,1.54c.47,2.07-.95,3.73-2.25,5.11-.92.19-2,.24-2.88.41-.94-.61-1.85-1.25-2.72-1.92-.09-1.07-.29-2.19-.29-3.23m1.81-.84a6.12,6.12,0,0,0-.37,2.84q1,1,1.95,2.07a3.09,3.09,0,0,0,3.21-4c-.54-.53-1-1.12-1.55-1.63-1.21-.37-2.24.25-3.24.74"></path><path class="cls-1" d="M792.77,762.33c1.41-.53,3.24-1.56,4.49,0a4,4,0,0,1,1.41,5.2c-.72,1.27-2,2.49-3.68,2l-1.83,0c-1.06-1.31-2.84-2.48-2.32-4.46.47-1,.74-2.37,1.93-2.71m1.26.83c-1.57.33-1.94,2.26-1.69,3.61,1,.88,2.11,1.92,3.64,1.5a17.6,17.6,0,0,1,1.68-1.13c-.13-1.12-.2-2.2-.42-3.27-1-.44-2-1.34-3.21-.71"></path><path class="cls-1" d="M267.72,763.44c1.2-2.4,4.62-1.73,6.35-.32.23.41.49.82.76,1.23a19.7,19.7,0,0,1-.34,3.57,4.86,4.86,0,0,1-5.39,1.34,3.81,3.81,0,0,1-1.38-5.82m.45,1.25a4.48,4.48,0,0,0,.76,3.24c1.32.52,3.06.76,4.19-.25a2.82,2.82,0,0,0-1.1-4.4c-1.52-.77-2.95.31-3.85,1.41"></path><path class="cls-1" d="M332.43,767.15c-.83-2.6,1.24-5.83,4.17-5.24a3.81,3.81,0,1,1-.43,7.59c-1.62.13-2.59-1.49-3.74-2.35m3.16-4c-1.64.51-3.21,2.74-1.42,4.16,1.09,1.75,4.42,1.42,4.94-.64a2.86,2.86,0,0,0-3.52-3.52"></path><path class="cls-1" d="M399.34,762.65c1.53-.63,3.6-1.42,4.93,0,2.07.92,1.57,3.48,1.09,5.25-1,.93-2.18,2-3.76,1.58-3.57.47-5-5-2.26-6.85m.55,1.29c-.29.38-.58.76-.89,1.13a3.4,3.4,0,0,0,4,3.58,13.17,13.17,0,0,1,1.2-.8,11.58,11.58,0,0,0,.48-3.22,22.8,22.8,0,0,0-2.09-1.44c-1.15-.6-1.86.3-2.69.75"></path><path class="cls-1" d="M466.48,762c1.89-.66,3.45.72,4.79,1.79a8.37,8.37,0,0,1-1.15,5.31c-1.52.13-3.15.76-4.57,0-1.74-.5-2.38-2.52-2.26-4.13a4.71,4.71,0,0,1,3.19-3m-.8,1.5c-.26.38-.53.75-.81,1.12,0,.63,0,1.88-.05,2.51a6.72,6.72,0,0,0,2.3,1.55c1.21.15,2.17-.8,2.91-1.63a3.19,3.19,0,0,0-2.26-4,7.2,7.2,0,0,0-2.09.47"></path><path class="cls-1" d="M530.11,762.94c1-1.25,2.75-1.09,4.22-1a6.06,6.06,0,0,1,2.29,1.54c.08,1.39,1.09,3-.34,4.11-1.49,2.66-6.12,2.39-7.09-.55-.07-1.34-.56-3.26.92-4.1m1.81.21a2.45,2.45,0,0,0-1.47,3.43,2.86,2.86,0,0,0,3.41,1.67c1.34-.58,2.76-1.82,2-3.52-.91-1.16-2.35-2.21-3.93-1.58"></path><path class="cls-1" d="M202.29,763.42a5.41,5.41,0,0,1,4.79-1,3.61,3.61,0,0,1,2.38,4,5.45,5.45,0,0,1-2,3.07c-1.47-.15-3.26.44-4.48-.65a3.08,3.08,0,0,1-1.37-2.63.89.89,0,0,1,1-.46,11.19,11.19,0,0,1,.53,1.82c.73.55,1.5,1.36,2.51,1.17a6.57,6.57,0,0,0,2.29-1.54l0-2.6c-1-.62-1.93-1.6-3.25-1-.84.4-1.54,1-2.34,1.51,0-.55-.07-1.09-.09-1.63"></path></g></svg>