<svg id="Shapes" xmlns="http://www.w3.org/2000/svg" viewBox="0 0 1000 1000"><defs></defs><g id="Shape_96" data-name="Shape 96"><path class="cls-1" d="M704.06,281.25c3.77,3.36,7.89,6.61,10.86,10.81,7.34,7.31,13.07,15.95,20.15,23.51l.24,1.34c-2.28,2.12-6.2-1.36-7.87,2.73-2.4-2.56-5-4.82-7.08-7.61a202.29,202.29,0,0,0-16.16-16.7l-1.49.07a197.12,197.12,0,0,0-15.45,16c-4.5,5.31-9.53,10.15-14.43,15.09Q597.56,401.62,522.37,476.9c-2.62,2.73-5.6,5.24-7.76,8.39-4.2,5-9.16,9.42-13.36,14.47-2.43,3.92-7.07,5.69-9.49,9.6-2.48,2.68-4.69,5.82-7.8,7.85-9.12,8.48-18.46,16.94-26.49,26.47-19.26,20.66-39.83,40.07-59.6,60.24-5.51,5.86-11.88,11-16.82,17.41a209.94,209.94,0,0,1-22.68,22.45c-19.7,21.63-41.19,41.56-61.61,62.52,6.7,9.25,17.18,14.7,25.33,22.56,8.63,6.31,17.19,12.76,26.5,18.1,12.17-11.83,24-24,36.09-35.9,2.78-3,6.06-5.59,8.36-9,16.26-17.65,33.79-34.07,50.58-51.21,4.68-5.11,10.29-9.4,14.4-15,21.54-23.37,45.24-44.7,66.8-68,3.61-4.1,7-8.72,12-11.14,4.55-2.06,4.14-7.79,7.92-10.56q44.94-45.3,90.19-90.28c2.77-3,6.06-5.59,8.36-9,8.53-9.09,16.92-18.55,26.52-26.51,1.6-1.64,3.51-2.83,4.78-4.74,12.18-13.7,25.77-26.06,38.52-39.23,4-3.77,7.46-8.22,12-11.39a99.39,99.39,0,0,0,12.08-12c2.36-3,5-5.75,7-9-3.38-3.15-4.54-7.7-7.05-11.42-.67-1.26.32-2.2,1-3.15l-1.48-1.74c-.89.32-1.77.66-2.63,1a28.53,28.53,0,0,1-4.12-5.33c2.38-1.57,4.39-4.34,7.4-4.57a261.31,261.31,0,0,1,32,49.19c1.09,2.93,2.87,5.77,2.8,9,3.48,6.17,6,12.81,8.84,19.29,2.41,9.63,6.39,18.77,9.25,28.27,1.41,4.08,1.4,8.54,2.85,12.64,1.89,5.6,1.94,11.6,2.49,17.44,1.22,9.84,2.55,19.68,4.1,29.49.9,5.79-.36,11.64-.36,17.44,1.64,5.91.16,12,.17,18.06-.45,6.36,0,13.67-4.81,18.65-.88,1.19-.3,2.84-.33,4.23.09,5.44,1.83,10.88.07,16.24a134.33,134.33,0,0,1-8.23,30.11c-3.06,8-4.09,16.89-9,24.08a32.48,32.48,0,0,1-1.74,9c-3.43,7-6.87,14-11.29,20.49a6.35,6.35,0,0,0-.79,2.4,71,71,0,0,0-4.14,7.81c-1.64,4.1-4.93,7.22-7.38,10.85-5.77,8.43-12.09,16.46-18.2,24.64-3.48,3.87-7.56,7.24-10.75,11.39-2.18,2.59-4.53,5.11-6.59,7.84s-4.57,5.07-6.56,7.85c-8.11,10.77-20.07,17.3-30.74,25.13-7.53,4.44-14,10.44-21.58,14.78-3.24,1.73-5.63,4.8-9.09,6.15-11.47,6-23,12.25-35.45,15.93-3.16,1.87-6.88,2.38-10.27,3.69-9.92,3.66-20.11,6.48-30.12,9.79-11,3.38-22.68,3.56-33.72,6.73L537,796.19a9.11,9.11,0,0,1-5.48,1.82c-6.81.3-13.65.94-20.45.2-4.83-.43-9.64.23-14.43.81a47,47,0,0,0-9,.27l-1.79-1.3c-2,.3-4,.57-6,.83-.45-.38-1.34-1.13-1.78-1.52-5.18,1.06-10.43-.93-15.67-.56-.45-.23-1.35-.7-1.8-.92-13.95-.65-27.47-4.33-40.92-7.77-6.48-2.41-13.57-3.38-19.31-7.44a130.73,130.73,0,0,1-26.42-9c-8.69-5.58-18.81-8.57-27.09-14.8-2.5-2.21-5.55-3.38-8.39-5-10.61-7.17-21.5-14-31.31-22.28a148.61,148.61,0,0,0-16.29-14.2c-3.78-3.7-8.51-6.73-11-11.49-1.48-2.74-3.68-5-5.69-7.28l.36-1.7a19.08,19.08,0,0,1-10.91-10.23c-.2-3.39-3.81-5.2-5.3-7.89-3.86-4-6.2-9.1-9.06-13.79-4-4.26-6.32-9.61-9.39-14.47-1.41-1.63-2.82-3.25-4.22-4.83,0-.44.12-1.31.15-1.74-5.17-8.06-7.74-17.46-12-26,0-.45,0-1.34,0-1.78L222,611.86c.05-.33.14-1,.19-1.3a106,106,0,0,1-6.89-16.22c.2-.8.4-1.58.59-2.36-2.6-3.3-2.85-7.62-4.19-11.44-2.35-5.8-2.84-12.13-4.6-18.1-.54-3-2.07-6-1-9.06-.53-.81-1.08-1.6-1.61-2.37-.55-5-2-10-1.93-15,0-8.85-3.41-17.68-1.5-26.48.34-1.63-.4-3.28-.59-4.85-.51-4.8-.19-9.62-.38-14.41l1.4-1.79c-1.68-7,.62-14,.79-21.05.49-2.68-.24-6,2.54-7.85a20.24,20.24,0,0,1-1-4.23c.87-8.29,1.73-16.7,4.39-24.65a23.57,23.57,0,0,1,1.71-2.47l-1.52-1.73c2.06-6,3.41-12.2,5.77-18.09,1.25-3.06,1.4-6.62,4-9.05-.35-4.25,1.52-8.18,4.1-11.44.67-5.9,3.73-11.09,6.57-16.17-.45-3.29,3-5.62,3.95-8.51A46,46,0,0,1,242.89,347c0-.45-.11-1.34-.15-1.79,3.45-5.95,8.52-10.75,11.75-16.82,3.16-5.34,7.59-9.76,10.86-15,4.9-5.41,8.57-11.83,13.87-16.9,7.36-7.3,14.45-14.88,22.22-21.74,5.64-5,12.1-9.07,17.54-14.34,5-3.8,10.72-6.67,16.2-9.77,10.23-9.79,23.25-15.68,35.57-22.28,12.45-3.47,23.18-11.62,36-13.84,6.6-3,13.85-4,20.54-6.7l1.69-.28a10.34,10.34,0,0,1,5.49-1.69,115.49,115.49,0,0,0,16.85-2.7c6.44-.72,12.83-1.76,19.24-2.7,4-.46,8,.7,12,.35,15.05.33,30.17.24,45.14,2-.83,1-1.63,2.1-2.44,3.17a30.79,30.79,0,0,0,4.07.51q-.55-1.43-1-2.82l1.79-1.58c6.49,1.95,13.33,1.95,19.91,3.48,9.49.88,19.3,1,28.28,4.6,7.94,2.83,16.21,4.71,24,8,4.93,2,10.3,2.79,15.11,5.15,6.58,2.58,12.72,6.09,19.25,8.8,8.73,4.11,16.52,9.85,24.62,15.06a26,26,0,0,0,7.26,4.6c6.44,2.76,10.94,8.35,16.22,12.77,2.38,2,4.79,4,7.25,5.91,4.16,3.39,7.61,7.69,12,10.85m-18.7-2.54c-2.43-2.15-4.84-4.31-7.2-6.45a68.56,68.56,0,0,1-6-5.19l-1.75.18c-8.33-5.61-16-12-24.23-17.78-12.47,14.88-26.75,28.14-40.8,41.48-8.93,7.68-16.81,16.47-25.24,24.67-9.81,10.07-20.23,19.58-29.52,30.15-4.11,5.6-9.72,9.89-14.39,15-16.79,17.14-34.35,33.54-50.58,51.21-2,3.11-5.12,5.3-7.82,7.82-3.43,2.28-6.05,5.52-9,8.36-8,8.25-16.55,15.91-23.95,24.69-11.39,12.49-23.79,24-35.6,36.13C372.13,525.89,335.48,563.31,298,599.89a5.34,5.34,0,0,0-5.3,5.32c-13.55,14.37-27.85,28-41.68,42.09.48,2.59,1,5.21,3,7.21,3.66,5.22,7.8,10.11,11.86,15-.07.44-.19,1.33-.26,1.77,1.6,1.88,3.11,3.42,4.69,5.47,2,2.41,4,4.82,6,7.24,1.47,2.14,3.11,3.89,4.7,6,3.06,3.54,6.41,6.82,9.69,10.22l2.43-.65a83.26,83.26,0,0,1,10.3-10.27c2.12-1.36,3.62-3.52,5.23-5.34,18.07-19.7,38.09-37.53,56.1-57.28,2.17-3.37,5.48-5.82,8.42-8.41,6.31-4.84,11.5-11,16.83-16.86,9.42-11,20.67-20.28,30.07-31.3a130.46,130.46,0,0,1,9.59-10.2c28.13-28.05,147.52-147.7,171-172.76a110.61,110.61,0,0,1,15-15.07c5.28-3.86,9.46-9,13.81-13.86,21.73-23.23,45-45,67.13-67.94,0-.86.06-1.72.12-2.56-2.43-2.24-5.14-4.1-7.53-6.35-.11-1.72,1.3-2.87,2.13-4.2-2.24-.9-4,.94-6,1.47m-33.49-34.6c-1.71-.17-2.69,1.39-3.86,2.36a6,6,0,0,0,3.28,1.61c1.32-.89,2.22-2.93.58-4m105.8,110.58c-.81.79-1.61,1.59-2.4,2.41l2.41,2.41c.79-.82,1.59-1.62,2.4-2.41l-2.41-2.41m-8.27-2.25c-1.69-.3-2.68,1.22-3.77,2.2-8.81,9.09-18.18,17.64-26.49,27.19-4,5.34-9.29,9.53-13.81,14.41-14.66,14.21-28.43,29.37-43.74,42.91-5.15,6.8-11.77,12.3-17.63,18.48-13.13,12.77-25.54,26.28-39.15,38.55-5.29,3.85-9.47,9-13.89,13.83-10.24,12.1-22.66,22.17-32.9,34.28-15.09,16.63-32,31.49-47,48.22-4,5.33-9.29,9.52-13.81,14.4-17.83,18.11-36.28,35.62-53.65,54.18-15.19,17.18-32.75,32.14-47.94,49.33-10.33,11.53-21.84,21.91-32.5,33.13-1.48,2.62-5.36,4.55-5.37,8,3.48,3.92,8.6,5.29,13.1,7.54s9.52,3.71,13.89,6.4c11.46,4.46,22.72,9.8,34.84,12.11,3.79-.2,5.66-4.39,8.46-6.29,5.9-6,12-11.76,17.45-18.15,17.59-19.3,37.19-36.71,54.84-56,3.39-5.23,9.27-8,12.71-13.15,16.64-17.64,34.66-34,51-51.89,6.86-8.69,15.91-15.43,22.86-24.07,4.85-6.32,11-11.56,16.89-16.84,3.07-1.92,4.8-5.19,7.23-7.76,9.61-10.25,20.2-19.56,29.42-30.18,15.73-17.51,33.59-33.07,49.4-50.54a53.17,53.17,0,0,1,9.51-9.51c26.44-25.39,52.1-51.62,77.91-77.66-2.42-4.12-2.36-9.14-4.55-13.34-1.2-3.78-3.25-7.34-3.4-11.36-3.19-4-2.92-9.51-6.35-13.34-1.54-2.05-1.76-4.59-2-7-6.22-4.36-6.33-12.9-11.49-18.07M628.25,240.07l-1.76,0c-5.11-2.26-10.13-5.08-15.66-6l-2.44-1.83-1.76.15c-5.14-4-11.7-4.82-17.49-7.51-4.81-2.38-10.17-3.15-15.09-5.19-7,6.73-14.07,13.49-20.5,20.82a57.42,57.42,0,0,1-9.51,9.51c-11.25,10.44-22.22,21.24-32.52,32.63-11.65,13-24.54,24.77-36.69,37.28l-1.25-1.17c-5.35,7.19-12.25,13-18,19.87-13.52,15.28-29.18,28.54-42.6,43.9-19.38,20.56-39.85,40.06-59.66,60.2l-3.07-3c-.38.46-1.16,1.36-1.54,1.82,0,.76,0,1.53,0,2.32.93.52,1.86,1.06,2.78,1.66-10.21,8.46-19.33,18.17-28.25,27.95-11.91,12.94-24.45,25.39-37.37,37.31a21.84,21.84,0,0,0-5.33,5.39c-4.85,6.12-10.88,11.2-16.25,16.86-12.13,11.77-23.56,24.28-36.17,35.55-3.19,2-5.43,5.17-7.39,8.35-.14,5.8,3.2,10.92,5,16.3A170,170,0,0,0,238,623.85c1.7,3.48,2.95,7.25,5.56,10.24-.07.44-.2,1.33-.26,1.77,1.6,1.6,3.23,3.2,4.88,4.82,1.9-2.63,3.6-5.52,6.45-7.27,4.55-3,7.85-7.51,11.48-11.45,3.05-4.28,7.22-7.62,10.78-11.41C288,599.78,298.46,588.3,310,578c5.53-4,9.85-9.45,14.41-14.45a74.52,74.52,0,0,1,7.17-7.78c27.13-27,91.22-91,95.74-96.35,5-6.56,11.41-11.89,17.43-17.42,6.23-6,13.36-11.1,18.6-18,3.82-5.56,8.94-10,13.29-15.13,5.87-7.28,12.95-13.56,19.87-19.82,5-3.81,9.12-8.59,13.21-13.28a73.36,73.36,0,0,1,7.17-7.78q34.67-34.58,69.22-69.23c6-5.91,11.69-12.09,18.15-17.46,1.87-1.26,3.17-3.24,4.71-4.78,8.6-10.26,19-18.89,28-28.79,0-.37.14-1.12.18-1.49-2.64-2.54-5.94-4.1-8.91-6.17m-13-13.44c-1.32.8-2.65,1.56-4,2.36l4.43,2.92c1.61-1.42.69-3.89-.47-5.28m163,200.23c-25,25.26-50.75,49.86-75.1,75.75a279.74,279.74,0,0,0-24.92,24.86c-8.49,10.46-19.36,18.71-28.28,28.79-25,25.18-50.14,50.17-75.18,75.3-6.87,7-14.13,13.62-20.46,21.14a46.9,46.9,0,0,1-7.24,7c-11.79,13.12-24.9,25-36.77,38-14.06,16-30.34,29.85-44.46,45.78-11.07,12.82-24.12,23.85-35.52,36.4,5.13,2.46,10.79,3.44,16.32,4.64,13.82,1.46,27.57,4,41.51,4.15a29.85,29.85,0,0,0,4.82-.06,115.86,115.86,0,0,0,16.87.35c12.55-12.47,25.42-24.67,37.31-37.77,14.84-16.77,32.06-31.38,46.93-48.15,13.86-15.75,30-29.44,44-45.11a79.89,79.89,0,0,1,12-12.07c7.93-5.5,13-13.84,18.48-21.55l2,.48c2.64-2.71,5.22-5.51,7.7-8.35l7.86-9.13a29.85,29.85,0,0,1,10.25-9.13c2.34-1.06,3.75-3.47,5.42-5.25,4.6-6.74,11.91-11,16.9-17.39a58.43,58.43,0,0,1,7.13-6.59c13.59-12.78,26.9-25.93,39.5-39.68,7.4-6.78,14.86-13.55,21.38-21.17,2.89-4.22,2.29-9.64,2.38-14.47-.71-5.63,1.75-11.37-.07-16.87.87-4.87-1.39-9.61-1.17-14.44-.22-.45-.65-1.35-.88-1.81a66.3,66.3,0,0,0-1.28-9.63c.35-.45,1.05-1.35,1.39-1.81l2.23,1.9a22.91,22.91,0,0,0,1.49-3.23c-1.6-1.06-3.92-.36-5.31-1.64-2-6.47-1.85-14.39-7.19-19.32m-218-210.06c-8.66-2.52-17.71-3.08-26.46-5.18-5,.29-10-.2-15.06-.06-3.43-.51-6.83-1.39-10.23-2-7,.06-14,.24-21.05.08a56.63,56.63,0,0,0-7.29,1.45c-8.68,8.15-16.61,17.09-25.67,24.86-5.83,6.72-12.38,12.78-18.22,19.51-2.87,3.52-6.08,6.76-9,10.28-2.23,3.11-5.2,5.55-7.79,8.37-22.12,22-44.13,44.15-66.23,66.19-4.92,4.91-10,9.74-14.43,15.1a42.55,42.55,0,0,1-13,11.5c-11.26,15.68-26.86,27.48-39.42,42-20.32,21.93-42.18,42.41-63.07,63.83-4.19,4.9-10.42,8-13.54,13.8-.82,6.83.09,13.63.56,20.46-.3,6-4.11,11.35-3.33,17.46a34.55,34.55,0,0,1,2.61,6c.39,3.4,0,6.88,1.11,10.22.94,4.14,3.33,7.8,3.9,12.05.82,4.58,1.05,9.72,4.36,13.32,5.28-3.51,9.48-8.33,14-12.71q21-21.13,42.11-42.19c4.4-4.92,10.21-8.35,14.06-13.78,9-10,19.32-18.73,28.05-29,10.57-12.27,23.15-22.65,33.73-34.92,3.21-4.65,7.74-8.25,12-11.9a356.64,356.64,0,0,0,27-27.17c21.12-22.66,44-43.58,65.17-66.23,7.4-8.78,16-16.45,24-24.67,27.91-28.12,56.19-55.87,83.88-84.19,1.15-1.93-1.39-2.21-2.68-2.62m-19.42,29.39a10,10,0,0,0-3.06,3.06l1,1a10.46,10.46,0,0,0,3.05-3.06l-1-1M786.14,520.1a95.82,95.82,0,0,0-8.47,9.09c-5.45,6.23-11.62,11.8-17,18.12-7.49,9-16.35,17-25.07,24.8a455.35,455.35,0,0,1-33.9,34.17c-11.22,10-21.67,20.91-31.87,31.92-2.31,3.42-5.6,6-8.37,9-8.06,7.81-15.64,16.14-24.13,23.5-3.38,2.18-5.8,5.45-8.42,8.45a16.33,16.33,0,0,1-2.37,2.83c-6.55,4.88-12.15,10.87-17.54,17-13,15-28.33,27.83-41.42,42.77-13.69,15.2-29,28.89-43,43.78-.57,1.3.37,2.21,1.44,2.84a90.14,90.14,0,0,0,14.52-2,9.21,9.21,0,0,1,5.45.08c.78-.56,1.57-1.11,2.36-1.64,9.2-.74,18.23-3.31,27-6,5.45-2.37,11.46-3,16.9-5.38,5.73-2.44,11.79-4,17.48-6.51,9.16-3,17.23-8.36,25.79-12.63,4.07-3,9.17-4,13.3-6.93,8.16-4.24,14.31-11.54,22.82-15.18,11.07-5.87,17.26-18,28.29-23.88,4.93-3.53,6.68-10,11.95-13.16.36.87.72,1.75,1.11,2.65l1.41-1.27-1.82-1.79c4-4.5,9.51-8,11.53-13.85,1.35-3.7,4.89-6,7.11-9.07q11.34-15.94,21.86-32.42c.14-3.47,3.24-5.74,5-8.49,0-.44,0-1.3,0-1.74,1.41-2.69,1.87-5.77,3.34-8.44,1.92-4.3,5.31-7.91,6.12-12.66,3.24-8.95,6.64-17.87,9.12-27.08.81-3.12,2.67-5.86,3.37-9,1.93-5.43,2.2-11.19,2.9-16.85.12-3.63,2.7-6.64,2.76-10.26.29-6.91,2.62-13.53,2.92-20.44a11.05,11.05,0,0,0-2.53-4.29M464.71,211a39.35,39.35,0,0,1-8,1.78c-11.54,1.72-22.83,4.77-34.25,7.12-5.8,3.12-12.38,4.4-18.71,6-.45-.39-1.34-1.18-1.8-1.57l1.8-2.36a17.49,17.49,0,0,0-3.67,1.26l1.92,2.45c-1.4,2.34-3.82,2.37-6.07,2.59-3.89,2.14-8.12,3.6-12,5.74a22.87,22.87,0,0,1-8.48,4.41,58.31,58.31,0,0,0-16.88,8.38l-1.75-.06c-4.93,3.76-10.56,6.46-15.71,9.91-8.93,5.32-16.45,12.66-25.2,18.27-6.76,5.21-12.12,12-18.77,17.34a21,21,0,0,0-4.71,4.78c-6.19,8-15.21,13.83-20.17,22.85-3.86,5.11-7.56,10.35-11.87,15.12-2.52,4.52-4.69,9.33-8.16,13.26-4.53,6.9-8.19,14.34-12.13,21.57-3.41,6.29-5.71,13.12-9.24,19.34-3.87,14.09-10,27.55-12.35,42-4.28,11.43-4.83,23.77-7.17,35.67.59,1.58,4,4,5.33,1.68,20.18-20.57,41.07-40.45,60.83-61.41,13.05-15,28.31-27.84,41.42-42.75,26.7-28.41,55.41-54.92,82.13-83.31a204.58,204.58,0,0,0,20.15-20.22c14.54-16,30.5-30.6,45.48-46.13.38-1.67-1.12-2.63-2-3.75M771,529.21c-1.61,1.59-3.22,3.2-4.82,4.81l.6.6c1.6-1.61,3.21-3.22,4.82-4.81l-.6-.6m-242.7-66.64c-1.68,1.42-3.46,3.08-3.15,5.44,2.4-.83,4.84-1.79,6.46-3.94a7.89,7.89,0,0,0-3.31-1.5M370.52,314.46c0,.8,0,1.6,0,2.43-.72.79-1.45,1.59-2.16,2.39l.54.6c1.21-1.21,2.42-2.42,3.65-3.61l-2-1.81M443,551.55c-1.41,1.4-2.81,2.8-4.21,4.22L440,557c1.4-1.41,2.81-2.82,4.21-4.21l-1.2-1.21M560.14,739.39c.1,1.09,1.55,2.42,2.64,1.68,1.1-1.43-1.95-3.34-2.64-1.68M456.8,790.14c1.09,1.15,2.24,2.3,3.42,3.42a2.78,2.78,0,0,0-3.42-3.42m-239-209.44c-2.77.93,1.82,2.06,0,0M412.45,778.65c-2.22-.72-4.21,2.67-1.94,3.94,2.5,2.1,5.17-2.85,1.94-3.94m-8-1.81c-2.77.93,1.82,2.06,0,0m-178-167.46q-1.25,1.18-2.46,2.4l3.81,3.62c.09-1.42.15-2.83.25-4.22l-1.6-1.8M328.05,741.86c.47.62,1.39,1.86,1.85,2.48.46-.62,1.38-1.86,1.85-2.48a12.74,12.74,0,0,0-3.7,0"></path></g></svg>