<svg id="Shapes" xmlns="http://www.w3.org/2000/svg" viewBox="0 0 1000 1000"><defs></defs><g id="Shape_139" data-name="Shape 139"><path class="cls-1" d="M200.56,521.47c-.2-10.61-1.16-21.28,0-31.86.37-3.91.4-7.84.75-11.76a90.9,90.9,0,0,1,2.1-14.4c.66-1.52.75-4.14,3-3.81.55-2,.8-4.14-.83-5.67a40.69,40.69,0,0,1,.19-7.32c.3-11.16,5.82-21.31,6.72-32.38,3.45-2.16,2.64-6.72,4.16-10s2.29-6.67,3.53-10a32.4,32.4,0,0,0,2.94-6.61c.37-3.07,3.14-5.21,2.87-8.47,2.36-4.6,4.57-9.29,6.9-13.92a17.59,17.59,0,0,0,1.85-4.35l1.42-1.33c.1-.65.2-1.31.31-2,3.45-3.65,4.3-9.35,8.25-12.55a26.22,26.22,0,0,0,2.22-6.26c.6-.68,1.2-1.38,1.75-2.11,3.2-1.16,4.59-4.42,6.33-7.08a54.53,54.53,0,0,1,9.54-12.9c1.39-1.39,2-4,4.32-4.11.48-1.19.88-2.4,1.45-3.57,1.27-1.36,2.91-2.3,4.26-3.58a32.59,32.59,0,0,1,4.83-6.37L281,299c1.24-2.77,4.08-4.47,5-7.43,4.37-3.41,7.93-7.71,12.26-11.18,2.29-1.59,3.69-4.2,6.24-5.48s4.08-3.73,5.89-5.82c4.27-2.25,8-5.4,12-8,1.36-1.64,3.31-2.64,4.83-4.12,4.5-4.6,10.23-7.63,15.47-11.28a54.79,54.79,0,0,1,8.27-4.53c3.35-1.56,6-4.44,9.61-5.41,2.46-.62,4.33-2.47,6.7-3.3,4.3-1.67,8.11-4.45,12.57-5.74,2.39-.75,4.23-2.61,6.64-3.35,4.57-1.65,9.2-3.13,13.6-5.22,5-1.25,9.74-3.47,14.78-4.63,4-.88,7.85-2.48,11.95-3,5.35-1.53,10.73-3.17,16.38-2.91A140.37,140.37,0,0,1,469,202.47l.72-.9a48.39,48.39,0,0,0,9.39-.52c3.78-.78,7.68,0,11.49-.57,10.89-.38,21.79.22,32.69.36.17.25.5.76.66,1,5.53,1.2,11.27,1,16.75,2.54s11.45.25,17,1.68c6.39,1.26,12.73,2.78,19.11,4.12,4.91.86,9.31,3.3,14.11,4.51,6.16,1.49,11.51,5.32,17.76,6.51a18.35,18.35,0,0,1,7.72,3.52,30.06,30.06,0,0,1,12.71,5.32c9.54,4.76,19.5,8.87,28.27,15,6.59,4.22,13.86,7.5,19.6,13,3.5,2.63,6.26,6.09,9.73,8.74a24.59,24.59,0,0,0,2,2.43,6.81,6.81,0,0,1,2.49,1c3.28,3.48,7.3,6.11,10.89,9.24,1.07,1.73,2.89,2.74,4.46,4,3.4,3.31,7.21,6.15,10.51,9.58.2,1.68.53,3.61,2.31,4.41,3.91,3,6.3,7.46,10.1,10.56,1.89,1.45,3.12,3.59,5,5.11,4.12,4.46,7.83,9.28,11.59,14a6.38,6.38,0,0,0,3.14,5.23,8.26,8.26,0,0,0,3.33,6.16c.11.62.22,1.23.35,1.83,1.79,2.3,3,5.11,5.34,6.93,1.07.75,1.38,2.07,1.8,3.24a74.52,74.52,0,0,1,8.58,16.34c2.17,2.13,2.84,5.37,4.27,8,1.36,3.78,3.33,7.34,4.38,11.22,2.12,3.48,3.08,7.51,4.84,11.16a46.34,46.34,0,0,1,2.37,7.08c.88,4.08,3.34,7.67,3.52,11.94.43,4.48,2.12,8.7,3,13.1,1.59,5.16,3.41,10.32,4.14,15.71l.72.56c.56,6.18,2,12.23,2.42,18.41,1.64,5.48.92,11.21,1.27,16.83.16,2.62,0,5.24.41,7.84.23,10.43.08,20.9-.59,31.31-.45,4.18-.45,8.36-.56,12.55l-1,.66c-2.14,8.42-2.22,17.19-4.44,25.59A49.54,49.54,0,0,0,791.68,569c-1.62,1.37-1.59,3.8-2.27,5.67-.69,4.25-3,8-3.59,12.29-.36,1.5-.87,2.95-1.18,4.45l-.8.79c-2.39,9.34-6.73,18-10.45,26.84-2,3.58-2.86,7.71-5.07,11.19-1,2.32-2.84,4.16-3.61,6.55-1.15,3.44-3.42,6.36-5.08,9.55-1.7,2.35-2.73,5.05-4.3,7.46-.11.33-.32,1-.44,1.3-2.72,3.46-5.22,7.1-7.76,10.69a67.32,67.32,0,0,1-4.55,7.85c-2.29,3.44-5.52,6.12-7.75,9.58a6.34,6.34,0,0,0-.58,2.32l-1.33.84c-3.39,3-5.43,7.25-9.1,9.92.13,1.92-1.18,3.21-2.25,4.53-3.37,3.18-5.58,7.5-9.66,9.9-6.31,4-10.67,10.27-16.8,14.47-3.31,2.22-5.62,5.61-9,7.79-1.65,1.34-3.89,2-5,4A30.73,30.73,0,0,1,676,739.5c-1.54,1.82-3.37,3.33-5,5.07l-1.38.24a26.51,26.51,0,0,0-2,2.51c-8.24,5.15-16.45,10.34-24.91,15.12-2.32,1.21-4.37,3-6.93,3.69l-.93.64c-2.39.85-4.56,2.2-6.91,3.15-6,3.59-12.95,5.25-19.06,8.66-6.94,1.9-13.47,5-20.49,6.69-4.94,2.32-10.4,2.91-15.64,4.22-1.6,1.37-3.87,1.37-5.77,2-10,1.91-20,4-30,5.82-5.5.34-10.93,1.23-16.39,1.82-12.72.67-25.45.65-38.18.15-2.95.19-5.34-1.91-8.27-1.84l-.78,1.16a94.61,94.61,0,0,1-13-1.08c-1.37-.84-4.17.52-5-1.31a37.09,37.09,0,0,1-7.28-1.08c-3.59-.81-7.38,0-10.91-1a66,66,0,0,0-6.88-1.63c-3.09-.25-5.78-1.93-8.81-2.48-10.68-3.31-21.74-5.59-31.87-10.45-3-1.36-6.27-2.06-8.89-4.08-5.43-3.6-11.59-5.77-17.55-8.33-3.64-1.41-6.81-3.78-10.36-5.39-2-.84-3.66-2.32-5.83-2.68-4.37-3.1-8.63-6.38-13.2-9.18-8.52-5.53-16.44-11.91-24.34-18.27-5-3.28-9-7.83-13.94-11.25-1.16-.76-1.66-2.11-2.39-3.22-2.07-2.75-5-4.71-7.17-7.34-1.23-1.57-2.95-2.64-4.38-4a32,32,0,0,0-3.59-5.34l-1.54-.15c-1.65-2.06-3.09-4.38-5.31-5.88-3.69-6-8.64-11.1-12.67-16.87-2.86-3.18-4.62-7.16-7.52-10.31-3.82-4.35-5.84-10-9.66-14.26.15-1.6-.88-2.72-1.75-3.84-2.1-2.46-3.35-5.5-5.25-8.1a10.26,10.26,0,0,1-1.62-4l-1.29-1.43c-.68-3.67-3.31-6.53-4.42-10-.88-2.84-2.72-5.23-3.62-8.05-1.57-4.37-3.9-8.43-5.46-12.81-5.56-18-11.35-36.07-13.12-54.9-.56-3.74-1.36-7.42-2.07-11.13-.48-3.94-.12-7.94-.77-11.87l-.94-.74c-.08-1.47-.06-3.12-.29-4.63m4-16c.56.59,1.11,1.17,1.63,1.77q13.59.46,27.18.48l1.2-1.07c.33-9.86.37-19.72.63-29.58a11.18,11.18,0,0,0-6.12-1.22c-6.52-.08-13-.3-19.55-.31-1.69-.42-3.11.33-4.54,1-.1,9.66-.47,19.31-.43,29m5.83,56.93a25.93,25.93,0,0,0,2,7.46,2.85,2.85,0,0,0,2.06,1.19c6.32-.69,12.68,0,19,0a7.27,7.27,0,0,0,1.16-3.34c.14-8.33.42-16.66.32-25-.56-.75-1.09-1.53-1.6-2.31-7.77-2-15.89.13-23.79-.44-.58.56-1.19,1.09-1.79,1.61-.4,7.08,1.31,14,2.66,20.87M212.34,442c7.47.1,14.94.27,22.41.4.21-10.26.34-20.53.62-30.8-5.05-1.63-10.4-1.19-15.62-1.31-2.72,2.64-3.54,6.56-3.95,10.17-1.75,2.27-2,5.28-2.79,7.91-1,4.4-2.44,9.26-.67,13.63m15.75,176.87c1.46,3,2.38,6.28,4.24,9.07l1.69,0c.12-6.37.06-12.77.72-19.12.87-1.54-.18-2.69-.86-3.83l-8.37-.12a10.82,10.82,0,0,0-1.7,2.84,102.28,102.28,0,0,0,4.28,11.11m8.62-221.14c.17,3.73-1,8,1.47,11.25,8.75-.85,17.53-.19,26.3-.11.38-.9,1.1-1.75,1.08-2.78-.6-7.44-.12-14.88-.1-22.34a7.9,7.9,0,0,0-1.52-5.64c-5.59-.07-11.17-.31-16.75-.27-3.32,0-6.52,1.1-9.85,1.07l-.88.51c-.11,6.11.76,12.19.25,18.31m-.28,59.53c.58,5.59-.56,11.32.66,16.84.13.19.39.56.51.75,7.77.25,15.55.36,23.33.44,1.66.51,3.11-.37,4.53-1,.13-9.67.43-19.34.48-29-1.61-.54-3.19-1.32-4.93-1.29-7.4-.11-14.8-.37-22.2-.24-.57.38-1.16.75-1.76,1.08-1.09,4.05-.87,8.29-.62,12.42m-.93,131.51a9.59,9.59,0,0,0,1.37,2c-.28,4.23-1,8.77.93,12.73,7.89.24,15.82-.06,23.69.81,1.31.23,2.53-.44,3.75-.82-.15-7.11,1.09-14.39-.65-21.37-.69-2.79,1.16-6.45-.6-8.87-8.51-.25-17-.33-25.53-.46-.9,1.18-2.33,2.24-2.33,3.85,0,4.06-.33,8.11-.63,12.15m1.21-58.24c.75,2.81-.84,6.22.82,8.6,9.07,0,18.17-.49,27.27,0,1.41-7.89.47-16,1-24l1.58,0c.2.32.61,1,.82,1.29a3.94,3.94,0,0,0,1-2.78c-.43-.39-.85-.79-1.27-1.2l-2-.23-1.1-1.17c0-.34-.13-1-.18-1.36-.72-.24-1.51-.44-1.82-1.22a75.71,75.71,0,0,0-10.65,0c-4.71.54-9.6-.58-14.16,1.14a5.18,5.18,0,0,0-1.28,4.44c-.18,5.5-.37,11,0,16.51m-.13,24.67a1.56,1.56,0,0,0,2.67.06,2.09,2.09,0,0,0-2-2.65c-.84.6-.77,1.69-.65,2.59m2.09,85.86C243.38,649,247.91,657,253,664.61c3.09,2.26,7.33,1.07,10.88,1.4l.73-.71q.42-15.22.53-30.43l-1.13-1.2c-6.3-.72-12.37,1.38-18.67,1-2.84.24-5.71.33-8.27,1.78-.3,1.84.8,3.21,1.64,4.64m13-297.3c4.13,1.19,8.54.57,12.78.73l1.15-1.12c.15-6.11.76-12.27-.16-18.35-.76-.08-1.67-.78-2.35-.19a10,10,0,0,0-4.86,5.77c-.85,2-3.35,2.74-4.21,4.75-.76,1.64-1.87,3.09-2.59,4.73,0,1.24.1,2.47.24,3.68m16.78,33.28c9.49,0,19,1,28.49,0a13.47,13.47,0,0,0,.57-2.81c.19-6.43.43-12.88.11-19.32-.44-2.63-.16-5.29-.25-8-.35-.39-.7-.79-1-1.2-5.3-.22-10.61-.37-15.9-.08-4.15.82-8.72-.9-12.58,1.13-.06,8.2-.4,16.39-.4,24.58a14.93,14.93,0,0,0,1,5.61m-1.15,38.39c.71,8.36-.31,16.74.06,25.11.4,2.12,2.94,2.94,4.85,2.55,8.31.19,16.61.43,24.92.44l.78-.63c-.51-10.34-.12-20.69-.07-31.05-.36-.38-.72-.79-1.07-1.2-9-.25-18.1-.5-27.14-.41-.56.39-1.13.77-1.71,1.11a12.41,12.41,0,0,0-.62,4.08m-.13,71.49c.56,6.9-.26,13.83-.08,20.74.91,1.79,3.57.13,4.9.77,7.93-.84,15.92.18,23.88-.2a18.76,18.76,0,0,1,1.85-2.15c.37-9.6.52-19.2.55-28.81-.36-.39-.72-.79-1.07-1.2-6-.19-12.08-.47-18.11-.11-3.53.65-7.4-.62-10.75.76-2.72,2.58-.85,7-1.17,10.2m1.67,84.67c4.62.58,9.09-1.49,13.7-.74a75.09,75.09,0,0,0,12.81.63l1.2-1.08c.21-5.27.09-10.56.66-15.82.34-4.12.81-8.37-.22-12.44-.38-.57-.74-1.16-1.07-1.77-1.63-.13-3.31-.08-4.93-.17.16.27.46.82.61,1.09-8,.12-16.09-.84-24.08.08-.11,8.39-.39,16.78-.45,25.17a5,5,0,0,0,1.77,5.05M267,615c.61,6.2-.17,12.47-.09,18.69l30.75.59c.13-9.27.45-18.55.42-27.83-.36-.39-.71-.79-1.07-1.2-8.8-.1-17.63-.76-26.43-.25-1.92-.55-2.62,1-3.67,2,0,2,.07,6,.09,8m1.15-81.4c.82,0,1.64,0,2.46,0-.13-.93,0-2-.73-2.76-1.61-.44-1.6,1.67-1.73,2.71m-.88,110.14,1.78,0a20.41,20.41,0,0,0-.64-3.88c-2.33-.28-1.53,2.52-1.14,3.86m-.6,39.47c1.11,2.32,3.22,3.94,4.59,6.1,1.92,3.21,4.66,5.79,6.79,8.85,3.5.13,7,.17,10.5.27.17.27.52.81.69,1.09l5.33.09,3-2.18c0-2,0-6.1,0-8.14l-.92-.41c-.44-3.73.94-7.45.28-11.19-.54-3,1.57-5.58,1.07-8.58-.39-.41-.76-.83-1.14-1.25-9.66-.3-19.33-.38-29-.62a17.69,17.69,0,0,0-1.07,2.35c-.24,4.54-.35,9.09-.19,13.62M276.42,310l1.2,1.2c6.49-.28,12.81,1.25,19.25,1.53.42-.38.84-.76,1.28-1.14,0-2.31,0-4.6-.13-6.93-.67-5.39.22-10.86,0-16.29l-.76-.62-2.47-.21c-1.59,2.92-5.17,4.17-6.14,7.44a26.51,26.51,0,0,0-2.24,2.83,23.43,23.43,0,0,0-5.35,2.95c0,.39-.14,1.15-.18,1.53-2.26,2-4.8,4.37-4.48,7.71m23.5,32.35c.56.57,1.11,1.15,1.66,1.73a114.45,114.45,0,0,0,13.61.06,29.55,29.55,0,0,1,6.71.13,9.48,9.48,0,0,0,7-.67c.08-8.57.41-17.13.44-25.71.44-1.61-.34-3.13-1-4.53-8.91-.09-17.82-.43-26.74-.39l-1.18,1.08c-.28,9.43-.5,18.87-.51,28.3m-.84,131.92,1.12,1.16c9.23.32,18.47.51,27.71.52l1.19-1.08c.25-8.53.45-17.06.53-25.6a7.94,7.94,0,0,0-1.53-5.65c-9.45-.11-18.89-.46-28.33-.48l-.75.68c.55,10.15.09,20.3.06,30.45m1.28-65.4a9.71,9.71,0,0,0,2.6,1.29c1.81-.69,3.65-1.41,5.65-1,6.47-.1,12.92.53,19.38.94,2.25-2.17,1.12-5.57,1.47-8.32l1.18-.07c0-3.14-1.29-6.06-1.42-9.18-.2-4.56.24-9.17-.42-13.72-9.51,0-19.4-1.16-28.58,1.29-.19,7.41-.26,14.82-.44,22.22.26,2.17-.57,4.59.58,6.57m-.91,129.81c9.28.13,18.55.45,27.82.44.39-.38.77-.75,1.17-1.12.28-6.67.16-13.35.8-20-.17-2.88.18-6.08-1.85-8.4-4.76-.11-9.52-.3-14.27,0-4,.29-7.93.12-11.89.15l-1.2,1.06c-.16,5.4-.2,10.81-.71,16.18a89.41,89.41,0,0,1,.13,11.69m-.07,48.38c.44,5.06-.05,10.16.07,15.23l1.07,1.2c8.88.27,17.75.46,26.63.46l1.23-1.08c.05-2.3,0-4.6-.13-6.92a58.85,58.85,0,0,1,.26-12.3,74.29,74.29,0,0,0,.37-9.08c-.39-.38-.77-.77-1.15-1.16-9.47-.28-19-1-28.4.57a7,7,0,0,0-.39,2c.49,3.66.17,7.36.44,11m-.63,78.48a13.24,13.24,0,0,0,2.37,1.55c8.64-.54,17.3.18,25.95,0,.39-.36.79-.72,1.2-1.07.35-7.71.07-15.45.78-23.15.62-2.57.61-5.46-1.26-7.52-8.87-.1-17.73-.54-26.59-.39-1.38.44-2.11,1.75-3.05,2.74,1,9.25-.5,18.57.6,27.81m-.26,50.64c.94,3.2,3.84,5.18,6.31,7.17,2.74,2.11,5,4.75,7.94,6.64,3.92.47,7.92.06,11.84.71.86,0,1.94.52,2.48-.45.34-6.64.14-13.3.47-19.94-.36-2.45,1.36-4.37,1.74-6.66a12.42,12.42,0,0,0-1.61-2.86c-9.32-.21-18.64-.35-28-.56a18.48,18.48,0,0,0-1.08,2.35,128.58,128.58,0,0,0-.13,13.6m10.88-436.14c3.47,0,6.94.15,10.41.44a66.54,66.54,0,0,0,8.47.4l1.22-1.11c.2-5.3.33-10.6.3-15.92-.86-1.77-3.44-.1-4.71-.7-3.09,1.4-5.37,4-8.25,5.77-3.29,1.88-5.61,4.95-8.48,7.34-.42,1.61.43,2.57,1,3.78m21.9,30.48c.37.4.72.8,1.08,1.2,9.06.28,18.12.46,27.18.47l1.19-1.08c.28-8.51.41-17,.51-25.56l-1-.71c0-.37-.1-1.13-.14-1.5-.56-.55-1.11-1.12-1.66-1.7-1.45-.18-2.9-.36-4.33-.6-2.75.7-5.62.19-8.4.25-4.11-.23-8.18.24-12.28.37-.69,1-1.73,2-1.75,3.28-.21,8.53-.39,17.05-.4,25.58m.32,66.11c2.37,1.74,5.36,1.13,8.1,1,6.71-.48,13.45.18,20.18.07l.74-.65c.27-7.87.51-15.77.22-23.64-.15-2.08-.26-4.17-.31-6.28-.36-.38-.7-.78-1-1.18-7.44-.29-14.89-.37-22.32-.47-.21-.73-.4-1.46-.55-2.2-.73-.45-1.47-.88-2.22-1.3-.21,1.44,0,2.94-.63,4.31-2.37.72-2.5,3.7-2.3,5.72-.53,8.24.7,16.42.13,24.65m0,51.57c.61,5.14-1.08,10.61,1,15.49,2.5.09,5,0,7.51-.12a75.13,75.13,0,0,1,15,.4,9.71,9.71,0,0,0,3.62-.4,13.13,13.13,0,0,0,1.25-3.29c.25-9.26.44-18.52.46-27.79-.36-.38-.72-.79-1.07-1.2-6-.26-12.1-.07-18.11-.69-1.52-.33-3.16-.22-4.67-.42a14.84,14.84,0,0,0-2-4,28.72,28.72,0,0,0-1,3.31c-.88,1-1.69,2-2.54,3a70.89,70.89,0,0,0,.55,15.68m-.09,65.35c.18,4.45-.3,8.92.41,13.33a13,13,0,0,0,2.81.58c8.38.27,16.76.3,25.14.5.18-6.44,0-12.9.66-19.32.77-3.33-.45-6.73-.33-10.1-.34-.59-.67-1.19-1-1.82a79.68,79.68,0,0,0-10.25,0c-4.16.45-8.36,0-12.53.06-2-.71-3.55.59-5.07,1.55a120.43,120.43,0,0,0,.13,15.2m-1.79,130.67,1.11,0c-.05,2.1-.13,6.32-.18,8.42,1.78.7,3.57,1.54,5.58,1.18,7.82,0,15.69.83,23.49-.07.1-7.83.38-15.66.42-23.48a8,8,0,0,0-1.53-5.66c-7.26-.08-14.52-.35-21.78-.37a10.25,10.25,0,0,0-6.15,1.55c-1.37,6-.62,12.28-1,18.4m1.66-72.34c.63,6.41-.57,12.9.42,19.28,8,.11,16,.37,24.05.43,2,.73,3.55-.61,5.07-1.56.06-2.42.09-4.82.15-7.26l-1.12,0c.13-6.7.24-13.42.39-20.14a8.49,8.49,0,0,0-2.81-1.12c-8.34-.22-16.67-.38-25-.4-.4.37-.8.73-1.21,1.08a85.18,85.18,0,0,0,.06,9.72m-1,190.81c7.58,5.18,15.39,10,23.07,15,1.09,1.46,5.34,2.21,5.06-.49-.25-6.26,1.25-12.85-.75-18.92,1.44-1.16,3.56-.12,5.06-1.2.06-1.33.66-3.62-1.14-3.82-10.59-.29-21.19-.36-31.78-.63-2.68,2.9.22,6.74.48,10m-.43-57.21c.4,4.17.5,8.37.66,12.54,5.62,1.65,11.67.05,17.38,1.31a3.9,3.9,0,0,1,3.4,1.28,10.36,10.36,0,0,0,7.54-2.13c1.59-.82,0-3.16.76-4.28.3-2.58-1.55-4.77-1-7.37a112.14,112.14,0,0,1,.76-15.11c.2-2-1.83-3.57-3.75-3.41-8.15.07-16.38-.9-24.49.22L330,669.6c-.23,5.3-.37,10.6-.08,15.89m11.95-94.39c.38.76,1.33-.06,1.94-.05-.43-.84-.86-1.67-1.3-2.5-.68.63-1.48,1.72-.64,2.55m11.75-343.77c1.77,1.86,4.77,1.29,6.71,0,1-2.27-.28-3.64-2.11-4.45-1.49.79-3,1.52-4.54,2.24l-.06,2.21m-5,403.46L351,651c0-.8,0-1.61-.08-2.42a2.11,2.11,0,0,0-2.34,2.25m14.13-372.23a24.43,24.43,0,0,1,1.6,1.93,26,26,0,0,1,3.74-.45c7.46.09,14.94.31,22.4.45.69-1.44,1.5-2.74,1.16-4.51.42-8.38-.6-16.75-.08-25.14-3.15-1-6.54-.57-9.77-.44-5.82.41-11.66-.06-17.48,0-.4.38-.8.74-1.2,1.09-.24,9-.57,18-.37,27m-.33,65.13c2.63,1.81,5.92,1.11,8.92,1.28,6.9-.1,13.86.77,20.74-.17-.83-9.81,0-19.64-.2-29.47-.39-.56-.77-1.14-1.11-1.73l-8.18-.33,0,.59,2.8.05v.56l-21.82-.41a12.94,12.94,0,0,0-.61,4.45c-.25,8.4-.29,16.79-.5,25.18m1.55,66c8.94.16,17.89.18,26.8,1.1a14.79,14.79,0,0,0,.7-5.58c.12-8.36.33-16.74.4-25.11-1.25-1.24-2.6-2.5-4.66-1.81l-.45,1c-7.6.14-15.2-.26-22.79-.34a8.56,8.56,0,0,0-1.13,2.82q-.3,11.14-.41,22.29c-.52,2.13.72,3.85,1.54,5.64m-1.62,64.07c.56.4,1.1.81,1.62,1.25,8.82.35,17.66.47,26.49.56l.73-.65c.32-9.74.43-19.5.57-29.26-.16-.18-.48-.55-.65-.73a136.11,136.11,0,0,0-15.25-.06c-4,.3-7.93.13-11.9.15-.38.38-.77.74-1.15,1.1-.3,9.21-.57,18.43-.46,27.64m-.21,64.42c.75.53,1.28,1.57,2.24,1.67,8.35-.51,16.71-.11,25.06.05l2.27-2.9c.72-4.48-1.27-8.8-.85-13.28.05-4.66.19-9.32.28-14-9.32-.18-18.65-.32-28-.55-2.15,3.85-1,8.6-1.24,12.79.62,5.39.2,10.82.21,16.22m-1,61.88c.11.84.31,2.53.41,3.37a19.44,19.44,0,0,0,3.71,1.3,9,9,0,0,1,2.3-.4c7.38,0,14.76.41,22.16.37l.73-.71c.31-6.37.06-12.76.52-19.13a9.82,9.82,0,0,1,1.49-2c.13-3.34.82-7.11-1.37-9.94-9.47-.13-18.94-.46-28.4-.44l-1.2,1.08c-.22,8.84-.57,17.69-.35,26.53m.47,52.2c.22,4.84-1.17,10.16,1.38,14.58,9.07.12,18.14.45,27.22.47.18-.18.57-.52.75-.69.41-6.35-.95-12.74.14-19.07a88,88,0,0,0,.38-10.28c-7.85-1.67-16-.58-23.94-1.05-2.38,0-6.24.26-6.77,3.27-.29,4.28,1.28,8.48.84,12.77m-1.25,70.38c.25,3,.06,6.46,2,9.06,8.46.18,17.07-1.27,25.43.76.95.42,1.75-.34,2.53-.79.13-6.73.23-13.47.43-20.2a12,12,0,0,0,2.21,1.77,9.16,9.16,0,0,0,2-.67c1.34-1.57,3.48-2.83,3.15-5.22-.43-.41-.85-.82-1.25-1.24l-2-.05a5.75,5.75,0,0,1-2.83,2.86c-.08-1.7-.14-3.38-.13-5.1a14.9,14.9,0,0,0-1.1-2.23c-1.94-1.21-4.42-.47-6.55-.82-7.41-.12-14.83-.35-22.25-.3-.58.55-1.17,1.1-1.77,1.62-.62,6.86.4,13.69.19,20.55m4.92-111.08c1.68.09,2.93-2.18,2.19-3.7-.59-1-1.8-.71-2.77-.85.14,1.53-.57,3.33.58,4.55m8.68,156.13c2.57,2,6,2.33,8.69,4.22,1.53,1.3,3.69,1.35,5.59,1.65l1.18-1.26c0,.32.08,1,.1,1.28l.55,0q0-3.28,0-6.57c-.57-.59-1.12-1.19-1.66-1.8-4.81.38-9.64.24-14.43.76,0,.43,0,1.3,0,1.74m19.94-520.08a8,8,0,0,0,2.81,1.13c8.38.27,16.76.29,25.14.5,2.32-3.47.47-7.95,1.89-11.71a23.09,23.09,0,0,0,1.27-4.9l-1.13-.78c0-.63-.09-1.27-.14-1.92-2.46-2.14-1-6.35-1.43-9.17-4.24-.78-8.71-1.22-12.83.28-4,1.3-8.08,2.3-11.77,4.27a4.64,4.64,0,0,0-2.69,3.49c-1.29,6.18-.89,12.55-1.12,18.81m-.63,63.13c2.73,2.71,6.86,1.63,10.32,1.59,6-.54,12,.21,17.94,0l.76-.64c.29-9.46.33-18.92.56-28.39a10.73,10.73,0,0,0-5-1.93l1.06-1,.12-1.61c-2.13-.88-4.42-.16-6.59,0-.61.9-1.23,1.78-1.87,2.65-2.59,0-5.19-.05-7.77-.09,0-.79,0-1.58,0-2.38a12.82,12.82,0,0,0-2.77,0,22.42,22.42,0,0,0,.54,2.43,20.26,20.26,0,0,1-5.6.34A6.75,6.75,0,0,0,393.7,285c-.18,8.58-.3,17.15-.47,25.72m.48,48.38c.51,6-.09,12.13-.1,18.17a9.06,9.06,0,0,0,4.54,1.62c7.72-.67,15.46.08,23.19,0,.19-.15.56-.48.75-.64.71-10.16-.16-20.33,0-30.5-.37-.37-.73-.75-1.09-1.14q-4.6-.29-9.17-.92a17,17,0,0,1-1.44-2.23c-2.4-.15-4.29,1.47-6.23,2.6-2.87.73-5.84.54-8.76.54-2.67,3.46-1.53,8.49-1.64,12.53m-.63,62.61c1.42,6.72.32,13.63.42,20.42,3.17,2,7.12.57,10.64.78,6.18-.31,12.3.56,18.45.89-.62-9.12-.2-18.25-.1-27.39-.06-1.86,0-4.34-1.73-5.55-3.2.3-6.43.43-9.64.55-5.63.35-11.27,0-16.9.06-.4.37-.8.73-1.21,1.07a59.7,59.7,0,0,0,.07,9.17M390,628c4.8-1.09,2.75,4,4.3,6.39,8.73.09,17.46.42,26.19.38.4-.36.8-.73,1.22-1.09.1-2.86.07-5.74-.07-8.61-.48-2.65-.11-5.34-.12-8l1.11-.64q.09-4.35,0-8.7c-.37-.59-.72-1.18-1-1.8a128.75,128.75,0,0,0-14.7-.08c-3.92.29-7.85,0-11.76.21a3.29,3.29,0,0,0-2.53,3.16c-.21,5-.13,10-.37,15a15,15,0,0,0-2.67,1.86,13.47,13.47,0,0,0,.44,2M393,498.58l1.07-.61c0,3.2-.1,6.4-.14,9.59.81.35,1.6,1,2.54.8,8.23-.33,16.46.22,24.7.12l1.19-1.08c.18-5.66.46-11.34.09-17-.77-4.47,1.69-9.52-.68-13.65-6.58-.17-13.17-.44-19.75-.09-2.27.28-4.57.18-6.84.28-.58.54-1.16,1.06-1.76,1.58-.25,6.69-.34,13.38-.42,20.07m-.24,55.6c.9,5.79-1.2,12,1.11,17.57a9.35,9.35,0,0,0,4.4.67c7.41.2,14.83.34,22.24.33l1.19-1.07c.36-7.52.06-15.07.78-22.57.12-2.41,1.36-5.54-.28-7.5-9.41-.26-18.83-.44-28.25-.47-.4.37-.8.73-1.2,1.07a106.21,106.21,0,0,0,0,12m-.63,135c.2,3.33-.83,7,.91,10.09,9.27.09,18.55.44,27.83.41.42-.37.84-.74,1.27-1.1-.68-6.05.24-12.07.62-18.11a34.48,34.48,0,0,0-.17-10.73c-.37-.4-.72-.8-1.07-1.2-8.16-.27-16.33-.39-24.49-.5-2-.71-3.55.61-5.09,1.56-.24,6.54.7,13,.19,19.58m3.88-235.31c.72,0,1.45,0,2.18,0l1.24-1.15c.11-1.14,0-3-1.62-2.72-2.08-.5-2.08,2.8-1.8,3.89m-4.82,299.88c.46,2.65.12,5.35.19,8,1.15.72,2.29,1.45,3.42,2.21a108.26,108.26,0,0,0,14.07.13c3.41-.35,6.78.68,10.2.41.58-.56,1.18-1.12,1.79-1.66.28-8.15.41-16.31.5-24.47.42-1.66-.34-3.1-1-4.53-5.89-.06-11.78-.39-17.65,0-3,.24-6.07.16-9.09.22l-1.17,1.05c-.07.73-.13,1.45-.18,2.17l-1-.62c-.13,5.7-.41,11.41-.07,17.11m10-219.18c1-.12,2.15.16,2.79-.79.95-1.62-.21-2.74-1.18-3.65-2.39-.76-1.32,3.74-1.61,4.44M417.75,404a8.88,8.88,0,0,0,.06-2.91c-1,0-2.68.25-2.32,1.65-.07,1.12,1.45,1.14,2.26,1.26m6.8-124a11.92,11.92,0,0,0,2.26,1c8.47-1,17,.34,25.54,0,.42-.37.84-.74,1.28-1.11a63.25,63.25,0,0,1,0-14.16,68.92,68.92,0,0,0,.06-15.92c-4.63-.08-9.27-.16-13.89-.3.28-.89,0-3.88-1.75-3.38-1.29-.36-1.67,1.09-1.77,2l1.33,1.35c-3.88,1.22-8.15.42-11.91,2a10.59,10.59,0,0,0-.67,3.26c-.19,8.41-.28,16.82-.47,25.21m-.23,56.18c.43,2.6.17,5.27.32,7.87.55.41,1.08.84,1.61,1.28q3.13.08,6.29-.09c6.8-.43,13.61.1,20.41.1a15.66,15.66,0,0,0,.68-5.54c.09-8.34.4-16.68.32-25-.67-.89-2-2.69-2.66-3.58a45.21,45.21,0,0,1-9.73-.08c-.52,1.9-2.72.53-4,.24a3.45,3.45,0,0,0-4.7-.41,11.42,11.42,0,0,0,1,2.71,49.39,49.39,0,0,0-8.34.42c-2.33,7.12-1.22,14.76-1.28,22.1m.68,67.88c0,1.41-.07,4.22-.09,5.63,8.8,1.45,17.87.53,26.78,1,1.4-1.71,2.45-3.73,1.83-6.08a113.66,113.66,0,0,1,.24-21.9c.23-1.16-1-1.83-1.52-2.71-8-.17-16-.59-24.05,0-2.25-1.07-3.8,1-3.91,2.85-.17,4.83-.26,9.66-.23,14.47-.27,2.35,1,4.45.95,6.75m-.57,69.6c.44.69,1,1.32,1.47,2,8.86.17,17.71.45,26.57.48l.76-.63c.28-9.59.44-19.21.48-28.81-.57-.56-1.12-1.13-1.66-1.72-6.33.16-12.6-1.15-18.92-.57-2.77.37-6.45-1.77-8.85.07-.25,9.73-.84,19.51.15,29.21m-.5,58.18c.39,2.71-.12,5.63,1.23,8.11,9.08.08,18.15.43,27.23.46l.73-.7c.25-5.44.06-10.9.63-16.33a28.38,28.38,0,0,0-1.1-13.69c-8-.06-16-.39-24-.41-1.72-.42-3.09.34-4.54,1,0,7.19-.47,14.39-.14,21.58m.49,63.74c.45,2.62.15,5.31.26,7.95l1,1.2c8.73.29,17.46.38,26.2.54.93-1.28,2.09-2.65,1.76-4.37.3-2.18-1.13-4.06-1-6.2a138.25,138.25,0,0,0-.12-14.68c-.18-2,1-4.36-.57-6-8.31-.07-16.63-.55-24.93-.33a3.27,3.27,0,0,0-2.48,2.7c-.25,6.4-.46,12.82-.14,19.22m9-378.72c.53-.47,1-1,1.51-1.52-1.09-.43-2.64-1.18-3.49,0-.4,1.19,1,1.91,2,1.5M423.47,665.6c.56.56,1.11,1.12,1.66,1.7,4.51.42,9,1.21,13.59.65,4.92-.37,9.87-.06,14.8,0,0-2.21.05-4.43.08-6.65l-1-.66c.05-5.31,0-10.63.57-15.92a42.64,42.64,0,0,0,.43-6.79c-1.69-1.35-4.17-1.15-6.17-1.36-7.25-.15-14.51-1.51-21.75-.4-.85,1.13-1.93,2.29-1.8,3.82-.14,8.54-.38,17.07-.37,25.61m-.2,50.16c.43,5.31-.31,10.67.48,16a30.67,30.67,0,0,0,9.27.41c6-.51,12.06.13,18.08,0,.43-.53.88-1,1.32-1.57.24.14.74.42,1,.57l.12-6.12-1-.66a117.09,117.09,0,0,1,1.39-21.08,4.88,4.88,0,0,0-3.23-1.83c-7-.4-14,.16-20.89-.73-1.79.17-2.69-1.23-3.94-2.06-.66,2-1.74,3.8-2.52,5.73a75.58,75.58,0,0,0,0,11.36m1.19,70.12c8.76,1.13,17.08,4.86,26,5l.59-.81a81.87,81.87,0,0,0,.79-18,39.3,39.3,0,0,1-.46-4.48c-.34-.6-.66-1.21-.94-1.84a98.93,98.93,0,0,0-11.93,0c-4.9.74-10.15-.87-14.84,1.06-.05,4.85-.25,9.7-.22,14.54-.57,1.7.36,3.09,1,4.48m14.28-570c3.56,2.51,8.43,1.06,12.48,1.33,2.13-.37,2.67-2.79,2.55-4.65q-.61-.65-1.2-1.32a51.82,51.82,0,0,0-12.75,2c-1.07.3-2.53,1.82-1.08,2.66m-4.09,272.88c.93-.08,2.07.22,2.69-.69a7.26,7.26,0,0,0,0-1.92,2.15,2.15,0,0,0-3.24-.14c.12.93.36,1.84.54,2.75m11.62-241.45a19.38,19.38,0,0,0,3.43.87c.47-.73.94-1.46,1.36-2.24a5,5,0,0,0-4.79,1.37m11.32,1.49,8.11-.15c6-.52,12,.2,17.93,0,.19-.15.56-.48.75-.64.24-6.75.45-13.53.14-20.3-.37-2.42-.23-4.85-.38-7.32a38.48,38.48,0,0,1-2-4.13c-2-.31-1.68,2.15-1.17,3.35-5.29-.17-10.58-.37-15.86,0-2.27.28-4.58.18-6.85.27l-1.15,1.06q-.15,5.41-.6,10.8a102,102,0,0,0-.49,12c-.71,2.06.63,3.57,1.59,5.1m-1.72,63.08c6.45,1.64,13.25.25,19.8,1.26a35.51,35.51,0,0,0,7.85.41l.73-.66c.34-9.78.44-19.58.51-29.37-.36-.38-.72-.78-1.07-1.19l-4.39-.19.08-1c.94-.13,2.05.05,2.74-.77.45-1.6-1.17-2.62-2.5-3-1.33-.58-2.75.05-4.09.25-.67.87-1.29,1.77-1.89,2.68l.65,1a5.84,5.84,0,0,0-3.64,1c-4.53.17-9.09-.14-13.59.54a6.61,6.61,0,0,0-.74,3.89c-.25,8.35-.36,16.71-.45,25.06m-.19,51.78c.86,4.69-1.08,9.88,1.09,14.27,8.89.21,17.81,0,26.67,1l.71-.6c-.84-9.53.09-19.12-.08-28.68-2.09-.59-.17-3.75-1.05-5-.53-1.9-3.34,0-4.3-1-.43,1-.83,2-1.26,2.92a32.38,32.38,0,0,1-3.25-.7c.21-.55.41-1.1.61-1.66a13,13,0,0,0-5.05,1.05c0,.41-.07,1.22-.1,1.62-4.24-.07-8.49-.16-12.72-.13-.4.36-.8.73-1.2,1.07a150.22,150.22,0,0,0-.07,15.88m2.84,80.11c5.6.5,11.27.09,16.88.76a44.4,44.4,0,0,0,6.83.32c.56-.57,1.14-1.14,1.73-1.7.26-8.25.65-16.52.31-24.78-.57-2.22.64-5-.85-6.93-6.21-.3-12.44-.36-18.63-.11-2.63.44-5.32.17-8,.25l-1.21,1c-.23,8-.42,16-.47,23.93-.11,2.64.5,6.19,3.36,7.22m-3.41,38.92c.29,4.86-.06,9.73.27,14.57.36,3.21.1,6.44.2,9.65l1.05,1.2c8.74.29,17.48.35,26.22.56a7.7,7.7,0,0,0,1.17-3.32c.14-4.87.15-9.74.21-14.61.75-.2,1.5-.39,2.26-.56a2.54,2.54,0,0,0,.07-3.7c-.75-.2-1.48-.43-2.2-.68,0-1.48-.05-4.46-.06-5.95a17.89,17.89,0,0,1-2.14-1.84c-8.67-.36-17.34-.48-26-.51l-1.25,1.11q0,2.06.21,4.08m-.69,148.79.48,1.71c.52.61,1,1.2,1.55,1.82,8.67.49,17.32-.62,26-.06,2-1.75.17-5.19.63-7.52-.69-6.33.32-12.72-.08-19.07a16,16,0,0,1-1.65-2.35c-7.19-.37-14.4-.37-21.59-.49-1.85-.42-4.5.22-4.89,2.35-2.15,7.68-.36,15.78-.45,23.61m1.07-64.12c-.51,1.71.34,3.1.94,4.55,8.59.13,17.18.31,25.77.48a8.59,8.59,0,0,0,1.12-2.82c.22-8.32.39-16.65.39-25-.56-.57-1.1-1.16-1.62-1.76-8.66-.26-17.32-.46-26-.53l-.71.66c-.63,8.12,0,16.28.09,24.41m4.67-287.23a26.17,26.17,0,0,0,6-.43,2.58,2.58,0,0,0-2.43-1.21c-2.38-1.48-2.83.34-3.56,1.64m-5.6,419.16c2.55.07,5.07.24,7.61.48,6.36.21,12.74-.35,19.13,0,.58-.56,1.17-1.12,1.78-1.65,0-1.44-.1-4.32-.13-5.77a83.44,83.44,0,0,1,.29-14.57,10.34,10.34,0,0,0-1.23-8.14c-3.44-1-7.1-.49-10.62-.73-5.19.14-10.56-.9-15.58.89-2.21,2.39-1,6-1.4,8.87.08,6.89-.74,13.82.15,20.67m-.48,55.93a52.17,52.17,0,0,0,.53,7.7l1.08,1.24c2.3,0,4.6,0,6.92-.13,6.4-.79,12.84.62,19.25.13.74-9.44.11-19,.46-28.42-.37-.39-.73-.79-1.08-1.18-4.8-.17-9.6-.39-14.39-.23-4.13.66-8.25-.48-12.36.19-1.4,6.82-.47,13.81-.41,20.7m16.86,31c1.84.86,1.68-2.86,1.61-3.42a2,2,0,0,0-1.61,3.42m17.39-568.71c6.08.12,12.18,0,18.24.62,3.13.81,6.38-.43,9.21-1.77,0-2.58,0-5.13,0-7.73-.57-.56-1.12-1.12-1.65-1.71a83.69,83.69,0,0,0-18.1-.75,41.3,41.3,0,0,1-5.07.44c-.58.16-1.15.31-1.72.44-.61.54-1.22,1.07-1.83,1.57,0,3-.68,6.21.88,8.89m-1.71,62.56c1,.68,2,1.7,3.32,1.74,8.54.35,17.12-.06,25.62,1a16.06,16.06,0,0,0,.67-6.54c-.8-7.07,0-14.19-.11-21.3.41-1.61-.34-3.14-1-4.56q-5.49-.13-10.95.12c-5.71.62-11.7-1-17.1,1.56-.1,9.34-.35,18.67-.48,28m.4,65.44c9.5-.11,19.05,1,28.54,0,.08-8.91.47-17.83.42-26.74A45,45,0,0,1,514,308c-1,0-2.88,0-3.85,0-1.59,1.72-3.75,3.38-3.63,6-4.81,0-9.61-.12-14.4-.23a9.79,9.79,0,0,0,1.11-2.67c-.8-1.2-2.26-.31-3.33-.09-.13.84-.19,1.69-.33,2.52-1,1.27-2.27,2.24-3.08,3.61C486.18,325,486.16,333,486,341c-.5,1.74.37,3.08,1,4.54m.48,64.27c8.88.1,17.75.31,26.61,1.06l.69-.67c.36-8,.52-16.15.27-24.22a36.48,36.48,0,0,1-.36-5.14c-.34-.39-.67-.79-1-1.21-2.43-.12-4.87-.16-7.29-.29.21-.52.43-1.06.66-1.59l-2.12.06c-.23.52-.48,1-.73,1.53-4.55.76-9.18.35-13.76.38-1.84.9-4.16,2-4.16,4.38-.22,6.88-.3,13.76-.38,20.64-.73,2,.61,3.55,1.56,5.07M485.16,536c-.54,1.74.35,3.14,1,4.6,9.47-1.28,19.05.6,28.52-.62.86-2.16.33-4.46.11-6.69-.72-4.25-.37-8.55-.29-12.84l1.1-.66c-.27-3.61.86-7.86-1-11.14-1.74-.22-3.19,1.06-4.9,1-8,.14-16.09-.9-24.08.07-1.49,8.69-.37,17.51-.4,26.25m1-68.38c.41,2.49.09,5,.18,7.53,2.77,1.09,5.75-.25,8.61.42,6.52.56,13.07.62,19.62.61l.75-.64c.23-2.36-.29-4.72-.44-7.08-.75-7.38-.06-14.8-.14-22.2l-.64-.76c-6.58-.31-13.17,0-19.72-.7a53.86,53.86,0,0,0-6.83-.33c-.4.39-.78.78-1.18,1.15-.21,7.34-.61,14.67-.21,22M484.9,591.15c.75,4.51-1,9.51,1.1,13.74,2.53,0,5.05,0,7.59-.2a117.75,117.75,0,0,1,20.22.64c1.84-2.09.19-5.54.57-8.07-.78-7,.75-13.9.67-20.86-1-.73-1.94-1.44-2.88-2.22-6.45-.32-12.92-.47-19.37-.47-2.82-.23-5.43.89-7.92,2-.06,5.14-.32,10.3,0,15.44m0,76.08.63.78c4.14.42,8.29-.53,12.43,0a39,39,0,0,0,9,.18q3.18-.21,6.39-.22c1-1.43,2.44-2.86,1.7-4.9-.78-7.75.14-15.53-.16-23.29a14.9,14.9,0,0,0-2.07-3c-6.06-.15-12.12-.45-18.17-.1-2.63.46-5.47-.29-7.95.81a5.37,5.37,0,0,0-1.37,4.86c-.1,8.32-.4,16.64-.4,25m.53,65.56c4.88-.59,9.81-.2,14.71-.48,4.1-.36,8.17.81,12.28.36,2.1-.43,3-2.9,2.57-4.83.31-2.27-1-4.18-1.47-6.29a43.26,43.26,0,0,1,1.19-13.41c.4-1.91-.34-3.73-1-5.48-7.72-1.32-15.62-.67-23.4-1-1.6-.28-4.2,0-4.74,1.93a21.6,21.6,0,0,0-1.09,8c-.06,5.59-.25,11.17-.27,16.76a4.79,4.79,0,0,0,1.17,4.45m-.31,14c1.33.45,1.48-1.25,1.78-2.14-.87,0-1.73,0-2.58-.05a5.57,5.57,0,0,0,.8,2.19m-.35,43c-.73,2,.61,3.55,1.57,5.07,7.44.12,14.87.39,22.32.41,1.63.45,3.12-.36,4.54-1,.32-9.34,0-18.69-.58-28-7.05-1.45-14.44-.63-21.58-.67a44.51,44.51,0,0,1-5.13.35c-.42.33-.84.67-1.26,1,.28,7.61.39,15.22.12,22.83m21.58-540.71a2,2,0,0,0-2.48-1.73c.3,1.28,1.11,2,2.48,1.73m2.75,176.19c.94-.09,2,.14,2.71-.7.13-1.2-.62-2.23-1.06-3.31l-2.56.2c-2,.84.12,2.81.91,3.81m3.35-177.85,1.69.73a27.85,27.85,0,0,0,.63-2.77l-2.37-.1c0,.72,0,1.43.05,2.14m6.06,1.37c9.55,1.26,19.25.7,28.86,1l.74-.71c.23-9.18.48-18.37.4-27.57a17.18,17.18,0,0,1-1.72-2.34c-2.15-.9-4.28.43-6.46.34-6.49-.05-13-.35-19.46-.28-.57.57-1.14,1.13-1.72,1.67-.39,9.28-.41,18.58-.64,27.86m-.16,53.92c.34,3.17,0,6.38.15,9.54l.61.8a66,66,0,0,0,8.55-.13c6.36-.69,12.74.3,19.1.59.41-.37.83-.75,1.27-1.12,0-2.31,0-4.6-.12-6.93-.66-7.32.26-14.7.14-22.05-8.51-.08-17-.52-25.5-.27-1.51.33-3.6-.29-4,1.58a140.27,140.27,0,0,0-.18,18m-.41,74.33c.43,1.37,1.37,3.29,3.44,1.78,8.39-.54,16.8.22,25.2.13l.71-.67c.29-2.47.18-4.94.38-7.43a11.86,11.86,0,0,0,2-1.48c.36-1.77-1.86-2.74-2-4.43,0-5.68-.29-11.36-.36-17.05a2.89,2.89,0,0,0-2-.9c.22-1.05.92-2.48-.25-3.23-2.67-.16-5.3.3-8,.15a6.85,6.85,0,0,0-3.6.25c-.42,1.2,1,1.58,1.79,2,1.65.43,3.83-1.2,5,.7-4.3.11-8.6-.08-12.89-.09a7.22,7.22,0,0,0,.44-2.68,1.6,1.6,0,0,0-2.71-.05,7.74,7.74,0,0,0,.31,2.66l-5.21,0c-1.69,1.23-3.11,3.2-2.54,5.46-.21,8.29-.63,16.61.25,24.87M517,442.76c1.81,1.57,4.36,1.67,6.64,1.75,7.46-.6,15-.19,22.43-.11,1-2.86.57-5.92.73-8.9,0-6.5.33-13,.31-19.53.32-2.25-.8-4.23-1.53-6.25-1.53.59-3.23,1.18-4.14,2.64-7.09.29-14.2-.61-21.26,0a2.8,2.8,0,0,0-2.59,2.52c-.34,9.28-.33,18.57-.59,27.84m3.06-162.08c1.77,1.72,4.44.95,6.66,1.34l0-2.9a28.49,28.49,0,0,0-6.59-.09l-.12,1.65M515.89,565.2l1-.59c.08,2.84-.19,5.79,1,8.44q14.25.23,28.53.54c1.9-2,.92-4.92.84-7.37-.25-6.09.28-12.2.19-18.31.29-2.22-.6-4.27-1.51-6.21-9.28-.13-18.56-.46-27.84-.43-.57.56-1.15,1.12-1.73,1.66-.32,7.42-.41,14.85-.48,22.27m1.06-57a12.87,12.87,0,0,0,5,.66c8.32.12,16.63.39,25,.42l.74-.64c.31-3.28.1-6.58.2-9.87l-1.05-.67c.06-6.28.29-12.55.24-18.84-.37-.4-.74-.82-1.1-1.23-8.64.72-17.29-.06-25.93.18-2.12.4-2.94,2.95-2.55,4.86-.25,8.38-.32,16.76-.48,25.13m-1.23,185,.95.69c.08,2.21.29,4.43.53,6.63,9.45.19,18.91.48,28.37.46l1.23-1.08c.05-2.31,0-4.63-.1-6.94-.83-5.44-.67-11-.57-16.44.3,0,.91,0,1.22,0-.16-1.34-.49-4-.65-5.36a4.47,4.47,0,0,0-3.74-2c-8.54-.14-17.07-.38-25.61-.36-.58.56-1.16,1.1-1.76,1.63-.52,7.6.39,15.18.13,22.78m1.17-59.3L518,635q12,.36,23.93.49a4.8,4.8,0,0,0,5-1.78c-.09-1.31,1-2.73.62-4.1-3.67-7.07.76-15.2-1.62-22.55-9.36-.08-18.69-.67-28-.52-.71,1.77-1.55,3.59-1.2,5.57-.4,7.24.7,14.44.28,21.69m-1.31,129.64c.53.59,1.06,1.2,1.58,1.82,2.12,0,4.23,0,6.36-.14,7-.48,14,.14,21,.17.48-1.83,1-3.66,1.28-5.53.86-.25,1.72-.48,2.59-.68.05-.4.14-1.21.18-1.61-.74-.25-1.47-.47-2.21-.68-1-2.62-.4-5.48-.47-8.21l1.18-.72a5.58,5.58,0,0,0-.89-3.51c-.05-2-.13-6-.17-8-2.35-1.35-4.91-2.55-7.7-2.45-7.37-.48-14.74.07-22.1.19l-.79.64c-.13,9.57-.81,19.18.15,28.74m5.79,8c1.94,1.9,4.65,2.16,7.26,1.89a12.38,12.38,0,0,0,1.74-2.84,3.67,3.67,0,0,0-1.19-2.62c-1.89-1.27-4.37-.41-6.45-.8-.61,1.39-1.52,2.74-1.36,4.37M536,281.8c3.43-.38,6.9,0,10.35-.09a33.07,33.07,0,0,0,.73-3.28c-1.7-.69-3.47-1.62-5.39-1-2.94.26-6,0-8.71,1.33q-.85,4.2,3,3m8.27-63.71c1.11-.14,2.2-.35,3.3-.58,0-.8,0-1.6,0-2.41a27,27,0,0,0-3.31,1.15c0,.46,0,1.38,0,1.84m6-1.16c7.59.18,15.18.46,22.79.42.92-.33,1.21-1.82,0-1.93A68.43,68.43,0,0,0,552.27,212c-1.3,1.32-2.62,2.8-1.92,4.93M550.29,267c.67,4.46-.15,9,.07,13.48l.71.73c9.17.25,18.35.44,27.53.51l.75-.63a87.51,87.51,0,0,0,.11-9.31c-.69-6.07,0-12.18-.24-18.28a15,15,0,0,0-2.12-3.07c.76-.24,1.52-.45,2.3-.64.41-2,.05-5.44-3.23-3.77-3.3.33-6.62.44-9.92.49-.37.53-.74,1-1.13,1.54.16.88.29,1.76.4,2.63-4.63,0-9.24-.15-13.86-.15-1.86,2.07-.4,5.61-1.17,8.12a39.54,39.54,0,0,0-.2,8.35m-.61,78.87c.17.19.52.56.7.74l8.22.16-.6-1.09c4.21,0,8.43.08,12.64.51a32.49,32.49,0,0,0,7.32.38c2-1.34,0-4.43.57-6.35-.72-9.79,1.17-19.73-.9-29.42-2.6.14-5.34-.35-7.74.86a13.42,13.42,0,0,0-4.8-.41c-1.31,1.66-3.44.48-5.21.43-1,1.6-.88,4.81-4,3.26a4.91,4.91,0,0,0-5,1.72,23.93,23.93,0,0,0-.84,7c-.08,7.4-.35,14.79-.36,22.18m-.07,65.47c.59.35,1.15.74,1.71,1.14l6,.28c0-.29,0-.86.05-1.15,6.48.12,12.95.33,19.43.26.56-.76,1.2-1.46,1.7-2.28.56-2.22-.05-4.55,0-6.83-.69-7.27.35-14.62,0-21.92-1.69-.74-2.33-2.37-2.8-4a29.32,29.32,0,0,0-6.39,1.06c-.2.93-.17,2-.91,2.66a37.14,37.14,0,0,1-10-.84,7.29,7.29,0,0,1,1.82-1.59,16,16,0,0,1,1.28,1c.65.07,1.29.13,1.95.17.23-.59.47-1.19.73-1.79-1.32-.09-2.63-.14-3.93-.17a12.37,12.37,0,0,0-2.09-.29c-1.16.54-.46,1.84-.33,2.76-2.12.56-4.4.34-6.48,1-2.39,3.68-1.76,8.53-2.06,12.7.18,5.91-.89,12,.34,17.78M548.77,466c.36,3.21.1,6.45.2,9.64l1.08,1.24c8.67-.67,17.36-.06,26.06-.14l1.2-1.07c.25-9.59.48-19.19.57-28.79l-.71-.73c-9.17-.24-18.36-.43-27.53-.51l-.76.64c-.2,6.57-.46,13.16-.11,19.72m-.41,73.29c.55.39,1.09.81,1.63,1.24,7.75.32,15.53.46,23.3.52,1.66.52,3.16-.39,4.58-1a94.27,94.27,0,0,1,.06-19.87c.52-2.42.23-4.92.33-7.38-.58-.57-1.14-1.14-1.69-1.74-8.28-.29-16.57-.53-24.85-.41-.58.39-1.15.76-1.74,1.1-.73,1.71-1.54,3.49-1.32,5.42-.24,7.38-.41,14.76-.3,22.13m-.53,51,1,.66c.39,4.6-1.26,9.68.86,14q12.87.21,25.74.49c1.95-1.17,4.21-2.19,5.23-4.38-.77-.26-1.54-.5-2.33-.71-.39-.85-1.16-2.55-1.54-3.4a111.24,111.24,0,0,1,.73-17.21c.5-1.88-.23-4.44-2.33-4.92-8.26-.5-16.55-.42-24.82-.57-.67,1-1.14,2.27-2.24,2.89-.37,4.39-.26,8.79-.34,13.17m-.62,134c.77,3.42-1.11,7.74,1.91,10.29,2.8.23,5.4-1.14,8.2-1,6.19-.67,12.33.74,18.54.47,2-4,.3-8.59.74-12.87-.25-6.07,1-12.32-.33-18.29-1.65-2.13-4.84-1-7.08-1.45-7.09,0-14.22-.75-21.26.2a32.51,32.51,0,0,0-1.08,5.26c-.25,5.79.47,11.58.36,17.38m.85-57.54.64.73c7.88.4,15.78.16,23.66.6.43,1.69,3.61,1.79,4.64.42a32.65,32.65,0,0,0-.49-9.2c-1-6.5.33-13,.46-19.52-1.06-1.34-2.51-2.66-4.34-2.56-7.6-.13-15.21-.32-22.81-.31l-1.2,1.07c-.26,9.59-.49,19.18-.56,28.77m-.12,122.06c1.26.9,2.47,2.07,4.32,1.2,3.76-.51,7.25-2.45,11.12-2.27,4-1.25,8.87-.93,12-4a63.14,63.14,0,0,0,.83-12.74c.39-1.67-.35-3.11-1-4.54-8.58-.13-17.16-.31-25.75-.47a8.23,8.23,0,0,0-1.8,6.11c-.21,5.6.49,11.17.28,16.76m12.94-539.76c1.17,0,2.44.09,3.13-1.05a10.54,10.54,0,0,0-2.32-.65,14.64,14.64,0,0,0-.81,1.7m12,172.81c.89,1.64,2.86-.18,3.76-1,.62-1.71-2.57-2.45-3.42-1.24-.71.5-.39,1.54-.34,2.26m8.9-173.65,1.07,1.2c8.84.24,17.69.49,26.54.48.2-.14.58-.45.77-.6-1.11-7,.57-14-.18-21.08-3.38-3.5-8.25-4.7-12.61-6.5-4.35-2.06-9.32-.89-13.93-1.21l-1.2,1.08c-.27,8.87-.46,17.75-.46,26.63m.89,65.53c8.87.14,17.74.45,26.61.47l.76-.64c.22-8.5.41-17,.46-25.53.14-2.81-1.45-5.31-1.21-8.14a23.42,23.42,0,0,1-1.5-2,74.72,74.72,0,0,1-19,2.16c-1.82-.31-3.6-1-5.48-.93a4,4,0,0,0-.08,3.48,22.6,22.6,0,0,1-1.61,2.23c-.39,8-.43,15.92-.55,23.87-.73,2,.61,3.55,1.56,5.08M582,379.09c8.55.26,17.11.38,25.66.53a15.84,15.84,0,0,0,1.53-2.41c-.65-9,.26-18,0-27.06-.56-.56-1.1-1.14-1.63-1.74-.71,0-1.41-.1-2.11-.15l0-.51,1.52-.09,1.28-1.13c-.08-.92.15-2-.66-2.68-3.54.18-6.84,2.13-10.47,1.49-2.6-1.39-3.71.79-3.53,2.68-3.46,0-6.91-.07-10.35,0q-.9.57-1.8,1c-.26,6.29-.29,12.58-.86,18.85.27,3.73-.14,7.65,1.36,11.15m-2.29,64.74,1.07,1.2c8.91.32,17.82.33,26.73.59,1.82-1.81.89-4.6.92-6.89-.65-8.25,1-16.62-.48-24.81-1.68-1.19.64-3.5-1-4.61-2.16.38-4.64-.08-6.63,1a7.85,7.85,0,0,0,1.11,2.2l-6-.21q-.32-1.14-.69-2.28a28.16,28.16,0,0,0-2.39,1.65c-1.55,0-3.23,0-4.73-.1-1.2-1.18-2.27-3-4.39-2.17-.88,2.1-2.33,4-3.06,6.09q-.45,14.16-.48,28.34m-.82,65.49c1.83,1.78,4.61,1.17,6.89.87,7.08-1.25,14.29-.12,21.43-.34l.74-.66c.61-6.75-1-13.53.16-20.29a18.06,18.06,0,0,0-.26-8.46c-.93-1.3-2.94-1.48-4.34-1.36-6.5-.17-13-.33-19.51-.35-1.73-.42-3.08.33-4.53,1-.17,9.88-.34,19.75-.58,29.62m4.63-163.44c.08-.51.23-1.51.31-2l-2,.23a6.81,6.81,0,0,0,1.7,1.77m-1.2-13.71a17.2,17.2,0,0,0,3.85,2.39c-.24-.68-.53-1.34-.84-2s-.51-1.33-.77-2l-2.24,0c0,.41,0,1.24,0,1.65m-3,188.75c1.46,2.36,3.31-1.51,1.55-2.56-1.53-.46-1.86,1.48-1.55,2.56m.15,51.41.6.76c6-.9,12.07-.34,18.09,0a31.91,31.91,0,0,0,10.32-.09c-.3-4.77-1.3-9.47-1.21-14.28-.38-2.1.16-4.21.48-6.29l1.11-.74c.84-3.06-.12-6.15-1.44-8.9-8.38,0-16.74-.38-25.1-.32-1.24,1.11-3.34,1.75-2.75,4-.92,8.58.36,17.22-.1,25.82m-.75,113.83c.28,4-.13,7.93.11,11.89a3.25,3.25,0,0,0,2.7,2.48c8.35.33,16.72.29,25.09.56.24-.7.48-1.41.7-2.13l.9-.75c0-2-.31-4.73,2.36-4.46,0-.72,0-1.45,0-2.17-.87.15-1.72.34-2.58.53-.16-.79-.23-1.69-1.19-1.84a102.43,102.43,0,0,1,.47-11.87c.18-2.07.28-4.16.31-6.25-.57-.58-1.13-1.17-1.66-1.78-7.69-.46-15.42.07-23.06-.83-1.3-.25-3.19-1.71-4.11-.15-1.36,5.5-.86,11.22-.06,16.77m.71-51.28c.14.2.43.58.57.77,9.43.12,19,1,28.36.06.05-1.43.11-2.86.2-4.3,1.46-.36,3.63-.89,2.19-3.31-.61-1-1.82-.72-2.78-.87-1.56-2.9-1-6.24-.92-9.4l1.09-.64c.09-2.59.11-5.17.2-7.77l-2.94-2.29q-9.69-.28-19.37-.34c-2.29.11-4.86.05-6.78,1.5-.11,8.87-.61,17.75.18,26.59m-.87,129.34a6.65,6.65,0,0,0,1.73,1.14c4.79-.34,9.56-1.27,14.38-.72,3.88.32,8.22,1.57,11.84-.38.26-8.68.1-17.37.31-26a15.26,15.26,0,0,0-2.14-3.54c-8.53-.45-17.1-.7-25.58.56-.7,1.36-1.71,2.74-1.2,4.43-.24,8.19.1,16.39.66,24.55m4.77-43.93c.94-.13,2,0,2.76-.73.44-1.61-1.66-1.59-2.71-1.72,0,.82,0,1.64,0,2.45m7.1-134.71c1.61.45,1.59-1.65,1.73-2.71l-2.46,0c.13.94,0,2,.73,2.75m6.11-2c2.16,1.26,4.59-1.28,2.72-2.81a9.66,9.66,0,0,0-2.72,1v1.81m15.26-301.24c.37.38.73.76,1.1,1.13a12.68,12.68,0,0,1,5-.85,210,210,0,0,1,22.15.86l.69-.67c.28-5.91,0-11.86.87-17.73,0-4.38.83-9.38-1.34-13.4-8-.09-16-.34-24-.4l-.7,1-1.5.15c-.4.37-.8.72-1.2,1.07-.38,7.9-.05,15.83-.8,23.71a22.77,22.77,0,0,0-.3,5.14m-.72,128c.36.41.72.83,1.09,1.23,2.11,0,4.22,0,6.35-.14a119.27,119.27,0,0,1,12,0c.15.28.47.84.63,1.12,3.11.08,6.22-.15,9.33-.35.55.62,1.13,1.22,1.73,1.79-.75,10.34-1.06,20.69-1,31.05l1.13,1.2a68.77,68.77,0,0,0,8.49-.1c5.5-.29,11,.07,16.51,0,1.64.53,3.16-.38,4.59-1-1.3-11.44.76-23-.73-34.41-.46-1.68-2.46-.22-3.65-.28-.48.66-1,1.33-1.39,2-5.75,1.62-11.87,0-17.73.38-3.43,1.21-4.88-3.48-8.28-2.48,0-5.09,0-10.21.53-15.3.37-3,.36-6.11.47-9.19l-1.68-.08c.19-1.2.36-2.4.5-3.62a14.08,14.08,0,0,1-1.52-1,8.24,8.24,0,0,1,.48-2.12c-1.15-.86-2.49-1.86-4.07-.87-2,.29-4.2.14-6.07,1.07a17.57,17.57,0,0,0-3.61-1,24,24,0,0,0-1.33,2.75c-4.06.3-8.77-1.18-12.29,1.45-.13,9.29-.46,18.56-.43,27.84m1.23-64.82,1.08,1.2c6,.27,12.08.07,18.1.69a24.3,24.3,0,0,0,6.71.26,3.42,3.42,0,0,0,2.56-3.18,81.15,81.15,0,0,0-.14-8.68c-.42-6.77.07-13.56.13-20.36l-4.08-.25c.8-.31,1.61-.6,2.42-.92-.39-1-.76-2-1.15-2.95a3,3,0,0,0-2.86,4c-5.93,0-11.86-.28-17.79-.27-1.73-.4-3.08.33-4.53,1-.11,9.84-.48,19.68-.45,29.52m-2.44,194.86c.27.51.54,1,.84,1.47,7.18.16,14.38,0,21.55.69a45.44,45.44,0,0,0,6.82.32c.39-.37.8-.74,1.21-1.11,0-1.44.08-2.87.11-4.31l-1-.71c.05-5.48,0-11,.57-16.45.17-2.07.28-4.16.31-6.26-1.2-1.11-2-2.92-4-2.71a1.55,1.55,0,0,0-1.49-.88,114.53,114.53,0,0,0-12,0c-4.37.65-9-.26-13.15,1.68,0,9.41-.87,18.86.28,28.23m.83-70.37c.11,2.14.18,4.29.19,6.42.87.39,1.77.73,2.66,1.09a9.43,9.43,0,0,1,2.85-.44c7.22.15,14.49,0,21.68.95.39-.39.79-.77,1.2-1.16.21-5.72.3-11.45.34-17.19l1.88-.8a17.14,17.14,0,0,0-1.65-2.16c-.07-3,0-6.07-.13-9.12a6.05,6.05,0,0,1-1.07-3.68c-2.8-.71-4.31,2-6.63,2.66-6,.21-12.1-.49-18.13-.09a9.37,9.37,0,0,0-3.06,1.41c-.06,7.37-.55,14.75-.13,22.11m3.93-155.67a68.84,68.84,0,0,0,13.07-.36,10.92,10.92,0,0,0,.94-1.42c-4.05-1.17-8.4-.51-12.36-2a18.17,18.17,0,0,0-2.39,1c.11.95-.15,2.09.74,2.74m-4.6,291.21q13.71.26,27.44.53c1.74-2.38,1.1-5.37,1-8.12a54.24,54.24,0,0,1,.28-13.35c1.18-2.56.86-5.4,1-8.15a15.16,15.16,0,0,0-3.43-1.13c-8.37-.28-16.74-.28-25.11-.52-2.42,3.12-1.55,7.54-1.9,11.16.64,6.51,0,13.08.73,19.58M609,647.74c.71,6.32-.32,12.72.09,19.06.55.4,1.09.82,1.62,1.25,8.83.48,17.69.07,26.5,1.08l.71-.59c.34-9.63.36-19.28.58-28.92-1-.68-2-1.68-3.32-1.74a146.51,146.51,0,0,0-14.82,0c-3.64.31-7.31.07-10.92.57a31.07,31.07,0,0,0-.44,9.28M608.2,733c2.8,1.89,6.3,1.08,9.48,1.26l.66-1.06c5.91.07,11.82.26,17.73.22.4-.37.82-.74,1.24-1.09,0-2.12,0-4.23-.15-6.35a66.89,66.89,0,0,1,.43-15c1-2.64,1.23-5.72-.23-8.24-8.76-.29-17.54.08-26.26-.85-.54.53-1.09,1-1.65,1.54-.45,8.08-.06,16.2-.82,24.26a28.36,28.36,0,0,0-.43,5.28m1.56,39.2c3.45.52,6.39-1.14,9-3.25,0-.42,0-1.26,0-1.68l-8.17-.1c-1.81.93-.05,3.71-.85,5m3.11-75.44c1.08.34,1.39-.79,1.82-1.52-1.18-.28-2.35-.59-3.54-.8,0,1.05.3,2.66,1.72,2.32m30.9-394q0,5.51,0,11c.35.4.71.79,1.08,1.18l6,.15.69-1c5.63.09,11.29-.07,16.9.67,1.41,0,3.24,1,4.24-.43.43-5,0-10,0-15,.64-4.65-.29-9.3,0-14l-1.22-.85c-8.91.49-17.79-.65-26.71-.21a30,30,0,0,0-.92,18.49m0-53.37c2.17,2.85,6.55,2.45,9.46.95,0-.73,0-1.47,0-2.22-1-.85-2.12-1.62-3.13-2.49-.29-.75.54-1.2,1-1.7-.5-.89-1-1.75-1.58-2.6l-1.62,0c-.48.77-1.44,2.31-1.93,3.07-2.1.68-2,3.26-2.12,5m-.9,131c5.06-.16,10.1.91,15.16.41,4.64-.14,9.3,0,14,.12.37-.63,1-1.2.86-2-.63-9.46.62-18.95-.07-28.41-.53-2.37-.78-4.84-1.76-7.09-1.87.15-3.89-.29-5.61.58-6.82,2.84-14.36,3.07-21.65,2.93l-.74.64c-.3,3.21-.16,6.46-.52,9.66-.8,6.17-.41,12.45-.59,18.65-.54,1.74.36,3.08,1,4.53m-1.76,127.34.82.81a9,9,0,0,0,.8,2,65.45,65.45,0,0,1,8.64-.63c5.83-.58,11.71,0,17.53.51a14.42,14.42,0,0,0,2.3-.9c0-9.71,1-19.38.5-29.09a8.63,8.63,0,0,0-2.83-1.69,157.41,157.41,0,0,0-16.4-.07c-3.8.65-8-.73-11.48,1.14-.47,9.31.63,18.58.12,27.9m-1.73,115.77c-.22,4.3.37,8.56.4,12.86a11.32,11.32,0,0,0,2.71.6c9.31.26,18.63.33,27.94.54.25-8.11,0-16.25.75-24.34a35.43,35.43,0,0,0,.42-5.26c-2.34-.76-4.87-.58-7.28-.72-6.52-.09-13-.28-19.56-.33-2.5-.66-5.86,1.09-5.46,4.05-.87,4.16.38,8.4.08,12.6m1.9-95.17a4.62,4.62,0,0,0,1.58,1.37c1-.46,2-1.42,1.68-2.67-.95-1.54-4.11-.76-3.26,1.3m2.1,45.34a57.68,57.68,0,0,0,12.11-.1c5-.11,10,.15,15,.21.21-8-.57-16-.13-24l3.57-.07a2.36,2.36,0,0,0-2.79-2.33,9.4,9.4,0,0,0-1.27-3.73c-7.59-.16-15.17-.45-22.75-.42-2.08.46-5,.3-5.6,2.82-.49,7.54-.4,15.14-.55,22.7-.47,1.91.27,4.45,2.36,5m2.34-254.13a5.44,5.44,0,0,0,4-.62,5.88,5.88,0,0,0-1.78-3.22c-2-.18-3.21,1.73-2.21,3.84m-5.45,380.33.64.79c9.21.22,18.43.42,27.64.45.38-.37.77-.75,1.17-1.12.36-9.28.38-18.58.63-27.87a11.21,11.21,0,0,0-6.12-1.21c-7.84.08-15.73-.82-23.54.1-1.45,9.55-.56,19.25-.42,28.86m-.52,39.61c.25,6.07.12,12.17.54,18.25,1.68.25,3.41.27,4.09-1.47a26.15,26.15,0,0,0,5.5-2.74c6.76-2.82,12.49-7.46,18.44-11.63,1.36-1.34,1.15-3.59,1.32-5.3-.41-.39-.81-.8-1.19-1.21-9.28-.35-18.57-.39-27.84-.62-.71,1.46-1.76,3-.86,4.72m16.52-412.65c.57,1.15,1.85.49,2.78.28-.25-.54-.49-1.08-.71-1.64-.55-.25-1.09-.51-1.61-.77a6.36,6.36,0,0,0-.46,2.13m6.93,195.16c.58,1.18,2.34,2.09,3.21.68.39-1.42-.5-2.68-1-3.92-1.47.15-3.69,1-2.17,3.24m11.86-240.06,1.07,1.2c7.07.25,14.16.34,21.24.4-.23-1.38-.33-2.86-.66-4.27a13,13,0,0,1-2.26-1.71c-.37-.07-1.1-.19-1.47-.24,0-.4,0-1.2,0-1.6-2.87-2-5.37-4.57-8.53-6.08-.64-.83-1.32-1.62-2-2.41-1.95-.63-3.85-1.6-6-1.45a16.63,16.63,0,0,0-1.14,2.42c-.26,4.58-.24,9.17-.21,13.74m-.43,81.34c1.76-.35,1.73-2,1.7-3.46l-1.77-.1c0,1.19,0,2.38.07,3.56m3-14.69c2.26-.31,4.32-1.66,6.67-1.54,6.48.11,13,.37,19.46.3.4-.36.81-.73,1.23-1.09,0-2.12,0-4.24-.13-6.37-.8-7.87.78-15.84-.4-23.7-9.26-.21-18.51-.43-27.76-.56l-.61.8c-1.4,9-.9,18.07-1.18,27.09-.61,2.12.48,4.66,2.72,5.07M672.29,527c.36,5.14-.55,10.68,1.74,15.47,9.46,0,18.92-.5,28.4-.05,1-1.47,2.39-2.9,1.68-4.95-.58-8.35,0-16.7-.07-25.06-.39-.41-.76-.83-1.11-1.25-1.37,0-2.74.11-4.09.21-7.66.48-15.32-.35-23-.05a15.7,15.7,0,0,0-2.44,1.54A37.09,37.09,0,0,0,672.29,527m.67-50.54a16,16,0,0,0,2.43,1.57c9.14.73,18.32.28,27.47,0l.76-.6c.34-9.94.43-19.89.59-29.84l-.71-.74c-9.16-.19-18.37-.76-27.5.21-1.75.22-2.63,2-2.58,3.64-.18,8.58-.3,17.16-.46,25.72m1.66-72.88c.47,2.67.07,5.42.13,8.1,2.48,2,5.62.75,8.41.19,6.65-.08,13.3.34,20,.22.39-.35.79-.72,1.2-1.07.22-7.15.5-14.32.2-21.48q-.19-3.06-.32-6.16c-.76-1.52-2-2.89-2.17-4.63l-1.46-.18-.1,2.81c-3.28-.05-6.56-.08-9.8.12-4.9.35-9.8,0-14.69.09-.4.37-.8.72-1.2,1.07-.19,7-.53,14-.16,20.92m-1.7,200.18c.38.56.75,1.14,1.11,1.73,6.45.39,12.92.3,19.39.52,3-.14,6,1.11,8.91.17,1.17-3.4.5-7.09.79-10.62-.18-6.71,1-13.6-.67-20.19-9.35-.07-18.68-.34-28-.47-.81,1.17-1.9,2.33-1.78,3.85-.28,8.34.47,16.67.27,25M672.78,668c2.39,2.61,6.59.9,9.67,1.2,6.38-.68,12.85.23,19.28.08,1.5-7.8.2-15.89,1.29-23.76.17-2,.26-4.06.25-6.1a14,14,0,0,1-1.19-1.38c-8.17.61-16.37-.18-24.53.43-1.94-.3-3.44.78-4.9,1.78a19.23,19.23,0,0,0-.66,5c-.21,7.57-.68,15.27.79,22.75M671,731.74c.57.78,1.07,1.59,1.57,2.41l3.25.05c2.5.91,4.15-1.12,5.87-2.4,3.51-2.41,6.88-5,10.3-7.53,1.38-3.3,4.75-5,7.23-7.33,2.57-2.07,3-5.63,3.13-8.69.59-2-.27-3.82-1.31-5.4-7.64-.12-15.28-.33-22.91-.39-.25-.6-.49-1.21-.71-1.82-2.23.38-4.06,1.81-6,2.79-.14,9.44-.54,18.87-.4,28.31m15-57.27c.67,1.38,3.18.77,2.75-.88-.15-2.14-3.71-1.15-2.75.88M708.4,316.21a30.19,30.19,0,0,0,8.09-.77c3.45-.56,7-.15,10.47-.65-.32-1.7.21-4.11-1.44-5.3-.08-.32-.24-.95-.33-1.26-1.73-1.81-3.15-3.92-5.08-5.54-1.58-1.25-1.93-3.75-4-4.37s-3.36-2.75-5.17-3.95c-2.33-1.45-3,.74-3.24,2.22q-.27,7.25-.24,14.47c-.29,1.83.38,3.49,1,5.15M705,483c1.32,8.92-.1,18,1,26.9l1,1.23c9.26.64,18.49-.51,27.77-.07.39-.37.81-.73,1.23-1.09-.11-6.66-.59-13.31-.12-20l1.09-.66c0-1.45-.08-4.35-.1-5.8-1.08-.94-1.36-2.39-2.09-3.55-2.46-1.47-5.55-.49-8.22-.87-6.89.14-13.83-.82-20.67.2-.32,1.22-1,2.4-.91,3.69m1.45-87.35c1.62-.16,3.32-1.28,2.29-3.47l-2.34-.1c0,.89,0,2.68.05,3.57m.32-16.52c.75.34,1.5.7,2.25,1.07,9-1.76,18.19-.11,27.27-.39.2-9.89.34-19.78.59-29.67-3.3-1.57-7.09-1.07-10.61-1.29-6,0-12-.61-17.93.21-1.33,6-.31,12.18-1.17,18.19a85.78,85.78,0,0,0-.4,11.88m.87,67.82c7-.34,14-1.72,21-.46,2.06.2,4.15.3,6.25.32.4-.38.81-.75,1.23-1.12.17-7.9.6-15.8.21-23.7-.29-2.26-.2-4.54-.28-6.84-.35-.39-.69-.79-1-1.21-9.13-.32-18.26-.32-27.37-.61a15.24,15.24,0,0,0-1.17,6.16c-.18,7.45-.34,14.9-.41,22.34-.73,2.06.64,3.57,1.58,5.12m-2.85,105.3c.41,6.78-.07,13.58-.15,20.37,1.21.73,2.09,2,3.9,1.12,8.56-.85,17.17-.13,25.71.62,1.79-8-.41-16.59,2.26-24.48l-1.19-.75c0-1,0-2.88,0-3.85a9,9,0,0,0-2.84-1.69c-7.42-.27-14.83-.35-22.23-.46-2.36-.79-4,.93-5.64,2.16,0,2.32,0,4.65.15,7m.84,84.7c9.33.18,18.66.34,28,.54.73-1.11,1.69-2,.87-3.64a40,40,0,0,1-.23-13.45,40.55,40.55,0,0,0,.1-6.14c-.62-1.87.59-4.35-1-5.81-8.85-.32-17.75-1.74-26.59-.53-1.22,1.56-2.53,3.32-1.84,5.52q-.19,11.76.65,23.51m-1.75,64.25c1.15.68,2,1.82,3.7.93,2.31-.5,5.65.72,7.22-1.66l1.32-.24c3.32-4,7.13-7.46,10.25-11.59,1.08-1.52,2.68-2.8,3.25-4.66l1.25-1.45c.52-1.8,1.81-3.22,2.53-4.92-.62-1.6,1.56-5.6-1.06-6-9.1,0-18.26-.91-27.34,0a12.13,12.13,0,0,0-.6,4.5c-.26,8.38-.28,16.76-.52,25.14M738.57,349c1,1.36,2.92,1,4.47,1.26a49.26,49.26,0,0,0,7.58-2.18c2.48-.95,1.66-4.69-.13-6-2.25-2.09-4.46-4.59-5.16-7.67l-.82-.81c0-.37-.1-1.12-.14-1.49-.78-.54-1.54-1.08-2.25-1.68l-2.1-.22c-.79,1.54-1.81,3.18-1.23,5-.11,4.61-.25,9.21-.22,13.8m-1.17,110c1.2,5.95.26,12.06.47,18.07l1.12,1.26c9.44-1,18.93.08,28.4,0,.06-8.11.56-16.24.18-24.36a35,35,0,0,1-.34-5.14c-.35-.39-.69-.78-1-1.18-6.51-.25-13-.34-19.49-.47-2.39.07-4.82-.21-7.09.57-1.09.9-1.09,2.47-1.38,3.74-.18,2.53-1.08,5-.85,7.52m1.15-46.76,1.1,1.23,5.8-.14c7.09-.6,14.24.3,21.37,0,.58-.56,1.18-1.1,1.8-1.64q0-3.18-.15-6.37a32.13,32.13,0,0,1-.12-3.93,10.37,10.37,0,0,0,2.23-.83c.1-1.26-1.39-1.57-2.1-2.35-.44-1.27,1.3-1.14,2-1.58.06-.72.12-1.44.19-2.16-.75-.24-1.49-.46-2.23-.67-1.32-3.76.5-8.1-1.48-11.69-8.53-.17-17.08,0-25.57-.9-3,1.79-2.19,5.84-2.57,8.76-.15,7.42-.33,14.83-.32,22.24m-1.82,128a23.5,23.5,0,0,1,1.71,2.26c9.23.54,18.49.43,27.74.72,2.15-3.53.79-7.83.87-11.73.49-4,.6-8,1-12q.24-3.11.3-6.26c-.38-.4-.75-.81-1.11-1.22-7.72-.16-15.45-.6-23.15-.21a28,28,0,0,1-5.33.18c-.4.87-1.21,2.61-1.62,3.48-.33,8.26-.47,16.55-.4,24.82M735.4,669.2c.77,1.87,3.58-.08,4.8.84,4.33-4.41,6.28-10.74,11.35-14.45-.19-3.28,2.35-5.62,3.38-8.52a8.51,8.51,0,0,0,2.32-4.43,15.78,15.78,0,0,0,1.45-2.4c-.32-.6-.71-1.14-1.07-1.71q-9.78-.19-19.54-.36c-.27.5-.52,1-.76,1.49l-1.52.7c-.2,6.43,0,12.88-.67,19.29a22.79,22.79,0,0,0,.26,9.55m1-66.72c-.31,1.92.81,3.44,1.74,4.92,9.25.45,18.49-.42,27.75-.07l.73-.64c.33-9.78.45-19.57.51-29.36-.57-.57-1.11-1.16-1.62-1.76-9.26,0-18.58-1.11-27.79,0-.48,1.26-1.29,2.44-1.28,3.82,0,7.69-.69,15.4,0,23.07m14.13-238.54a11.7,11.7,0,0,0,3.07-.57c-.7-.66-1.21-1.75-2.3-1.73a4.33,4.33,0,0,0-.77,2.3M749,573.51c1,.25,2.39-.26,2.12-1.52-.69-.9-1.88-.62-2.86-.75a3.38,3.38,0,0,0,.74,2.27M759.7,418.86c1.23.32,1.79-1,1.6-2.06a3.66,3.66,0,0,0-2.25-.83c.08,1-.23,2.18.65,2.89M764.46,373c.75.42,1.48.89,2.21,1.34a5,5,0,0,0,0-3.36l-2.3-.06c0,.7,0,1.39.09,2.08m5.34,71.67c.36.41.72.83,1.09,1.24,2.27,0,4.54,0,6.84-.16,3.67-.13,7.34-.15,11-.07,0-5.28-1.52-10.38-2.08-15.6-1-2.85-.81-6.55-2.91-8.75-.41-1.74-.84-3.49-1.29-5.23-2.92-2.73-7.46-.8-11-1.36l-1.2,1.07c-.27,9.62-.5,19.24-.51,28.86m-.35,129.82c4.63.09,9.27.2,13.92.18q.5-.58,1-1.17c.59-2.28,1.63-4.41,1.76-6.8.64-4.57,2.51-8.87,3-13.47.35-2.63,1.85-5,1.59-7.77l-.7-.71c-6.45-.3-12.9-.28-19.34-.38-1.45,1.64-3.3,3.47-2.31,6a95.07,95.07,0,0,1-.23,18.09c-.52,2.18.49,4.15,1.34,6.05m0-74.05c.39,3.25.07,6.53.09,9.78a6,6,0,0,0,1.69,1c7.23-.75,14.52.05,21.79,0,.79-1.56,1.67-3.11,1.21-5,.24-8-.65-15.94-.23-23.93-.38-.39-.73-.79-1.08-1.2-4.51-.24-9.07.06-13.54-.69a52.74,52.74,0,0,0-8.11-.93c-.82,1.18-1.92,2.35-1.81,3.9-.12,5.7-.36,11.4,0,17.09m.7,115.37c2.19-1.52,1.62-4.69,2-7-.62-.94-1.79-.75-2.75-.92-.67,1.43-1.67,2.87-1.23,4.57-1.16,1.67.27,3.93,2,3.32"></path><path class="cls-1" d="M524.08,771.64c-.13-.92-.82-2.2.32-2.74,1.3-.56,1.4,1.16,1.61,2-.65.23-1.29.48-1.93.72"></path></g></svg>