<svg id="Shapes" xmlns="http://www.w3.org/2000/svg" viewBox="0 0 1000 1000"><defs></defs><g id="Shape_120" data-name="Shape 120"><path class="cls-1" d="M800,751.2c-.14.65-.33,1.3-.54,1.95-.54.18-1.08.39-1.63.59a6.72,6.72,0,0,1-.9,2.74c-.08.25-.26.74-.35,1-.47.25-.93.53-1.38.82-1.12.36-2.21.79-3.36,1.07,0-.36-.06-1.08-.09-1.44-1.25-1.24-2.77-2.31-4.69-1.92-.19.44-.39.88-.58,1.33l-3.14-.08.44.82-.88.52c0-.35,0-1,0-1.39-1-.2-2-.38-3-.52-.16.21-.47.63-.63.83a23.36,23.36,0,0,1-2.88.36c-1-1.15-2.64-.49-4-.87-.2.91-1.17.79-1.9.76a4.15,4.15,0,0,1-.64-2.26c-1.62-.73-2.64.54-3.89,1.09a23.75,23.75,0,0,0-3.41-.89c-.62,1.59-2.25,2-3.72,2.51-2.41-.73-5,.06-7.45,0a4.71,4.71,0,0,1-2.78.79l-.06-2.4c-1.62.88-3,2.74-5.08,2-.58-1.36-2.56-.29-3.54-.87a3.1,3.1,0,0,0-2.93.3c-2.3-.62-4.52-1.46-6.78-2.19-.8-.4-1.24.59-1.78,1a42.08,42.08,0,0,1-7.83.64c-2.37-.56-4.66.84-7,.61a2.58,2.58,0,0,0-3.09.53,11,11,0,0,0-2.45-.87c-1.34.17-2.61.69-4,.8-.43-1.05-.69-2.56-2.13-2.47l-.68,1c-1.42-.15-2.84-.42-4.26-.64-.16.23-.48.69-.65.92-.79-.16-1.58-.36-2.38-.48-.79,1.58-2.26,2.76-4.21,2.1,0-.35,0-1,0-1.4h-1.72l-.59.86c-1.05-.13-2.09-.38-3.16-.42l-3,.24c-.3-.61-.6-1.21-.91-1.8l-3-.07-1,1.26c-1.19-.15-2.51-.07-3.73-.29-2.1-1.28-4.23,1.52-6.06-.28-3.5,1.07-7.19.56-10.72,1.27-.71-.41-1.37-.89-2.12-1.23-1,.21-2,.55-3.07.77,0-.64,0-1.28,0-1.9l-1.18.11c-2,2.11-5.38,1.63-7.92.82-3,0-6,.13-8.84-.79-1-.46-1.33.88-1.81,1.48-3.1,1.11-6-.83-9.11-1-1.35.5-2.5,1.37-3.82,2-1.89.07-3.79-.79-5.67-.22a17.48,17.48,0,0,0-6.23-.61c-2.13.64-3.72-1.25-5.71-1.36-1.93.32-3.74,1.21-5.75,1.19-.15-.24-.44-.71-.58-1-2-.07-4.1.1-6.15,0l-1,1.1c-2.78-.2-5.7.3-8.42-.52.23-.6.43-1.21.61-1.82l-1.41-.08a5.48,5.48,0,0,1-1.14,2c-1.44.45-2.94,1.12-4.47.66-1.25-.33-2.3.69-3.47,1-1.11-.2-2.1-1-3.29-.77-2.95-.34-5.69,1.18-8.63.92-2.08-.7-3.73-2.57-6.18-1.54l-.53-.8a6.33,6.33,0,0,1-2.15.71c-.77-.39-1.45-.94-2.25-1.29-.62.33-1.17.81-1.82,1.13-1.19-.61-2.51-1.15-3.67-.13-1.3-.34-2.52-.94-3.82-1.29-.64.15-1,.76-1.55,1.16a4.66,4.66,0,0,1-2.71.2,25.38,25.38,0,0,0-8.29-.65,51.13,51.13,0,0,1-8.66-1.35,10.62,10.62,0,0,1-.82,1.24c-1.88.27-3.81.3-5.69.69-1.9-1-4-.65-6.09-.8a50.13,50.13,0,0,1-5,1c-1.31-.24-2.55-.83-3.89-1q-.54.88-1.08,1.8c-2.31-.23-4.62-.31-6.94-.34-1.27-.47-2.44-1.19-3.71-1.67-2.94-.07-6.51,2.35-8.91-.16a20.92,20.92,0,0,0-5.56.74c-3,1.32-5.65-2.26-8.45-.77-.43.59-.77,1.44-1.54,1.66a14.45,14.45,0,0,0-3.36-2.46l-.71,1c-1.7-.12-3.41-.36-5.12-.47-1.89.46-3.69,1.72-5.74,1.21-1.78-.14-3.63.09-5.35-.54a12.08,12.08,0,0,0-4.81-.71c-2.27.21-4.55.46-6.83.54l-.59-.86q-.82,0-1.68-.06l-.6.86L420,755.7l-1,1.2c-2.43.33-4.6-.94-7-1.14,0,.35-.11,1.06-.14,1.41a15.07,15.07,0,0,1-5.23-.15l-.58.84-1.7,0-.52-.94a3,3,0,0,0-2.87.9c-1.4-.36-2.3-2-4-1.21-1.68,0-3.49.8-5.09,0-2.06-.9-4.35.4-6.52.06a9.17,9.17,0,0,0-2.76.11c-.14-.25-.45-.74-.6-1-.69.11-1.52.07-2,.72-1.63.13-3.26.38-4.91.39a18.1,18.1,0,0,1-1.54-1.62c-1.55.49-3.11,1-4.7,1.32-1.64,1.4-3.86.46-5.79.78-1-.28-1.44-1.24-2.09-1.93-1.82-1-3.8-1.66-5.7-2.49-.91,0-2.59-.57-3.42.33.07,1.13,1.26,1.66,1.83,2.53-2.26.44-4.61.26-6.88.79-2.24.75-4.61-.33-6.87.45-1.53.88-2.82-.18-3.9-1-1.73,0-3.61-.57-5.32,0-2.52.9-5.22,0-7.8,0-1,.29-2.05.75-3.09.23-.18-.49-.36-1-.56-1.45-2.14-.25-3.76,1.2-5.58,2q-1.62.07-3.27.09c-.34-.49-.69-1-1.05-1.44a10.54,10.54,0,0,0-1.42,1.19l-1.1.14-.55-.93c-4.07.26-8.18.47-12.25.35a40.39,40.39,0,0,1-8.93.24,20.34,20.34,0,0,1-1.59-1.63,5.62,5.62,0,0,0-3.88.68c-1.33-.51-3.14-.58-3.66-2.17-.53-.08-1.07-.14-1.61-.2a20.87,20.87,0,0,0-1.12,2.56c-1.17.52-2.33,1.11-3.55,1.59-3.39.2-6.29-2-9.67-1.86a22.48,22.48,0,0,0-7.41.22,15.12,15.12,0,0,0-.84-1.47l-2.07,2.29-1.22-.08c-.31-.44-.64-.86-1-1.28-.54,0-1.1-.05-1.66-.06-.34.42-.7.83-1.07,1.26-1.88,0-3.72-.33-5.59-.54-.2.41-.4.82-.62,1.23a17.26,17.26,0,0,1-7.36-.33c-1.31-.66-2.27-1.91-3.86-2a9.75,9.75,0,0,0-1.19-.93c-.95.08-1.62.9-2.32,1.48-1.4.26-2.8.37-4.23.56-.84,1.39-2.29.9-3.61.64-.16.22-.48.65-.65.86-1.27-.16-2.53-.28-3.83-.33a3.81,3.81,0,0,0-1.73-.51q-3.77.14-7.55,0c-1.32-1.13-1.74-3-2-4.63a3.22,3.22,0,0,1,.51-3.13c.38-2.84,2.44-5,4.69-6.53.36-.42.73-.84,1.1-1.23a15.94,15.94,0,0,0-.7-4.24,6.15,6.15,0,0,0,3.8-4.79c2-1,4-2.28,4.24-4.7a54.15,54.15,0,0,0,3.09-5.83c1-2.69,3.23-4.66,4.44-7.23,1.24-3,3.81-5.27,4.73-8.45l-.18-1.29a52.85,52.85,0,0,0,3.39-4.3c.28-2,.27-4.14,1.49-5.82,1.74-2.53,3.1-5.28,4.66-7.9,1.65-1.8,2.79-4,4.7-5.55,1.22-1.62.94-3.9,2.19-5.49a42.31,42.31,0,0,0,3.49-4.53c0-2.08.2-4.36,1.84-5.84,1.8-3.09,3.18-6.39,4.89-9.52A57.65,57.65,0,0,1,260,644.82c.41-2.71,2.3-4.87,2.79-7.58,1.72-.82.91-3.51,3-3.86,0-1-.24-1.89-.26-2.83a7.81,7.81,0,0,1,1.64-1.12c.08-.53.14-1.06.2-1.59l1.2-.57c1.47-2.15,2-4.76,3.35-7a27.53,27.53,0,0,1,2.67-4.08,11.86,11.86,0,0,0,2.33-3.56c-.55-1.94,1.46-3.3,2.28-4.81,1.76-.89,1.75-3.21,3.27-4.37,2.76-2.27,5.08-5.22,8.34-6.8.18-.51.36-1,.53-1.51-.25-.46-.5-.92-.76-1.37.36-1.65.6-3.33,1.7-4.65a20.7,20.7,0,0,1,2.84-5.28c.34-.48,0-1.07,0-1.58a16,16,0,0,0,1-3.45,19.6,19.6,0,0,1,2.92-2c.85-1.26,1.9-2.56,1.63-4.22.15-2.79,1.79-5.16,2.63-7.76,2.31-2.71,4.46-5.69,7.43-7.71.74-3.73,3.63-6.42,4.23-10.19,2.51-2.4,3.1-6.26,6-8.29,3.64-4.81,5.66-10.62,8.24-16l3.11-1.33a8.66,8.66,0,0,0,1.31-7.12c.44-1.78,1.76-3.09,2.93-4.41,1.74-3.3,3.27-6.76,5.56-9.72a18.09,18.09,0,0,0,4.74-8.74c.73-1.72,2.7-2.63,3-4.57,1.26-2.68,1.75-5.74,3.68-8,3.12-3.51,5-7.83,7.52-11.73,1.54-2,1.21-5,3.23-6.69.27-.81.54-1.6.78-2.4l.61-.67a2.77,2.77,0,0,1,1.39-1.81c1-1.8,2-3.61,3.11-5.34a8.73,8.73,0,0,0,1.68-1.11,6.29,6.29,0,0,0-.31-1.73c1-1.62,1.68-3.4,2.49-5.07,2-2.2,3.1-5.3,5.67-6.84.07-.27.19-.81.26-1.08l.7-.6a13,13,0,0,1,.76-3.29c1.39-.48,1.7-2,2.3-3.16,1-2.31,2.63-4.38,3-6.93,1.55-1.79,3.4-3.44,4-5.82a41.83,41.83,0,0,1,3.82-8.33c.47-1.26,1.87-1.77,2.37-3,1.18-4.31,4.42-7.58,6.7-11.29.55-1.82-.14-4.34,1.63-5.6a16.74,16.74,0,0,0,4-4c.26-3.64,3.16-6.28,3.7-9.84.21-.14.64-.4.84-.54-.13-.23-.4-.68-.54-.9a9,9,0,0,1,1.73-1.91,47.4,47.4,0,0,1,3.28-4.77c1.21-1.56.82-3.76,1.87-5.39,1.46-2.36,2.65-4.95,4.73-6.85.47-1.6,1.76-2.73,2.8-3.95a16,16,0,0,0,1.7-3.71c.95-2.84,2.81-5.25,4.37-7.76a35,35,0,0,1,6.09-4.55c.36-.88.74-1.74,1-2.63a11.47,11.47,0,0,0-1.47.77c-.55,0-1.11,0-1.67.06.63-1.53.93-3.2,1.64-4.69,1-1.79,2.54-3.28,3.29-5.22s1.93-3.81,2.77-5.77c1-.46,2-.93,3-1.41,1.08-1.53.68-3.42.68-5.18,2-2.14,4.23-4.14,6.23-6.32.6-1.48.86-3,1.33-4.53a31.14,31.14,0,0,0,2.71-4.49c.92-2.32,3.51-3.82,3.3-6.6.18-2.16,2-3.33,3.5-4.51,1.61-2,1.72-4.9,3.64-6.69,2.06-2,2-5,2.8-7.6a19,19,0,0,0,2.29-1.69l1.1-.17c.55-2.91,1.7-5.78,4.25-7.47l.08,1,.32-.08c.28-3.29,2.25-6.16,2.35-9.51,1.24-2.38,3.31-4.09,5-6.09,3.12,1,4.31-3.51,7.31-2.47l2.7,2.23a8.13,8.13,0,0,0,1.34,3.54c1.13,1.5,1.4,3.45,2.59,4.92,2.45,3.36,5.1,6.65,6.78,10.48,1.39,2.52,2.32,5.45,4.66,7.27.78,1.27,1.21,2.8,2.36,3.85l.7,1.93,1.57.71.36,1.63-.69,1.19A14.2,14.2,0,0,1,519,281.2c.53.54,1.21.88,1.75,1.4.82,2.07,2,4.26,4,5.4.79,1.93.89,4.11,1.88,6a58.87,58.87,0,0,0,7.08,8.12l.08,4.15c.68.21,1.34.45,2,.68-.2,1.53-.16,3.18,1.11,4.2.07.26.19.78.25,1,.54.21,1.06.44,1.59.67.79,2,1.64,4,2.31,6a7.37,7.37,0,0,1,2.77,2.17c.57,1.68.68,3.5,1.42,5.12,1.33.92,2.83,1.62,4.19,2.51a9.28,9.28,0,0,0,3.22,8.26c1.8,1.4,2.82,3.47,4,5.39l-.36.66c.78,1,1.6,2,2.3,3.08.3,1.3.67,2.57,1.09,3.83l1.29-.44c.2,2.31,1.16,4.43,1.67,6.66.48.41.95.82,1.44,1.2,2,2.87,3.45,6.2,6.25,8.39,1.74,1.2,1.24,4.61,3.75,4.74.23,1,.42,1.91.58,2.88l1.89,1.23c1,3,3.26,5.24,5.15,7.7l.27,1.07a80.81,80.81,0,0,0,8.65,14.32c0,.29.1.88.14,1.18l.75.58c0,.29.11.87.15,1.16a5.45,5.45,0,0,1,1.15,1.51c1,3.86,3.12,7.3,4.25,11.14a9.64,9.64,0,0,0,2.45.75l1.26,1.35a20.58,20.58,0,0,0,2.23,5.27l1.35.06c1,1.63,1.28,3.54,2.24,5.18,1.23,2.75,3.2,5.13,4.64,7.79,2.85,3,4.32,7.07,7.49,9.81,0,.56,0,1.12.05,1.68l1.24.58c.33,1.73.69,3.48.88,5.25a22.45,22.45,0,0,0,2.35,1.64c1.29,2.34,3.45,4.06,4.53,6.54a20.53,20.53,0,0,0,3.64,4.77,57.87,57.87,0,0,0,2.46,5.45,6.39,6.39,0,0,0,1.16,2.85c1.49,1.8,1.07,4.43,2.56,6.25,2,2,2.66,4.87,4.66,6.85a7.29,7.29,0,0,1,2.55,5c.74,1,1.4,2.12,2.06,3.22.51.23,1,.48,1.51.72a27.79,27.79,0,0,0,2.94,3.72,5.7,5.7,0,0,1-1.25,7.49c0,.92-.78,3.72,1.15,3.46,1.38.51,1.65-2,1.5-2.63l1.16.08c.78,1.13,1.67,2.18,2.47,3.3a11.68,11.68,0,0,1,.54,4.29c1.27.58,2.59,1.05,3.91,1.51.77,1.66,1.79,3.29,1.82,5.2,1.32,1.79,2.66,3.66,2.88,6l1.22.13c1.85,2.53,2.86,5.56,4.62,8.17a6.2,6.2,0,0,0,2.56,2.8c0,.28.13.84.18,1.12,1.52,2.57,4.08,4.57,4.87,7.54a32.13,32.13,0,0,1,1.29,3.51c0,1-.34,1.95-.45,2.93.32.32.64.64.94,1,.7-.3,1.41-.59,2.12-.84a34.53,34.53,0,0,1,1.47,3.94,48.2,48.2,0,0,0,3.82,5.89,5.13,5.13,0,0,1,2.87,3c1.87,2.79,3.48,5.84,5.83,8.3.42,4.61,3.66,8.13,5.12,12.4,1.74-1,2.53,1.54,2.68,2.8,0,1.42,1.05,2.37,1.86,3.38.37,2.15,2.53,3.14,3.51,4.95,3.31,5.11,6.14,10.52,9.72,15.47a14.91,14.91,0,0,0,1.1,6.18,24.92,24.92,0,0,0,.67,3.4,2.08,2.08,0,0,1,2.35,1.74c1,.64,1.7,1.56,1.11,2.78,1.78.24,2.69,1.74,3.69,3,0,.28.13.86.18,1.14.28.31.57.62.84.94l1.66.17c.17,1,.37,2,.46,3.05,1.15,1.12,2.82,1.37,4.34,1.61a7.17,7.17,0,0,0,.77,6.1c1.54,2,3.88,3.64,4.41,6.27.12.18.39.54.51.72a5.73,5.73,0,0,0,3.11,4.05c0,.3.07.9.1,1.2l.68.61a11.91,11.91,0,0,0,1.87,5.2l1.56.7c.51,1.24,1,2.49,1.5,3.75,2.08,1,1.11,3.92,2.43,5.55a9.7,9.7,0,0,0,3,.66c1.33,1,0,2.73,1.19,3.71a14.37,14.37,0,0,1-.31,2c.8.78,1.57,1.59,2.35,2.4.19.81.42,1.62.63,2.44a10.66,10.66,0,0,1,4.67,8.18c.48.55,1,1.09,1.41,1.65.78,2.07,2.42,3.74,2.91,5.93.14.73.87.72,1.45.85l.08,1.18,1.1.68a10.32,10.32,0,0,0,3.06,3.6,78.51,78.51,0,0,0,3.63,9.18c1.4,2,2.35,4.32,4.3,5.86,1.49,1,1.57,3,1.6,4.69.29.39.58.77.89,1.15a16.35,16.35,0,0,0,3.88,5,15.17,15.17,0,0,0,3.44,5.82c1.23,4.89,6,8.49,6.07,13.79.54.41,1.1.8,1.68,1.16M786.54,736h0m-.7-7.42a2.11,2.11,0,0,0-1.39,1.82l1.51.19q0-1-.12-2M777.56,755c-.59.09-.69.41-.33,1,.59-.09.7-.42.33-1m-1.46-25.48c-.16-.78-1.39-.57-1.21.22s1.56.65,1.21-.22m-1.22,7.15c-3.23-1.74-1.77-6.06-3.63-8.68-.71-.35-1.39-.75-2.09-1.11a52.46,52.46,0,0,1-1.37-5.63c-.27-.32-.53-.64-.8-1l-1.23-.15c-.82-.89-1.75-1.95-.88-3.15-.84-1.59-1.18-3.9-3.26-4.22-1-3.57-3.63-6.3-6-9a9.63,9.63,0,0,0-1.43-4.28c-.56-.33-1.08-.7-1.6-1.08a27.3,27.3,0,0,0-.52-3,29.29,29.29,0,0,1-2.9-1.61c-1.1-1.55-1.55-3.45-2.37-5.14-1.14-2-3.1-3.42-4.49-5.26a18.31,18.31,0,0,0,.83-1.73c-.37-1.86-1.85-3.1-3.3-4.2a31.36,31.36,0,0,1-.5-4.73c-.57-.42-1.14-.83-1.68-1.27.69-.21,1.37-.45,2-.7-1-1-2.37-.46-3.61-.58-1.34-2.48-3.33-4.64-4.09-7.41-.13-.18-.4-.53-.54-.7-.09-1.62-1-3-1.8-4.31.3-.35.59-.7.89-1l-.84-1.69-1.31-.08c-1.13-2.51-2.45-4.93-3.54-7.46-1.6-1.11-2.1-3.19-3.71-4.3-1.84-.94-1.69-2.89-1.29-4.57-.77-.9-1.91-.67-2.94-.53-.06-.86-.16-1.71-.15-2.57a28.28,28.28,0,0,0-2.23-3c-.88-.94-2.23-1.8-1.48-3.44a12.85,12.85,0,0,0-2.5-1.08,5.32,5.32,0,0,1-1.91-3.83c-1.3-1.7-3.12-3.22-3.39-5.46-.5-.38-1-.74-1.53-1.1.85-2.87-2.71-4.69-1.7-7.45a28.61,28.61,0,0,1-5.26-4.37c.29-1,.71-2,1.09-2.91-1.94-1-4.26-2-4.56-4.49a7.63,7.63,0,0,1-1.65-3.21l-.61-.67c-.29-1.74-.62-3.48-.92-5.2-.3-.28-.6-.57-.91-.84a14.82,14.82,0,0,1-1.94-.78,31.14,31.14,0,0,1-1.42-3,23,23,0,0,1-2.58-.61l-.12-1.21a6.06,6.06,0,0,1-1.8-4,7.07,7.07,0,0,0-4-4.44c-.19-1-.41-1.95-.57-2.93a12.84,12.84,0,0,1-2.55-3.19c-.83-2.11-1.24-4.4-2.48-6.33s-2-4.14-3.08-6.15c-.58-1.05-.74-2.7-2.24-2.71l-.62-.69-1.15-.18c-.84-3.76-2.41-7.56-5.45-10.07l-1.12-3.67a6.81,6.81,0,0,1-3-4.14l-.52-.72c-.27-1.12-.6-2.32-1.79-2.76a11.72,11.72,0,0,1-.48-2.34,6.11,6.11,0,0,0,2-.91,7.13,7.13,0,0,0-5.06-1.17c-.8-1.89-1.08-4-2-5.78l-1.24-.56c-.1-1.15-.34-2.28-.53-3.42l-.92-1.29c-2-1.33-3.78-3.1-4.28-5.52l-1.09-.66c0-.55-.06-1.1-.11-1.65a26.05,26.05,0,0,1-3.92-6.7q-2.57-5.31-5.38-10.5c-.53-.08-1.06-.14-1.6-.21l-.75-1c-.51-2.21-2.19-3.86-2.93-6a11.1,11.1,0,0,1-1.52-5.06l-2.24-2.15c-.88-1.33-1.27-3.33-3.1-3.62l-2.18-2.19a32.75,32.75,0,0,0-1.88-7.36,14.61,14.61,0,0,0-4.22-4.25,8.34,8.34,0,0,1-2.18-4.48l-1.86-2.05c.41-1.64-.88-2.55-1.64-3.68-1.55-2.35-3.27-4.62-4.16-7.31a3.63,3.63,0,0,1-1.37-1.81,20.86,20.86,0,0,1-1.66-4c-.06-.27-.19-.82-.26-1.09a33,33,0,0,1-7-9c-1.55-2.11-2.66-4.88-5.26-5.89-.16-.37-.32-.75-.49-1.11,1-1.88-.47-3.67-1.51-5.17a3.78,3.78,0,0,0-1.07-3.33,36.65,36.65,0,0,1-4-6.05c.09-.59.5-1.31,0-1.81A48.41,48.41,0,0,0,572,396.4c.13-.53.26-1,.41-1.57-1.25-2.1-2.83-4-4-6.11a18.9,18.9,0,0,0-5-10,11.48,11.48,0,0,0-1.61-3.67c-2.6-.49-3.72-3.17-4.39-5.44-.71-1.14-.68-2.5-.93-3.78a17.61,17.61,0,0,0,.5-2.12l-1-.65.53-.74-.6-1.46c-.41.46-.8.94-1.2,1.41l.46.88a18.76,18.76,0,0,1-2.26.42,14.09,14.09,0,0,1-1.52-3.06c-1.32-1.93-2-4.3-3.85-5.83-1.49-1.05-1.68-3-2-4.64l-.91-1.25c-1.32-.92-2.44-2.52-2-4.19a8.12,8.12,0,0,1-3.84-6.76c-3-2.32-4.87-5.78-6.33-9.2a30.49,30.49,0,0,1-2.84-5.54l.36-2.61-1.6-.07a10.82,10.82,0,0,1-3.23-5.24,76.28,76.28,0,0,1-5.54-8.56c-.58-2.29-2.34-4.05-3-6.32-2.28-1.65-2.78-4.8-5.26-6.26a19.85,19.85,0,0,0-.64-2c-1.77-1.09-2.56-3.19-3.56-4.95a29.69,29.69,0,0,1-1.21-3.59,39.28,39.28,0,0,1-3.32-5.49,10.49,10.49,0,0,1-1.92-1.24c-.89-1.9-.31-4.16-1.36-6-2.08-.52-2.45-2.86-4-4.07a7,7,0,0,1-1.73-2.4c-1.16-.7-2.11.18-2.85.85-1.35,1.26-2.67,2.55-4,3.81.77,2.52-2.29,4.06-3.86,5.32.31,1.2.31,2.39-.84,3.13-.41,1.07-.9,2.11-1.34,3.18a6.62,6.62,0,0,0-2.51,2.39,71.72,71.72,0,0,0-4.48,9.46c-1.15.52-2.55,1.09-2.86,2.48a24.19,24.19,0,0,1-3.39,8.79l-.24,1.14-1.66.06a6,6,0,0,1-2.77,2.61l-.08,1.19.87.58c-.05.54-.1,1.08-.16,1.61-1.48,1.79-2.57,4-4.56,5.27a9.13,9.13,0,0,0-2.68,2.75,25.62,25.62,0,0,0,.2,3.49l-.63.49c-.21,2-1.6,3.48-2.57,5.13-2.25,3.6-3.9,7.54-5.79,11.34a14.75,14.75,0,0,0-5.29,5.84c-1.56,1.82-.69,4.78-2.72,6.28a13.23,13.23,0,0,1-.85,3.68,9.6,9.6,0,0,1-2.09,1.47c-.06.53-.13,1.07-.2,1.6a10.42,10.42,0,0,0-5.16,7.41l-.7.61c-.07.27-.2.83-.26,1.1-1.09,1-1.39,2.5-2,3.81q-.16.75-.36,1.5a17,17,0,0,0-1.52,1.54c0,.64.12,1.29.07,1.94-1.91,1.84-3.57,4-5.81,5.48l.85.87a12,12,0,0,1-3.06,7.18l-1.39,3.57a57.49,57.49,0,0,1-4.84,4.14c.4.72.85,1.41,1.21,2.15a37,37,0,0,0-6.2,10c-1.83,1.73-4.09,3.22-5,5.71-.49,1.09,0,2.35-.61,3.42-.11,1.81-1.69,2.81-2.6,4.17-1.34,1.62-1.53,4-3.2,5.33-.08.26-.23.79-.31,1.05-1.67,1.28-1.88,3.43-2.34,5.34l-.78.53q0,.89-.09,1.77a36.26,36.26,0,0,1-3.68,1.26c.43.48.86.94,1.3,1.4a6.43,6.43,0,0,0-1.51,3.75,4.74,4.74,0,0,0-2.38,3c-2.08,2.29-2.67,5.46-3.3,8.4a21.17,21.17,0,0,0-1.42,2.16c-.66.34-1.33.69-2,1.06-.37,2.52-2.48,4.33-3.14,6.79a10.87,10.87,0,0,0-2,2,36.6,36.6,0,0,1-.84,3.7c-1.24,2.27-3,4.22-4.32,6.43-.82,1.79-1.47,3.64-2.21,5.47q-1.05.47-2.07,1c.77,2.17-2.64,3.09-1.75,5.52-2,2.09-3.08,4.8-4.2,7.42-.63.65-1.59.75-2.36,1.2a27.1,27.1,0,0,0-1.83,2.14,2.52,2.52,0,0,1-1.43,1.76,18.13,18.13,0,0,1-2.59,8.26c-.81,1.53-2.93,2.94-2.14,4.92-.2,2.46-2.22,4.09-3.51,6-1.69,2.46-4,4.47-5.44,7.11-.82,2.37-1.05,5-2.26,7.19-1.93,1.34-3.82,2.74-5.78,4.05,0,1.75.48,3.56-.16,5.26-.82,4-4,6.93-5.53,10.67-.3,1.32-.11,2.87-1,4-1.91,2-3.44,4.62-5.94,6-.34,2.38-.66,5.1-2.8,6.56a7.53,7.53,0,0,1,.15,1.57c-1.24,1.1-2.33,2.93-4.35,2.37-.06.27-.19.81-.25,1.08-.47.43-.94.86-1.38,1.33l1.92-.26a7.34,7.34,0,0,1,.32,2.08,15,15,0,0,1-2.08,1.52,11.37,11.37,0,0,1-2.09,5.13c-.52,1.09-1.93,1.39-2.4,2.51a20.53,20.53,0,0,0-1.58,4.3c-.13,2-1.64,3.49-2.32,5.33a11.76,11.76,0,0,0-1.91.74c-.08,2-1.9,3.28-1.88,5.33a27.37,27.37,0,0,1-3.7,4.36,24.09,24.09,0,0,0-2.31,7.66,26.64,26.64,0,0,1-2.93,1c.33,2.66-1.5,4.57-2.74,6.7-1.44,1-2.19,2.6-3.4,3.83,0,1.23.13,2.4.11,3.65a8.17,8.17,0,0,0-4.09,7.64c.67,1.36-.35,2.53-1.23,3.34-.66,1-.94,2.25-1.78,3.12-1,.35-2,.62-3,1-.18,1.26-.32,2.53-.4,3.8a26,26,0,0,0-1.74,2.75l-1.5-.45c-.69,3.24-1.09,6.62-2.82,9.53-1.77,2.52-3.74,4.89-5.65,7.31-1.91,3.13-3.44,6.51-5.74,9.41,1,2-.66,4.25-2.44,5.14-.74-.08-1.48-.22-2.23-.29.09.65.13,1.36.88,1.56a12.75,12.75,0,0,0-2,3.61l-.63.66c-.23.81-.49,1.62-.73,2.45l-1.12,1.08c-.29.84-.64,1.67-1,2.5.12.62.5,1.36,0,1.92a31.07,31.07,0,0,0-3.2,5.31c-1.28,2.23-1.26,5.32-3.53,6.83a7.31,7.31,0,0,0-1.08,2.54l-1.08,1.1c-.87,3-3.08,5.39-3.76,8.46-.79,2.26-2.78,3.79-4.71,5.08a81.32,81.32,0,0,0-1.6,9.94,8.63,8.63,0,0,0,5.53,4.62,8.32,8.32,0,0,1,6.79.63c1.43-.24,3-1,4.35-.15a4,4,0,0,0,2.67.29c1.38.36,2.69-.31,4-.49,2.86-.35,5.7-.83,8.57-1,2.27-.66,3.91,1.49,6.06,1.4,2.3.49,4.26-1.74,6.5-.92a29.35,29.35,0,0,0,6.45,1.12c1.41-.23,2.83-.78,4.28-.49.8.6,1.62,1.45,2.7,1.29a8.09,8.09,0,0,0,1.26-1.72,7.75,7.75,0,0,1,2.59.72,17.94,17.94,0,0,1,7.37.06c.06.27.16.82.22,1.1a7.79,7.79,0,0,1,2.57,3.84A4.44,4.44,0,0,0,301,746c.85-1,.88-2.59,1.93-3.47,1.14-.61,2.45-1.3,3.79-.82,2.52.54,5,1,7.56,1.48l.6-.94a10.09,10.09,0,0,1,4.38,1c.2-.39.39-.77.57-1.16.73-.1,1.45-.23,2.16-.37a18.66,18.66,0,0,1,3.73.64c3.45,1.62,7.41.44,11.06.83,1.69.3,3.24-.58,4.9-.33,4.22.33,8.25-1.19,12.4-1.58a21,21,0,0,1,3.91,1.26c1.27-.41,2.56.11,3.84,0,3.17-.2,6.34-.08,9.49,0l.56,1c2.2-.15,4.14-1.74,6.42-1.06a18,18,0,0,0,6.91-.81c1.27.36,2.5.76,3.75,1.12,2.48.4,4.83-.68,7.28-.76,1.4-.12,2.64-1.09,4.08-.86,3.54.57,7.13,1,10.62,1.75,3.07,1.31,6.53,1.09,9.73.48,2.3-.88,4.58-2.43,7.18-1.78,4.08.78,8.33,1.89,12.48,1.07l.62-.77a26.6,26.6,0,0,1,3.39-.37c.72,1.31.9,3.26,2.66,3.59a16.62,16.62,0,0,1,2.35-1.41c1.23.09,2.57.11,3.75.15,1.92-1.53,4.64-1.64,6.93-1.1,1.54-.42,3-1.24,4.69-.86a24.78,24.78,0,0,1,5.1.2l.53-.65c4.64-1.44,9.21,1,13.78,1.59,2.7.39,5.1-1.19,7.76-1.29,1.56-.24,3.19-.8,4.71-.14a15.27,15.27,0,0,1,6.66-1.88c1.81.3,3.07,1.7,4.58,2.59,2,.37,4.2.09,6,1.14.13-.19.4-.57.53-.77a17.53,17.53,0,0,1,8.65.58,2,2,0,0,1,1.47-.92c0,.67.07,1.36.09,2,2.4.41,3.76-1.88,5.86-2.39a25.15,25.15,0,0,0,11.35-.06c1.84-.59,3.75.07,5.44.8,1.07.53,2.26.15,3.39.23,2.4.14,4.43-1.83,6.87-1.22l2,.13c1.37,1.91,4,1.11,6,1.64,2.8-.17,5.62.19,8.38-.55l.62-.85a33.56,33.56,0,0,1,4.36.84,17.48,17.48,0,0,1,6.65-.73c1.73.27,3.49.36,5.21.59.74.46,1.44,1.2,2.36,1.21,3.2-.43,6.45-.85,9.35-2.35,2.35,1,4.94-.09,7.37.33,2-.51,3.64.85,5.54.84,2.91-.24,5.79.43,8.68,0,3.07-.32,5.9-2,9.05-1.64,1,1.7,2.89.94,4.51,1,.81.36,1.5.92,2.32,1.25,1.92-.52,3.9-.85,5.79-1.47,2.45,1.31,5.13.35,7.64-.2,2.17.29,4,2.26,6.34,1.76.75-1,1.63-2.48,3.29-1.66l.64,1.06c1.31-.26,2.63-1.21,4-.47,1.5.75,3.19.14,4.76.16l.6-.87c3.58.06,6.91,1.62,10.53,1.25l.67-1c1.13.47,2.06,1.42,3.31,1.56a8,8,0,0,0,.75-1.77c3.17,1.45,6.85,1.24,10.17.37,4.32-.87,8.09,1.77,12.26,2.09l.65-1.28c3.38-.32,6.69-1.54,10.11-1.05,1.34-.08,2.76.67,4.05,0a7.11,7.11,0,0,1,5.46.35c2.32-.08,4.62.54,6.94.44s4.3-.8,6.48-.45c1.1.17,1.92-.72,2.65-1.39.54,0,1.07-.06,1.6-.07l.59,1c1.15-.26,2.24-.69,3.37-.93l.6.9a20.75,20.75,0,0,1,4.56.86c1.13.44,2.15-.78,3.3-.47,2.42.66,4.83,1.82,7.41,1.23,2.12-.2,4.24.24,6.35,0,.33-.89.67-1.78,1-2.65-.32-1.45-.62-2.87-.89-4.32m-18.26,10.07c-.49.1-1,.22-1.46.33,0,.38.05,1.12.07,1.5a2.13,2.13,0,0,0,1.39-1.83M726,643.36c-1.35-.72-.13,1.44,0,0M704.43,749.2c-.68,0-1.36-.05-2.06-.05a12.72,12.72,0,0,0,.6,1.77c1,.15,1.06-1.08,1.46-1.72m-9.29-164.13h0m-6.39,166.35-1.53,0c.14.58.29,1.18.45,1.77l.53,0c.2-.58.39-1.17.55-1.75m-1.94-170.6c-.68-.56-1.28.64-.72,1.11s1.28-.66.72-1.11M676.39,756h0m-2.62-.46c-.57-.39-1.19.6-.73,1.05.63.48,1.22-.61.73-1.05m-7.43-218.2-1.78-.05c0,.22,0,.67,0,.89l1.78,0c0-.22,0-.66,0-.89m-8.89,210.92c-1.34-.72-.13,1.43,0,0m-2.76,3.1h0M630.93,478.62a6.58,6.58,0,0,1-1.32-1.42l-1.24-.11c.23.5.48,1,.74,1.46l.57,1.64h1.39c0-.53-.08-1.05-.14-1.56M584.18,407a5.71,5.71,0,0,0-.55,2.29q.64.38,1.32.69c0-1.06.26-2.31-.77-3M579,399.54c-.14-.57-1.16-.92-1.31-.17-.24,1,1.68,1.36,1.31.17M551.05,747.9c-.72-.26-1,0-.77.72.73.25,1,0,.77-.72m7.59-386.37h0m0,1.3c-.72-.25-1,0-.77.72.73.25,1,0,.77-.72M535,747h0M545,344.1l-1.78-.05c0,.22,0,.67,0,.89L545,345c0-.22,0-.67,0-.89m-1-2.18c-.34-.48-1.44-.06-.93.52.32.53,1.28,0,.93-.52M507.78,749.74l-1.65-.07a17.47,17.47,0,0,0-1.07,3.1,6,6,0,0,0,3.15-1.25c-.15-.6-.3-1.19-.43-1.78m2-466.37a7.55,7.55,0,0,0-2.17-.21c.18.64.34,1.3.47,1.95.69.13,1.58.82,2.06,0a14.93,14.93,0,0,0-.36-1.74M494.63,754.28c-.33-.48-1.43-.06-.93.53.32.52,1.28,0,.93-.53M460.71,310.12c-.55-.4-1.44.44-1.08,1,.52.24,1.31-.5,1.08-1m-13.36,435.7c-1.44,0,.64,1.39,0,0M458.73,312.3l-1.44-.13c-.31.58-.64,1.15-1,1.73l1.35.05c.37-.55.74-1.09,1.06-1.65m-3.36,4-.55-1.18c-.82.31-1.62.65-2.44,1-.48,1-1.52,1.84-1.2,3a10.66,10.66,0,0,0,4.19-2.81m-8.67,6.15a6.13,6.13,0,0,0-3.65,4.47,16.05,16.05,0,0,0,2.53-1.5c.33-.42.67-.83,1-1.22,0-.59.08-1.17.1-1.75M433.36,752.1c-1.44,0,.64,1.38,0,0m-.61-7.7a6.14,6.14,0,0,0-2.12-.91,9.44,9.44,0,0,0-2,3.49,11,11,0,0,0,3.88.94c1.33-.64-.3-2.67.25-3.52M415.94,373c-.2.63,0,.86.66.7.17-.6-.05-.83-.66-.7m-7.51,24.22c-.45-.47-.89-1.15-1.65-1-.84-.07-1.08.95-.94,1.62A3,3,0,0,0,408,399a10.81,10.81,0,0,0,.48-1.75m-14.18,30.68-1.79-.05c0,.22,0,.66,0,.89l1.78.05c0-.22,0-.67,0-.89m-6.14-2.38-1.82-.08c0,.58,0,1.17,0,1.76l1.82,1a4.13,4.13,0,0,0,0-2.69M337.29,529.72h0m-10,9c-.72-.25-1,0-.77.73.73.24,1,0,.77-.73m-8.7,210.4c-.49-.17-1-.34-1.49-.5-.25.77.37,1.29.83,1.81l.66-1.31m-2.76-184c-.05-.64-1.2-.88-1.27-.12s1.24.83,1.27.12M311,561.92h0M300.13,752.21c-.16-.79-1.54-.67-1.21.22.18.77,1.4.55,1.21-.22m-12.43-.28c-.58-.17-.82.05-.7.66.64.2.88,0,.7-.66m-31.54-94.49c-1.44,0,.64,1.38,0,0m-26.86,96c-.46-.38-1.56.28-1,.85.54.72,1.57-.21,1-.85"></path><path class="cls-1" d="M628,555.39a9.46,9.46,0,0,1,4.08,5c-1.39,4.55-1.11,9.43-1.73,14.12A36.34,36.34,0,0,0,629,583a17.45,17.45,0,0,1-.49,6.18c.71,1.63.4,3.44.82,5.14a1.87,1.87,0,0,1-.68,1.82c-.36,1.55-.54,3.14-1,4.67a10.37,10.37,0,0,1-.29,4.39l-.85.53c0,.56-.08,1.12-.13,1.69-.2.13-.59.4-.79.52-.07.29-.21.86-.27,1.14-.51.69-1.26,1.43-.88,2.36-1.79,3.26-3.51,6.57-5.34,9.8a71.4,71.4,0,0,1-1.93,9.39c-2.4.9-1.27,4.09-2.67,5.88H612.6l1,1c-.85,1.19-2.09,2.14-2.55,3.58-.8,2.75-1.92,5.62-4.21,7.47a50,50,0,0,1-2.68,4.51l-1.59.57c-.3,2.28-2.49,3.66-2.69,6l-.63.63c-1.12,3.06-2.05,6.3-4.3,8.76-1,1.48-2.51,2.44-3.79,3.67-1.58-.1-3.46-.92-4.92.06.52,1.49,2.41,1.94,3.15,3.35-2.15.44-3.79,2-5.75,3-2.2,2.24-4.33,4.74-7.29,6-.81,1-1.61,2.2-3.23,1.67-1.78,1.64-3.84,2.91-5.77,4.38-1.82.42-4,.13-5.42,1.6-2.72.12-5.38.83-8.13.73a9.33,9.33,0,0,0-1.93-1.3,2.17,2.17,0,0,0-1.35,1.31,24,24,0,0,0,1.36,2.61,16.14,16.14,0,0,0,10.6,1.8c1.15.61,2.18,1.71,3.66,1.19a29.56,29.56,0,0,1,4.43-2.3c2.33,0,4.65,0,7,.14l.56-.85c4,.86,8.43.56,12.2,2.44a7,7,0,0,1,5,.57c3.07-.94,6.26-1.38,9.34-2.25l.55.89c1.16,0,2.32.07,3.47.12.14-.23.42-.66.56-.88a11.39,11.39,0,0,1,4.78.65,22.24,22.24,0,0,0,5.66,1.15,5.4,5.4,0,0,0,3.56,1.44c.27.28.55.57.82.87a7.6,7.6,0,0,0,1.22,3.33c-1.38,1.42-2.58,3-4,4.39a34.42,34.42,0,0,0-3.81,1c-2.35,0-4.42,1.11-6.63,1.74-2.39.28-4.52-1-6.81-1.44-.05.36-.14,1.08-.18,1.43l-2.58.24c-2.77-2.38-6.77-2.21-10.21-2.4-1.2,0-2.19-.74-3.21-1.28l1.11-.17c-.34-1.46-.11-3.12-.92-4.44-.75-.11-1.21.54-1.68,1-.34,1.76,1,3.08,1.21,4.75-.75-.13-1.49-.32-2.24-.44a8.79,8.79,0,0,0-.7,1.67l-1.47-.11A4.38,4.38,0,0,0,580,709c-.19.44-.39.9-.6,1.35-2.42-.12-5-.45-7.23.57-2.42-.17-4.78-1-7.27-.75-.92.24-1.5-.49-2.09-1.07-1.67-.58-4.19,1-5.39-.76a10.36,10.36,0,0,0-2,.81l-.08,1.47c-1.1-.22-2.43-.17-3.56-.5-2.49,1.1-5.29.31-7.91.84a35.23,35.23,0,0,0-9.71-.81c-.2.13-.59.41-.78.55-.78,0-1.55-.21-2.34-.19-.51.32-1,.72-1.53,1-.34-.24-.67-.49-1-.76a22.79,22.79,0,0,0-6.74-.61c-1.45.57-2.5-.48-3.64-1.08a6.88,6.88,0,0,1-2,1.49,34.83,34.83,0,0,0-16.52.36,13,13,0,0,1-5.75-1c-1.91.12-4.21-1-5.92.26-5.49.79-11-.6-16.46.42-1,.26-1.93-.48-2.81-.89-.5-1,.81-1.09,1.37-1.49a2.15,2.15,0,0,0-2.2-.9c-.86-.54-1.74-1.06-2.63-1.56l-.95.89q-.07.81-.15,1.65a3.32,3.32,0,0,1-4.67.58c-.94-.18-1.87-.39-2.81-.6-1.73,1.26-3.94,1.26-5.93,1.86a14.81,14.81,0,0,0-6.51-1.94l-.64.79a29.3,29.3,0,0,0-4.65.6,16,16,0,0,1-1.89.79c-.21-.5-.41-1-.62-1.48a17.78,17.78,0,0,0-1.91-.48c-.34.27-.7.54-1.08.79a20.41,20.41,0,0,0-2.2-1.33c-.93.34-1.74.93-2.67,1.28-.13-.67-.37-2-.49-2.71l-1.25-.09c0,.35,0,1,0,1.4-1.35.74-3.08.47-4.27,1.53a10.65,10.65,0,0,0-3.13-.19c-3.12,1.11-6.25-.32-9.4-.39l-.84.69c-.66-.09-1.31-.2-2-.35a11.32,11.32,0,0,0,.33-4.36c.51-1.9-1.2-2.68-2.4-3.5A1.72,1.72,0,0,1,406.8,699c.38-.5.74-1,1.1-1.5a33.4,33.4,0,0,0,3.56-.32c2-.08,3.83.8,5.7,1.37.77-.3,1.55-.58,2.3-.89a7.52,7.52,0,0,1,2.59,2.78l1.64,0a31.62,31.62,0,0,1,2.5-2.42c1.65-.78,3.55-.3,5.28-.75,2.33,1.26,4.93.08,7.25-.65a2.09,2.09,0,0,0,.82-3.64c-3,.21-5.3-1.94-7.48-3.65a9.9,9.9,0,0,1-3.42-.35l-.6-.73c-1.67.11-3.65-.2-4.56-1.79l-1.16-1.06-1.57-.25c-.47-.43-1-.83-1.45-1.23l-1,.29a17.07,17.07,0,0,1,1.06-1.43c-.5-.44-.9-1.28-1.69-1.14a9.24,9.24,0,0,0-1.54.7c-.78-.31-1.57-.63-2.34-1-.82-1.72-2.76-2.35-4.22-3.43-1.51-.84-2.39-2.37-3.39-3.72l-3-.17c-.17-.41-.35-.83-.53-1.23-.81-.35-1.63-.67-2.44-1a18.17,18.17,0,0,1-.61,1.8c-2.57-1.41-3.86-4.09-4.91-6.69a10.87,10.87,0,0,1-2.38-2.86,13,13,0,0,0,.6-2.26c-.58-.33-1.18-.65-1.78-1a17.59,17.59,0,0,1-2.19.39c-.25-.38-.52-.75-.79-1.12a7.07,7.07,0,0,0-2-4.15,21.75,21.75,0,0,0-3.06-5.33c-.09-.51-.18-1-.28-1.5-2-3.3-2.7-8-6.5-9.89-1.87-1.93-2.07-4.63-2.48-7.16-.3-2.27-2.63-3.43-3.43-5.46a96.24,96.24,0,0,1-.81-11.75,5.81,5.81,0,0,1-1.28-2.68,35.48,35.48,0,0,1-.1-11.81c.2-.57-.3-1-.54-1.44a50.08,50.08,0,0,1-.9-8.72c-.06-1.67-.43-3.36.1-5a22.06,22.06,0,0,1-.44-3,13.57,13.57,0,0,0-3.52-5.67c-1.37-4-.24-8.25.28-12.33a24.39,24.39,0,0,1,2.48-6.16c4.09-.06,7.19,3.29,8.85,6.7,0,1-.08,3-.11,4l3.09,7.9c.93,1.67,2.12,3.21,3.12,4.85,2.62,2.2,5.33,5,8.93,5.32.35-.36.7-.72,1.05-1.06a11.65,11.65,0,0,0-.67-4.38c-.42-1.69-.3-3.5-1.07-5.1a22.76,22.76,0,0,1-1.49-5.52c-.93-3.64-2.56-7.26-2-11.09-.21-1.82-2-3.15-1.34-5.15,0-.65,0-1.95,0-2.59l.9-.54c-.09-1.62-.51-3.29,0-4.86-1-2.45-.36-5,.45-7.41,1-2.63-.45-5.47.64-8,2.53-4.39,3-9.63,3.57-14.57.68-1.51,1-3.28,2.33-4.41.73.09,1.45.28,2.16.4.31-2.14-1.9-3.55-1.65-5.67,1.92-1.31,2.67-3.59,3.5-5.64,2-2.91,2-6.45,2.92-9.69a14.74,14.74,0,0,1,5-4.52,2.63,2.63,0,0,1,2.65,1.27c1.32,1.54,2.82,3.36,2.34,5.58-.11,3.22.12,6.64,1.91,9.43,1.34,1.94,1.05,4.38,1.85,6.5.79,1.13,1.63,2.24,2.45,3.35l1.17,0a34.27,34.27,0,0,0,2-6.13c-.49-2.4-1.8-4.59-2.08-7.05-.57-2-2.37-3.64-1.9-5.89a41.84,41.84,0,0,1,1.36-4.05c-1-2.92-.76-6.17-.35-9.18.76-1.88.15-4.56,2.15-5.67a20,20,0,0,1-.61-4.61,61.28,61.28,0,0,1,2-6.09c1.31-1.5.1-3.66,1-5.34A15.81,15.81,0,0,1,425,453.6a36.6,36.6,0,0,1,5.06-9.75,16.12,16.12,0,0,0,2.45-1.51c.41-2.44,2.33-4.24,3.89-6,2.05-2.3,3.54-5,5.79-7.16,1.81-3.7,1.64-7.79,2.32-11.76a5.25,5.25,0,0,1,4.78-.31,61,61,0,0,1,3.81,5.11,25,25,0,0,1-.76,6.07c.23,2.78-.6,5.59.13,8.35.44.46.86.92,1.26,1.41l1.74.13c.38-2,.41-4.11.69-6.15.47-1.4,1.23-2.69,1.82-4,1-1.88,1.4-4,2.18-6l.66-.41a13.68,13.68,0,0,0-.31-2,13,13,0,0,1,2.63-5.9c.09-.7.29-2.08.38-2.77,1.16-1.56,1.54-3.75,3.34-4.73.53-1.07,1.09-2.14,1.66-3.18.64-.09,1.33-.11,1.69-.72-.45-3.81,2.29-6.69,4.14-9.68a5.89,5.89,0,0,0,2.06-3.33c.9-2.85,2.71-5.32,3.56-8.18.51-1.42.09-2.92.33-4.36a16.27,16.27,0,0,1,3.6-6.58c.69-1.79,1.29-3.74,3.24-4.44a19.84,19.84,0,0,1,6.76,1.51c3.34,3.44,4.27,8.47,7.32,12.14,1,1.32,1.88,2.87,3.29,3.84a13.77,13.77,0,0,1,2.31,6l.75.57.08,1.23c.4.35.77.71,1.15,1.07.52,2.07.33,4.47,1.64,6.27,1.79,2.26,1.78,5.47,3.91,7.54a20.31,20.31,0,0,1,2.08.49,10.37,10.37,0,0,0,.05,4.86c.65.82,1.68,1.67,1.48,2.83-.64,3.22.18,6.52.9,9.66.68,1,1.92,2.93.22,3.56.22,3.22,1,6.38,1.45,9.59,1.42.82,2.84.16,4-.79,0-.31.1-.94.13-1.25l1.17-1c.28-.86.63-1.69,1-2.52a32.06,32.06,0,0,1,0-4.7,8.71,8.71,0,0,1,2.81-7.58c2.1-1.14,4.66-.27,6.83.15,2.2,2.15,3.74,4.89,6,7,.33.42.67.83,1,1.24,0,1.5,1,3.5-.48,4.54a9.21,9.21,0,0,1,3,3.49c.64,2,2.45,3.15,3.77,4.67a18.48,18.48,0,0,1,.71,2.82c1.38,1.93,2.17,4.19,3.58,6.1.91,1.72,2.62,2.75,3.82,4.22,1.12,3.19,2.08,6.46,3,9.7,3.37,4.8,3.12,11,2.93,16.64.09,2.53-.52,5-.57,7.53-.37,2.68.48,5.29.7,7.94l-.83.61c-.41,2-1.73,4.18-.66,6.11,1.71-.25,2.91-1.77,4.35-2.62a17.42,17.42,0,0,1,.68-3c.84-2,3.14-3.22,2.93-5.64L571,490c.93-2.55,1.13-5.64,3.52-7.29,1.13-1.16,2.77-1.49,4.26-1.93a3.3,3.3,0,0,1,3.17.83c1.14,2.09,2.33,4.17,3.29,6.35,0,1.71-.58,3.47.08,5.14.33,3.77,1.25,7.46,1.47,11.23l1.18.62c.2.5.43,1,.6,1.54.48,3.46,3,6.17,3.74,9.53.47.41,1,.81,1.45,1.19,1.13,2,3.07,3.6,3.33,6a20.93,20.93,0,0,1,2.18,5.29c.26,1.71-.22,3.56.42,5.21s.71,3.68,1.71,5.29c1.41,2,.1,4.71.92,6.95.57,1.73,1.56,3.38,1.24,5.29-.47,3.45,1.77,6.25,3.2,9.16.37,5.35,1.28,10.81,0,16.11-.64,2.36-.21,4.77-.11,7.16a16.42,16.42,0,0,0-1.24,1.13c-.57,1.44,1.84,2.59.75,3.94-2,2.93-1,6.85-2.78,9.91-.56,1.12-.92,2.33-1.42,3.48a27.85,27.85,0,0,1-1.38,4.62,7.93,7.93,0,0,0,3.51,1.06c1.18-2,2.65-3.73,4-5.56,2-2.63,2.43-6.05,4.21-8.78a14.83,14.83,0,0,1,3.23-7.14l-1-.67a14.15,14.15,0,0,1,.88-1.79c.3-1.09.62-2.17.84-3.27l1.2-1c.6-2.54-.24-5.3.91-7.71.85-2,.93-4.16,1.49-6.19.62-.89,1.43-1.62,2-2.52.42-.94-.2-1.86-.59-2.68l.5-.92c1.33-.55,1.48-1.89,1.38-3.22a15.7,15.7,0,0,0,4.91-.87m-28.89,99.26a4.69,4.69,0,0,0-2.68,3.18l1.27-.05q.69-.66,1.41-1.26c0-.63,0-1.25,0-1.87m-8.29-33.06-1.34,0,0,1.33,1.34,0,0-1.33m.21-39.53c-1.44.05.63,1.39,0,0m-6.45,52.34c-.71-.26-1,0-.77.72.73.25,1,0,.77-.72m-7.4,70.21c-.41-.5-1.43.08-1.09.67s1.55,0,1.09-.67m-.7-188.11c-.7-.5-1.41-1-2.14-1.44,0,.34,0,1,0,1.36.66.53,1.32,1.08,2,1.55,0-.37.12-1.11.15-1.47m-8.11,169.13h0m1.42-95.34c-1.35-.72-.13,1.43,0,0m1.53-79.55a27.91,27.91,0,0,0-3.09-2.09,10.08,10.08,0,0,0,1.78,3.7c1,.19,1.25-.88,1.31-1.61M559,613.18c-.05-.64-1.2-.88-1.27-.12s1.25.83,1.27.12m-7.38,89.65-1.35.51q0,.79,0,1.62c.3.3.59.61.88.93l1.32.07c.31-1.31-.38-2.11-.82-3.13m2.3-85.23c-1.28-1.31-.17-3.2-.35-4.8s-.11-4.89-.15-6.51a36.35,36.35,0,0,1-2-3.72c.08-1.5.77-2.89.91-4.36-.09-1.12-.3-2.35-.44-3.42-1.36-2.45-2.76-4.87-4-7.37.82-1.15-.53-2.09-1-3.1a16.37,16.37,0,0,0-2-.62c-1.4,3.07-3,6.11-3.26,9.54-2.47,3.87-4.61,7.94-7.1,11.8-.49,1.14-.86,2.34-1.41,3.47s-.49,3-2,3.5a15,15,0,0,0-1.25,5.07l-1.11.15c-.33.55-.7,1.09-1.07,1.63-2.08-.05-4.13-.13-6.22-.17l.06-.33a1.85,1.85,0,0,0,2.76-1.73l-2.62-.24c-.88-1.75-.06-3.6.38-5.34.38-1.3-.71-2.35-1.54-3.18-.55-6.32,2.73-12.17,2.24-18.49l-.8-.59c-.86-5.59-1.52-11.24-.68-16.87-.79-4,0-8.16-1.16-12.09a41.4,41.4,0,0,1-.35-9.82c.74-1.68-.42-3-1.35-4.17-.52-2.77-1.82-5.31-2.73-8-.65-1.91-2.18-3.43-2.25-5.55-.43-3.11-4.11-4.13-5.07-6.89-.44-2.73-1.74-5.17-2.9-7.64-.6-1.79-2.46-2.7-4-3.65-.75-1.38-1.55-2.74-2.35-4.08a6.81,6.81,0,0,0-1.74.67,18.38,18.38,0,0,0,1.37,9.37c-1.58,6.47-.4,13.18-1,19.74-1.15,3.28-1.33,6.88-3.22,9.89,1.47,2-.06,4.58,1.08,6.74-.27.95-.81,2.85-1.07,3.8a8.61,8.61,0,0,0-2.07,1.58,35.31,35.31,0,0,1,.11,3.72c-1.24,1.43-2.62,2.73-3.83,4.21a19.74,19.74,0,0,0,.2,2.86l-1,.9-1.74.07a43.54,43.54,0,0,1-3.46-8.24c.13-2.19.43-4.36.73-6.51-2-.89-2.21-3.22-3-5-.77-2-.8-4.25-1.57-6.28-.83-2.78-2.5-5.18-3.86-7.7a3.43,3.43,0,0,0-2.44-.21,22.15,22.15,0,0,1-.78,4.9c-.9.78-1.79,1.58-2.73,2.36l.86.84a18.54,18.54,0,0,1-1.55,3.71,37.62,37.62,0,0,1-1.69,5,19.29,19.29,0,0,1,.39,2.17l-1,.61c.1.46.21.93.32,1.4-.49,1-1,2-1.54,3,0,.6-.07,1.8-.09,2.4a3.61,3.61,0,0,0,.1,2.11,30,30,0,0,1,1.57,5.44c.28,1.07-.35,2.08-.52,3.13.22,4.72-.88,9.35-1.5,14,0,1.08.82,2,.69,3.12-.09,1.29-.39,2.65-.58,4l-.87.56c0,.5.08,1,.12,1.53A10.88,10.88,0,0,1,467,606c-.18.62-.55,1.85-.73,2.47-.2.46-.65.89-.54,1.45.5,3.39.3,6.82.51,10.23l.76.63c.06,1.07.12,2.16.17,3.24a4.63,4.63,0,0,1,1,2.86A8.77,8.77,0,0,1,466,628.4c.55.4,1.1.8,1.64,1.21-.2.52-.4,1-.59,1.58a39,39,0,0,0-4.07,2.54,9.51,9.51,0,0,1-2.09-.35,31.66,31.66,0,0,1-.05-3.51l-1.34-1.13c0-.63.12-1.25.07-1.86-.75-1.14-1.68-2.15-2.47-3.26l1.12-.68a13.85,13.85,0,0,0-1.14-1.9,4.59,4.59,0,0,0-1.83-2.68c-.75-1.4-2-2.65-2.26-4.27a12.73,12.73,0,0,1,1.45-1.82c-.7-.25-1.42-.45-2.14-.63-.78-.82-2-2.56-3.15-1.19a13.54,13.54,0,0,1-1.09,8.31c.43,1.28,0,2.57-.16,3.86l.66.81c-.56,3.38.57,6.68.69,10.05a9.18,9.18,0,0,1-.68,1.11,6,6,0,0,0,.34,5.68,5.33,5.33,0,0,0,.61,4.34c2,3.55,1.91,8,4.7,11.13,1.67,1.62,2.35,3.83,3.45,5.8.21,1,.44,1.93.64,2.9l.73.59c0,.56,0,1.12,0,1.69,1.6,1.53,3.34,2.9,5,4.38.94,1.54,1.6,3.32,2.93,4.59,2,1.68,3.43,3.95,5.24,5.85a24.09,24.09,0,0,0,5.6,7.32c2.45,3.21,4.12,8.52,9.07,8.34,1.58,1.59,4.13.93,5.67-.42,1.88,0,3.76,0,5.61.08l.56.91c2.24-.45,4.58.18,6.77-.53a38.16,38.16,0,0,1,5.41-.71c1.69-.62,3.34-1.41,5-2,3.31-2.72,6.74-5.94,7.58-10.32.25-1.1,1.45-1.55,2.06-2.42,1.25-.52,2.51-1,3.75-1.51a18.69,18.69,0,0,0,1.2-3.83c1.62-1.26,4-1.41,5.21-3.17.11-2.57,1.87-4.49,3.2-6.53.48-3,2.24-5.75,2.65-8.82a23,23,0,0,1,5-6.62,67.85,67.85,0,0,0,3.79-12c.59-2.1.31-4.36.83-6.47s1.63-3.7,2-5.67c.15-3.19.49-6.36.63-9.55m-4.34,78-1.8.51c-.26.77-.89,2,.41,2.15,1.39.68,1.57-2.22,1.39-2.66m2.38-208.27c-.72-.25-1,0-.77.73.73.24,1,0,.77-.73M548.82,485c-1.34-.72-.13,1.43,0,0m-1.4,19.4a2.82,2.82,0,0,0-1.85,2.31,2.51,2.51,0,0,0,1.85-.52,17.81,17.81,0,0,0,0-1.79m-1.1-9.38a6.15,6.15,0,0,0-1.71.57c-.32,1.31,1.34,1.32,2.21,1.39-.15-.66-.33-1.31-.5-2m-8,214.17c-1.35-.73-.13,1.43,0,0M534.47,596c-1.34-.72-.13,1.43,0,0M530.63,610c-1.49.3-3.13.09-4.51.85a12.66,12.66,0,0,0,.31,1.7,9.64,9.64,0,0,1,3.62-.89c.2-.56.4-1.1.58-1.66m-4.37-83.3c-.57-.08-1.14-.15-1.72-.21a8.88,8.88,0,0,0-1,3.55c.74.33,1.48.63,2.22.94l.76-1a2.43,2.43,0,0,1,1.49-1.76,22.92,22.92,0,0,1-1.73-1.54m0-17c-1.28-.51-1.67,1.7-1.31,2.46a4.11,4.11,0,0,0,1.64.69l.69-1.47a16,16,0,0,0-1-1.68M526,535.15c-.71-.25-1,0-.77.73.73.24,1,0,.77-.73m-11-4.27c-.41-.5-1.43.07-1.09.67s1.55,0,1.09-.67M504.85,423c-.68-.26-1.74-.46-1.77.58-.31.82.57,1.07,1.1,1.43.21-.68.43-1.35.67-2M487.91,558.79c-1.07.27-2.09.68-3.13,1.05a7.39,7.39,0,0,0,1.31,3l1.8.07c0-1.36.1-2.83,0-4.15m-3-1.62c-.16-.77-1.39-.56-1.21.22s1.56.66,1.21-.22m-9.28-48.41c-.8-1.24-2.8-.2-2.64,1.1.81,1.23,2.8.19,2.64-1.1m-14.87,18.68c-1.35-.71-.13,1.44,0,0m-7.35,178.93c-.08-.72-1.52-.87-1.12,0,0,.84,1.48.92,1.12,0m-1.11-129a1.55,1.55,0,0,0-1.4,1.94,1.55,1.55,0,0,0,1.4-1.94m-3.18-55.8-.18,2a2.39,2.39,0,0,0,1.84.51,9,9,0,0,0-1.66-2.49m.56,36.13c-.76.28-1.5.61-2.25.95a3.85,3.85,0,0,0,.78,2.84c.27-.62.51-1.24.72-1.87.19-.13.55-.39.74-.51,0-.36,0-1,0-1.41m-.49-39.13c-.68.56-.51,1.5-.62,2.29a3.4,3.4,0,0,0,1.83-.56c.19-.82-.2-1.92-1.21-1.73M446,592.05c-1.34-.72-.13,1.43,0,0m-2.24,55c-.38-.62-1.28.08-1.88.06,0,.59-.06,1.19-.1,1.8l1.36,0c.29-.59,1.34-1.22.62-1.88m4.37-203.19c-1.44,0,.64,1.39,0,0m-5.2,39h0m-7.53,215.62c-1.87,1.41-4.29,2.68-4.68,5.22l1.46.11.64-1.14c.55-.35,1.06-.71,1.56-1.09.31-1,.73-2.05,1-3.1m.11-75.11c-.63.08-1.26.19-1.91.3,0,.38.08,1.14.1,1.52a3.46,3.46,0,0,0,1.81-1.82m-7.78-138.72h0M415.39,675.84c-.43-.39-1.46-.38-1.6.31.09.93,1.94.56,1.6-.31m-13-6.59c-1.44,0,.64,1.38,0,0"></path><path class="cls-1" d="M481.87,711.07c-.36.46-.73.91-1.09,1.38a5.27,5.27,0,0,1-2.28-.79l3.37-.59"></path><path class="cls-1" d="M404,701.79a45.3,45.3,0,0,0,1.72,7.05c-2.27,1.27-4.11-1.23-6.4-.9-1,1.29-2.8,1.14-4.27,1.61-1.12.27-2.25.79-3.43.52-7.3-1.13-14.79-.16-22-2.08a10.92,10.92,0,0,1-4.9-.7l-1,.35c.14-1.45.57-2.91.82-4.31a8.11,8.11,0,0,1,7.44-5.47,24.52,24.52,0,0,1,13.92-.2l.67-.83a13.19,13.19,0,0,1,8.26-.24c1.45,1.23,2.87,2.59,4.84,2.83l1.08-1.83,1.15.15c.27.46.56.92.86,1.37.06.53.11,1,.16,1.59.38.35.75.72,1.1,1.09"></path></g></svg>