<svg id="Shapes" xmlns="http://www.w3.org/2000/svg" viewBox="0 0 1000 1000"><defs></defs><g id="Shape_62" data-name="Shape 62"><path class="cls-1" d="M793.44,441.49a13,13,0,0,1-1.46-3.55l-.6-.57c0-.15-.1-.44-.14-.59a34.85,34.85,0,0,1-2.31-5,5.83,5.83,0,0,1-1.84-2.92,23.53,23.53,0,0,0-3.31-7.64c-.36-1.88-1.49-3.42-2.23-5.15-.5-1.2-1.32-2.26-1.73-3.5-.62-2-2-3.68-2.71-5.62a105.35,105.35,0,0,0-4.79-9.71,12.55,12.55,0,0,0-1.2-3.08l-.75,0a10.47,10.47,0,0,0,.24-1.34.7.7,0,0,0-1.16,0,14.51,14.51,0,0,0,.46,3.06c.28,1-.17,2-.32,3A8.46,8.46,0,0,0,768.3,402a13.64,13.64,0,0,0,.69,3.73,81.28,81.28,0,0,1,3.57,7.62c.39.84.37,1.84,1,2.57.33.44.67.9,1,1.34.13.84.46,1.64.63,2.48l.32.36a36.23,36.23,0,0,0,2.11,4.56,5.57,5.57,0,0,0,1.2,1.9c1.13,2.09,1.5,4.51,2.7,6.57a5.06,5.06,0,0,1,.36,1.1,11.2,11.2,0,0,1,2.27,4.38,33.12,33.12,0,0,0,2,4.66,16.66,16.66,0,0,1,1.26,1.81,15.11,15.11,0,0,0,2.37,6.41c.62,1,.19,2.19.32,3.28,0,2-.71,3.8-.94,5.72a22.79,22.79,0,0,1-.41,5.08,6.09,6.09,0,0,0-.18,2.75c-.45,2-.37,4.06-.77,6.07-.5,1.8-.3,3.71-.91,5.49-.62,3.89-.93,7.83-1.36,11.74a9.92,9.92,0,0,1-.54,2.8,3.26,3.26,0,0,0-.71,2.56c.25,1.43-.37,2.83-.56,4.23s-.32,2.85-.77,4.22c-.75,2.2-.27,4.56-.85,6.8a8.48,8.48,0,0,0-.44,4,15.59,15.59,0,0,0-.59,2.81,80.09,80.09,0,0,1-1.33,8c-.26,1.36-1.24,2.58-.71,4,.43,2.85-.34,5.66-.84,8.45-.36,1.37-.16,2.83-.54,4.21-.54,1.73-.5,3.55-.88,5.31-.35,1.5-.2,3.08-.64,4.57-.23,1.81-1,3.54-.84,5.39s-.67,3.35-.88,5c-.18,2.36,0,4.8-.77,7.09a18.15,18.15,0,0,0-.48,4.29c.18,1.12-.64,2-.67,3.11a36.87,36.87,0,0,1-.84,4.88,51.42,51.42,0,0,0-1.13,10.06c-.22,1.37-.52,2.76-.85,4.12a20.42,20.42,0,0,1-.84,4.17c-.5,1.58-.32,3.26-.59,4.89-.43,1.74-.14,3.57-.64,5.29-.51,2.6-.91,5.23-1.19,7.87-.49,2.85-1.27,5.65-1.74,8.51a77.73,77.73,0,0,0-1.1,9.12,69.37,69.37,0,0,0-1.43,8.33,30.41,30.41,0,0,0-.86,4.14c-1.26,1-2.86.13-4.27.42-1.45-.45-2.85-1-4.26-1.56-.82.34-1.7-.1-2.51-.16a23.59,23.59,0,0,1-2.67-.44c-1.89-.61-3.86-.89-5.68-1.68-2-.49-4-.4-5.94-1-1.53-.33-2.9-1.23-4.5-1.19a15.76,15.76,0,0,1-4.9-1.08c-.8-.48-1.71-.07-2.56-.08a8.2,8.2,0,0,0-1.84-1,25.55,25.55,0,0,0-6.44-1.44,40,40,0,0,0-5.64-1c-1.37-.18-2.51-1.09-3.81-1.45-1.32-.18-2.5-.89-3.84-1-1.37-.34-2.73-.77-4.1-1.09-.89-.65-1.06-1.8-1.62-2.68a8,8,0,0,1-.69-3.52,13,13,0,0,0-.76-5.27c-.31-1.08.37-2.21-.06-3.26a15.55,15.55,0,0,1-.4-3.66c-.33-2.26-1.11-4.46-1.11-6.75a53.85,53.85,0,0,0-1-5.63c0-.77,0-1.51,0-2.27-.34-2.21-.45-4.44-.82-6.65a58.53,58.53,0,0,0-.9-6.47,34.42,34.42,0,0,1-.46-5.64,2.68,2.68,0,0,0-.22-1.76c-.91-2.45-.48-5.11-1.22-7.59-.13-1.86-.46-3.7-.44-5.56,0-1.17-.85-2.14-.75-3.3a14.69,14.69,0,0,0-.45-4c.38-3.61-.53-7.18-1-10.73a7.53,7.53,0,0,0-1.08-3.18c-.3-.28-.73-.58-.61-1a19.65,19.65,0,0,0-.19-6.67c.26-.75-.14-1.48-.25-2.2l.08-2.37c-.19-1-.34-2.05-.58-3.05.14-.56.24-1.11.41-1.65a6.87,6.87,0,0,1-.81-3.22c-1.23-4.53-.53-9.36-1.82-13.88-.69-1.42-.39-3.08-1-4.54-.44-1.06.6-2.1.1-3.16-.71-2.08-.43-4.29-.73-6.42a43.65,43.65,0,0,1-1-7.55c.09-1.36-.7-2.54-.9-3.84a24.66,24.66,0,0,0-.44-5.29c-.54-2.11-.12-4.32-.44-6.46-.71-2.08-.22-4.38-.89-6.47s-.79-4.54-1.3-6.79c-.3-1.43-.26-2.91-.43-4.34-.69-2.5-.87-5.08-1.38-7.61.47-2.46-1.36-4.68-.92-7.12.22-1.83-.54-3.59-.65-5.39a14.11,14.11,0,0,0-.67-3.08c.19-.94.64-1.93.17-2.84a15.62,15.62,0,0,1-1.36-5.23,14.88,14.88,0,0,1,.77-1.84,6.84,6.84,0,0,0,1.67-2.4c.51-.6,1-1.21,1.5-1.82,0-.82-.07-1.64-.11-2.45,1.62-2,4.36-2.73,6-4.7.34-.65.51-1.37.79-2a1.17,1.17,0,0,0,1.16.32c-.11-.44-.34-.94-.06-1.36a7.9,7.9,0,0,1,1.88-2.42c1.29-2,3.2-3.79,3.53-6.23.31-.28.95-.82,1.27-1.1a5.64,5.64,0,0,1,2.39-3.09c-.07.63-.73,1.45-.13,2a3.49,3.49,0,0,0,1.62-.69l0-.69c.16-.14.34-.27.52-.41,1.65-.42,2.68-1.93,3.84-3.07.84-.66,1.35-1.68,2.29-2.23a6.27,6.27,0,0,0,2.58-2.67c-.06-.7-1-1.11-.94-1.88a15.9,15.9,0,0,1,.79-3.73c.77-1.64,2.1-3,2.6-4.78.29-.79-.14-1.64-.07-2.43.91-.58,2.17-.83,2.59-1.94s0-2.65,1.16-3.39c.09-.63,0-1.32.15-1.94.35-.66.89-1.21,1.24-1.87a7.34,7.34,0,0,1,.09-2,18.49,18.49,0,0,1,3-.33,6.41,6.41,0,0,0,2.23-1.84c1.17-1.53,2.41-3,3.53-4.56a7.83,7.83,0,0,1,1.62-1.95c1.33-1.92,2.57-3.9,4-5.73a8.12,8.12,0,0,0,1.33-1.29c.53-.78.82-1.7,1.27-2.53.44-.52,1.12-.83,1.35-1.51a15.78,15.78,0,0,1,2.55-3.16l.13-.57c1.3-.81,2-2.3,3.15-3.28.73-.64,1-2.07,2.2-1.82a14.16,14.16,0,0,1,2,3.8c.29,1.29,1.35,2.19,1.86,3.38a6.81,6.81,0,0,0,1.13,2c0,.15.1.44.14.59l.57.59c.57,1.69,1.83,3,2.46,4.7.5,1.33,1.44,2.44,2,3.76.77,1.37,1,3,1.87,4.31a42.32,42.32,0,0,1,2.44,4.91,2,2,0,0,1,.87.82c1.07,2.63,2.6,5,3.76,7.65a27.74,27.74,0,0,0,1.36,3.17,21.21,21.21,0,0,1,2.51,4.16,32,32,0,0,0,2.61,4.49l-.23,0a9.62,9.62,0,0,1,1.35,2.43c.65,1,1.19,2,1.76,3,.75,1.36,1.48,2.73,2.17,4.12l.26.36a10.1,10.1,0,0,1,1.56,3.64c.63-1.41-.14-3.18-.08-4.7-.61-2-.51-4.21-1.11-6.26a2.13,2.13,0,0,0,1.66.92,8,8,0,0,0,1-.48,33.93,33.93,0,0,0-3.57-7.62c-1.39-2.65-2.49-5.44-3.75-8.15-.23-.58-.48-1.15-.66-1.75l-.31-.36a6.66,6.66,0,0,0-1.71-3.06c-1-1.27-1.61-2.82-2.51-4.17a10.7,10.7,0,0,1-1.53-3.95c-.92-1.75-2.26-3.28-2.92-5.16-1.61-2.54-2.67-5.36-4.17-8-1-1.61-1.36-3.48-2.28-5.11-.65-1.06-.94-2.31-1.67-3.32-1-1.29-1.22-3-2.13-4.29a24.24,24.24,0,0,1-2.21-4c-.94-2.09-2.88-3.48-4.27-5.23-1.72-.72-3.34-1.63-5-2.33-.68-.22-1-.92-1.48-1.39-1.36-1.74-3.59-2.38-5.16-3.87a29.55,29.55,0,0,1-2.81-2.67,23.44,23.44,0,0,1-5.28-4c-1-.86-2.3-1.31-3.36-2.11-.21-.35-.44-.68-.64-1-1.41-.86-2.69-1.93-4-2.91-.93-1.06-2.64-1.41-3.12-2.82-.73-.47-1.48-.9-2.2-1.35-.74-1.07-2.07-1.49-3.13-2.13-1.64-.64-2.64-2.14-4.14-3-1.1-.62-1.73-1.76-2.64-2.6-1.69-1-3.48-1.85-5.08-3a8.07,8.07,0,0,0-1.41-1.45c-2.29-2-4.5-4.21-7.21-5.65-1.25-1-2.79-1.64-3.63-3-.51-1-2-1-2.47-2.07-1.28-.85-2.37-2-3.85-2.57a13.39,13.39,0,0,0-3.16-2.3,3.19,3.19,0,0,1-1.56-1.29c-1.18-.52-1.68-1.84-2.89-2.35-2.31-1.28-4.15-3.22-6.48-4.46-1.62-.79-2.43-2.51-3.95-3.42-.5-.81-1.45-1.11-2.19-1.63-3.4-2.82-7.06-5.29-10.54-8-1.72-1.42-3.77-2.39-5.53-3.75a15.42,15.42,0,0,0-2.3-2c-.69-.34-1-1.1-1.59-1.5a18.27,18.27,0,0,1-2.43-1.61,2.47,2.47,0,0,0-1.41-.75c-1.63-1.46-3-3.31-4.91-4.36-1-.49-1.85-1.26-3-1.33a17.41,17.41,0,0,0-4.69-4.32c-.44-.86-1.44-1.12-2.18-1.64s-1-1.42-1.8-1.77a19.16,19.16,0,0,0-2.47-1.35c-1.45-1.56-3.43-2.41-5-3.77-1.59-1.65-3.71-2.62-5.47-4a17.25,17.25,0,0,0-3.89-3.24c-1.15-.56-1.79-1.71-2.65-2.59a13.49,13.49,0,0,0-2.21-1.12c-1.78-2.14-4.17-3.63-6.4-5.25-.69-.49-1.1-1.33-1.87-1.7s-1.29-1.26-1.93-1.9l-2-.61c-1.18-1.89-2.89-3.93-5.31-3.95-3.1.43-5.78,2.12-8.78,2.85-.94.31-1.86.64-2.77,1-.37.9-1.47.73-2.14,1.23-1.37,1-3.22.62-4.6,1.57-1.49.59-2.85,1.45-4.31,2.12-.92.48-2,.49-2.93.89-2.77,1.15-5.77,1.65-8.5,2.91-1.2.5-2.15,1.45-3.41,1.82-2.64.75-5.13,1.91-7.75,2.73-1.27.29-2.31,1.09-3.55,1.45a33.81,33.81,0,0,1-5.7,1.92l-.32.37c-.69.12-1.52-.16-2.09.32a29.93,29.93,0,0,1-4.47,2.63c-1.26.33-2.52.59-3.75,1-.93,0-1.48.77-2.29,1.05s-1.81.35-2.7.63c-1.37.34-2.57,1.26-4,1.2a24.26,24.26,0,0,0-3.79,1.68l-.78.18a22,22,0,0,1-5,2.18,12.75,12.75,0,0,0-2.43,1.34c-.75.63-1.6,1.11-2.36,1.69-.24.11-.43.48-.72.36-.3-.36-.54-.76-.8-1.14-.67,0-1.41,0-2,.06a15.71,15.71,0,0,1-3.81,2.41l-.35.33-1.5.15a20.18,20.18,0,0,1-5.69,2.44,25,25,0,0,1-5.74,2.1,11.61,11.61,0,0,0-3.33,1.64,16.52,16.52,0,0,1-4.16,1.58,8.09,8.09,0,0,0-2.74,1.08c-2.88.85-5.36,2.74-8.33,3.31-.68.32-1.22.87-1.88,1.24l-2.18.19c-.79.61-1.84.61-2.68,1.12-1.45,1-3.31,1-5,1-1.13,0-1.46,1.35-2.26,1.93a5,5,0,0,0-1.68.46l-.58.15-.28.34a13.06,13.06,0,0,0-2.34.1l-.31.42-.61.1a4.93,4.93,0,0,1-3.54,1.45c-1.24.11-2.11,1.88-3.45,1.14a13.17,13.17,0,0,0-3.21,1.47c-.74.17-1.46.78-2.25.46-1.76,1-3.72,1.42-5.55,2.24-1,.1-2,.19-3,.34l-.32.38c-1.11.16-2.11.72-3.22.86l-.61.55c-2,.78-3.76,2.08-5.8,2.77-1.49.44-2.78,1.38-4.33,1.65-1.24.24-2.19,1.12-3.29,1.69-.26.52-.54,1-.81,1.54a9.27,9.27,0,0,0-1.86.56,44.65,44.65,0,0,1-5.63,2.68c-1.09.42-1.62,1.64-2.73,2-1.31.48-2.82.22-4,1a48.55,48.55,0,0,0-5.33,3,14.12,14.12,0,0,0-2.37,1.46c-.88.32-1.8.52-2.66.9a17.69,17.69,0,0,1-1.84,1.73c-.82.64-1.92.7-2.77,1.29-2,1.41-4.12,2.95-6.62,3.38a3.74,3.74,0,0,1-2.13,1.43c-.44.43-.88.86-1.33,1.28-1,.83-2.35.86-3.34,1.65-.66.55-1.58.56-2.22,1.12a14.68,14.68,0,0,1-5.61,2.7,3.07,3.07,0,0,0-2.17.92c-1.34.25-2,1.54-2.81,2.44-1.32.82-2.9,1.08-4.17,2a8.65,8.65,0,0,1-.81,1.1l-1.52.16c-1.92.9-4,1.32-6,2.11a23,23,0,0,0-2.32,1.7,13.64,13.64,0,0,0-3.15.88,7.15,7.15,0,0,1-3.56,2.67,35.55,35.55,0,0,1-8.3,4.3c-.87.38-1.69,1-2.71.86-.11.21-.21.42-.31.64a24,24,0,0,0-5,3.28c-1.29.79-2.87,1-4.13,1.82-.83.6-1.69,1.16-2.53,1.74a11.38,11.38,0,0,1-2.67.91,25.36,25.36,0,0,0-2.87,1.4c-1,.05-1.6.92-2.3,1.51-2.76,1.18-5.78,2-8,4.17-1,.7-2.21.89-3.22,1.53l-.58.15-.59.57c-2,.48-3.22,2.64-5.3,2.83a6.51,6.51,0,0,1-2.41.93,19.76,19.76,0,0,0-3.93,2.94,27.92,27.92,0,0,0-4.9,2.72,5.65,5.65,0,0,1-2.8,1.24c-.42.79-1.35,1.06-2.07,1.49-1.48.69-2.93,1.41-4.45,2-3.47,2.09-7.3,3.49-10.7,5.7-.81.3-.9,1.22-1.18,1.92a6.55,6.55,0,0,1-.95,1.66c-1.44,3.06-1.46,6.51-2.42,9.71a12.23,12.23,0,0,0,0,2.64c0,1.41-.49,2.75-.57,4.16a25.88,25.88,0,0,0,.07,4.22c.15,2.32-1.08,4.42-1.28,6.69-.47,1.42.15,2.85,0,4.28-.33,1.8-.5,3.63-.74,5.44a5.1,5.1,0,0,1-.73,2.3c.63,1.52-.62,3-.47,4.58.08,3.8-1.07,7.49-1.11,11.29a29.55,29.55,0,0,1-.5,3.73c.29,2.64-.6,5.22-.68,7.85,0,1.26-.29,2.49-.37,3.75.14,1.22-.62,2.24-.9,3.37-.14,1-.12,1.92-.21,2.89-.06.8.36,1.56.22,2.37a12.08,12.08,0,0,1-.94,3.57c-.12.77.25,1.51.16,2.3a11.4,11.4,0,0,1-.47,2.38c-.37,3.29-1.69,6.43-1.69,9.76a37.23,37.23,0,0,0-.05,4.84c-.34,1.19-1.19,2.31-.77,3.62a9.73,9.73,0,0,1-.18,4.09c-.37.88.24,1.87-.08,2.77a33.7,33.7,0,0,0-1.16,10.05c-.44,3.58-.61,7.23-1.65,10.7-.36,1.52.24,3.08.11,4.62.26,1.58-.93,2.94-.7,4.53,0,.59,0,1.76,0,2.35.28,1.24-.92,2.13-.66,3.37-.24,2.25-.28,4.51-.37,6.78,0,2.49-.91,4.94-.63,7.44-.1,2.41-1,4.72-1,7.15a9.65,9.65,0,0,1-.4,2.43c-.09,1.72-.11,3.45-.13,5.18-.23,1.71-.42,3.42-.51,5.15-.12,1.27-.11,2.55-.19,3.84-1.18,1.08-.22,2.68,0,4a29.22,29.22,0,0,0,1.81,7.47,23,23,0,0,0,2,4.92c.74,2.9,1.62,5.75,2.61,8.57a22.07,22.07,0,0,0,.56,2.78c.39,1,.24,2.14.68,3.14a14.49,14.49,0,0,1,.92,2.64,16.33,16.33,0,0,0,1.21,3.3c.81,1.7.33,3.68,1,5.41.3,1.14.89,2.18,1.16,3.33.55,2.08.81,4.29,1.9,6.19.52.81.16,1.84.37,2.75,1.16,1.7,1.23,3.81,1.88,5.71.69,1,.35,2.38,1.25,3.27a12.13,12.13,0,0,0,1.34,3.66,10.24,10.24,0,0,1,1.06.37c.18.28.38.55.59.83a6.52,6.52,0,0,1,1.41.54c.31,1.27-.73,2.12-1.09,3.23-.33.44-.79.88-.76,1.48a16.19,16.19,0,0,1-.35,2.16,5.72,5.72,0,0,0,1.61.83,12.42,12.42,0,0,0,.87,2.92c.33.69-.24,1.41-.14,2.13a3,3,0,0,0-1.36,1.06c.3,1.2.69,2.4,1.06,3.59a3.44,3.44,0,0,0,.4-2.17,2.14,2.14,0,0,1,.89-.5,42,42,0,0,1,1.64,4.34c.12,1.48.74,2.85,1,4.31a6.28,6.28,0,0,1,.55,3.26c.58.44,1.23.82,1.81,1.27.56.95.52,2.09.93,3.11a11.34,11.34,0,0,1,.84,4.64c-.33,1,.47,1.68.82,2.49a48.42,48.42,0,0,0,2,4.91c.52.74-.12,1.67.17,2.47.59,2.94,2.62,5.36,3.07,8.35a52.87,52.87,0,0,0,3,8.89c.31.65-.15,1.36.09,2,.3,1.14.63,2.25.91,3.39a9.68,9.68,0,0,0,2.82,3.6l.58.14a10.5,10.5,0,0,0,3.33,1.43c.89.3,1.54,1,2.41,1.39a37.3,37.3,0,0,1,5.28,2.57c2.94,1.44,5.39,3.81,8.57,4.75a14.09,14.09,0,0,1,4.6,2.53c2.47.44,4.08,2.57,6.39,3.37a17.46,17.46,0,0,1,3.85,2.34c1,.68,2.21.87,3.18,1.59s2.71.72,3.53,1.94,2.39.83,3.06,2a7.6,7.6,0,0,1,2.46,1.32,5.19,5.19,0,0,0,2.1,1c.65.26,1.12.83,1.79,1a13.87,13.87,0,0,1,4.81,2.56,6.15,6.15,0,0,0,3.12,1.18,12.13,12.13,0,0,0,2.36,1,32.38,32.38,0,0,1,4.06,2.58c2.44,1.27,4.95,2.43,7.31,3.87a7.16,7.16,0,0,1,1.69.94c1.48,1.28,3,2.76,5.09,3,.52.41,1.05.82,1.6,1.23,2.53,1.36,5.51.82,8.15,1.83.74.38.6,1.33.82,2l.89.07c1,1.41,2.71,1.94,4.24,2.65.95.33,2,.13,2.95.63.55.25.77.86,1,1.38a31.16,31.16,0,0,0,4.06,2.8c1.36.36,2.51,1.24,3.87,1.61.55.72,1.21,1.34,1.79,2a9.47,9.47,0,0,1,1.3-.19,6,6,0,0,0,2.12,1.06c.62.4,1.18.86,1.8,1.28,1.23,1,2.88,1.15,4.37,1.58a18.4,18.4,0,0,1,4.29,3.08c.48.94,1.53,1.11,2.49,1.27.42-.06,1.23-.54,1.3.16-.05,1.16,1,1.68,1.69,2.38a10.38,10.38,0,0,1,1.08,1.79c.69.31,1.4.64,2.12.9.79-.21,1.43.51,2.13.76a6,6,0,0,0,2.71,3,33.65,33.65,0,0,1,8.77,2.65c1.63.44,2.88,2.21,4.71,1.54.95.6,1.82,1.3,2.73,2,.35.19.76-.06,1.12-.14a17.84,17.84,0,0,1,1.82,1,16.92,16.92,0,0,1,1.26,1.83q1.37,0,2.73.09a8.31,8.31,0,0,1,1.95,1.42c.8.79,1.08,2.29,2.45,2.3,1.34.3,2.57,1,3.88,1.37.29.11.6-.08.89-.14,1.74,1,3.69,1.6,5.45,2.58a11.3,11.3,0,0,1,4,1.93,8.59,8.59,0,0,0,2.54,1.51,9.2,9.2,0,0,0,2.3,2c.52.12,1.17.17,1.49.67,1,1.46,2.7,2.09,4.1,3,1.34.53,2.47,1.58,3.86,2,1.35-.29,2.27,1,3.32,1.57a6.55,6.55,0,0,1,1.72,1.9,3.79,3.79,0,0,1,3,.3c.73.62,1.41,1.29,2.09,2a17.68,17.68,0,0,0,3.16,1.35c1.09.36,2.05,1,3.16,1.37a12.83,12.83,0,0,1,4.1,2.09l1.57,0c.28-.36.58-.72.88-1.07a31.39,31.39,0,0,0,5.81-2.27,4.58,4.58,0,0,0,1.28-.84c1.34-.36,2.69-.67,4-1a7.15,7.15,0,0,1,2.92-.65c.75-.45,1.58-.76,2.32-1.23l.55-.17a7.92,7.92,0,0,1,1.57-1.07l.33.14a25.09,25.09,0,0,1,5.74-1.89c1.42-.26,2.63-1.09,4-1.5a43.67,43.67,0,0,1,7.24-3.2,24.45,24.45,0,0,0,5.09-2.28,36.42,36.42,0,0,0,4.71-1.4c.77-.1,1.52-.27,2.28-.42l.57-.61a15,15,0,0,0,4.2-1.29,11.71,11.71,0,0,1,3.54-1c1-1.17,2.93-.82,3.75-2.22l.56-.35c.08.14.26.4.34.53a20.07,20.07,0,0,1,2.82-1.32c1.64-.31,3.42-.28,4.88-1.19a6.82,6.82,0,0,0,2.55-1l.55-.19c1.36-1,3.2-.93,4.7-1.69a23.26,23.26,0,0,0,5.35-2c.84.43,1.61-.23,2.34-.57,1-.41,2-.42,3-.78,1.65-.49,3.07-1.55,4.76-1.92,1.35-.47,2.59-1.29,4-1.43,1-.24,2-.55,3.11-.69s1.91-1.21,3.11-1.21c.39-.22.8-.58,1.29-.4a38.56,38.56,0,0,1,4.4-1.72,22.83,22.83,0,0,1,6.72-3c.19-.2.39-.39.59-.57a14.64,14.64,0,0,0,3.28-1c1.4-.39,2.85-.57,4.24-1,1.2-.44,2.34-1,3.58-1.41a10.39,10.39,0,0,0,3.84-1.62,22.27,22.27,0,0,1,6-2.15c1.56-1,3.6-1,5.11-2.05,1.37-.38,2.87-.35,4.16-1,2.76-1.34,5.92-1.73,8.57-3.31,1-.55,2.18-.77,3.17-1.36a27.22,27.22,0,0,0,4.15-1.56c2.62-1.19,5.54-1.4,8.28-2.2,1.34-.74,2.51-1.81,4-2.14,1.88-1.38,3.6-3.07,5.78-4,1.47-.89,2.79-2.11,4.44-2.7a12.4,12.4,0,0,0,3-1.72c1.09-1,2.66-1.22,3.78-2.17s2.52-2.05,4.16-2a27.17,27.17,0,0,1,4.14-2.73c.82-.46,1.94-.49,2.5-1.33a7.15,7.15,0,0,1,2.47-1.8c1.41-.45,2.47-1.51,3.76-2.2s2.64-1.06,3.78-1.93,2.47-1.45,3.57-2.37a28.48,28.48,0,0,1,3.89-2.28,7.38,7.38,0,0,1,2.57-.78l.32-.39.62-.09c1.09-1.36,2.79-1.94,4-3.11,1.55-1.55,4-1.51,5.62-2.94,1.38-1,3-1.51,4.42-2.48,1.84-1.08,3.46-2.55,5.48-3.32,1.41-.5,2.48-1.71,4-2a19,19,0,0,0,2.43-1.34,38.15,38.15,0,0,1,4.31-2.84c2.52-1.29,4.55-3.41,7.22-4.45a4.88,4.88,0,0,0,1-.66c2-.72,3.5-2.3,5.4-3.18a12.17,12.17,0,0,1,3-1.29l.83-.8c.9.16,1.49-.52,2.17-.93s1.34-.7,2-1.15.87-1.32,1.76-1.35a15.83,15.83,0,0,0,5-2.88c1-1,2.37-1.38,3.36-2.35.53-.35.82-1.1,1.49-1.25a3.23,3.23,0,0,0,1-.08c1.67-.79,3.11-2,4.7-2.91,2.92-1.38,5.17-4,8.46-4.63,1.85-1.57,4.25-2.16,6.21-3.54,1.91-1.91,2.38-4.67,2.8-7.22.48-1.94.5-4,1-5.92a5.12,5.12,0,0,0,.2-2.23c.14-1.63.84-3.14.88-4.77,0-1.23.62-2.35.45-3.59a47.13,47.13,0,0,1,1.63-11.21c.52-1-.2-2.09.27-3.07a30.29,30.29,0,0,0,1.33-8c.17-1.52.57-3,.73-4.51a12.69,12.69,0,0,0,.56-3.71,14.39,14.39,0,0,1,1-6.11c.46-1.27.15-2.67.53-4a59.32,59.32,0,0,1,1.08-8c.38-1.31,0-2.73.53-4a9.51,9.51,0,0,0,.53-2.74,10.64,10.64,0,0,1-.33-2.29c1.57-1.9.61-4.48,1.46-6.63.31-.72,1-1.34.84-2.2-.51-2.24.64-4.42.08-6.66,1-1.63,1.15-3.61,1.4-5.48.09-1.5.58-3,.4-4.51,0-1.09-.39-2.28.08-3.33a12.93,12.93,0,0,0,1.23-5.76c0-.83.52-1.56.62-2.37s-.16-1.83-.11-2.74a6.11,6.11,0,0,0,.56-2.48c0-.86-.42-1.79.06-2.6a19.26,19.26,0,0,0,1-4.52c-.08-1.15.75-2.16.41-3.32-.69-2.38,1.29-4.34,1.34-6.66-.09-1.71.79-3.29.66-5a53.4,53.4,0,0,1,1-7c.14-.88-.25-1.76,0-2.63.19-1.27.54-2.5.78-3.75,0-.79-.36-1.63,0-2.4,1.09-2.55,1-5.42.88-8.14a4.06,4.06,0,0,1,.49-1.89c.34-1.16.61-2.33,1-3.46a1.64,1.64,0,0,1-.09-1.11,9.67,9.67,0,0,0,.47-4.49c-.23-1.06.86-1.88.63-3,.25-2.93,1.18-5.75,1.33-8.68.4-3,.34-6.1.86-9.1a7.74,7.74,0,0,0,1.34-2.73c0-4.59-3.3-8.15-4.76-12.3m-123.57,37a19.83,19.83,0,0,1,.84,4.38,14.65,14.65,0,0,0,.44,3.62,10.1,10.1,0,0,1,.55,5c-.31,2.94,1.12,5.72,1,8.66-.25,1.54.43,3,.67,4.54.25,1.12-.17,2.25-.06,3.38a21.21,21.21,0,0,0,.86,3.12c-.41,2.36,1,4.75.19,7.05-.45,1.19.3,2.26.69,3.33a6.48,6.48,0,0,1,.59,2.74,16.43,16.43,0,0,0,.69,3.54c-.36,1.63-.87,3.52,0,5.08a3.5,3.5,0,0,1,.65,1.74c-.18,1.31.47,2.51.73,3.77.52,1.55,0,3.17.23,4.76.13,1.31.75,2.61.43,4a30.85,30.85,0,0,1,.66,5.92c.25,2.5.92,4.94,1.38,7.4-.39,2.79.3,5.58.74,8.31.41,2.1.33,4.26.54,6.38.56,2.18.58,4.46,1.26,6.62-.49,1.71.35,3.3.73,4.94.15,2,.36,4.05.45,6.09,0,1.84.67,3.6.89,5.43.54,2.12.31,4.34.6,6.5.09,2,.49,3.95.11,5.9a9.79,9.79,0,0,1,.27,6.69,4.41,4.41,0,0,1,.2,2.62c-.58,1,.38,1.44.9,2a11.72,11.72,0,0,1-.2,1.16l-.56-.32c-.11.71-.17,1.45-.21,2.18l.47-.22c.31.1.63.18,1,.27a23.68,23.68,0,0,1,.41,4.12,17.44,17.44,0,0,1,1,5.26,7,7,0,0,1-1.63,2.19c-.27,0-.53.1-.78.16-1.25,0-2,1.14-3.11,1.42-1.82.72-4,.94-5.41,2.44-1.18.32-2.47.3-3.49,1.05-1.44,1-3.29,1-4.84,1.81s-3.37.37-4.53,1.64a35.74,35.74,0,0,1-4.8,1.64,11.09,11.09,0,0,1-2.68,1.14l-.35.33c-1.72-.37-2.48,1.66-4.11,1.63a85.3,85.3,0,0,0-8.1,2.83,10.88,10.88,0,0,1-2.19.43c-.8.24-1.45.81-2.22,1.1-1,.31-2,.42-3,.8-.18.21-.25.61-.57.66-2.58.5-4.85,1.86-7.33,2.63a17.07,17.07,0,0,0-5.4,1.53,12.45,12.45,0,0,1-3.11,1.4c-.91,1.13-2.51.65-3.66,1.33a48,48,0,0,0-6.77,2.75c-1.62.84-3.65.49-5,1.92l-1.5.17c-.94,1-2.44.43-3.58.95a12.82,12.82,0,0,0-4.18,2.21,4,4,0,0,0-1.92.93c-.61.56-1.47.24-2.19.46a37.77,37.77,0,0,0-5.7,1.91,4.87,4.87,0,0,0-3.26,1c-1,.86-2.52.63-3.61,1.38-2.49.91-4.82,2.19-7.28,3.18-2.35.7-4.86.83-7.06,2-1,.52-2.17.32-3.08,1-1,.87-2,2-3.4,2.06a20,20,0,0,1-4.29.48c-.62,0-1.07.48-1.51.84-1.71.3-2.88,1.79-4.4,2.53-.59.42-1.35-.29-1.95.19-1.42.84-3.14.82-4.56,1.62a28.25,28.25,0,0,1-7.5,3,3,3,0,0,1-1.84,1,8.53,8.53,0,0,0-4.28,1c-.86.35-1.95.21-2.58,1a16.22,16.22,0,0,1-1.44,1.16c-1.75,0-3.32.91-4.94,1.5-1.41.67-3,.84-4.39,1.54-1,.5-2.1.44-3,1-1.67,1.11-3.75,1.11-5.59,1.8-.78.41-1.55.83-2.36,1.2-1.35.77-3.09.8-4.24,1.93-1.61-.07-3,.82-4.54,1.18a26.67,26.67,0,0,0-3.36,1.16c-1.14.16-2.27.42-3.41.59-1.82-.43-2.41-2.34-3.65-3.49-1-.87-2.27-1.34-3-2.43a38.78,38.78,0,0,0-4.91-4.85c-1.13-.94-1.83-2.31-3.07-3.12-1.46-2.1-3.73-3.42-5.21-5.49-1.64-1.54-3.05-3.36-5.05-4.45a7.31,7.31,0,0,0-2.7-3.26c-1.06-.49-1.65-1.54-2.48-2.28a18.24,18.24,0,0,1-2.69-3.49c-1.32-1.31-2.87-2.39-4.07-3.79a44.25,44.25,0,0,0-4.12-4.21l-.65-.06a19.87,19.87,0,0,0-3.35-3.79c-1.21-.85-1.9-2.24-3.11-3.07-2-1.23-3-3.57-5.16-4.6a5.2,5.2,0,0,0-.88-1.74c-.68-.6-1.46-1.07-2.07-1.72s-.84-1.67-1.57-2.26c-1-.92-2-1.82-3.05-2.66-.36-.44-.71-.87-1.08-1.3l-.65,0c-.75-1.22-2.15-1.89-2.71-3.24-1.51-1.8-3.62-3.11-4.77-5.22-.76-1.47-2.47-2-3.57-3.1-1.92-2-4.28-3.72-5.75-6.15a6,6,0,0,0-1.69-1.39,10.47,10.47,0,0,0-1.69-1.64c-.74-.72-1-1.82-2-2.3a11,11,0,0,1-1.81-1.52c-1.37-1.64-3-3.07-4.33-4.72-1.85-1.88-3.33-4.12-5.43-5.75a14,14,0,0,0-2.6-2.39,12.44,12.44,0,0,0-4.78-4.74c-1.14-2.05-3.07-3.44-4.46-5.3a13.81,13.81,0,0,0-2.41-2.1c-1.51-2-3-4.14-5.27-5.44a20.36,20.36,0,0,0-2.83-2.89,10.84,10.84,0,0,0-2.12-2.63,25,25,0,0,0-2.41-1.86c-1.08-2.44-3.68-3.67-5.09-5.87-1.14-.94-1.76-2.38-3-3.19-.41-.64-.76-1.3-1.21-1.9-.21-.87.33-1.56.69-2.26,2-3.56,4.35-6.85,6.15-10.5a27.23,27.23,0,0,1,1.8-2.72,7.47,7.47,0,0,1,1.88-2.39,4.65,4.65,0,0,1,.8-2.07c1.22-1.8,2.38-3.65,3.55-5.48,1.62-3,3.55-5.8,5.37-8.68,1.5-2.18,2.67-4.58,4.18-6.76a19.73,19.73,0,0,0,1.8-3.2c.23-.82,1.21-1,1.55-1.78,1.06-2.37,2.78-4.36,3.67-6.8a13.59,13.59,0,0,1,1.83-2.45c1.41-1.68,2.14-3.81,3.57-5.47a6,6,0,0,0,1.13-1.48,16.6,16.6,0,0,1,2.79-4.59,42.18,42.18,0,0,1,2.88-3.77,7.87,7.87,0,0,1,.91-2.44c.48-.46,1-.9,1.47-1.36,1.62-3.38,4.19-6.17,6.09-9.39,2-3.73,4.69-7,6.61-10.77,1-1.53,1.75-3.26,2.86-4.75a8.3,8.3,0,0,1,2-2.5,12.38,12.38,0,0,1,1.18-2.14c1.24-2.28,2.9-4.3,4.14-6.58s2.56-4.26,3.88-6.36a10.71,10.71,0,0,0,1.48-2.58L432,453.3a23.21,23.21,0,0,0,1.93-3.78c.26-.86.95-1.49,1.24-2.33.63-1.7,2.28-2.71,3.07-4.3a11.57,11.57,0,0,1,1.54-2.26A12.23,12.23,0,0,1,441.2,438a25.78,25.78,0,0,0,3.64-5.88c.77-1.21,1.58-2.39,2.3-3.63a7.35,7.35,0,0,0,1.25-1.36c-.06-1.12.78-1.9,1.26-2.8a20.26,20.26,0,0,1,2.11-3.37,7.41,7.41,0,0,0,1.76-3.71c.27-.22.53-.42.81-.61,1.31-1.61,2.07-3.58,3.45-5.12l.68,0c.92-1.69,1.67-3.68,3.27-4.84a33.75,33.75,0,0,0,3.17-5.89,20.55,20.55,0,0,1,2.08-.11c3.13-.5,6.15.45,9.26.42.73.26,1.37.75,2.1,1,1.61.39,3.19.91,4.79,1.39.47.18,1,0,1.47,0a33.19,33.19,0,0,1,6.19.94,12.69,12.69,0,0,0,3,.55c1.1.23,2.06,1,3.24.79,1.82-.28,3.41.9,5.21.74,2.41-.33,4.45,1.31,6.82,1.28.91.86,2.25.6,3.36.94a23.39,23.39,0,0,0,4.56,1.13c1.56.27,3.21,0,4.72.51,2.06.58,4.24.64,6.27,1.34,2.34.34,4.64.89,7,1.35a23.69,23.69,0,0,1,3.35.47A48.24,48.24,0,0,1,547,415c.87,0,1.81-.36,2.63.1,1.47.72,3.14.6,4.72.77,2,.61,4.16,1.32,6.26.93.43.18.86.37,1.3.54,1.34.91,3.08.66,4.58,1.13s2.93.33,4.39.59a2.2,2.2,0,0,0,.91-.12c1.77,1.24,4,1.2,6.08,1.27,1.56.8,3.56.21,4.92,1.47,1.5.31,3.07.24,4.54.69.63.21,1.24-.18,1.82-.37a11.32,11.32,0,0,0,3.09,1.17c1.58.34,3.31.2,4.83.89a19.16,19.16,0,0,0,3.21.84c1.57.49,3.25.37,4.83.86,2.76.45,5.5,1,8.29,1.24,1.51.36,2.93,1.08,4.42,1.51a15.16,15.16,0,0,1,4.7,1,5,5,0,0,0,2.52.16,7.66,7.66,0,0,0,3.08.29c.59,0,1.27.06,1.9,0a6.11,6.11,0,0,0,3.38.4c1.71-.11,3.18.91,4.77,1.37l.43-.23a6.77,6.77,0,0,0,3.38.6c1.23.22,2.47.58,3.69.9a14.2,14.2,0,0,1,4.14.64,8.44,8.44,0,0,0,2.83.51l.32.36a20.55,20.55,0,0,0,3.83.72c1,.17,1.91-.63,2.89-.3a18,18,0,0,0,3.41.65l.68.73a11.36,11.36,0,0,0,1,2.86c.41,1.41,0,2.89.15,4.34a14,14,0,0,0,1.07,5.83c.67,2.51.26,5.24,1.08,7.74.23,1.5,0,3.08.42,4.55a58.15,58.15,0,0,0,1.32,7.53c.46,1.58.19,3.25.35,4.88s.53,3,.79,4.44m22.89-80.86c-.43.52-1,1.11-1.78.86.08-.65.14-1.29.23-1.93l.72-.7.58-.14c.5-.43,1.14-.82,1.78-.41a15,15,0,0,1-1.53,2.32M691.11,391a1,1,0,0,1,.71-1c0,.2,0,.59,0,.79-.26.06-.52.13-.76.21m11.22-14a8.38,8.38,0,0,1-2.62,1,3.92,3.92,0,0,1,.72-1.92c.65,0,1.48,0,2.17,0-.09.31-.19.62-.27.94M411.57,268.47a81.22,81.22,0,0,1,8-3.16,3.8,3.8,0,0,1,.82-.61,50.72,50.72,0,0,1,7.32-2.45c2.61-.91,5.24-1.8,7.76-2.93a22.28,22.28,0,0,1,4.25-1.69,17.2,17.2,0,0,0,4.54-1.4c1.58-.59,3.06-1.39,4.58-2.12l.39-.28a18.39,18.39,0,0,0,4.3-2.37,6.45,6.45,0,0,0,4.27-1l.59-.13.33-.36c2.64-.29,4.62-2.44,7.24-2.76.61-.47.77-1.46,1.77-1.34a13.91,13.91,0,0,0,3.6-.92c1.45-.61,3-.83,4.45-1.5,1.21-.59,2.49-1,3.73-1.51a10.23,10.23,0,0,1,1.84-.77c2.41-.86,4.68-2.06,7.1-2.89,1.14-.48,2.41-.46,3.53-1,1.67-.6,3.19-1.55,4.9-2,.83-.46,1.73-.77,2.58-1.19a19.64,19.64,0,0,0,2.12-1.25c1.27-.38,2.61-.44,3.87-.87,1.08-.4,2.35-.2,3.28-1,2-.33,3.31-2,5.25-2.38,1.41-.11,2.57-1,3.93-1.3,2.21-.52,4.12-2,6.41-2.17,2-.31,3.3-2.62,5.49-2.36,1.38-.08,2.45-1.08,3.7-1.55a16.72,16.72,0,0,1,2.17-.94c.29,0,.63.19.92,0,1-.61,2-1.21,3-1.8a10.48,10.48,0,0,1,2.74-.61c1.1-.31,2.26-.4,3.38-.64a13.56,13.56,0,0,0,2.6-1.45c2.23-.92,4.81-1.05,6.85-2.43,1.23-.63,2.66-.63,4-1,2.17-.83,4.41-1.52,6.52-2.51a15.72,15.72,0,0,1,3.23-1.08c2.42,1.21,4.22,3.28,6.58,4.57.27.39.81,1.15,1.09,1.53,1.25.71,2.51,1.44,3.74,2.2,1.65.9,2.79,2.49,4.42,3.43.57,1.4,2,2.15,3,3.2s2.45.7,3.37,1.64c1.22,1,2.41,2,3.55,3.11a2.48,2.48,0,0,0,1.55.61,13.59,13.59,0,0,0,1.29,1.55c2.69,2.1,5.66,3.82,8.4,5.88a39.1,39.1,0,0,0,3.45,3c.84.62,1.94.82,2.67,1.61a10.26,10.26,0,0,0,2.26,1.54c.47.48.86,1,1.33,1.53,1,.64,2,1.12,2.94,1.82,2,1.86,3.8,3.94,6.26,5.16,1.19.48,2,1.55,3.11,2.12a10,10,0,0,1,3.26,2.93c.5.7,1.39.85,2.11,1.22a17.06,17.06,0,0,1,1.61,2,6.14,6.14,0,0,1,2.87,2.12c1.41.77,2.65,1.86,4.32,2.09a39.11,39.11,0,0,0,3.86,3.53c1.31.89,2.45,2,3.86,2.8.91.49,1.75,1.1,2.65,1.63s1.46,1.55,2.36,2.17c3.22,2.41,6.56,4.65,9.67,7.22,2.49,1.76,4.7,3.88,7.22,5.63.89.55,1.64,1.51,2.78,1.51.58.75,1.26,1.45,1.81,2.22a12.64,12.64,0,0,1,2.34,1c.72.77,1.37,1.64,2.07,2.46,1.44,1.43,3.28,2.38,4.73,3.82,2.22,1.68,4.42,3.4,6.76,4.9a21.72,21.72,0,0,1,1.71,1.62c2.27,1.35,4.39,3,6.7,4.25.58.37.85,1.06,1.44,1.42a3.89,3.89,0,0,1,1.54,1.55c.86,1.55,2.87,1.82,4,3.18a14,14,0,0,0,2.53,2,8.21,8.21,0,0,1,3.23,2.26c1,1.18,2.33,1.95,3.32,3.11,1.29,1.25,2.85,2.19,4.17,3.43a20.87,20.87,0,0,1,4.61,3.25c.93.94,2.83,1.46,2.52,3.17a1.65,1.65,0,0,1,.57,1.47c-.39.7-1.17,1.08-1.68,1.68-.78.89-1.43,1.9-2.16,2.83-1,1.21-1.49,2.74-2.47,3.95a3,3,0,0,0-.61,1.32c-.33.3-.66.6-1,.87-.73.94-1.42,1.9-2.16,2.83-.32.77-.74,1.51-1.06,2.28-.57,1.39-2,2.24-2.56,3.61a17.91,17.91,0,0,1-1.92,3.09,4.21,4.21,0,0,1-1.36,1.51c-.73,1-1.22,2.07-2,3A9.05,9.05,0,0,0,708,362.2c-.46,1-1.36,1.68-1.84,2.67a15.12,15.12,0,0,1-2.54,3.65,8.16,8.16,0,0,0-1.14,2.19,12.72,12.72,0,0,1-1.5,1.12c-1.1,2.35-3,4.36-3.51,7-1.94,1.1-2.54,3.31-3.31,5.24-.44,1.19-2.82.33-2,2.12.15.25.31.52.45.79-.4-.17-.72-.72-1.17-.64-.76.76-1.35,1.66-2.14,2.39,0,.39-.07,1.17-.1,1.57-.17.15-.33.3-.48.46l-.64.08a16.08,16.08,0,0,1-1.33,1.52,8.36,8.36,0,0,1-2.28,3.2c-1.28,1.43-2.27,3.1-3.54,4.54-1.06,2.25-3.16,3.76-4.27,6-.45.74-1.09,1.33-1.47,2.1a31.27,31.27,0,0,1-3.78,5A21,21,0,0,0,670,416a15,15,0,0,1-3.31,3.82,7.64,7.64,0,0,0-1.83,2.21c0,.16-.07.47-.09.63l-1.58,1c-1,1.23-.83,3.46-2.68,4a8.78,8.78,0,0,1-4.68-.31,4.49,4.49,0,0,0-2.83-1.23c-1.68-.41-3.43-.28-5.1-.75-2.25.19-4.43-1.29-6.64-.44-2.46-.5-5-.71-7.4-1.31s-5.33-.07-7.71-1.34c-1.54,0-3-.85-4.54-.67a6.77,6.77,0,0,1-4.35-1.34c-.1-.35-.21-.69-.34-1-.5.57-.58,1.9-1.76,1.18-2.07-.33-4.13-.75-6.23-.93-1.4-.66-3-.52-4.45-1-2.5-.68-5.08-.95-7.61-1.43-2.07-.37-4.2-.35-6.24-.89-1.4-.25-2.83-.36-4.23-.51a5.3,5.3,0,0,1-.67-.57c-4.37-.65-8.66-2.09-13.09-2.14-4.41-1.52-9.26-1.11-13.62-2.79a11.34,11.34,0,0,1-3.39-.41l-.32-.39-2.53-.09a8.19,8.19,0,0,0-2.65-.7,25.48,25.48,0,0,0-8.51-.71c-.18-.31-.37-.61-.57-.89l-.78-.17c-.73-.09-1.33-.08-2-.13l-.3-.39a39,39,0,0,1-6.24-1.16,10,10,0,0,1-2-.94c-1.87.16-3.76-.22-5.62-.19a2.32,2.32,0,0,0-2-.61c-1.43.18-2.65-.77-4.06-.68a14.82,14.82,0,0,1-6.72-1.41,16.84,16.84,0,0,1-4.48-.51,2.64,2.64,0,0,0-1.64-.08c-1.13-.45-2.26-.9-3.41-1.3-2-.1-4-.58-6.05-.37-1.11-.37-2.13-1.11-3.37-.91-2.38-.47-4.77-.83-7.15-1.32-1.42.1-2.65-.78-4-.8-1.74-.22-3.38-.87-5.12-1.06-1.44,0-2.7-.83-4.14-.87-1.26-.17-2.69-.13-3.66-1.1-1.36-2.25-3-4.48-3.3-7.16-.08-.76-.79-1.11-1.29-1.57a20.37,20.37,0,0,1-1.39-2.66c-.61-1-1.34-1.84-1.92-2.82-.7-1.67-1.29-3.39-2.14-5-1.31-3.05-3.26-5.77-4.51-8.84-.43-1.26-1.53-2.21-1.66-3.57s-1.31-2.08-1.76-3.23c-.36-.88-1-1.58-1.33-2.46a13.39,13.39,0,0,0-1.83-3.9c-.86-1.31-1-3-2-4.2-1.1-.58-.82-2.11-1.56-3-.72-1-1-2.29-1.64-3.36s-.79-2.12-1.47-3.05a11.6,11.6,0,0,1-1.31-3.22c-1.63-2.93-2.59-6.22-4.6-9-1.19-1.37-1.31-3.31-2-4.94a28.43,28.43,0,0,1-1.52-3,11.11,11.11,0,0,1-.95-1.4c-1.32-.68-1.4-2.28-2.05-3.44-1.26-2.21-1.91-4.74-3.36-6.85-.77-1.13-.48-2.95-1.77-3.72-.82-1.52-1.52-3.09-2.26-4.64-.57-1.11-1.78-1.92-1.69-3.3-.22-1.21-1.08-2.16-1.49-3.28-1.49-1.77-1.72-4.15-3-6-1-1.65-1.73-3.45-2.76-5.09-1.73-2.56-1.93-5.87-3.85-8.33,0-.6,0-1.2,0-1.81,1.16-.81,2.69-.75,3.78-1.69m-200,275.92a4.15,4.15,0,0,1-1.23-.9c-.1-1.07-.63-2.1-.43-3.18.3-1.89.37-3.8.51-5.7s-.06-3.7.43-5.5-.27-3.88.81-5.57c-.33-2.31.11-4.59.18-6.89a20.2,20.2,0,0,0,.83-3.82c0-.81-.41-1.56-.4-2.35,1.13-4.5,1.08-9.2,2.17-13.71.14-2.39.5-4.74.75-7.12,0-2.42.27-4.86.18-7.27.94-2.85.71-5.89,1.08-8.83a9.82,9.82,0,0,1,.66-5.54c-.07-2.32.92-4.48.81-6.8a8.34,8.34,0,0,1,.76-3.51c.54-1.86-.22-3.77.07-5.64.45-4.23,1.07-8.43,1.64-12.63,0-3.08,1.05-6.05,1-9.12.27-1.45.41-2.92.81-4.33-.89-1.15.11-2.49.1-3.74.2-.83-.19-1.71.09-2.52a24.38,24.38,0,0,0,.87-4.14c1-3,.44-6.31,1.31-9.38.66-2.28-.21-4.75.61-7-.07-2.53.71-4.94,1.23-7.38a20.59,20.59,0,0,1,.48-6.86c.24-1.17.87-2.26.78-3.49.06-3.5,1.23-6.87,1-10.38,1.35-2.23,0-4.86.9-7.19.17-1.83,2-2.43,3.29-3.38a34.6,34.6,0,0,1,3.41-2c2.34-1.28,4.47-2.93,6.9-4.06a5,5,0,0,0,1-.66,41.31,41.31,0,0,0,7.55-3.64c1.56-.87,3.3-1.37,4.84-2.3a42.22,42.22,0,0,1,3.9-2.28,16.53,16.53,0,0,0,3.23-1.75,6.36,6.36,0,0,0,2.34-1.49l.61-.1.34-.35a11.73,11.73,0,0,0,4-2.42,6.63,6.63,0,0,1,3.43-1.33c1.6-.83,3-2.14,4.73-2.64A9.58,9.58,0,0,0,282,334l.6-.12.31-.41.64-.08.58-.58a7.79,7.79,0,0,0,3.16-2.33c1.74-.12,3.07-1.38,4.62-2s3.08-1.75,4.72-2.42a8.56,8.56,0,0,0,2.33-1.24,13.61,13.61,0,0,1,4.76-2.62c2.18-.8,4-2.31,6.25-3,2.59-1.4,5.07-3,7.55-4.58a8.83,8.83,0,0,1,2.62-1.44,9.92,9.92,0,0,1,3.81-1.65,15.54,15.54,0,0,1,3.11-1.67l.38-.29c1.62-.68,3.2-1.45,4.83-2.1a11.82,11.82,0,0,1,3.38-1.84c2.75-1.44,5.55-2.78,8.19-4.42a14.14,14.14,0,0,1,3.4-1.36,32.24,32.24,0,0,1,5.59-3c1.17-.39,1.93-1.41,3-2a20.77,20.77,0,0,1,2.42-.92,9.72,9.72,0,0,1,3.13-1.62c1.38-.43,2.3-1.76,3.77-2,4.74-2.32,9.15-5.23,13.95-7.44,2.05-1,3.95-2.31,6.05-3.23.67-.34,1.16-1,1.9-1.21l.37-.3c1.09-.18,2.09-.7,3.18-.89a4.17,4.17,0,0,1,1.49-.88c1.4-.49,2.5-1.59,3.92-2,1-.35,2-1.06,3.16-1a4.91,4.91,0,0,0,1.22,2.18c1.45,1.41,2,3.4,2.95,5.13.72,1.58,2,2.92,2.23,4.69a12.64,12.64,0,0,0,2.73,4.87c1.15,1.83,1.49,4.07,2.65,5.91,1.14,2.37,3,4.33,3.82,6.87a15.28,15.28,0,0,0,2.59,5l.91.29a19.31,19.31,0,0,0,1.1,3.88c1.09,3.27,3.25,6,4.63,9.18.26,1,1.27,1.7,1.26,2.8l.37.32c.33,2.57,2.08,4.52,3.33,6.66a44.53,44.53,0,0,0,3.71,7.24c.63.93.61,2.15,1.18,3.11a5.38,5.38,0,0,0,1.5,1.58c-.31,1.59.91,2.73,1.35,4.13a12.87,12.87,0,0,0,1.29,2.5c1,2.08,2,4.13,3.15,6.15,1.19,1.63,1.09,3.78,2.14,5.48a17.23,17.23,0,0,1,1,3c.48.84,1.27,1.47,1.72,2.34.39,1.51.39,3.21,1.48,4.45.76.95,1,2.23,1.9,3.1s1.14,2.37,1.63,3.59a8.88,8.88,0,0,0,1.65,2.64,27.19,27.19,0,0,0,1.66,3.33c.74,1.06.83,2.52,1.88,3.37a11.76,11.76,0,0,1,2.07,4.12c.39,1.13,1.5,2,1.16,3.34.3,1-.47,1.7-.92,2.43a66.11,66.11,0,0,1-3.91,5.61c-1,1.12-1.36,2.69-2.43,3.76-.25.38-.49.77-.76,1.14,0,.14-.13.41-.17.55a7.76,7.76,0,0,0-.86,1.76,15.4,15.4,0,0,1-1.38,1.93c-.5.68-.84,1.55-1.62,2-.77,1.43-1.31,2.95-2,4.39a48.89,48.89,0,0,0-3.91,6.06,16.65,16.65,0,0,1-2,3.46,38.24,38.24,0,0,0-2.63,4.27c-1.19,1.67-2.76,3.14-3.47,5.1-.15.45-.61.65-.91,1-.36.63-.51,1.35-.88,2l-1.4,1.45-.64.09c-.55,1.11-.67,2.39-1.3,3.45-2.15,1.94-2.91,4.84-4.48,7.19-1.38,2.05-2.5,4.26-4,6.25-2.05,2.42-3.2,5.43-5.16,7.92a16.33,16.33,0,0,1-1.94,3.3c0,.14-.09.44-.13.59a6.6,6.6,0,0,1-1.73,1.6c-.95,1.06-1.18,2.54-2.06,3.65a8.66,8.66,0,0,0-1.31,2.26c-.78,2.09-2.55,3.61-3.37,5.68-1.19,2.58-3.86,4.25-4.58,7.06a10.46,10.46,0,0,1-1.5,2.79c-.49.73-.73,1.6-1.21,2.35-.68.59-1.3,1.25-1.92,1.88-1.35,1-1.75,2.71-2.58,4.08a7.35,7.35,0,0,0-1.25,1.36,5.48,5.48,0,0,1-2.4,3.59,63.73,63.73,0,0,0-3.11,5.68c-.75,1.7-2.66,2.58-3.18,4.43-.79,1.25-1.25,2.67-2,3.92,0,.15-.11.44-.14.59-.21.18-.41.37-.62.57-.11.44-.23.88-.34,1.33a10.07,10.07,0,0,0-2,1.8c-.5.9-.74,1.91-1.22,2.83s-1.41,1.76-2.08,2.67c-.5.77-.92,1.59-1.43,2.36-.4,1.36-1.64,2.22-2.24,3.49-.51,1-1.26,1.92-1.8,2.94-.77,1.94-2.4,3.35-3.44,5.14a19.15,19.15,0,0,1-2.18,3,2.49,2.49,0,0,0-.52,1.42l-.59.57c0,.15-.1.45-.13.6-1,1.39-1.81,2.92-2.83,4.32a38.12,38.12,0,0,0-3.26,5.52,35,35,0,0,1-2.42,3.53c-.86,1.2-1.48,2.6-2.72,3.47a3.32,3.32,0,0,1-1.63,1.73,8.14,8.14,0,0,1-2.55-.4l-.46.26c-.35-.22-.69-.44-1-.67-.78-.15-1.55-.39-2.33-.51s-1.39.32-2.1.4a3.33,3.33,0,0,1-1.05-.6,18.41,18.41,0,0,0-4.9-.58c-1.24,0-2.28-.76-3.45-1a25.73,25.73,0,0,1-7.43-1.16c-1.67,0-3.09-1.38-4.79-.95-2.82-.87-6,0-8.71-1.25-1.84-.65-3.83-.53-5.72-.92-1.19-.07-2.26-.76-3.46-.69a15.11,15.11,0,0,0-5.66-1.16c-1.1-.31-2.25-1-3.4-.48a3.14,3.14,0,0,0-1.95-.31c-1.15-.21-2.32-.34-3.46-.62l-.32-.41c-1.16-.15-2.33-.24-3.49-.33-4.32-1.15-8.79-1.38-13.2-2a30.68,30.68,0,0,0-4.38-.36c-.84-.25-1.65-.6-2.46-.89L262,554a19.22,19.22,0,0,0-4.57-.93c-2.23-.44-4.41-1.13-6.67-1.39a22.08,22.08,0,0,0-7.31-1,18.79,18.79,0,0,0-4.51-1,26,26,0,0,0-6.11-1.26c-5.18-.93-10.41-1.51-15.52-2.78a24.66,24.66,0,0,1-5.7-1.22M462.91,769.47a4.89,4.89,0,0,0-.52.68c-.3,1.32-.73,2.58-1.1,3.89-.22.17-.43.36-.64.55-.51,3.83-2.67,7.14-3.69,10.83a6.11,6.11,0,0,1-1.88,2.68l-1.32,0c-2.61-1.12-5.07-2.54-7.56-3.88-1.75-2-4.54-2.23-6.76-3.46-1.51-.79-2.92-1.76-4.49-2.42-.92-.4-1.67-1.08-2.6-1.44a8.9,8.9,0,0,1-3-1.54c-2.08-1.83-4.79-2.66-7.16-4a6.18,6.18,0,0,0-1.92-.92c-1.56.07-2.19-1.5-3.47-2-1.44-.71-2.45-2-3.87-2.8a40.76,40.76,0,0,1-7.27-2.72,20.11,20.11,0,0,1-4.28-3.57c-.31-.48-.87-.59-1.35-.8a14,14,0,0,0-2.9-1.11c-2.15-.47-4.2-1.3-6.35-1.76-1.7-.08-3.67.11-4.93-1.3,0-1.12.19-2.22.27-3.32,0-.69-.57-1.15-1-1.6-.74-.25-1.41-.7-2.14-1-1.48-.26-3-.38-4.45-.54a3,3,0,0,1-1.3-.59,6.21,6.21,0,0,1-2.81-1.48c-1.23-1.35-3.19-1-4.79-1.4-.89-.28-1.91-.11-2.7-.63-1.42-1.28-2.75-2.65-4.19-3.9a8.25,8.25,0,0,0-3.21-1.32c-.93-.43-1.87-.83-2.8-1.23a24.86,24.86,0,0,0-3.26-2c-.66-.25-1-.93-1.48-1.37-2.78-1.4-5.31-3.29-8.24-4.38-1.81-.87-3.44-2.1-5.38-2.7-.1-.22-.21-.43-.32-.62a14.14,14.14,0,0,1-3.45-.84,30,30,0,0,0-3.73-2.7c-1.24-.85-2.79-1.21-3.81-2.38a50.82,50.82,0,0,0-6.22-3.75c-1.17-.43-2-1.47-3.25-1.76-1.9-.58-3.53-1.75-5.36-2.5-1.32-.55-2.47-1.41-3.8-1.92-2.61-1.34-5.14-2.84-7.78-4.11-1-.52-1.91-1.27-2.89-1.86-2.54-.88-5.19-1.86-7.1-3.84-1.56-.48-3.67-.81-4.53-2.4-1.53-1.14-3.61-1.24-5-2.61-.68-.79-1.81-.79-2.73-1.1-.67-.52-1.39-1-2.07-1.47-.79-.28-1.49-.77-2.27-1.07a14.68,14.68,0,0,1-3.91-2,13,13,0,0,1-3.81-1.91c-1.2-1-2.54-1.71-3.69-2.74s-2.76-1.31-3.71-2.47a11.63,11.63,0,0,1-2.35-1.22,21.6,21.6,0,0,1-6.32-2.25,5,5,0,0,1-2-2.36l.28-.45a6,6,0,0,1-.58-3.2c.15-.51-.46-.71-.77-1a20.37,20.37,0,0,1-1.49-4c-.31-1.62-1.09-3.08-1.55-4.64-.4-1.81-.47-3.7-1.29-5.38a32.87,32.87,0,0,1-1.75-5.64c-.68-2.06-1.56-4-2.19-6.13-.48-1.43-.33-3-1.1-4.38a31.64,31.64,0,0,1-2.81-8.37c-.78-1.84-1-3.86-2-5.62-1.14-2.21-1.24-4.76-2.29-7a57.35,57.35,0,0,1-1.71-8.07c-1.23-3-1.67-6.23-2.89-9.22-.29-.93-.06-2-.51-2.84a155.84,155.84,0,0,1-2.66-8.52,20,20,0,0,1-1.44-3.32,14.26,14.26,0,0,1-1.13-4.58,24.17,24.17,0,0,0-1.3-4.16c.26-2-1.27-3.5-1.26-5.41-.17-1.55-1.37-2.72-1.75-4.19-.44-2.5-.48-5.21-1.84-7.43-.59-2.44-1.29-4.87-1.73-7.35-.23-1-.62-2.11-.14-3.11.57-.23,1.09-.72,1.79-.4a31.71,31.71,0,0,0,4.76.47,13.48,13.48,0,0,1,2.42.42c1.26.3,2.64-.08,3.86.43,1.38.61,2.94.41,4.39.79a4.3,4.3,0,0,1,2.63.51c2.71-.1,5.24,1.09,7.94,1.12a112.9,112.9,0,0,0,13.27,2.66c1.13.06,2.27.87,3.41.44a35.6,35.6,0,0,1,4.88,1.24c2.78.34,5.53.91,8.31,1.24,1.43.3,2.92.23,4.32.66a17.59,17.59,0,0,0,3.53.74c2.21,0,4.28,1,6.5.89,2.53.41,5.14.48,7.53,1.49a10.69,10.69,0,0,1,2.31.31c1.4.44,3-.07,4.26.76a2.93,2.93,0,0,0,2.4.28,14.42,14.42,0,0,0,3.58,1.1,6.06,6.06,0,0,1,1.53-.09c3.08.88,6.3,1,9.41,1.77,1.4.59,3,.37,4.4.82,2.31.67,4.73.37,7,1a38.17,38.17,0,0,1,5.45,1.29l.35-.15c.64,0,1.31.15,2,.2l.31.38a26.68,26.68,0,0,1,3.41.67,5.89,5.89,0,0,0,2.52.54,16.55,16.55,0,0,1,5.9,1c2.73,1.33,4,4.24,6.24,6.12,1.07,1.61,2.67,2.72,3.88,4.21.5.54,1.3.77,1.63,1.47a7.2,7.2,0,0,0,1.74,1.83c.75.61,1.15,1.94,2.4,1.64a3.65,3.65,0,0,0,1.39,1.95c.88.57,1.08,1.73,1.86,2.41.83.85,2,1.33,2.69,2.31.92,1.29,1.83,2.6,2.81,3.85a27.77,27.77,0,0,1,5.35,5.37,29.37,29.37,0,0,1,3.36,3,39.57,39.57,0,0,1,4.19,3.9,21.64,21.64,0,0,0,1.44,2.14c1.93,2.49,5.22,3.8,6.56,6.78l1.5.84a22.15,22.15,0,0,0,2.1,2.91,19.21,19.21,0,0,1,2.77,2c.79.88,1.33,2,2.12,2.88.94,1.36,2.55,2,3.53,3.37,1.29,1.62,2.82,3,4.24,4.55a5.22,5.22,0,0,0,1.65,1.45,3.9,3.9,0,0,0,1,1.36,28.83,28.83,0,0,1,5.24,5.23c.82.75,1.66,1.53,2.53,2.23a66.88,66.88,0,0,0,5.39,6l.64.07a36.35,36.35,0,0,0,3.3,3.84c.58.56.76,1.42,1.34,2,.49.37,1,.73,1.52,1.09.83.5,1.19,1.49,2,2.08,2.29,1.74,4.16,3.93,6.3,5.84,1.36,1.33,2.37,3.09,4.11,4,.13.34.26.69.37,1a6.52,6.52,0,0,1,2.29,2.46c.38,1.09,1.61,1.38,2.33,2.19.91,1,1.64,2.29,3,2.77a8.78,8.78,0,0,1,1.8,1.27c.5,1.16,1.57,1.93,2.35,2.9.95.88,1.59,2,2.6,2.87a6.45,6.45,0,0,1,1.91,1.66c.26.21.52.42.77.65s.23.7.36,1.05a6.46,6.46,0,0,1,1.68,1.66,5.16,5.16,0,0,1,2.75,2c1.27,1.2,2.1,2.78,3.5,3.87.53.59,1,1.35,1.79,1.54,1.3.29,1.86,1.66,2.59,2.64,1.38,2.3,4,3.53,5.49,5.7.68,1.06,1.93,1.55,2.61,2.62a4.27,4.27,0,0,1,1.1,3.5c-.93,3-1.72,6-2.82,8.85-.39,1.16-1.58,2-1.4,3.36a3.26,3.26,0,0,1-.59,1.3,21.27,21.27,0,0,0-1.37,3.39c-.41,1-.37,2.17-.88,3.17-.32,1-1.55,1.47-1.74,2.54-.4,1.8-1.07,3.52-1.61,5.29-.2.83-1,1.17-1.6,1.72.1,2.25-.89,4.27-1.5,6.38-.93,1.44-1.69,3-2.73,4.38a25.13,25.13,0,0,1-3.15,10.41,13.93,13.93,0,0,0-.6,1.79M748.05,659.42c-1,.38-1.56,1.43-2.64,1.65-1.51.49-2.52,1.86-4,2.42-1.23.34-2,1.61-3.3,1.72a12,12,0,0,0-3.45,2.92,24.64,24.64,0,0,0-3.4,1.13,2.87,2.87,0,0,0-1.7.71,14.3,14.3,0,0,1-4.17,3c-1.78,1.06-3.56,2.12-5.3,3.23a11.2,11.2,0,0,0-2.69,1.62c-.21.51-.4,1-.58,1.55a3.55,3.55,0,0,0-2.45.17,19.08,19.08,0,0,0-5.87,3.65,8.58,8.58,0,0,1-3,1.34c-1.43.76-2.61,1.92-4.11,2.55a69,69,0,0,1-6.87,4.08c-1.23.77-2.33,1.83-3.79,2.15s-2.18,2.2-3.68,2.73a45.65,45.65,0,0,1-4.62,1.82c-1.39.73-2.5,1.9-4,2.44-1.67.89-3.21,2-4.8,3-2.53,1.2-4.76,3-7.34,4.08a15.09,15.09,0,0,0-3.67,2.06,43.67,43.67,0,0,0-5.65,3.86c-1.7.42-3,1.59-4.52,2.38a23.92,23.92,0,0,0-2.38,1.18c-1.19.36-1.91,1.43-2.84,2.17-3.38,1.25-6.41,3.26-9.6,4.91a5.54,5.54,0,0,0-1.82,1,6.36,6.36,0,0,0-1.7.92c-.43.9-1.49,1.13-2.34,1.48-1.46.46-2.59,1.57-4,2.2-2.16.81-4.15,2.06-6.4,2.65a29.66,29.66,0,0,1-5.2,1l-.32.36a6.11,6.11,0,0,0-2,.83c-1.11.77-2.57.55-3.72,1.25-1.71.54-3.26,1.48-5,1.91a4.89,4.89,0,0,0-2.08.79,11.07,11.07,0,0,1-3.65,1.34c-2.19,1.42-4.81,1.79-7.15,2.84a20.9,20.9,0,0,0-2.1.75,26.42,26.42,0,0,1-3.52,1.27,40.91,40.91,0,0,1-6.42,2.47c-2.07-.18-3.57,1.8-5.61,1.91a6.33,6.33,0,0,0-2.33.76,4.44,4.44,0,0,1-2.43.91c-1.69.25-3,1.63-4.71,1.7a15.3,15.3,0,0,1-6.07,1.77c-1.66-.07-2.49,1.76-4,2.22-1.11.54-2.42.22-3.53.77-2,1-4.16,2-6.43,1.84a5.12,5.12,0,0,1-3.35,1.7c-.1.08-.27.25-.36.33a59.33,59.33,0,0,0-7.27,2.25c-1.85.31-3.43,1.36-5.18,2-1.29,0-2.07,1.2-3.27,1.5-1.93.54-3.9.94-5.79,1.6a3.09,3.09,0,0,1-1.15.73c-1.91.41-3.59,1.6-5.55,1.85l-.32.37a37.48,37.48,0,0,0-4,.79,17.3,17.3,0,0,0-4.71,2.2,26.65,26.65,0,0,0-2.72.84c-1.2.41-2.62.26-3.65,1.1a19.09,19.09,0,0,0-4.31,1.65c-.72.32-1.55.27-2.27.6-1,.41-1.95,1-3,1.29-2.42,1-5.07,1.19-7.43,2.32-1.31.46-2.3,1.6-3.72,1.77-1.56.49-3.08,1.14-4.68,1.5-1,.21-1.81.86-2.81.83-1.34.28-3,.88-4.11-.12a15.19,15.19,0,0,1,.86-3.19,37,37,0,0,1,3.38-9.49c1-3.34,2.12-6.66,3.39-9.93.51-1.28.69-2.66,1.32-3.89.32-.91,1.08-1.58,1.3-2.53a18.84,18.84,0,0,1,1.18-2.63c.47-1,.43-2.18.85-3.2.9-2.14,1.37-4.46,2.56-6.48s1.36-4.41,2-6.62c.48-1.34,1-2.67,1.44-4,1.46-1.09,1.76-3.15,2.12-4.8l.34-.36a5.62,5.62,0,0,1,.22-.73c0-.77.09-1.35.08-2.06.23-.1.46-.19.7-.27,1.11-2.1,1.36-4.57,2.69-6.57a7.27,7.27,0,0,1,2.71-2.46,10.17,10.17,0,0,0,2.76-1.13c1.42-.79,3-1.29,4.46-2,2.31-1.17,5-1.15,7.32-2.41,3.73-1.37,7.69-2.16,11.24-4A21.61,21.61,0,0,1,522,706c1.19-.5,2.45-.84,3.69-1.24,1.1,0,1.88-.84,2.82-1.29,1.59-.38,3.29-.54,4.67-1.52a14,14,0,0,1,3.26-1.24,16.26,16.26,0,0,1,3.17-.67,14.66,14.66,0,0,0,4.5-1.9c1.44-1.26,3.51-.8,5.22-1.44a10.45,10.45,0,0,1,3.09-1.2,6.92,6.92,0,0,1,3.29-1.46c2.13-.07,3.85-1.44,5.66-2.41.73-.07,1.56.33,2.18-.22a29.7,29.7,0,0,0,5-2.13c2.08-.4,3.93-1.58,6-2.11,1.1-1.1,2.83-1,4.14-1.79,2.51-.69,4.94-1.63,7.46-2.32,2.07-1.39,4.67-1.61,6.94-2.57.86-.56,1.92-.71,2.82-1.21.43-.18.87-.37,1.31-.54.66.37,1.08-.28,1.51-.69.83-.28,1.64-.64,2.49-.86l.35-.33c3.9-.42,7.05-3.11,10.86-3.92l.3-.41a20.79,20.79,0,0,0,4.26-1.45,17.07,17.07,0,0,1,4-1.5c.19-.2.38-.39.58-.58a11,11,0,0,0,2.48-.39,20.43,20.43,0,0,1,5.7-2.4,18.45,18.45,0,0,0,3.67-1.55c3.38-1.42,7-2.36,10.27-4a34,34,0,0,0,8.55-2.86,55.59,55.59,0,0,0,10.31-4c2.09-1,4.4-1.47,6.42-2.61,2.52,0,4.44-1.93,6.83-2.46,1.44-.3,2.76-1,4.2-1.31l.34-.33c.58-.11,1.15-.26,1.73-.41,1.38-.14,2.37-1.2,3.66-1.58a24.35,24.35,0,0,0,6.19-2.58c2.14.19,4.08,1.23,6.22,1.41a13.61,13.61,0,0,1,2.26.82c.94.13,1.94.21,2.89.44,2,.5,4.14.47,6.18.95,1.59.25,3.15.78,4.77,1a4.28,4.28,0,0,0,1,.62,35.25,35.25,0,0,0,6.21,1.17c1.31.08,2.36,1.06,3.63,1.36a3.17,3.17,0,0,1,2.13.71c1.84.09,3.69.21,5.54.4.38.81,1.42.53,2.18.72,1.79.58,3.59,1.14,5.4,1.7,1.24.11,2.38.78,3.64.8,1.33.23,2.67.4,4,.61a14.46,14.46,0,0,1,2.51,1.61c.37,1.59-1.4,2-2.4,2.61"></path><path class="cls-1" d="M293.61,370.84a.73.73,0,0,1,.65-.29,6.38,6.38,0,0,1,2,1.68l-1.4.17a1.83,1.83,0,0,1-1.26-1.56"></path></g></svg>