<svg id="Shapes" xmlns="http://www.w3.org/2000/svg" viewBox="0 0 1000 1000"><defs></defs><g id="Shape_50" data-name="Shape 50"><path class="cls-1" d="M200.12,209.34c3-2.88,7.43-2.15,11.21-1.64,8,.64,16,0,24.06.58,1.36.07,2.73.1,4.11.07,11.14-.71,22.33-.21,33.49-.33,11.52.65,23.06-.68,34.56.33a141.61,141.61,0,0,0,19.65,0c9.09-.64,18.21-.22,27.32-.34,5.76-.35,11.33,1.55,17.1,1.31l0-1.31c4.58.1,9.21-.26,13.77.3a45.3,45.3,0,0,0,10.41,0c12.16-.71,24.35-.15,36.53-.35,4.05-.67,7.83,2,11.86,1,12.46-.82,25,.08,37.44-.55,13.14.06,26.34.76,39.46-.23,2,.16,3.91.5,5.88.66,23.4-.44,46.81-.1,70.22-.23,3.54.08,7.15-.18,10.7.31,6,.5,12.06.3,18.1.33q56.7,0,113.4,0a97.76,97.76,0,0,0,10.12-.33,18.56,18.56,0,0,1,4.83,0c11.07.61,22.2.45,33.29.17a24.32,24.32,0,0,1,6.8-1.06c.41.48.83.95,1.27,1.42.06,2.68-.32,5.36-.26,8a42.87,42.87,0,0,1,0,9.2c-.14,3.88-.73,7.85.06,11.7a28.05,28.05,0,0,1,0,4.85,183.89,183.89,0,0,0-.08,28.84c1,20.4-.33,40.87.68,61.27a156.65,156.65,0,0,1,0,19.38,66.93,66.93,0,0,1,0,10.69,41.08,41.08,0,0,0,0,9.14c.44,4.69-.08,9.46.57,14.13.56,4.88-.11,9.84.61,14.71.28,5.69.74,11.48,0,17.17a142.37,142.37,0,0,0-.15,18.59,13.23,13.23,0,0,1,.8,6.5c-1,19.61.26,39.28-.65,58.9-.41,6.81-.76,13.73.34,20.5l-1.36.1a27.85,27.85,0,0,0,.38,5.12c.36,3.66.07,7.38.63,11,.71,13.28.19,26.63,0,39.9.67,3.27-.71,6.48-.52,9.76.21,3.46.08,7,.55,10.42.88,12.46-.25,25,.62,37.43a18.43,18.43,0,0,1,0,5.45c-.67,9.09-.21,18.22-.33,27.33.1,16.68-.25,33.36.23,50-.16,6.7-.64,13.47.07,20.16.29,3.43,0,6.9,0,10.35.67,6.53,0,13.13.62,19.67.32,5.55.21,11.15,1.45,16.61-2.08,1.38-1.09,4.11-2.53,5.82a64.54,64.54,0,0,1-6.83-.33c-5.2-.45-10.42-.34-15.62-.3-.18.31-.54.92-.73,1.23a38.37,38.37,0,0,1-5.7-.32c-12.65-.89-25.38.25-38-.6-12.65-.52-25.37-.56-38-.05-10.39.88-20.81,0-31.2.05-5.92.17-11.94.81-17.82,0-2.67-.15-5.34-.55-8,0-12.16.7-24.35.15-36.52.32-11.32-.19-22.66.42-34-.34a133.51,133.51,0,0,0-17.89,0,43.93,43.93,0,0,1-9.17.12c-3.85-.81-7.75.69-11.58-.07-7.55-.49-15.15.23-22.67-.61-5.7-.3-11.49-.76-17.17,0-17.26.72-34.55.13-51.83.32-9.69-.21-19.43.42-29.09-.3l-8.66-.05a33.27,33.27,0,0,1-7.26.07c-4.89-.25-9.86-.83-14.71,0-2.66.09-5.35.55-8,0-9.09-.65-18.22-.2-27.33-.35-2.75.07-5.51-.18-8.22.32a205.71,205.71,0,0,1-25.2,0,25.51,25.51,0,0,0-4.19-.05c-3.87.23-7.84.8-11.68.05a46.05,46.05,0,0,0-9.82,0,129.67,129.67,0,0,1-19.61,0,116.27,116.27,0,0,0-17.9,0,34.15,34.15,0,0,1-4.74.08c-3.67-.28-7.42-.74-11.06-.07-7.62.52-15.26.38-22.89.21a28.22,28.22,0,0,0-2.53-1.85,153.22,153.22,0,0,0,.25-25.88,263,263,0,0,1,0-27.08,40.19,40.19,0,0,0,0-9.68c-.35-5-.28-10.06-.28-15.08.07-76.63-.09-153.26.08-229.89.46-2.74-.36-5.4-.47-8.14a66.47,66.47,0,0,0,.14-14.17c-.28-2.66-.2-5.33-.66-7.95-.21-3.48-.61-7,0-10.47a18.32,18.32,0,0,0,0-4.85,31.34,31.34,0,0,1-.06-7.37c.23-3.86.75-7.8,0-11.64-.23-5.9-.83-11.9,0-17.78.13-2.86.64-5.78,0-8.6a17.67,17.67,0,0,1,0-5.48c.5-4-.11-8.07.76-12a95.55,95.55,0,0,1-.79-9.55A42.25,42.25,0,0,0,201,353.6a58,58,0,0,1,0-12.22c.12-3.68.66-7.44-.05-11.08a17,17,0,0,1,0-5.47,120.17,120.17,0,0,0,.06-17.9,28.81,28.81,0,0,1-.06-7.87c.16-2.85.64-5.75,0-8.57-.91-20.63.27-41.31-.61-61.93-.5-6.4-.35-12.81-.23-19.22m19.87,2c-3.4.29-6.82.37-10.18.92.05.78.11,1.55.17,2.33,1.59,1.69,3,3.51,4.46,5.33a18.44,18.44,0,0,1,2.5,2.42,21,21,0,0,1,2.44,2.46,12.57,12.57,0,0,1,3,3.19l3.16,2.29c4.28,5.88,11.22,9.32,15.28,15.39,4.15,4.85,9.43,8.56,13.39,13.59,5.35,5.48,10.63,11,16.11,16.38,5.73,4.43,10.45,10,15.8,14.83a27.27,27.27,0,0,0,6.26,6c7.09,7.39,15.06,14,21.3,22.18,4.56,1.25,6.9,5.88,10,9,3.05,2.86,6.52,5.32,9,8.71,1.95,3.31,5.32,5.55,8.6,7.4a71.93,71.93,0,0,0,9.23,9.72c3,3.13,5.69,6.58,9.17,9.24,8.29,8.67,18.07,15.83,26,24.89,2.57,2.13,4.39,5,7,7.05,2,1.38,2.87,3.71,4.21,5.64,3,1.89,6.6,1.43,10,1.67a64.38,64.38,0,0,0,12.26,0c5.86-.82,11.85-.24,17.75,0,9.39.77,18.84-.23,28.24.64,3.66.86,6.95-1.74,10.63-1,6,0,12.1-.1,18.14.33,3.25.34,6.54.37,9.82.69a40,40,0,0,0,7.34-.06c4.74-.74,9.59-.14,14.38-.32,21.37-.17,42.75.38,64.11-.29a39.44,39.44,0,0,1,5-.55,30.53,30.53,0,0,1,3.18-2.33l.16-1.64c5.2-3.51,8.6-9,13.72-12.63a16.23,16.23,0,0,1,3-3.13c1.84-2.25,4.28-3.9,6.22-6.05a71.87,71.87,0,0,1,5.52-5.52c.3-.5.62-1,.94-1.5l1.67-.16c3.36-5.16,8.93-8.22,12.75-13,2.67-3.45,6.21-6.05,9.06-9.33,3.89-3.46,8.23-6.52,11.12-10.95,4.07-2.87,6.83-7.07,10.78-10.06,3.16-2.56,5.33-6.24,8.93-8.26l.24-1.56c4.88-2.53,8.14-7,11.73-11,6.93-6.34,13.62-12.93,20.26-19.59,6-5,10.78-11.27,16.65-16.43a9.72,9.72,0,0,1,2.57-2.34c3.59-2.3,5.64-6.22,8.78-9,2.9-3,6.43-5.5,8.72-9.08l1.62-.19c7.6-9.31,17.28-16.67,24.85-26,2.16-2.18,4.49-4.18,6.49-6.53-.09-1,.27-2.22-.78-2.8-2.48-.3-5-.2-7.49-.44a70.36,70.36,0,0,0-12.9,0c-3.85.73-7.83.2-11.68-.06a30.8,30.8,0,0,0-4.19,0c-8.67.75-17.39.11-26.07.31-15.24-.19-30.49.43-45.7-.33a41.87,41.87,0,0,0-6.72,0c-7.73.76-15.56.32-23.3,0-7.44-.59-14.91-.2-22.35-.3-9.11.12-18.23-.32-27.32.32a213,213,0,0,1-26.38-.05,18.22,18.22,0,0,0-4.84,0c-6.88.77-13.9.34-20.79,0a116.13,116.13,0,0,0-17.89.08,18.88,18.88,0,0,1-4.87-.05,17.35,17.35,0,0,0-4.88,0c-4.86.86-9.86.23-14.74,0-3.64-.67-7.39-.19-11,0-3.84.73-7.81.18-11.67,0a17.18,17.18,0,0,0-5.45,0,91.71,91.71,0,0,1-16.57,0,97.54,97.54,0,0,0-16.57,0c-5.88.8-11.88.24-17.77,0-5.68-.73-11.48-.27-17.16,0-3.64.66-7.38.19-11,0-11.62-.86-23.31.28-34.93-.61a91.24,91.24,0,0,0-15.94,0,68.43,68.43,0,0,1-13.5,0c-2.92-.56-5.91-.23-8.84-.33-10.13.19-20.27-.33-30.37.36a266.41,266.41,0,0,1-28.82-.05,39.68,39.68,0,0,0-6.72,0,27.88,27.88,0,0,1-7.9,0c-8.79-.12-17.6-.3-26.38,0m-15,5.1c-.86,1.75-1.92,3.53-1.28,5.64.23,25.44-.42,50.91.34,76.34a129.93,129.93,0,0,1,0,19.63c-.7,7.72-.33,15.55,0,23.29.77,6,.18,12.09-.08,18.11a103.83,103.83,0,0,1,0,18.66A198.64,198.64,0,0,0,204.1,404a160.66,160.66,0,0,0-.07,22.59,94.51,94.51,0,0,1,0,16c-.73,4-.24,8.13,0,12.16.52,7-.06,14,.64,21-.67,10.65-.29,21.39-.39,32.08-.09,9.1.91,18.21.32,27.3-.73,8.74-.31,17.6,0,26.37.26,2.22.5,4.46.72,6.7a55.77,55.77,0,0,1-.08,9.84c-.71,3.63.13,7.36.08,11l-.91,1.09c.07.95.19,2.83.26,3.77a274,274,0,0,1,0,28.23,90.39,90.39,0,0,0,0,15.95,124.09,124.09,0,0,1-.07,19.66c.57,8.76.08,17.55.67,26.32.68,3.92.16,7.93.31,11.91.14,17.29-.35,34.58.26,51.86a43.63,43.63,0,0,1,0,9.14,67.33,67.33,0,0,0,0,14.05c.81,3-.81,6.92,1.09,9.54,3.31.73,5.11-2.42,7.07-4.4,0-.42.12-1.26.16-1.68,1.92-1.15,3.86-2.29,5.83-3.35A66.31,66.31,0,0,1,230.38,760c1.56-4.23,6.43-5.39,8.9-8.89,2.62-3.12,6-5.51,9.11-8.06,0-.43.11-1.27.15-1.69,6.68-5.54,12.94-11.57,19.21-17.56a26.45,26.45,0,0,1,4.36-4.23c5.85-5.19,11-11.1,16.38-16.71l3.22-2.29c3.19-4.33,7.67-7.47,11.3-11.38,1.91-2.4,4.73-3.95,6.28-6.63l1.48-.3c2.86-4.73,7.51-8.07,11.15-12.17,2.9-3.44,6.8-5.87,9.59-9.41,4.69-3.86,8.51-8.68,13.17-12.58,2-1.66,3.4-3.94,5.42-5.61,6.4-5.66,12.1-12,18.22-18,.64-.58,1.25-1.2,1.83-1.84,5.09-4.28,9.21-9.62,14.49-13.72,4.39-3.58,7.28-8.68,11.94-12,.7-2.15,2.14-4.15,2.07-6.48-.23-13.22.43-26.47-.41-39.66-.22-2.53.7-5,.39-7.54-.2-23.41.41-46.85-.32-70.24-.61-3.73-.19-7.55-.31-11.3.15-14.39-.26-28.78.26-43.16,0-3.5-.26-7-.49-10.5-2-7-8.73-11-13.47-16-3.29-4.45-7.72-7.84-11.83-11.48-.11-.34-.33-1-.43-1.36a38.6,38.6,0,0,1-4.63-4.59c-4.47-5.55-10.68-9.35-15.05-15a91.66,91.66,0,0,1-13.15-13.2c-4-2.26-6.51-6.15-9.91-9.1-3-3.78-7-6.5-10-10.27l-1.48-.32c-4.84-5.75-10.33-10.92-15.44-16.44-5.08-4.1-8.92-9.52-14.1-13.48-6.07-7.21-13.72-12.86-19.58-20.27-5-5-10.56-9.44-15.66-14.36-4.19-5.4-9.93-9.28-14.39-14.41-2.63-2.08-4.49-4.93-7-7.12-5.37-4.85-10-10.45-15.44-15.21a90.91,90.91,0,0,0-7.15-7.54,6.23,6.23,0,0,0-4.1-1.52m581.8,1.5a56.43,56.43,0,0,0-5.6,5.44,82.76,82.76,0,0,0-6.49,5.77c-3.66,4.49-8.39,8-12.28,12.24-1.75,2-4.26,3.08-5.89,5.15-2.65,3.06-5.08,6.35-8.26,8.9-4.41,3.76-8,8.56-13,11.5-.05.4-.14,1.22-.19,1.62-5.75,5.49-11.86,10.62-17.21,16.51-3.89,3.67-7.33,8-11.94,10.77l-.28,1.5c-2.58,1.44-4.38,3.84-6.21,6.08-3.69,4.29-8.83,7.12-12.11,11.79-1.06,2.19-3.56,2.62-5.42,3.79-.07.39-.19,1.15-.25,1.53-2.22,1.21-3.52,3.49-5.21,5.26-3.16,3.38-6.66,6.45-9.51,10.12l-1.52.3c-2.56,2.55-4.82,5.41-7.6,7.73-3.86,3.09-6.76,7.13-10.16,10.67a48.9,48.9,0,0,0-9.44,9.57l-1.49.31c-1.48,2.56-4.26,4-5.82,6.48a12.31,12.31,0,0,1-4.54,4c-2.52,3.38-6.19,5.66-8.82,9-2.16,2.74-5.2,4.61-7.37,7.34-2.55,3.21-6,5.49-9,8.16-.63,1.22-1.23,2.46-1.77,3.72-2.4,2.23-2,6-2.14,8.9.09,8.1-.3,16.22.38,24.3-.35,7,.86,13.87-.07,20.81-.72,10-.34,20.06,0,30.05.49,2.28-.12,4.6-.08,6.91a165.06,165.06,0,0,1,0,23.43,39.55,39.55,0,0,1,.07,9.48,269.84,269.84,0,0,0,0,29.42c.64,4.66.09,9.4.62,14.08a75.33,75.33,0,0,1,0,12.92,66.83,66.83,0,0,0-.25,9.28c3.12,4.21,7.28,7.47,10.64,11.48,4.1,4.28,8.69,8.07,12.89,12.24a92.29,92.29,0,0,0,7.5,6.61l.33,1.45c2.21,1.22,3.43,3.56,5,5.47,5.07,4.29,9.73,9.07,14.42,13.77,4.36,3.38,7.93,7.59,12,11.25,2.13,3.2,5.29,5.32,8.19,7.73,5,6.42,11.47,11.42,16.92,17.41.86,1.2,2.2,1.89,3.29,2.86,4.18,5,9.53,8.83,13.87,13.7,3.52,5.08,9.44,7.68,13.13,12.62,3.53,4.41,8,7.91,11.9,12,2.35,2.12,5.48,3.66,6.77,6.73,9.34,8.2,17.47,17.72,26.91,25.81,2.53,2.55,4.43,5.88,7.66,7.67,4,2.91,6.93,6.95,10.57,10.26s7,7.36,11.16,10.35c.94.24,2.2.45,2.74-.61.32-3.54,0-7.11.43-10.63,1.08-3.85-1.71-7.39-1-11.25.26-15.26-.44-30.54.39-45.77a34.44,34.44,0,0,0-.05-4.19c-.83-12.56.2-25.16-.74-37.72a275.15,275.15,0,0,0,.1-31.59,44.46,44.46,0,0,1,0-10.44c.71-7.73.3-15.56,0-23.29-.94-7.92.25-16-.64-23.9a30.83,30.83,0,0,1,.06-7.25c.51-7,0-14,.59-20.93a129.25,129.25,0,0,0-.06-19.48c.72-11.46.46-23,0-34.49-.54-2.61-.14-5.33,0-7.95.64-3.73.16-7.56.33-11.31-.23-13.18.38-26.39-.35-39.56a43.07,43.07,0,0,1,.06-10.46c-.75-8.24.25-16.5-.33-24.73-.22-36.7.35-73.42-.28-110.11-.6-6.1-.15-12.25-.67-18.35-.51-10.4-.48-20.86,0-31.26a66.68,66.68,0,0,0,0-12.87c-.51-5.32-.14-10.68-.38-16-1-1.73-3.15,0-4.66-.07M401.69,407.21c-.14,9.11.37,18.24-.36,27.35a27.06,27.06,0,0,0,.05,4.22,17,17,0,0,1-.05,6.07c0,2.17.05,6.53.06,8.71-.2,4.68.34,9.36,0,14.05-.78,3.86-.22,7.84,0,11.73.14,3-.49,6.05-.07,9.09a256.92,256.92,0,0,1,0,28.84,29.22,29.22,0,0,0,.06,7.87c.8,15.14-.29,30.32.6,45.45.63,6.62.16,13.3.27,19.95,8.18,3.73,17.44.73,26,2.1,18.68-.56,37.4-.24,56.1-.32,7.07.07,14.16-.27,21.22.37,3.44-.06,6.88-.06,10.32-.05,19.61-.94,39.28.3,58.9-.64a46,46,0,0,1,9.81,0c3.22.4,6.91.9,9.46-1.54.14-9.11-.33-18.24.34-27.33a18.43,18.43,0,0,0,0-5.45c-.63-7.45-.21-14.93-.31-22.38.1-8.1-.33-16.21.36-24.29a32.53,32.53,0,0,0,0-4.19c-.74-6.52,0-13.13-.63-19.66a66.09,66.09,0,0,1,0-12.89c.81-5.87.24-11.87,0-17.77a166.33,166.33,0,0,1,.07-23.2,168,168,0,0,0,0-20.93,36.42,36.42,0,0,1-.38-4.53c-1.11-.76-2.19-1.85-3.62-1.86-6.45-.1-12.91-.16-19.34.31a18.37,18.37,0,0,1-6-.05c-9-.65-18.06.13-27.06-.59-13.47-.5-27-.51-40.46,0a170,170,0,0,1-22.68,0,58.85,58.85,0,0,0-7.62-.3c-19.4.08-38.81-.08-58.21.06-2.47-.32-4.58,1-6.78,1.79m26.65,187.88c-6.53.68-13.13,0-19.67.54-2,.45-4.14.41-6,1.34-5.09,2.15-8.06,7.06-12.26,10.41-3.95,3-6.87,7-10.48,10.36-2.68,2.22-5.16,4.65-7.73,7-2.16,2.73-4.11,5.67-6.95,7.76a18.22,18.22,0,0,1-2.08,2.22c-4.27,3.69-7.84,8.15-12.4,11.51-2.66,3.26-6.05,5.81-8.7,9.08-2.42,2.28-5,4.48-6.69,7.41l-1.44.37a22.21,22.21,0,0,1-2.41,1.91c-1.46,2-3.48,3.46-5.24,5.17-2.67,3.05-5.43,6-8.13,9a155.27,155.27,0,0,0-13,12.09c-1.91,1.56-3.31,3.65-5.29,5.14-3.82,3.1-6.51,7.48-10.6,10.23a32.45,32.45,0,0,1-5.93,5.72c-3.46,2.88-5.86,6.78-9.27,9.72-4.33,3.41-7.92,7.61-12,11.25a56.84,56.84,0,0,0-6.21,7.28l-1.76.08c-.76,1.08-1.47,2.2-2.15,3.36a10.76,10.76,0,0,0-3.51,3.86l-1.62.18c-7.65,8.65-16.14,16.57-24.29,24.77a127.93,127.93,0,0,1-11.93,11.35c0,.81-.05,1.62-.06,2.44,1.71.85,3.46,1.77,5.52,1.22q35.25,0,70.5,0c6,0,12.08.17,18.11-.33a43.62,43.62,0,0,1,10.34.05c12.07.42,24.18.5,36.25,0,4.65-.73,9.41-.24,14.09,0a48.2,48.2,0,0,0,9.83,0,15.52,15.52,0,0,1,5.48,0,212.7,212.7,0,0,0,31.93-.06c4.56.11,9.11.55,13.67.24,4.92-.64,9.82.39,14.75.14,13.18-.2,26.38.36,39.54-.34,22.66.94,45.41-.29,68.08.64,3.64.66,7.36.17,11,0,3.73-.63,7.53-.2,11.31-.31,12.16.19,24.35-.36,36.51.32,4,.72,8.16.25,12.21-.09s7.86,1.5,11.89,1c3.46,0,6.66-2.07,10.18-.9a215.45,215.45,0,0,0,25.79,0c3.64-.55,7.34-.25,11-.63,3.64-.63,7.36-.19,11,0,7.9.94,15.94-.27,23.88.63a132.74,132.74,0,0,0,19.64,0c2.91-.55,5.86-.25,8.83-.32,8.08.12,16.18-.26,24.26.34,6.77.75,13.63.11,20.44.25l.71-1.13,1.81-.08c0-.43-.08-1.27-.11-1.7-2.94-2.8-6.11-5.49-8.15-9a42.37,42.37,0,0,1-7.35-6.74c-2.2-2.72-5.21-4.6-7.41-7.3-4.72-3.66-8-8.8-12.48-12.66-5.94-5.29-11.33-11.15-17.28-16.42-4.35-5.64-10.51-9.5-15-15-3.21-4-7.59-6.74-11-10.47a52.26,52.26,0,0,1-5.89-5.73c-1.38-1.34-1.9-3.37-3.57-4.42a70.86,70.86,0,0,1-11.94-11.34c-4-5.54-9.93-9.27-14.71-14.1-2.91-2.4-4.91-5.72-7.93-8a63,63,0,0,1-9.16-9.24c-2.42-2.9-5.71-4.92-8.06-7.88-4.3-3.65-8.7-7.24-12.24-11.66a68,68,0,0,1-9.2-8.58,60.1,60.1,0,0,1-7.06-7c-2.8-3.55-6.7-6-9.66-9.35-3.32-3.65-7.5-6.39-10.6-10.24a13.27,13.27,0,0,0-6.26-4.27c-7-.12-14-.23-21,.27-14.57.66-29.17.15-43.74.26l-.75-1.19-8.85.32c-4.75.68-9.6.13-14.37.3-14.21-.2-28.43.39-42.62-.33-8.38-.7-16.8.08-25.18-.56a41.08,41.08,0,0,0-9.14,0m365.1,188.52c0,1.94-1.87,5,1,5.61-.25-2.81,1.66-4.9,2.11-7.5a20.08,20.08,0,0,0-3.07,1.89"></path></g></svg>