<svg id="Shapes" xmlns="http://www.w3.org/2000/svg" viewBox="0 0 1000 1000"><defs></defs><g id="Shape_37" data-name="Shape 37"><path class="cls-1" d="M311.44,621.5a70.28,70.28,0,0,1,0-11c0-2.57-.48-5.18.07-7.73.77-3.17.43-6.47,1-9.68.37-5.6,1.65-11.09,2.12-16.69.29-7.6-.31-15.24.24-22.82q.24-4.08.43-8.18a38.87,38.87,0,0,0,0-8.49c-.19-1.84-.13-3.72-.46-5.55-.23-2.91-.22-5.84-.24-8.77l-.82-.5a49,49,0,0,1,.19-5.28c.42-4.41,0-8.86.45-13.28a23.08,23.08,0,0,0-.45-7.22c-.27-3.71-.09-7.43-.38-11.15-.2-2.27-.22-4.55-.46-6.83a45,45,0,0,1,0-8.53c.16-1.84.12-3.73.41-5.57.19-2.27.21-4.57.42-6.86.18-3.21.79-6.44.35-9.66-.27-2.78.25-5.69-.65-8.39-.94-3.06.28-6.2-.08-9.27-.26-3.74-.59-7.59.26-11.28.71-3.33,0-6.77.56-10.12a49.19,49.19,0,0,0,0-9c.08-5.71-1.85-11.37-1.32-17.06.26-5.86.08-11.76,1.32-17.52.17-2.46.14-4.94.29-7.41a6,6,0,0,0,1-1.6c.06-7.06,2.55-13.76,3.66-20.68.18-.14.51-.43.68-.57,1.47-5.21,2.74-10.47,4.62-15.54a54.08,54.08,0,0,0,2.47-6.84,7.84,7.84,0,0,1,1.31-2.14c.92-2.7,2.83-5,3.36-7.81l.63-.6c.08-.48.17-1,.25-1.45,1.29-1.05,1.59-2.78,2.19-4.24,1.5-1.61,1.7-4.1,3.45-5.53l.28-1,.59-.64a2.59,2.59,0,0,1,1.28-1.79c.77-2.18,2.51-3.78,3.56-5.81.84-1.16,1.19-2.73,2.42-3.59A16.69,16.69,0,0,1,349,274.3a4,4,0,0,1,1.39-1.65c.07-.25.2-.74.28-1,2.91-3,5-6.62,8.2-9.33,1.58-2.48,3.88-4.38,5.82-6.58,5.3-5.1,10.61-10.2,16.37-14.8,1-.14,1.57-1,2.1-1.8l1-.28a13.09,13.09,0,0,1,3.37-2.63,6.51,6.51,0,0,1,2.62-1.64c.94-1.55,2.81-2,4.21-3.09,3.9-2.88,8.19-5.18,12.25-7.82,1.25-.84,2.93-.92,4-2l1.38-.31a8.06,8.06,0,0,1,4.29-2.13c.18-.38.36-.75.56-1.13.54,0,1.1,0,1.65-.06l.53-.76,1.08-.21a7.54,7.54,0,0,1,3.29-1.46c3.95-1.77,8.05-3.22,12-5.06,2.64-1,5.49-1.21,8.17-2.07,1.23-1.23,3.17-1.22,4.73-1.72,1.49-.29,2.88-.92,4.37-1.21.14-.17.44-.5.58-.68,2.74-.53,5.69-.32,8.26-1.53a12.27,12.27,0,0,0,5.6-1.22c.7-.89,1.74-1.6,3-.94a46.92,46.92,0,0,0,11.46-.87c9.55-.16,19.13-.7,28.66,0,6,.42,12.09.64,17.94,2.18,4.51.23,8.86,1.52,13.21,2.6a35,35,0,0,1,10.9,2.79c2.67.32,5,1.71,7.62,2.29,1.3,1,3,1,4.5,1.45,3.87,1.43,7.64,3.15,11.36,4.92l.68.52a17.1,17.1,0,0,1,7.29,3.83,22.67,22.67,0,0,1,7.28,3.4,11.66,11.66,0,0,1,5.2,2.94c3.65,1.44,6.25,4.63,10,5.8,0,.32,0,1,0,1.27l1.6.12c6.74,5.37,13.47,10.73,20.07,16.27,5.11,5.84,10.94,11,15.7,17.22,2.55,2.62,4.49,5.74,6.89,8.49a51.8,51.8,0,0,0,5.07,6.87c2.35,4,5.27,7.68,7.53,11.75a120.47,120.47,0,0,1,9.78,19.29c2.18,4.29,3.66,8.9,5.42,13.37,2.52,6.51,3.09,13.57,5.56,20.09q1.49,8.54,2.52,17.12a64.11,64.11,0,0,0,1.39,11c.21,8.08.13,16.17.06,24.24a47.41,47.41,0,0,0-1.23,12.4l.83.49c.06,4.33-.15,8.66.26,13a99.28,99.28,0,0,1,0,13.69c-.31,3.46-.14,6.93-.36,10.37a15.2,15.2,0,0,0-.12,9.36c.61,3.95-.11,8,.46,11.91a133.35,133.35,0,0,1,0,17.08c.06,5-1,10.06,0,15,.71,3.07.59,6.24.88,9.34.26,7.68.45,15.42,0,23.08-.27,3.3-.42,6.6-.86,9.88-.8,3.69.9,7.25,1,10.91.06,8.67.1,17.35,0,26a45.43,45.43,0,0,0-1,7c-.25,4.2-.26,8.41-.15,12.62.21,2.05,1.27,3.94,1.21,6a103.93,103.93,0,0,1-.16,11.71c-.37,3.84-.06,7.71-.4,11.54-.23,2.3,0,4.68-.84,6.87-1.11,5.49-1.49,11.12-2.68,16.61-.93,3.32-1.64,6.71-2.86,9.94-.83,1.49-.63,3.18-.78,4.8l-.7.58c-.44,1.6-.82,3.22-1.18,4.83a30,30,0,0,0-2.09,5.13c-1.76,6.94-6.36,12.75-8.17,19.67a9.74,9.74,0,0,0-1.33,2.09,4.42,4.42,0,0,0-1.13,2.71c-.45.54-.89,1.09-1.35,1.6a23.49,23.49,0,0,1-2.54,4.3,4.09,4.09,0,0,1-1.84,2.5c-.06.5-.13,1-.18,1.49l-1,.66c-.28.45-.58.89-.85,1.34-.11.2-.32.63-.43.84-2.12,2.22-2.94,5.46-5.54,7.27a9.18,9.18,0,0,1-1.26,2.16c-2.11,2.48-3.78,5.31-6,7.69a10.22,10.22,0,0,1-3.52,3.78c-.24.48-.46,1-.67,1.45l-1.1.17a14.55,14.55,0,0,1-2.42,2.72c-1.45,2.23-3.85,3.56-5.65,5.47a147.56,147.56,0,0,1-11.22,10.15c-1.86,1.59-4.2,2.6-5.82,4.45-2.37,2.36-6,2.89-8.07,5.6-1.25.93-2.73,1.47-3.9,2.5-.88.38-1.74.8-2.59,1.24-1.77,2.54-5.2,3.17-7.72,4.73-4.51,3-9.74,4.66-14.45,7.29-1.2.48-2.28,1.2-3.41,1.77a40.84,40.84,0,0,0-4.76,1.18c-1.61,1.53-4.11,1.5-6,2.57-7.06,2.76-14.54,4.18-21.9,5.92-4.95,1.54-10.2,1.54-15.24,2.67-4.86-.15-9.48,1.59-14.32,1.52-7.19-.09-14.4.22-21.57-.22a69.58,69.58,0,0,1-8.54-.86,55.33,55.33,0,0,1-10.44-1.13c-4.08-.3-7.87-2.1-12-2.15l-.56-.69c-4.79-1.08-9.58-2.15-14.38-3.17l-.62-.64c-4.39-.64-8.35-2.85-12.57-4.13-1.78-.59-3.31-1.79-5.17-2.14-.16-.14-.48-.42-.65-.55-2.45-.7-4.68-2-7.09-2.79-6.12-2.76-11.71-6.54-17.58-9.76-3.14-2-6.59-3.53-9.34-6-1.5-1.44-3.71-1.9-5-3.55-5.48-3.48-10.19-8-15-12.35C368.39,746.1,364,743,361,738.63c-1.84-1.87-3.34-4-5.22-5.88-4.22-4.29-7.23-9.56-11.09-14.14-.08-.23-.25-.71-.34-.94-.84-1.07-1.29-2.38-2.1-3.48a64.7,64.7,0,0,1-6.5-9.29c-1.6-3.36-3.79-6.45-5-10l-.55-.65c-.15-2-1.78-3.36-2.07-5.29a59.17,59.17,0,0,1-3.85-8.46c-.93-3.51-3.05-6.6-3.4-10.31-1.36-2.86-1.87-6.08-2.85-9.1-.62-3.5-2.24-6.79-2.47-10.38-.2-2-.64-3.91-1-5.87l-.64-.6a42,42,0,0,1-1-9.28c-.18-.13-.55-.38-.73-.52a28,28,0,0,0-.29-4c-.24-3-.16-6-.43-9M314.3,628c.62,4.69.05,9.55,1.69,14.1a148,148,0,0,0,3.08,15.33c1.31,1.86,1,4.4,1.65,6.5l.67.58a11.16,11.16,0,0,0,.89,3.84c1.14,2.56,1.65,5.33,2.79,7.89,1.14,3,2.89,5.83,3.37,9.06.36.34.73.68,1.1,1,0,.53.08,1.06.13,1.6l.66.58c.3.92.43,2,1.24,2.66.11.46.23.91.34,1.36a85.53,85.53,0,0,1,3.94,7.61,5.66,5.66,0,0,1,1.19,2.26l.62.61c0,.28.1.87.13,1.16l1.15,1c.05.27.14.82.19,1.09a28.38,28.38,0,0,1,3.29,4.83,67.42,67.42,0,0,0,7.06,10,128.16,128.16,0,0,0,13.29,16.21,29.45,29.45,0,0,0,4.31,4.68c5.6,5.25,11.16,10.52,17.15,15.34,2.64,2.38,6.22,3.64,8.44,6.51a13.93,13.93,0,0,1,1.73.86c6.5,4.87,13.9,8.33,20.85,12.46l1.07.25.62.63c2.06.71,4,1.71,6.07,2.5a6.24,6.24,0,0,0,2.69,1.19l.58.67,1.62.09c.12.2.37.59.5.78l1.64.08.5.77,1.19.1.56.68a11,11,0,0,1,4.4,1.6c6.54,2.5,13.37,4.09,20.09,6a17.48,17.48,0,0,0,5.29.74l.56.67c3.09.31,6,1.48,9.14,1.58,2.33.23,4.66.51,7,.71,6.2.92,12.52-.29,18.68.93,5,.63,10,0,14.95.51,4.73.81,9.33-.92,13.88-1.89,4.6-.81,9.26-1,13.83-2,3.06-.47,5.93-1.75,9-2.13,2.63-.59,5.24-1.25,7.84-2l.58-.68c1.36-.17,2.74-.32,4.09-.6.48-.38.84-1,1.49-1.12,3-.29,5.65-1.65,8.41-2.69a26.26,26.26,0,0,0,4.12-1.84,16.58,16.58,0,0,0,3.66-1.47c1.58-.87,3.57-1.08,4.89-2.4,1.19-.36,2.33-.84,3.52-1.2l1-1.07,1.06-.24c2.33-1.81,5.4-2.41,7.61-4.35l3-1.69a33.33,33.33,0,0,1,3.85-2.55,2.85,2.85,0,0,1,1.77-1.28,45.65,45.65,0,0,0,4.65-3.43,90.63,90.63,0,0,0,10.7-8.54,38.77,38.77,0,0,0,5.78-4.91c2.35-2.66,5.83-4.25,7.42-7.56.59-.39,1.17-.81,1.75-1.22,2.95-3.47,6.3-6.62,8.84-10.41,1.27-1.85,3.07-3.25,4.24-5.17,1.38-2.28,2.95-4.44,4.42-6.68,1.72-1.21,2.61-3.28,3.42-5.18a39.22,39.22,0,0,0,5.17-8.06c.94-1.59,2.23-2.93,3.13-4.55a70.11,70.11,0,0,1,3.17-7.08c3.11-6.55,6.32-13.17,8-20.27a116.14,116.14,0,0,0,4.8-16.56,118.74,118.74,0,0,0,3.55-29c.56-4.16,0-8.41.19-12.6l-1.58.09a15.36,15.36,0,0,1-1.62,4c-.92,3.65-1.5,7.44-3.33,10.78a36.62,36.62,0,0,1-3.08,8.46c-1.59,3.21-2.49,6.73-4.29,9.85-1.91,2.66-2.5,6-4.64,8.57-1.76,4.52-4.66,8.46-7.06,12.63a91.71,91.71,0,0,1-5.32,7.51,60,60,0,0,1-6.23,8.3,102,102,0,0,1-14.85,15.94,121.82,121.82,0,0,1-12.73,11.21c-1.52,2.1-3.88,3.3-6,4.68-1.13,1.66-3.27,2.11-4.68,3.46l-1.4.3c-2,1.86-4.18,3.8-6.8,4.78a22.77,22.77,0,0,1-5.83,3.55,5.61,5.61,0,0,0-1.71,1.27l-1.53.18-1,1.15-1.18.11-.53.75-1.09.21c-1.71,1.41-3.94,1.87-6,2.6q-3.23,1.41-6.33,3c-1.72.79-3.28,2.05-5.28,2l-.61.6c-1.63.42-3.49.57-4.83,1.63A27.83,27.83,0,0,0,562.2,744c-2.8,1.33-5.86,1.88-8.83,2.69-5.3,1-10.4,3.16-15.82,3.48a85.77,85.77,0,0,1-16.67,2.13c-1.25.24-2.56.32-3.81.46-2.28.2-4.58.23-6.86.42a50.55,50.55,0,0,1-9.84,0c-2.68-.43-5.43-.14-8.12-.4-1.56-.19-3.12-.34-4.67-.47-3-.26-6.06-.08-9-.81s-6.2-.57-9.18-1.5a161.75,161.75,0,0,1-16.53-4,11.12,11.12,0,0,0-3.89-.84l-.6-.62c-2.2,0-4.11-1.18-6.24-1.53l-.63-.57a31,31,0,0,1-3.63-1.12l-.63-.61c-2.93-.27-5.36-2.11-8.1-3-1.57-.49-2.95-1.42-4.51-2l-.65-.55c-3-.47-5.44-2.58-8.17-3.84s-5-3.18-7.82-4.19c-.95-.76-2-1.36-2.91-2.19l-1-.26c-.34-.38-.68-.75-1-1.13l-1.11-.18a55.11,55.11,0,0,0-6.63-4.49,98.63,98.63,0,0,1-9.9-7.62c-1.79-1.64-4-2.82-5.56-4.72l-1-.26c-6.82-7.14-14.37-13.62-20.55-21.35-2.13-4.24-6.27-6.95-8.56-11.09a33.07,33.07,0,0,0-4.16-5.69c-.08-.24-.25-.72-.33-1-1.83-3.37-4.53-6.26-6-9.8-2.51-3.36-4.22-7.2-6.18-10.87a7.05,7.05,0,0,1-.61-2c-.14-.17-.4-.5-.54-.66a11.12,11.12,0,0,0-1.23-2.61c-.27-1.77-1.62-3.07-2.12-4.76a16.84,16.84,0,0,0-1.69-4.7,17.09,17.09,0,0,0-2.18-5.94c-.79-2.77-1.62-5.52-2.46-8.27l-.64-.63c-1.48-7-3.47-13.95-4.59-21.07a6.44,6.44,0,0,0-1.14-2.28l-1.19,0c-1.77,5.33-.39,11-1.1,16.48a20.82,20.82,0,0,0-.23,4c.05,4.68-.35,9.46,1,14m1.31-144.59c.34.59.57,1.81,1.48,1.4,1.84-1.55,1.86-4.16,2.29-6.33.61-1.8.09-3.68-.09-5.5l-.72-.58c-.17-1.1-.43-2.19-.56-3.31-.65-.57-1.9-1.51-2.45-.32-.12,4.89-.17,9.77.05,14.64m.78-49.43.71,0a37.12,37.12,0,0,1,1.31-4.72,28.18,28.18,0,0,0-.4-7.15c-.67-.18-1.34-.37-2-.52a40.79,40.79,0,0,0,.4,12.43m.7-45.54c.81-1.6,1.72-3.22,1.67-5.1a9.45,9.45,0,0,0,.9-2.9,7.2,7.2,0,0,0,.81-2.64c1.3-5,3.38-9.69,4.5-14.71l.66-.57c.21-1.94,1.62-3.45,2-5.36l.56-.64a18.91,18.91,0,0,1,1.18-3.57c.77-1.38,1.37-2.85,2.11-4.26a5,5,0,0,1,1.37-2.53,62.8,62.8,0,0,1,4.77-8.89,114.64,114.64,0,0,1,12.24-18.55c1.88-2.39,3.42-5.08,5.6-7.22,13.12-15.94,29.26-29.21,46.8-40a18.78,18.78,0,0,1,2-.62,9.23,9.23,0,0,1,2.9-2.23c3.44-1.9,6.79-4.06,10.59-5.2,2.08-.22,3.12-2.43,5.26-2.49a16.2,16.2,0,0,1,4.73-2.05c1.1-1.24,3-1,4.43-1.58.15-.17.44-.51.59-.67,5.61-1.75,11.21-3.57,16.93-4.92.14-.17.43-.5.58-.66,3.18.13,6.2-.9,9.15-2,4-.11,7.64-2,11.67-1.62l.55-.69c8.15-.08,16.21-2.14,24.39-1.5a41.81,41.81,0,0,1,8.22-.06c3.44.24,6.9.17,10.35.4,2.65.51,5.37.58,8.05.92a16.83,16.83,0,0,0,4.47.65c3.24.13,6.36,1.14,9.57,1.55a77,77,0,0,0,10.07,2.33l.56.65c5.52.85,10.75,2.95,16.12,4.47l.58.65c2.9,0,4.93,2.45,7.79,2.52a7.55,7.55,0,0,0,1.33.82c2.28,1.5,5.07,1.9,7.45,3.21,1.36.68,2.63,1.65,4.18,1.83l.62.62,1,.3c4.31,2.54,8.57,5.19,13,7.55,5.08,2.91,9.29,7.07,14.29,10.08,6.76,4.83,12.82,10.51,18.88,16.16a10.36,10.36,0,0,0,1.71,1.73c3.73,4.24,7.85,8.16,11.2,12.73q6.45,8.18,12.27,16.81c2,2.23,3.16,5.07,4.83,7.55,0,.27.17.81.22,1.08l1.13,1c.06.27.17.81.22,1.07,3.47,4.8,5.18,10.62,8.22,15.68.44,1.94,1.27,3.78,1.59,5.75l.67.56.12,1.19.73.53a76.92,76.92,0,0,0,3,8.58c.59,1.61.65,3.39,1.48,4.9a10.49,10.49,0,0,0,1,2.44c-.19,3,2,5.27,2.13,8.17a18.76,18.76,0,0,0,.54,1.95l1.37,0a81.24,81.24,0,0,0,.18-15.2,43,43,0,0,1-.27-5.69l-.74-.54a60,60,0,0,1-.52-8.05c.08-2.72-.89-5.33-.92-8.06l-.67-.56c-.28-6.08-2.57-11.78-3.72-17.7-2.16-6.06-4.3-12.14-6.6-18.16-.56-2.58-2.27-4.66-3.23-7.08a17.3,17.3,0,0,1-2.12-4.72,35.19,35.19,0,0,1-3.45-6.36c-1.33-2-2.33-4.14-3.83-6-.11-.22-.32-.65-.43-.86a23.62,23.62,0,0,1-3-5.12c-2.49-2.44-4.09-5.67-6-8.55-2.46-2.53-4.45-5.48-6.81-8.12-1.64-2.46-4-4.35-5.56-6.85-2.44-2.25-4.55-4.86-7.06-7.05-3.19-2.64-5.65-6-9-8.57-2.15-2-4.9-3.38-6.55-5.85l-1.06-.22c-.65-.63-1.34-1.22-2-1.88l-1-.3c-2.16-1.85-4.63-3.32-6.76-5.2-.44-.28-.86-.57-1.28-.87-2-1.83-4.67-2.64-6.8-4.27a4,4,0,0,1-2.58-1.76c-3.29-1.67-6.81-2.94-9.8-5.14-.45-.1-.91-.22-1.35-.34-1.91-1.27-4.19-2-6.12-3.28-3.84-1.41-7.62-3-11.5-4.36l-.65-.58a5.12,5.12,0,0,1-3.47-1.26c-5.92-1.13-11.44-3.82-17.4-4.86-5.78-1.26-11.46-3.13-17.39-3.57a60.25,60.25,0,0,0-13.18-1.35c-2-.35-4-.23-6-.46a38.19,38.19,0,0,0-8.14.05c-3.68.37-7.4-.75-11.1,0-2.67.46-5.41.07-8.09.46-5.82.76-11.63,1.5-17.37,2.71-3.72,1.16-7.6,1.57-11.42,2.26l-.59.65q-8.59,2.79-17.2,5.46c-2.54.8-4.81,2.28-7.39,2.94-.16.14-.5.41-.67.54-2.89,1-5.47,2.65-8.3,3.73l-.62.62-1.51.22c-4,2.68-8.43,4.57-12.39,7.27-6.61,3.75-12.33,8.82-18.72,12.92-1.35,1.67-3.25,2.76-4.92,4.05-4.62,3.78-8.4,8.42-12.89,12.33-1.68,2-3.57,3.85-5.34,5.77-1.16,1.29-2,2.86-3.41,3.89l-.36.88c-2.33,2-3.72,4.85-5.69,7.16-1.4,1.49-2.41,3.27-3.77,4.78-.09.24-.26.71-.35.94-1.66,2.25-2.74,4.86-4.47,7.06a22.53,22.53,0,0,0-2.9,5.26c-1.78,2.56-2.7,5.64-4.67,8.08-.92,3.52-3.41,6.47-4.17,10l-.68.56c0,.55-.07,1.09-.1,1.62l-.72.55c-.19.81-.42,1.6-.61,2.4l-.62.61c-.39,2.24-1.62,4.21-2.2,6.39-.71,2.65-1.76,5.21-1.91,8l-.62.6a48.29,48.29,0,0,0-1.09,5.81l-.62.6a179,179,0,0,0-4.34,24.75c-.12,3.07,0,6.14-.27,9.19-.47,2.75-.14,5.56-.23,8.32.1,2.07-.28,4.46,1.19,6.15m.53,20.34c.27,2.88,1.15,5.67,1.34,8.56a9.53,9.53,0,0,0,2.35.88c.28-.5.58-1,.89-1.48.1-.45.21-.92.32-1.39.58-1.25.83-2.68,1.75-3.76.27-1.35.77-2.67,1.16-4l.7-.58.12-1.17.66-.58a25,25,0,0,1,2-4.81c.74-1.33.6-3.17,1.73-4.31,1.45-3.7,3.57-7.09,5.08-10.75.33-.35.67-.72,1-1.08.07-.25.23-.73.31-1,3.06-4.74,5.42-10,9.39-14.09,2.14-5.23,7-8.54,9.7-13.43l1.19-.07.12-1.17c2.19-1.82,3.42-4.53,5.65-6.32,3.38-2.72,6.14-6.11,9.37-9,3.26-2.57,6.25-5.48,9.63-7.91a39.36,39.36,0,0,1,7.13-5.25,5,5,0,0,1,4-2.47c.36-.47.73-1,1.07-1.47l.94-.33a36,36,0,0,1,9.85-6,32.05,32.05,0,0,1,8.5-4.72c2.29-2.39,6.14-2.09,8.48-4.34,4.38-.88,8.06-3.67,12.37-4.73,1.48-.84,3.37-.59,4.78-1.63a20.39,20.39,0,0,1,4.1-1.45c5.15-.59,9.84-3,14.93-3.88,2-.47,4.53,0,6.12-1.6,2.58-.19,5.22,0,7.71-.85,2.69-.95,5.59-.4,8.38-.59.13-.19.37-.59.49-.78,4.47-.07,8.95.15,13.41-.27a167.1,167.1,0,0,1,16.75,0,54.63,54.63,0,0,0,10.81,1.18c2.36,0,4.54,1,6.86,1.23,1.79.21,3.57.44,5.37.64,3.54.73,6.93,2.08,10.5,2.73,3.28.23,6.22,1.88,9.42,2.53,2.51.32,4.59,1.85,7,2.48A120.34,120.34,0,0,1,574,306.39c2.5,1.19,5.08,2.22,7.51,3.56,1.61.6,2.81,2,4.51,2.4l.68.51c4.17,1.5,7.87,4,11.59,6.39,1.46.95,3.32,1.46,4.33,3a57.71,57.71,0,0,1,8,5.25,45.25,45.25,0,0,1,7.84,6.29c3.26,1.89,5.75,4.81,8.7,7.12,2.06,2.08,4.54,3.77,6.18,6.23l1.08.18c1.71,2.15,3.74,4.06,5,6.52.77,2.05,3.17,2.87,4.5,4.5,1.9,2.37,4,4.62,5.78,7.07,5.41,6.65,9.58,14.16,14.08,21.42,1.67,2.41,2.84,5.14,4.28,7.69a123.52,123.52,0,0,1,8.46,21c.89.54,1.09,1.61,1.41,2.51,1,1.63,1.24,3.58,1.93,5.34.51,0,1,0,1.54-.06.25-.45.53-.89.83-1.33a43.15,43.15,0,0,0,1.69-9.49c.13-1.61.18-3.23.15-4.87,0-3.53-2.2-6.66-1.79-10.24l-.71-.55c-.59-3.25-.52-6.62-1.85-9.72a46.56,46.56,0,0,1-1.84-7.1c-.52-2.81-1.76-5.39-2.57-8.11-.83-.84-.73-2.13-1.17-3.16-.42-2.15-1.86-3.86-2.63-5.88-1.91-4-3-8.37-5.35-12.17-1.49-2.45-2.35-5.23-3.9-7.66-1.71-3.2-3.79-6.19-5.58-9.35-1.06-2.38-3-4.19-4.23-6.49a193.25,193.25,0,0,0-22.34-26c-3.19-3.54-7.21-6.16-10.51-9.58-3.71-3.15-7.59-6.1-11.39-9.14l-.95-.34c-6-4.79-12.82-8.31-19.35-12.28-2.15-1.42-4.75-1.92-6.88-3.36a31.58,31.58,0,0,0-7.13-3.18l-.65-.55c-1.71-.18-3-1.36-4.65-1.8a9,9,0,0,1-2.75-1.1c-2.34-.74-4.54-1.92-6.93-2.53-.15-.15-.45-.46-.61-.6-3.61-.29-6.92-1.84-10.32-2.93-10.61-2.35-21.2-4.91-32.06-5.61-3.28-.62-6.62-.52-9.93-.78a171,171,0,0,0-18,0c-6.33.82-12.73,1.05-19,2.37-2.48.6-5.13.43-7.5,1.44-3.52.8-7,1.73-10.56,2.35-2.14,1-4.57.86-6.72,1.8a45.1,45.1,0,0,1-6.24,1.84c-.74,1-2,1.24-3.18,1.56-3.35.9-6.45,2.45-9.73,3.53l-1,1.09c-.53.06-1.06.1-1.59.13l-.58.67c-3.37.94-6.28,3-9.52,4.21-2.85,1.51-5.51,3.36-8.38,4.84-2.67,1.59-5.62,2.76-7.83,5a96.41,96.41,0,0,0-8.56,6l-1,.31a25.52,25.52,0,0,1-4.22,3.48q-5.5,4.51-10.59,9.49A113.7,113.7,0,0,0,360,309.62a16.21,16.21,0,0,1-2.85,3.16c-.06.25-.21.74-.27,1-4.74,4.91-8.54,10.61-12.47,16.15-.86,2.26-2.69,4-3.73,6.12-1.64,3.65-4.14,6.84-5.75,10.5-.69,1.82-1.79,3.46-2.4,5.31-1.74,4.32-4.68,8.17-5.61,12.81l-.6.61c-.27,1.54-.64,3.08-1,4.58l-.71.55a65.21,65.21,0,0,1-2.1,6.93c-.91,3.28-2.06,6.57-2,10l-.68.56c-.42,2.18-.88,4.33-1.24,6.5-.77,2.86-.42,5.92-1.53,8.69-.79,1.88.27,3.82.54,5.69m-.19,171.67c.35,3.63.15,7.34,1,10.92a42,42,0,0,1,1,7.59c.16.14.5.42.68.55.21,4.27,1.9,8.25,2.6,12.42a19.58,19.58,0,0,1,1.53,5.74c.82,2.41,1.84,4.78,2,7.36.18.14.52.42.7.55.74,2.49,1.13,5.13,2.44,7.4a26.25,26.25,0,0,1,2.54,6.46c1.46,1.44,1.87,3.54,2.81,5.31,2,3.6,3.87,7.25,5.73,10.93a5.76,5.76,0,0,1,1.31,2.16c1.43,2.27,2.43,4.78,4.29,6.76a150.17,150.17,0,0,0,22.27,28.19c3.79,4.61,8.35,8.49,12.82,12.41,3.37,2.45,6.32,5.43,9.81,7.72a214.4,214.4,0,0,0,20.4,13.78c4.5,1.76,8.33,4.93,13,6.27l1,1,1,.28c9.58,4.25,19.41,8.16,29.69,10.49,3.95,1.24,8.12,1.38,12.12,2.39,4.73,1.23,9.64,1.34,14.42,2.26,4.11,1,8.35.21,12.5.74,7.12.27,14.26.38,21.38-.05q4.15-.23,8.33-.24l.52-.73a59.68,59.68,0,0,0,8-.56l.54-.73c6.48-.24,12.65-2.49,19-3.73,1-.23,2-.53,3-.8,1.14-.74,2.55-.79,3.79-1.32,2-.59,4-1.13,6.06-1.66,3.26-1.24,6.45-2.7,9.7-4a6.55,6.55,0,0,0,2.21-1.22l1-.27.59-.68c2.68-.8,5.62-1.42,7.75-3.38l1.45-.27c1.62-1.69,4-2.2,5.92-3.47a15,15,0,0,1,2.63-1.23c.19-.37.39-.74.59-1.11l1.5-.16c.32-.64,1.06-.74,1.67-1,1.28-1.47,3.13-2.25,4.67-3.4,2.08-1.19,4-2.64,6.08-3.79l.62-1.06,1-.24c1.85-1.72,4.06-3,5.93-4.75,2.91-1.9,5.18-4.6,8.15-6.41A128.89,128.89,0,0,1,637.7,693.8c4.39-5.43,9.21-10.5,13.41-16.08,2.9-4.36,5.86-8.69,8.78-13a5.07,5.07,0,0,0,1.2-2.25c.34-.36.68-.71,1-1.06.06-.27.17-.81.23-1.08.49-.65.94-1.34,1.39-2a7.9,7.9,0,0,0,1.73-3.44,43.63,43.63,0,0,1,2.11-3.84c.07-.25.2-.75.28-1l.7-.57c.05-.27.17-.81.22-1.08a5.36,5.36,0,0,0,1.26-3l.63-.59c.64-2.83,2.12-5.32,3.18-8,1.77-3.12,1.89-6.8,3.14-10.1.92-2,2-4.08,2.22-6.37,2.13-4.26,2.8-9.16,3.2-13.87l.68-.57a49.23,49.23,0,0,0,.72-14.23c-.2-2.48-.28-5-.67-7.46l-.8-.51c0-.31,0-.93,0-1.24h-1.73c-1.92,4.51-3.19,9.31-5.59,13.62-1.71,4.57-4.07,8.83-5.94,13.32-3.3,5.29-5.74,11.1-9.63,16-.1.22-.29.67-.39.9a41.36,41.36,0,0,1-3,3.8l-.33,1c-1.94,2.23-3.44,4.8-5.34,7-4.53,4.76-8.38,10.13-12.92,14.87-2.95,3.47-6.74,6.08-9.92,9.32-1.59,1.73-3.71,2.84-5.24,4.61-1.26.88-2.58,1.69-3.85,2.54-.75.69-1.27,1.58-2.07,2.21-5.55,3.55-10.48,8.06-16.47,10.9a33.18,33.18,0,0,0-5,2.67,13,13,0,0,0-2.77,1.54c-2.13,1.58-4.75,2.29-7,3.7l-1.51.22c-.33.38-.66.76-1,1.15l-1.58.13L580,693a51,51,0,0,1-6.24,1.92c-.14.18-.41.53-.54.72l-1.62.1-.56.68c-3.36.6-6.3,2.55-9.65,3.23-.15.16-.47.46-.63.61-2,.23-3.77,1.2-5.72,1.57-2.07.59-4.27.64-6.27,1.43s-4.31.88-6.46,1.28c-5.86,1.47-11.92,1.88-17.84,3-5.43-.14-10.75,1.22-16.18,1-8.28-.29-16.66.7-24.85-.8-6-1-12-1.77-18.08-2.44-2.4-1.43-5.42-1.39-8.05-2.27-4.72-1.57-9.53-2.84-14.36-4l-.56-.68-1.18-.11-.55-.74-1.05-.22-.79-.49a23.16,23.16,0,0,1-8.5-3l-1-.36c-1.69-1-3.61-1.43-5.33-2.32-1.74-.61-3.21-1.8-5-2.37l-.69-.5a8.79,8.79,0,0,1-2.58-1.29l-1-.31a6.15,6.15,0,0,0-3-1.73l-.62-.62L410.1,684c-1.58-1.53-3.76-2.18-5.52-3.46-3.57-2.58-7.43-4.74-10.9-7.47-2.78-2.22-5.94-4-8.53-6.43a52.7,52.7,0,0,1-7.78-6.76c-5.88-5.06-11.14-10.82-16.48-16.43-1.41-2.24-3.61-3.83-5.12-6-2.68-4-6-7.48-8.51-11.59-1.6-2.64-3.73-5-5.1-7.75a75.84,75.84,0,0,1-5.92-10.26c-1.75-4.05-4.41-7.7-5.58-12-2.31-2.58-3.05-6.19-3.74-9.48-.72-.82-1.56-1.59-1.46-2.86-1.89-2.31-1.42-5.52-2.48-8.19a43.48,43.48,0,0,1-2-4.83c-.67-.21-1.35-.41-2-.59-1.2,3.39-2.28,7-1.51,10.59m.65-122.53c.15,3.37,1.37,6.54,2.24,9.76l1.89.08a3.86,3.86,0,0,1,1.18-2.77,57.62,57.62,0,0,0,2.48-7.81l.69-.59a29,29,0,0,0,.34-5.67,3.83,3.83,0,0,1-1.37-3.48c-1.64-3-2.46-6.31-3.79-9.43-.28-.44-.56-.89-.81-1.36h-1c-.27.45-.56.89-.86,1.32-.17,4.17-2.1,8.06-1.87,12.27-.33,2.65.84,5.07.9,7.67m1.37,53.38c.18.14.53.41.7.56,0,.31.06.93.07,1.24.54,0,1.08,0,1.63-.07,1.72-2.32,2.15-5.23,2.68-8,.19-.12.57-.39.75-.52,0-.3.08-.89.1-1.19.18-.14.55-.41.72-.55a15.92,15.92,0,0,0-.22-8.19c-.42-1.46-1.16-2.81-1.2-4.37-.89-1.1-1.15-2.5-1.74-3.76-.05-.28-.17-.84-.23-1.12a11.42,11.42,0,0,0-2-.44c-1.78,3-.93,6.8-2.07,10-1.66,5.38,0,11,.8,16.4m-.19,38.19a1.62,1.62,0,0,0,2.49,1.2,11.07,11.07,0,0,1,1.12-2.82c1.14-2.82,2.65-5.78,1.85-8.91-.21-2.34-2-4.05-2.91-6.11l-1.63-.12a32.64,32.64,0,0,0-.92,16.76M321.74,562c1.42,6.08,2.68,12.24,5,18.07a140.14,140.14,0,0,0,10.18,24.06,111.13,111.13,0,0,0,8,14.16c1.3,3.18,3.92,5.54,5.67,8.45a83.59,83.59,0,0,0,8.73,11.36,202.48,202.48,0,0,0,34.24,32.47c7.4,5.49,15.46,10,23.37,14.66l1.08.23.62.62a67.58,67.58,0,0,1,9,4.69l.95.35c1.16.8,2.63.72,3.9,1.24,5.48,2.2,10.94,4.62,16.71,6l.6.62c3.4.58,6.67,1.76,10.09,2.35l.59.67a30.93,30.93,0,0,0,5.87,1c5.22.43,10.35,1.48,15.51,2.41,3.89.28,7.82-.09,11.71.3,4.1.57,8.28.17,12.39,0,4.18-.61,8.48.3,12.63-.6,2.56-.81,5.29-.34,7.92-.63s5.05-1.28,7.67-1.31c6.37-.44,12.45-2.59,18.76-3.48,4.52-1.4,8.89-3.31,13.51-4.42,3.63-.62,6.63-3,10.13-4l.66-.56c2.34-.89,4.65-1.85,6.89-3l1.34-.37a4,4,0,0,1,3-1.36,37.21,37.21,0,0,1,7.86-4.52,13.89,13.89,0,0,1,5.42-3.14,11.09,11.09,0,0,1,1.23-.9,8.8,8.8,0,0,1,1.38-.76c1.38-1,2.86-1.95,4.21-3l.88-.41a198.09,198.09,0,0,0,17.67-14.39c3.47-2.63,6-6.26,9.35-9a49,49,0,0,0,5.87-6.51,24.13,24.13,0,0,0,3-3,7.47,7.47,0,0,1,1.82-2.9c1.59-1.45,2.57-3.41,3.94-5a15.32,15.32,0,0,0,3.33-3.93c.06-.27.17-.8.23-1.06,2.47-2.19,3.63-5.43,5.72-8l.37-.92c1.3-1.75,1.93-3.93,3.39-5.57,1.21-2.28,2.19-4.67,3.32-7,2.54-4.12,4.15-8.71,6.05-13.15,1.57-5,4.13-9.82,5.1-15l.67-.6c.61-3.74.87-7.69-.55-11.29a7.85,7.85,0,0,1-.78-3.94l-.64-.59a24.59,24.59,0,0,0-3.52-8.48l-1.69,0c-2.59,4.18-4.13,8.87-6.57,13.11-2.89,3.68-4.19,8.39-7.37,11.87-.08.23-.24.71-.33.95a182.66,182.66,0,0,1-13.93,18.12c-1.3,2.22-3.56,3.6-5,5.73-1.52,1.18-2.49,2.92-4,4.15-3.28,2.7-6.17,5.82-9.28,8.68-3.48,2.64-6.48,5.91-10.25,8.14l-.87.39c-1.87,2.07-4.48,3.33-6.84,4.73a20.37,20.37,0,0,1-6.44,4.26c-.36.48-.73.94-1.12,1.38a7.24,7.24,0,0,0-2.63,1.24l-1,.34a16.29,16.29,0,0,1-2.48,1.38c-1.22,1.21-3.12,1.29-4.28,2.54l-1.37.35c-.94.65-2,1.1-2.94,1.73a22.45,22.45,0,0,1-4.8,2.09l-.6.64-1.5.23c-1.88,1.43-4.29,1.87-6.31,3-5.79,1.32-10.92,4.58-16.84,5.46l-.58.65c-3.11.5-6.09,1.68-9.25,1.93l-.55.69-3.22.22c-5.72,1.55-11.63,2.12-17.46,3s-12,.45-17.93.89c-7,.31-14,.29-21,0a77.86,77.86,0,0,0-8.94-1.37c-1.32-.2-2.68-.18-4-.25l-.55-.71c-3.32-.49-6.64-.91-10-1.14a49.24,49.24,0,0,0-6.67-1.88c-6.1-1.2-11.83-3.75-17.81-5.31l-.64-.57c-1.65-.43-3.22-1.11-4.85-1.62a15.35,15.35,0,0,0-2.54-1.33,147.25,147.25,0,0,1-17.72-8.31,21.79,21.79,0,0,1-4.47-2.8l-1-.3-1.08-1a5.77,5.77,0,0,1-2.25-1.17,114.69,114.69,0,0,1-18.34-12.9l-1-.33a29.67,29.67,0,0,0-2.63-2.08c-5-3.66-9-8.43-13.52-12.54-2.84-3.41-6.4-6.17-9.14-9.67-1.74-2.25-5-3.95-4.84-7.16l-1.17-.09c-2.08-3.28-5.05-5.91-6.93-9.33a77.72,77.72,0,0,1-6.57-10.55,74.85,74.85,0,0,1-4.12-7c-2.47-4.3-4-9.12-6.87-13.19-.41-.71-1.28-.46-1.95-.55a14.42,14.42,0,0,0-1.53,4.6l-.56.64c-.73,3-2.49,5.86-2,9m.78-131.22c.62,3.8,2.39,7.29,3.12,11.06.54,1.32,1.17,2.59,1.59,3.95.29.46.56.93.82,1.41,1.64,1,2.42-.6,2.86-1.67,1.34-3.14,2.95-6.17,4.39-9.27,1.05-2,2.05-4.16,4-5.37.17-.94.41-1.86.62-2.8l.7-.59c.07-.25.21-.75.27-1,.31-.42.61-.84.89-1.3,2.53-3.86,4.86-7.85,7.67-11.53,1.66-1.51,2.59-3.64,4.34-5.08.05-.26.16-.79.22-1.05l1.62-.94c0-.31,0-.93.06-1.23.51-.34,1-.68,1.58-1,0-.28.13-.83.17-1.1a23.78,23.78,0,0,0,3.92-3.78c2.74-3.64,6.21-6.62,9.51-9.72a12.74,12.74,0,0,0,2.12-2.16c5.08-4.66,10.44-8.95,15.79-13.28l.88-.4a73.17,73.17,0,0,1,10.68-6.86,28.43,28.43,0,0,1,10.71-6.42,11.24,11.24,0,0,1,1.21-.91,12.29,12.29,0,0,1,4.37-2.06c2.19-1.28,4.53-2.28,6.81-3.39,2.87-.61,5.36-2.29,8.26-2.91l.55-.68c1.45-.52,3.12-.65,4.39-1.62,1.5-.54,3-.92,4.56-1.46,2.7-1.38,5.86-1.36,8.66-2.44a35.85,35.85,0,0,1,10-2.37c.14-.17.43-.5.57-.68,1.95-.15,3.9-.4,5.86-.55.14-.19.39-.57.52-.76a34.24,34.24,0,0,0,7.9-.65,100.23,100.23,0,0,1,14.54-1.77,172.85,172.85,0,0,1,19.18.05,132.34,132.34,0,0,1,24.27,3.08c8,.66,15.57,3.57,23.34,5.37l.62.58c2,.4,3.76,1.42,5.79,1.56l.61.59c3.08.38,5.71,2.3,8.74,2.89,2.72,1.9,6,2.7,8.92,4.25,4.67,1.37,8.68,4.13,13,6.33,2.54,1.57,5.35,2.81,7.56,4.85l.93.34c1.45,1.34,3.3,2.1,4.89,3.23a197.37,197.37,0,0,1,16.93,13c2.8,2.61,5.3,5.55,8.32,7.93a134.84,134.84,0,0,1,13,14c5.65,6.33,10,13.61,15,20.44.06.25.2.77.27,1,1.1,1.48,2,3.1,3.13,4.55l.37.92a12.12,12.12,0,0,1,1.31,2.56c.94,1.77,2.29,3.31,2.93,5.21l.51.7a69.91,69.91,0,0,0,3.27,6.68,2.77,2.77,0,0,0,2.32,0c.26-.46.55-.92.86-1.37,0-.27.16-.8.21-1.07l.64-.6c1.29-5,3.64-9.92,3.12-15.23l-.77-.56a76.09,76.09,0,0,0-1.8-8.05c0-2.06-2-3.25-2-5.32a69.12,69.12,0,0,0-4.62-11.15c-.5-1.31-.65-2.84-1.73-3.85-.44-.69-.87-1.38-1.33-2.06-1.42-5.54-5.27-10-7.65-15.08-2.18-3.09-4-6.39-6.43-9.33a47.64,47.64,0,0,0-5.12-7.72,7.31,7.31,0,0,1-1.74-2.13c-1.61-1.83-2.79-4-4.47-5.78a25.54,25.54,0,0,1-3.19-4.07c-1.47-.61-2.23-2-3.35-3.07a68.35,68.35,0,0,1-8.19-8c-2.83-1.6-4.81-4.33-7.28-6.4a5.5,5.5,0,0,1-2.11-1.77l-1-.28a17.45,17.45,0,0,0-3.29-2.71c-1.47-1.59-3.49-2.49-5.21-3.76-3.88-3.05-7.8-6.26-12.4-8.15-3.58-2.65-7.8-4.31-11.46-6.86a11.12,11.12,0,0,1-2.54-1.31l-1-.37c-2.61-1.42-5.81-1.75-8-4l-1.52-.2c-.15-.17-.43-.5-.58-.66a19.54,19.54,0,0,1-2.73-.71c-5.81-2-11.65-4-17.45-6.06-2.64-.56-5.26-1.23-7.84-2-6.84-1.78-13.9-2.4-20.77-4-1.86-.32-3.79-.17-5.66-.37l-4.67-.47c-3.72-.27-7.45-.09-11.16-.36a58.51,58.51,0,0,0-10.67,0c-2.41.32-4.86.22-7.27.42-6.13,0-12,2.07-18,2.51-5.5,1.12-11,2.3-16.42,3.64-4.94,1.61-9.93,3.07-14.79,4.9l-.64.56c-5.9,1.6-11.35,4.45-16.75,7.22a22.61,22.61,0,0,0-4.41,2c-1.85,1.42-4.23,1.91-6.11,3.29-2.76,1.8-5.51,3.61-8.27,5.4l-.95.35a14.65,14.65,0,0,1-1.6,1.35,15.6,15.6,0,0,0-1.38.81l-.84.43c-6.14,4.64-12.38,9.21-17.91,14.56-7.24,6.17-13.33,13.49-19.67,20.52a7,7,0,0,1-.91,1.25l-.41.85c-.3.45-.57.9-.82,1.36a8.34,8.34,0,0,1-2.75,2.79c0,.28-.11.84-.14,1.13-.65.64-1.24,1.33-1.9,1.95-.07.25-.22.75-.29,1-2.72,3.24-4.75,7-7,10.58-.85,1-1.27,2.37-2.09,3.44l-.36,1.34c-.51.48-1,1-1.46,1.53-.08.49-.16,1-.25,1.45-2.27,2.29-2.77,5.75-4.31,8.49-2.41,4.52-3.87,9.46-6,14.11a60.39,60.39,0,0,1-2.89,8.67c-1.06,3-1.67,6.26-.58,9.3m1.29,96.66c.93,2.34,1.35,4.93,2.81,7,.53,0,1.05-.08,1.58-.14,3.42-4.65,5.07-10.38,8.63-15,.62-2.53-2.31-3.77-2.23-6.18l-.59-.62a8.78,8.78,0,0,0-2.08-4.32,10.89,10.89,0,0,0-2-4.15,2.2,2.2,0,0,0-3,1.68c-1.38,4-3.33,8-3.47,12.36l-.67.59a13.74,13.74,0,0,0,1,8.72m-1.28-49.63c.69,2.91,2,5.64,2.61,8.55a6.75,6.75,0,0,0,.85,1.67c.35,2,1.27,4.81,4,4.16.81-2.53,2.81-4.57,3.18-7.23l1.08-1c0-.28.11-.85.15-1.14l1.1-1c0-2.8,2.95-4.84,2-7.77-.39-2-2.46-3.17-2.46-5.3l-1-1.07c-.33-1.05-.78-2.06-1.2-3.08-1.62-1.6-1.56-4.2-3.25-5.77l-1.58.05c-1.1,4.4-3.66,8.34-4.29,12.87-.36,2.05-1.76,3.94-1.17,6.09m8.11,67.57c.43,1.58,1.37,3,1.95,4.47a24.09,24.09,0,0,0,1.53,3.58c.09.25.27.73.37,1,1.1,1.55,1.64,3.4,2.64,5,.08.25.24.75.31,1,1.64,1.76,2.53,4.05,3.75,6.08s2.89,4,3.53,6.33l1,1c0,.29.11.85.15,1.14l1.14,1,.24,1c2.36,1.85,3.4,4.83,5.41,7,5.69,7.21,11.51,14.38,18.17,20.73,3,2.28,4.95,5.66,8.12,7.71,3.73,3,7.31,6.16,11.32,8.77,3,2.34,5.85,4.9,9.22,6.62,6.22,4.46,13.37,7.38,20,11.18,6.39,3,12.78,6,19.42,8.41l.63.59c2.61.44,5,1.68,7.51,2.37a92.29,92.29,0,0,0,11.9,3c2.76,1.42,6,1.44,9.09,1.63l.51.73c6.29-.23,12.29,2.21,18.6,2,1.84.3,3.7.27,5.55.45a75.5,75.5,0,0,0,12.4,0c5.56-.63,11.19.11,16.77-.28a45.85,45.85,0,0,1,9.53-1.59c3-.17,5.83-1.47,8.86-1.44l.57-.67c2-.2,4-.19,5.9-1,3.61-1.68,7.63-1.93,11.4-3.1,1.09-.84,2.57-.74,3.76-1.39a21.81,21.81,0,0,1,3.43-.87,8.15,8.15,0,0,1,3.48-1.66,36.81,36.81,0,0,1,3.8-1.27c1-.42,2-.88,3.11-1.21l.65-.57a12.58,12.58,0,0,0,4.9-2c2-1.58,4.56-1.92,6.79-3,.63-1.35,2.21-1.54,3.4-2.17,1.11-1.21,2.83-1.49,4.27-2.17a19.26,19.26,0,0,1,5.18-3.37c2.7-1.33,5-3.37,7.64-4.77a19.29,19.29,0,0,1,1.68-1.3c1.51-1.81,3.79-2.74,5.6-4.22,1.33-.93,2.52-2,3.83-3,2.23-1.29,3.58-3.56,5.5-5.22l1.06-.22a12.19,12.19,0,0,1,2.63-2.92c2.63-2.21,4.87-4.83,7.5-7,1.56-1.72,3-3.52,4.67-5.15,1-1.88,2.7-3.29,4-5,3.31-3.62,5.36-8.2,8.83-11.68.29-.43.57-.85.87-1.28a10.15,10.15,0,0,0,1.74-3c.93-1.21,1.51-2.68,2.51-3.87l.44-.83c1.51-1.52,1.67-3.88,3.1-5.47,1.76-2.13,2.59-4.81,3.88-7.23A52.92,52.92,0,0,0,671.16,546a18.39,18.39,0,0,0-1.83-5.78c-1.26-1-1.3-2.71-2-4a78.07,78.07,0,0,1-3.51-7.18c-.75-.31-1.44-1.12-2.32-.87-2.87,2.79-4.72,6.42-7.2,9.52l-.4.89c-.74.83-1.31,1.8-2.1,2.58-1.2,2.16-3.13,3.78-4.43,5.86-4.89,6.84-11.38,12.28-17,18.46-4.85,4-9.2,8.64-14.51,12a92.57,92.57,0,0,1-16.68,11.11c-3.23,3-7.7,4.16-11.37,6.53-2.48,1.09-4.72,2.78-7.4,3.36-3.88,2.3-8.37,3.2-12.46,5-1.23.57-2.56.83-3.83,1.28-3.2,2-7.09,2.87-10.82,3.34l-.58.65c-5.4.34-10.29,3.17-15.76,3.06A4.18,4.18,0,0,0,533.4,613a26.6,26.6,0,0,0-6.41.86c-3.46.23-6.93.06-10.38.34a22.33,22.33,0,0,1-3.53.3l-.53.74c-3.9,0-7.86-.14-11.58,1.23a35.84,35.84,0,0,1-7.29-1.07c-2.9-.24-5.81-.09-8.7-.34-2.38-.38-4.84-.13-7.13-.93a132.22,132.22,0,0,1-15-2.92,30.13,30.13,0,0,1-7-1.16c-.15-.16-.44-.5-.59-.67-1.33-.22-2.66-.54-4-.77-1.78-.76-3.8-.8-5.53-1.7l-1.35-.38c-3.3-1.22-6.79-2-9.9-3.75a14.85,14.85,0,0,0-2.58-.89l-.58-.67-1.6-.11-.57-.67a13.34,13.34,0,0,1-5.2-2.1l-1-.34a9.37,9.37,0,0,0-2.59-1.29l-.69-.51a11,11,0,0,1-2.11-.92c-6.41-3.62-13-7-18.86-11.48A155.2,155.2,0,0,1,383,572.6c-3.08-3.08-6.71-5.52-9.66-8.73-2.67-2.89-6-5.11-8.4-8.27a160.18,160.18,0,0,1-15.52-18.68c-.54-.74-1.14-1.43-1.73-2.12l-.28-1c-2.46-2.48-3.82-5.81-6.1-8.44-.08-.25-.23-.73-.3-1a8.22,8.22,0,0,1-.82-.95l-2.77,0a17.54,17.54,0,0,1-1.15,1.43,9.64,9.64,0,0,1-1.75,2.94,17.75,17.75,0,0,1-3.05,5.52c-.07.52-.14,1-.21,1.52l-.65.59c-.32,1.59-1.29,3-1.42,4.6.2,1.8,0,4,1.47,5.37m.53-44.56c.08.51.15,1,.21,1.51l.72.57c.07.48.14,1,.22,1.44,1.87,3.11,3,6.8,5.54,9.51a14.13,14.13,0,0,0,1.47.1c2.43-3.17,4.82-6.38,7.22-9.56.79-1.69,2.34-2.79,3.47-4.23l.25-1.05a22.84,22.84,0,0,0,1.62-2.69,47,47,0,0,0-5.38-8.35q-2-3.27-4.37-6.33l-.27-1c-.43-.28-.85-.59-1.26-.91l-1.52-.06c-.66.77-1.31,1.56-2,2.29a10.21,10.21,0,0,1-1.22,2.61,9.07,9.07,0,0,1-1.38,2.91c-.12.48-.23.95-.34,1.42-1.77,2.59-2.23,5.86-4,8.46-.43,1.33.31,2.4,1,3.36m.63-43.36a66.23,66.23,0,0,1,2.73,6.24c1.58,2.22,2.6,4.81,4.17,7a21.1,21.1,0,0,0,2.73-.49,8.53,8.53,0,0,1,1.18-1.44,32.38,32.38,0,0,1,3.52-5.46c3.3-4.4,6.18-9.12,9.86-13.23a211.3,211.3,0,0,1,19.11-19.79c2.12-1.26,3.43-3.47,5.56-4.72,2.68-2.17,5-4.8,8.08-6.44l.95-.33a44.76,44.76,0,0,1,3.8-3l.93-.36c.49-.51,1-1,1.54-1.46l1-.24a3.26,3.26,0,0,1,1.35-1.25c3-1.33,5.46-3.46,8.42-4.81a6.06,6.06,0,0,0,3-2.15l.94-.36a6.12,6.12,0,0,1,3-1.25l.67-.53c2.19-1,4.15-2.42,6.54-2.94a24.25,24.25,0,0,1,5.49-2.61c1.21-1.26,3.13-1,4.59-1.83a20.77,20.77,0,0,1,5.2-2.1c2.29-1.28,5-1.52,7.45-2.33l.6-.68c.85-.12,1.68-.3,2.52-.46,2.34-.1,4.34-1.56,6.72-1.46l.57-.65c4.77-.15,9.12-2.71,14-2.3l.53-.72,4.51-.2a9.14,9.14,0,0,0,3-.92c4.16-.85,8.53-.16,12.6-1.46,3.63-.14,7.27-.07,10.9.15,5.33.58,10.72-.18,16,.63,4.57.71,9.25.59,13.77,1.66,5.51,1.51,11.26,1.93,16.82,3.27,4.37,1.47,8.95,2.48,13.18,4.31,3.58,1.73,7.64,2,11.18,3.83,1.9,1,4.08,1.43,6,2.55,5.68,2.18,10.72,5.7,16.31,8.09a19.12,19.12,0,0,1,2.41,1.83,5.16,5.16,0,0,1,3.42,1.73l1,.25c1.09.91,2.28,1.69,3.33,2.66,2.11,1.45,4.58,2.42,6.4,4.29l.85.42c.44.28.88.57,1.34.84q5.37,4.2,10.72,8.46a12,12,0,0,1,.74,1l1,.23c5.21,5.49,11.16,10.24,16.06,16,1.65,1.63,3.07,3.49,4.78,5.06,3,4.09,6.13,8.11,9.16,12.19,2.23,3.71,4.87,7.13,7.37,10.65l1.53-.05c.38-.33.79-.65,1.21-1,1.1-2,1.91-4.21,3.41-6,.48-1.6,1.13-3.16,1.69-4.75,1.22-1.27,1.61-3,2.28-4.61.09-2.29-1.1-4.33-1.43-6.55-1.06-1.42-1.7-3.09-2.63-4.59l-.24-1.07-.61-.63a117.17,117.17,0,0,0-9.35-16.31c-3.9-7.7-9.87-14.08-15-21a58.5,58.5,0,0,1-4.62-5.21,203.2,203.2,0,0,0-15.26-14.67,12.82,12.82,0,0,1-2.27-2.44l-.9-.33a4.72,4.72,0,0,0-1.4-.83,33.93,33.93,0,0,1-2.43-2.64c-3.6-1.8-6.62-4.48-9.83-6.85a7.1,7.1,0,0,0-2.21-1.24c-5.06-3.81-10.9-6.4-16.19-9.84-5.49-2.28-10.7-5.24-16.31-7.22a27.56,27.56,0,0,1-5-2.17c-2.21-.24-3.9-1.94-6.14-2.07l-.6-.64c-3.7-.74-7.25-2.07-11-2.77l-.58-.65c-4.21-.36-8.22-1.82-12.35-2.63-7-1.27-14-2.59-21.15-2.83-3-.23-6-.16-9-.39a31,31,0,0,0-6.39,0,135.53,135.53,0,0,0-14.53.43,111.33,111.33,0,0,0-14.9,1.76c-5.39,1.15-10.92,1.69-16.16,3.48-2.16.58-4.38.9-6.5,1.62-.87.7-1.92,1.47-3.16,1.16l-.6.63a8.09,8.09,0,0,0-4,1.13c-4.29.57-7.89,3.1-12,4.3-1.6.91-3.48,1.21-5.05,2.17l-.95.37c-1.75.8-3.39,1.82-5.16,2.56l-.64.6-1.08.21a5.93,5.93,0,0,1-2,1.4c-2.58,1-4.77,2.82-7.4,3.73-.19.38-.38.76-.57,1.12l-1.58.15a43.93,43.93,0,0,1-6.3,4.4c-.53.47-1.07.92-1.6,1.37l-1,.29c-1.49,1.54-3.42,2.55-5,4l-1.07.22c-2.72,2.41-5.32,5-8.43,7-2.52,2.73-5.53,5-8.14,7.66a50.66,50.66,0,0,1-6.05,5.94l-.2,1.07-2.29,2a7.3,7.3,0,0,1-2.27,2c-.06.27-.16.81-.21,1.07-2.62,3.09-5,6.36-7.77,9.34a17.51,17.51,0,0,1-1.3,1.68c-2.16,3.36-4.41,6.66-6.81,9.85-1.25,3.56-4.21,6.2-5.15,9.87-2.05,2.93-3.46,6.24-5.15,9.38-.8,1.51-1.3,3.16-2.18,4.62a10.58,10.58,0,0,0,.32,7.92m9.58,63.11c1,2.21,2.48,4.16,3.42,6.4,2.26,1.94,3.3,4.9,5.28,7.11a192.63,192.63,0,0,0,13.07,16.41c1.38.91,2.18,2.4,3.33,3.53,2.11,2.17,4.29,4.26,6.41,6.42,3.82,4,8.38,7.27,12.45,11,2.84,2.31,5.88,4.35,8.65,6.74,10.28,6.66,20.73,13.2,32,18,4.26,1.47,8.14,3.89,12.55,5l.66.54a11.78,11.78,0,0,1,1.35.85c4.73.76,9.06,3.12,13.79,3.75l.62.62c10.31,3,21,4.32,31.55,6.06,3.78-.19,7.55.58,11.31.22,4.3-1.34,8.89-.19,13.3-.83,2.68-.43,5.42-.14,8.13-.43,2-.35,4-.21,6-.37,2.17-.39,4.27-1.28,6.52-1.18,3.18-.07,6.14-1.49,9.37-1.33l.58-.65c2.21-.25,4.31-1.08,6.54-1.2,2.21-.47,4.17-1.92,6.56-1.57l.58-.69a32.09,32.09,0,0,1,3.68-.61l.63-.59c1.89-.5,3.68-1.3,5.61-1.72a6,6,0,0,1,3-1.29c1.9-1,4-1.68,5.91-2.58a65.42,65.42,0,0,0,13-5.78c1.86-.56,3.25-2,5-2.71,1.24-.77,2.61-1.31,3.88-2.07l.84-.46c2.74-2,6-3.24,8.57-5.53,4.23-2.86,8.31-5.92,12.4-9,2.12-2.46,5.13-4,7.26-6.43,4.91-4.19,9.82-8.47,13.86-13.5,4.52-4.27,7.69-9.65,11.72-14.33a16.42,16.42,0,0,1,3-3.84,7,7,0,0,1,1.33-2.11c1.29-1.77,1.78-4,3.42-5.55.33-.81.74-1.6,1-2.44a17.3,17.3,0,0,0-.5-4,6.78,6.78,0,0,1-1-.75,46.7,46.7,0,0,0-4.32-7.2c-1.87-2.3-3.29-4.93-5.32-7.1-.78-.57-1.74-1.21-2.75-.85a38.78,38.78,0,0,0-4.37,4.69c-2.64,2.91-5.68,5.45-8.12,8.54a14.47,14.47,0,0,1-5,4,38.14,38.14,0,0,1-8.84,7.82c-4.25,3.17-8.15,7-13,9.31-2.64,1.94-5.39,3.72-8.11,5.55l-1.33.36a7.46,7.46,0,0,1-1.21,1,8,8,0,0,1-3.14,1.58l-.6.63-1.16.13-.57.68a3.43,3.43,0,0,0-2.68,1.22l-1.36.34a52.43,52.43,0,0,1-8.51,4.34,6.29,6.29,0,0,1-3.51,1.2c-.16.14-.47.43-.64.57-1.81-.07-3.12,1.25-4.79,1.63a4.74,4.74,0,0,0-3,1.33c-3,1.44-6.34,1.76-9.39,3-3.55,1.31-7.36,1.58-10.94,2.76-4.21,1.44-8.78,1-13,2.36-2.12.67-4.39.57-6.53,1.18-3.61,1-7.4.57-11,1.35a41.56,41.56,0,0,1-6.21.22c-6.35-.1-12.71.18-19.06-.22-5.82-.53-11.58-1.58-17.38-2.29-2.9-.91-6-.77-8.88-1.76-2.92-.69-5.84-1.43-8.79-2-4.27-2.7-9.88-1.71-14-4.72-4.84-1.06-9.2-3.47-13.86-5l-.64-.58a17.51,17.51,0,0,1-6.92-3.39l-1.36-.34c-3.57-2.16-7.44-3.8-10.82-6.27-1.8-1.41-4.05-2.12-5.81-3.59a24,24,0,0,1-2.11-1.31l-.94-.36c-1.73-1.6-3.89-2.64-5.76-4.06-5.09-3.37-9.41-7.74-14.35-11.31a29.42,29.42,0,0,1-5-4.86l-1.05-.21a32.91,32.91,0,0,0-4.33-4.65c-1.69-1.16-2.54-3.15-4.15-4.4a62.08,62.08,0,0,1-7.07-7.87c-.73-.95-2.18-.83-3.19-.95a9.65,9.65,0,0,1-1.62,1.92,22,22,0,0,1-3,3.8c-.08.25-.23.74-.31,1-2.26,2.59-4.25,5.41-6.48,8a11.3,11.3,0,0,1-1.4,2.55c-.56,1.27.2,2.22,1,3m.71-43.56c3.74,5.18,6.75,10.9,11.11,15.61,1.35.28,2.44-.54,3.43-1.26a57.06,57.06,0,0,0,5.38-5.72c1.32-1.54,3.15-2.55,4.36-4.2,1.88-2.1,3.72-4.36,6.19-5.79,1.73-1.68,3.52-3.31,5.35-4.89,1.22-1.11,2.82-1.7,4-2.8l1-.28a6.23,6.23,0,0,1,3.72-3.14c1.6-1.73,3.76-2.77,5.55-4.26l.87-.42c1.71-1.66,4-2.65,6-3.85,5.62-4,12.15-6.58,18.09-10.11,3.54-1.47,7-3.22,10.66-4.35l.63-.58c2.71-.53,5.09-2.06,7.86-2.45,1.88-.93,4-1.29,5.89-2.19a35.28,35.28,0,0,0,6.68-1.88c4.53-1.52,9.32-1.88,13.91-3.21a202.47,202.47,0,0,1,30.79-3c2.68-.49,5.43-.12,8.12,0,3.62.57,7.34-.14,11,.55,2.81.68,5.71.42,8.55.87,5.52,1.44,11.36,1.09,16.84,2.82,3.64,1.56,7.7,1.73,11.57,2.49,1.15,1.07,2.85.87,4.27,1.32,1.06.57,2.24.85,3.31,1.41,1.71.48,3.46.8,5.19,1.21,1.45.6,2.66,1.78,4.37,1.65.35.33.71.67,1.08,1,2.19.05,3.87,1.55,5.79,2.37,1.53,1.1,3.56,1,5.06,2.15,2.62.71,4.73,2.53,7.22,3.53,4.14,2.45,8.56,4.4,12.57,7.07a4.89,4.89,0,0,1,1.9,2l1,.22.6.65c2.52.17,4.24,2.25,6.11,3.73a8.5,8.5,0,0,1,2.15,1.28,125.48,125.48,0,0,1,10.8,8.45c3.68,2.84,6.54,6.59,10.17,9.5,3,2.67,5.75,5.66,8.51,8.58,2.61,2,4.32,6.12,8.15,5.68,1.2-1.11,2.2-2.44,3.46-3.49.26-.6.5-1.21.73-1.83a25.74,25.74,0,0,1,2.17-2.5c.8-2.2,2.76-3.76,3.43-6a26.56,26.56,0,0,0,2.79-4.14c.37-2.93-2.12-4.88-3.32-7.22a33.16,33.16,0,0,0-2.9-5.25c-3-3.58-5.46-7.58-8.58-11.07-4.53-6-10-11.11-15-16.61A220.29,220.29,0,0,0,609,420.52c-3.8-2.43-7.47-5.06-11.13-7.69-.57-.29-1.13-.59-1.7-.87-1.13-.95-2.62-1.28-3.81-2.14l-1-.34a31.55,31.55,0,0,0-6.81-3.44c-4.46-3-9.72-4.43-14.44-6.89-1.36-.33-2.67-.79-4-1.16l-.63-.61c-1.7-.31-3.25-1.11-4.92-1.54l-.62-.6c-2-.31-3.76-1.24-5.72-1.6-9.62-2.42-19.09-5.55-29-6.48-5.18-1-10.5-.9-15.69-1.8a22.34,22.34,0,0,0-8.23.59c-1.28.41-2.45-.55-3.71-.64l-4,.18c-3.13.38-6.3.14-9.42.42-3.91.14-7.62,1.35-11.53,1.32-4.75.78-9.5,1.53-14.24,2.41l-.57.68c-2.75-.1-5.09,1.56-7.82,1.63l-1.8.31a4.91,4.91,0,0,1-3.47,1.27c-.14.16-.44.46-.59.62-3.31.11-6.29,1.45-9.21,2.84l-.67.54c-3.22,1.14-6.36,2.51-9.54,3.77-4.29,1.86-8.35,4.22-12.61,6.16-2.17.88-4,2.5-6.21,3.24-2.53,2-5.45,3.37-8.15,5.08-2.72,2-5.41,4-8.24,5.86a32.92,32.92,0,0,1-5.35,4.06c-2.33,2.1-4.56,4.38-7.28,6-3.7,4.12-8.18,7.5-11.7,11.8-7,7.06-13,15.07-18.63,23.25-.92,1.75-1.9,3.48-3,5.13-.7,1.68-2.17,3.16-1.44,5.17m15,21.36c2.4,2.21,3.66,5.45,6.34,7.37,3.76,4.49,8.21,8.32,12.13,12.66a36.42,36.42,0,0,1,6.39,5.15,11.42,11.42,0,0,1,4.19,3.95l1.07.2a17.53,17.53,0,0,1,2,1.85,40.94,40.94,0,0,1,7.67,5.59l1,.23.63,1.07c5.2,3.26,10.64,6.11,15.87,9.35,4.32,1.64,8.24,4.13,12.49,5.93.16.15.49.42.66.56A9.84,9.84,0,0,1,432,554c2.24.72,4.38,1.77,6.68,2.33a7.52,7.52,0,0,1,2.73,1.12c.76.25,1.52.5,2.3.71l.59.65c1.25.17,2.46.43,3.71.59l.57.7a5.41,5.41,0,0,1,3.92,1.21c8.49,1.69,16.88,4,25.51,4.89,5.14,1.12,10.42.66,15.63,1a195,195,0,0,0,20.94,0c6.05,0,11.91-1.64,18-1.71A89.72,89.72,0,0,0,543.21,563c2.86-.65,5.85-1,8.57-2.11,1.11-.51,2.28-.18,3.48-.43l.59-.62c2.68-.49,5.27-1.41,7.95-2l.61-.59a5.33,5.33,0,0,0,4-1.68c1.31-.41,2.64-.8,4-1.15l.62-.6a21.66,21.66,0,0,0,2.71-.72c1.44-1.54,3.65-2,5.58-2.6,1.32-.89,2.86-1.33,4.23-2.12.42-.3.86-.58,1.26-.92l1.36-.35a8.85,8.85,0,0,1,2.59-1.29l1.12-.94c3.4-1.42,6.44-3.59,9.71-5.29,7.29-5.54,15.31-10.15,21.93-16.53,1.68-1.46,3.54-2.73,5.19-4.23,1.8-1.33,2.93-3.32,4.69-4.71,2.2-1.52,3.25-4.14,5.37-5.75a18.5,18.5,0,0,0,3.24-3.6c.95-1.6,2.39-3.17,1.84-5.23-5-5.31-9.27-11.31-15-15.9-2.44-2.25-4.68-4.74-7.26-6.84-2.32-2.26-5.36-3.75-7.39-6.31l-1-.29a37.22,37.22,0,0,0-6.33-4.79,17.63,17.63,0,0,0-2-1.85l-1.08-.19c-3.1-2.88-7.22-4.35-10.54-7-2.82-1-5.23-2.84-8-4-1.35-.77-3-1.2-4-2.38a28.24,28.24,0,0,0-6-2.56,26.14,26.14,0,0,0-6.07-2.47l-.65-.57c-4.33-1.49-8.67-3-12.94-4.65-2.16-1-4.67-1.07-6.78-2.17-4-.89-8.1-1.59-12.15-2.39l-.55-.7c-6,.06-11.71-2.45-17.73-2.44-4-.66-8-.56-12-.83-4.69-.09-9.4.55-14.09,0-3.38-.28-6.89-.59-10.18.42-2.41.47-4.91.13-7.34.39-3.93.26-7.78,1-11.66,1.6l-.57.67c-5.89-.06-11.14,3.09-16.95,3.62l-.58.65c-2.29.19-4.43,1.07-6.67,1.51-.15.15-.47.45-.62.61-1.42.36-2.75,1-4.15,1.4-1.25.7-3.25.22-4.08,1.56-.85.28-1.71.55-2.57.79-1.05,1.21-2.82,1.07-4.1,1.91-5.85,3-11.9,5.55-17.48,9a99.61,99.61,0,0,0-11.26,7.1l-1,.26c-3.49,4-9.13,5.24-12.18,9.64l-1,.22a2.2,2.2,0,0,1-1.8,1.28l-.71.94c-1.86,1.4-3.35,3.22-5.08,4.77-3.14,2.69-6.24,5.44-9.12,8.4-2,2.85-4.45,5.33-6.56,8.07a8.27,8.27,0,0,0,.58,2.3m294,6.19c1.88,2.29,3.11,5.05,5.1,7.27a17.88,17.88,0,0,1,2.81,4.91,28.63,28.63,0,0,1,2.1,2.3,16.25,16.25,0,0,0,2.39-.37c1.13-2,1.61-4.49,3.22-6.22a8,8,0,0,1,1.69-4.29,13.19,13.19,0,0,0,3.1-9.86,5.25,5.25,0,0,1-1.29-3.08c-.36-.34-.71-.69-1.06-1-.08-.47-.17-.95-.24-1.42a4.31,4.31,0,0,1-.91-1.33l-.51-.69c-.75-3.09-2.57-5.76-4.11-8.5a8.16,8.16,0,0,0-1.89.6,20.93,20.93,0,0,1-3.77,4.8c-2.23,4.61-5.58,8.48-8.44,12.67-.2,1.68.82,3.05,1.81,4.25m14.21,22.54.68.61.28,1a46.4,46.4,0,0,1,3,6c1.61,1.54,2.23,4.77,4.9,4.49a10.25,10.25,0,0,1,2-3.7c1.08-2.48,2.25-5,2-7.83l.62-.6c.39-2.08,1.35-4.06,1-6.25l-.79-.56a37.51,37.51,0,0,0-2-8.73c-1.17-1-1.49-2.53-2.13-3.84a6.2,6.2,0,0,1-1.28-1.33l-1.55-.21c-1.06,2-1.56,4.29-2.77,6.22-1.23,3.55-3.75,6.56-4.89,10.16a15,15,0,0,0,.91,4.54M668,486a4.27,4.27,0,0,0,1.3,2.12,30.3,30.3,0,0,0,1.68,3l.4.91a17.34,17.34,0,0,1,1.24,2.23c.47,0,.94,0,1.42,0a6.49,6.49,0,0,1,1.25-1.82,43.61,43.61,0,0,1,1.26-5.16,22.74,22.74,0,0,0,2.66-9c.77-4.25-2.38-7.76-2.74-11.86a4.83,4.83,0,0,1-.7-1.92l-.67-.56c0-.55-.05-1.11-.06-1.67-.67-.32-1.33-.62-2-.9a17.54,17.54,0,0,1-1.58,2.41c-1.16,3.22-3.86,5.7-4.7,9-.37,1.49-1.4,2.66-1.93,4.07-.28,3.44,2.61,5.91,3.18,9.13m8.9,66.37c.14.16.44.47.59.62a73.63,73.63,0,0,0,3.23,8.81l1.53.05a47.1,47.1,0,0,1,1.67-5.63c.87-4.27.56-8.66.34-13a47.73,47.73,0,0,0-1.19-7.32c-1.1-.85-1.86-2.5-3.64-1.84-1.19,3.55-2.78,7-3.6,10.61-.2.15-.6.43-.79.58-.53,2.68,1.66,4.57,1.86,7.1M675.62,501c1.45,3.35,3.19,6.76,3.77,10.42a4.85,4.85,0,0,0,1.94,1c1.88-3.14.13-7.09,1.94-10.23.62-2.77.23-5.69.18-8.51-1.71-1.91-1.21-4.67-2.07-6.95l-1.1,0a20.4,20.4,0,0,0-1.85,4.17c-.88,3.4-3.72,6.37-2.81,10.11m1.27-40.55c.14.17.45.5.6.66a27.37,27.37,0,0,1,1.1,3.65l.67.56c0,.31.07.93.1,1.24a11.23,11.23,0,0,0,2,.43c.74-1.05.54-2.47,1.19-3.59.27-2.32.92-4.56,1.29-6.86.64-3.94-1.21-7.65-1.36-11.55a26.46,26.46,0,0,0-1-2.82l-1.22.07c-1.25,4.27-3.9,8-4.76,12.4-.28,2.1.8,3.91,1.41,5.81m6.28,16.79h1.71q0-.84,0-1.71h-1.71q0,.87,0,1.71M684.33,435a10.31,10.31,0,0,0,.59-4.38l-1.3,0c-.51,1.51-.66,3.22.71,4.34m-.69,91.22c.56,1.21,1.81.25,2.52-.26l0-3a12.43,12.43,0,0,0-2-.4c-1.11.85-.18,2.65-.48,3.68m.44,49.16a.83.83,0,0,0,1.6,0c0-2.34.39-4.84-.43-7.1a1.08,1.08,0,0,0-1.2.54,59.8,59.8,0,0,0,0,6.56m-.06-55h1.28v-1.71H684v1.71"></path></g></svg>