<svg id="Shapes" xmlns="http://www.w3.org/2000/svg" viewBox="0 0 1000 1000"><defs></defs><g id="Shape_146" data-name="Shape 146"><path class="cls-1" d="M761.45,324.42a20.68,20.68,0,0,1,6.38-1.37,3.14,3.14,0,0,1,2.77.68l1.06.24a20.5,20.5,0,0,1,.93,2.15q-.3.28-.57.57c-.06.53-.12,1.05-.13,1.58-1.56,1-2.78,2.45-4.43,3.27-.68.4-1.48.13-2.19.35a17.35,17.35,0,0,1-6.08,1.74c-2.24.34-4.29,1.39-6.51,1.81a29.72,29.72,0,0,0-4.43,1.43c-1,.4-2.09.24-3.1.61-1.67.56-3.36,1.11-5.07,1.53-2,.11-3.78,1-5.68,1.49-.67.23-1.24.77-2,.76a35.89,35.89,0,0,0-4.17.31L728,342a35.62,35.62,0,0,0-4.13,1.48l-.28.36a12.64,12.64,0,0,0-3.26.91c-2,.53-4.23.65-6,1.86-3.49,1.22-7.13,1.91-10.7,2.82-.67.38-1.27.84-2,1.15-.87.34-1.82-.12-2.63.35s-2.05,0-2.76.7l-.77.21c-.17.21-.33.43-.49.64a12.74,12.74,0,0,0-1.56.42l-.4-.13c-1.73.84-3.71.89-5.36,1.92-1.48.39-2.81,1.12-4.27,1.56a35.3,35.3,0,0,0-7.82,2,33.91,33.91,0,0,1-6.32,1.77c-4.05,1.13-8,2.55-12,3.83-3.49.54-6.66,2.17-10,3.16-1.8.39-3.51,1.07-5.26,1.6-.61.06-1.26-.16-1.81.2a12.48,12.48,0,0,1-5.07,1.55l-.27.4-.7.26a8,8,0,0,0-3.35,1.05c-1.57.76-3.31,1-4.93,1.62-3.25,1-6.67,1.43-9.84,2.7-1.52.33-3,.86-4.53,1.14-.1-.12-.28-.37-.37-.49a4.65,4.65,0,0,0-2,1.05,2,2,0,0,1-.89.75c-1.9.63-3.86,1.1-5.73,1.83a20,20,0,0,1-3.9.82c-.69.31-1.33.74-2,1.07-.77.5-1.73.27-2.51.7a6.45,6.45,0,0,1-2.15.77c-1.89.41-3.67,1.25-5.6,1.46a21.81,21.81,0,0,0-3.79.35c-1.39.67-2.8,1.3-4.18,2-1.37.49-2.92.45-4.17,1.22a19.77,19.77,0,0,1-5,1.5c-2.58-.2-4.69,2-7.26,1.9-1.48.08-2.61,1.18-4,1.58a34.14,34.14,0,0,0-4.63,1.69c-1.5.06-3,.53-4.44.68a27,27,0,0,1-5.75,1.92l-.32-.44-.89.1c-.08.21-.16.43-.22.65a11.49,11.49,0,0,1-3.11,1.65c-.5.21-1.06,0-1.55.22a16.3,16.3,0,0,1-4.84,1.3,10.91,10.91,0,0,0-2.63,1.19c-2.1.8-4.47.78-6.45,1.88-1,.47-2.25.28-3.31.69a14.14,14.14,0,0,1-4.53,1.74c-1.58.06-2.71,1.35-4.25,1.56a18.17,18.17,0,0,0-4.33,1.3c-1,.3-2,.37-3,.64-.4,0-.86-.14-1.19.16-1.21.91-2.78,1.08-4.16,1.64s-2.68,1-4,1.52c-2.9.28-5.42,2-8.31,2.26-1.54-.09-2.78.91-4.11,1.47-3.26.94-6.68,1.29-9.88,2.45a35.87,35.87,0,0,1-10,3.41c-1,.21-1.78.9-2.77,1.08a20.91,20.91,0,0,0-2.88,1c-1.52.31-3,.75-4.48,1.2a13.56,13.56,0,0,1-3,.9c-.53,0-1-.22-1.54-.28-.22.38-.33,1.09-.89,1s-.94-.51-1.42-.73c-2.25,2.48-5.59,3-8.63,3.91-1.6.2-2.82,1.46-4.41,1.66a48.27,48.27,0,0,1-6.06,1.37c-2,.57-3.92,1.63-6,2a44.74,44.74,0,0,0-5.1,1.28c-2.55.92-5.37,1.22-7.61,2.87l-.71-.34a19.13,19.13,0,0,0-2.59,1c-3.6,1.88-7.74,2.21-11.51,3.6-1.94,0-3.61,1-5.36,1.73a26.63,26.63,0,0,0-5.33,1.53c-1.29.64-2.85.36-4.09,1.09a14.78,14.78,0,0,1-2.93,1c-2.08.56-4,1.57-6,2.23l-.42-.11c-.8.13-1.61.2-2.42.34-1.25.58-2.35,1.69-3.82,1.62a24.57,24.57,0,0,0-7.9,1.95,27,27,0,0,0-4.17,1.43,22.4,22.4,0,0,0-3.61,1.08c-1.44.68-3.14.55-4.52,1.37-1.28.55-2.65.88-3.92,1.45l-.42-.16c-1.48.61-3.08.84-4.6,1.3-1.08.2-1.93,1.15-3.07,1-3.43,0-6.2,2.24-9.4,3.09-1.87,1.14-4.25.76-6.13,1.88a53.22,53.22,0,0,1-6.45,1.7l-.23.44c-1.26.46-2.58.69-3.87,1s-2.67.4-4,.56a9.4,9.4,0,0,1-.34-.88c-.31-.13-.61-.27-.93-.37a4.89,4.89,0,0,0-1.69,2.16c-1.22.31-2.13,1.33-3.43,1.41-2.11.44-4.08,1.3-6.13,1.93-1.79.55-3.48,1.54-5.4,1.51a16.85,16.85,0,0,0-3.61,1c-1.06.37-2,1.21-3.14,1.2a19.46,19.46,0,0,0-4.55,1.32c-.49.25-1-.24-1.47-.12a5,5,0,0,0-.52.6,18,18,0,0,1-4.19,1.41,18.44,18.44,0,0,0-4.17.82c-1.36.59-2.87.64-4.27,1.13-2.91,2.37-7.06,2-10,4.27q.19.51.42,1a4,4,0,0,0-2.35.56c.85.88,2.22-.18,3.22-.08a11.56,11.56,0,0,1,.7,1,7.3,7.3,0,0,0,4-.05c2-.67,3.91.32,5.88.43.15-.26.3-.51.46-.76,2.15-.52,4.48-1.11,6.64-.36.82-.08,1.62-.32,2.45-.42a7,7,0,0,0,.6,3.83,6.89,6.89,0,0,1-2.07.63,29,29,0,0,0-4.36.46c-.83.29-1.67-.23-2.5,0-2.88.59-5.82.8-8.73,1.21-.91,0-1.91-.31-2.75.17-1.6.8-3.37.25-5,.33-1.34,0-2.51.71-3.82.87-1.1.32-2.15-.18-3.21-.3-1.31,1-3,1-4.52,1.18.12.93,0,2.31,1.13,2.71,1.09.87,2.55.5,3.82.68s2.63.46,4,.49a3,3,0,0,1,1.1.43l.53.14c1.37.83,3-.13,4.42.43a7.9,7.9,0,0,0,1,.44,13.9,13.9,0,0,1,4.16.3c.13.29.28.57.41.86.59-.15,1.16-.37,1.73-.54.61,0,1.19.18,1.8.22.35.21.63.65,1,.67a10,10,0,0,1,5.64-.66c1.45-.37,2.93.33,4.4.39a8.88,8.88,0,0,1,3.16.73c.95.35,2,.18,2.92.74.6.08,1.18.24,1.78.27,1.2-.19,2.39-.44,3.61-.52,1.16.09,2.27.52,3.44.64,1.54,0,2.95.8,4.5.62,2.34.27,4.69.48,7,.8,1.65.32,3.64-.25,5,1a5,5,0,0,1,4.48.93c.45-.26.82-.83,1.4-.75a10.3,10.3,0,0,1,3.4.93c0,.18,0,.54.05.72l.67-.08.4-1a7.89,7.89,0,0,1,3,.48l.17,1,.62.23.43.81a1,1,0,0,0,1.34-.56c-.35-.09-.69-.18-1-.24.19-.47.4-.93.61-1.39.67.07,1.34.23,2,.33l.37.31c1.63.11,3.29,0,4.92.08a9.31,9.31,0,0,0,5.86.94,3.53,3.53,0,0,1,2.54.45c.94-.09,1.94-.51,2.79.17a58,58,0,0,1,7.06.78c2.11.07,4.18.74,6.3.44a19.74,19.74,0,0,1,5.57.58l.36.29c1.61.15,3.18.67,4.81.49l.36.4.58-.28a4.21,4.21,0,0,0,1,1.12c0-.2,0-.62,0-.82a2.22,2.22,0,0,1,.62-.43,34.05,34.05,0,0,1,4.36.68,10.88,10.88,0,0,1,2.79.7c1.64-.19,3.25.28,4.9.1,2.36.43,4.88-.07,7.12.94.65.43,1.32-.12,2-.14a6.49,6.49,0,0,0,2.63.33,2,2,0,0,1,1.6.39l.2,1.26.37,0c-.68-.91.13-1.16.62-1.43,1.31.16,2.56.89,3.92.63a6,6,0,0,1,2-.05c1.94-.07,3.76.9,5.71.69a31.69,31.69,0,0,1,4.63.67c.95.23,2.07,0,2.95.49l-.74.47a3.11,3.11,0,0,0,.67,1.92l.91-.12a2.53,2.53,0,0,0,.57-1.32,1.78,1.78,0,0,1-1.1-.85,13.5,13.5,0,0,1,1.7-.1,6.08,6.08,0,0,1,3.11.07c.69.1,1.37-.28,2.06-.23a15.56,15.56,0,0,0,2.87.59l.34.31.82,0a2,2,0,0,0,2,.38c3.06-.4,6.11.23,9.18.22.78.11,1.53.4,2.31.48,1.73,1.37,4.12.48,6.1.42l.31.36a66.64,66.64,0,0,1,7.19.63,6.07,6.07,0,0,1,2.64,1.09c.4-.22.78-.61,1.28-.53a8.32,8.32,0,0,1,3.61.81c1.2-.2,2.47.16,3.64-.22,1.49-.17,2.87.47,4.34.5.6.21,1.24.29,1.85.51,3.85-.55,7.59.66,11.41.81,2.47.32,5,.1,7.4.83,1.25.33,2.64,0,3.78.72a12.48,12.48,0,0,1,3.5.31c1.45.38,3,.88,4.5.37a6,6,0,0,1,.41.55,22.25,22.25,0,0,1,2.57-.44c.42.56,1.05,0,1.61.1,1.78.12,3.55.41,5.32.59,2-.17,3.8.74,5.75.88a8,8,0,0,0,2.87-.18c1.37,0,2.64.68,4,.64,2.13-.08,4.16.75,6.29.45l.33.35a26.41,26.41,0,0,1,7,1.31,19.47,19.47,0,0,1,2.7-.7c.61,0,1.2.24,1.82.3,2.26.06,4.47.74,6.75.42l.35.29a29.41,29.41,0,0,1,3.79.72,3.64,3.64,0,0,1,2.59.39c3,.14,5.94.14,8.91.3A53.43,53.43,0,0,0,563.74,538a57.08,57.08,0,0,0,5.85,0c.09.08.25.26.33.34a9.05,9.05,0,0,1,3.4.17c1,.31,2.07.18,2.95.74,1.83.22,3.78-.22,5.49.64,1.18.68,2.5-.23,3.73,0,1.84.3,3.73.17,5.56.57a13.88,13.88,0,0,1,3,.4c3.09,0,6.17.44,9.25.65,1.2.82,2.72.2,4.08.54a3.88,3.88,0,0,1,1.73-.05c1.88.29,3.8.29,5.66.75,1.15.32,2.37.15,3.52.53,1.15.62,2.27-.28,3.44.09l.62.53a6,6,0,0,0,3.87-.09c1.58.45,3.18.15,4.79.17,2.59.58,5.26.46,7.89.78a15.23,15.23,0,0,0,4.13.77,31.54,31.54,0,0,1,6.57.63,24,24,0,0,1,6.92.41,42.25,42.25,0,0,1,6.36.36c1.52,1.23,3.5.82,5.29,1.19,1.34.2,2.7,0,4.05.13.88.17,1.75.77,2.69.49,1.53-.37,2.92.62,4.4.69a8.11,8.11,0,0,1,4.91.31c1.73-.34,3.63-.44,5.12.69,1.25-.12,2.81-.61,3.78.49a7.07,7.07,0,0,0,3.62-.3c1.66.61,3.46.41,5.2.66a55.84,55.84,0,0,1,5.63.27,34.1,34.1,0,0,0,8.06.81,18.17,18.17,0,0,0,3.66.61,16.44,16.44,0,0,1,2.29.51,4,4,0,0,0,1.88-.42,21.14,21.14,0,0,0,3.38.32c2-.15,3.93.47,5.92.59l.43-.4c1.48.2,3,.11,4.49.29,2.73.74,5.58.82,8.35,1.41,1.5-.48,3,0,4.57.08a5.66,5.66,0,0,1,2.29.8,6.65,6.65,0,0,0,2.66-.17c1.49.05,3-.21,4.5.27,1.08.17,2.07.94,3.22.62,2.1-.29,4.13.89,6.23.35a7,7,0,0,1,3.39.34,11.1,11.1,0,0,0,2.52.22c2.31-.14,4.63-.43,7-.38a2.82,2.82,0,0,0,1.29,1l.41-.33c1.22.45,2.69.48,3.72,1.39,1.47.08,2.8-.57,4.21-.86,2.18-.16,4.72-.33,6.48,1.22.49.7.89,1.45,1.38,2.17s-.31,1.45-.59,2a3.79,3.79,0,0,1-3.38,2.07c-1.42,0-2.68.8-4.1.82l-.35-.44a7.46,7.46,0,0,1-6.72-.9,8,8,0,0,0-2.5-.77,10.78,10.78,0,0,1-3.62-.4c-1.45-.47-3,.06-4.43-.45-.63-.13-1.2-.56-1.85-.39a35,35,0,0,1-4.08.28,7,7,0,0,0-3-.62c-.74,0-1.18,0-1.85,0a27.39,27.39,0,0,1-6.13-.42,5.27,5.27,0,0,0-2.27,0c-.56-.24-1.07-.59-1.6-.84a9.12,9.12,0,0,1-2.64.23,53,53,0,0,0-5.33-.35l-.61-.55a4.7,4.7,0,0,1-3.18-.11,1.72,1.72,0,0,1-1.23.18,14.55,14.55,0,0,0-5.07-.67c-1.46.18-2.86-.37-4.31-.34-.9.08-1.35-.84-1.9-1.36-.48.14-.93.35-1.39.52-.93.65-1.65-.56-2.54-.18-1.34.62-2.51-.76-3.86-.33a17.88,17.88,0,0,1-3.8-.19,46.7,46.7,0,0,1-5.67-.7c-.46-.39-.79-1.09-1.47-1.06a36.14,36.14,0,0,0-4.41.55c-1.64.45-3.17-.48-4.75-.72-1.17-.06-2.33-.22-3.49-.3a14.61,14.61,0,0,1-5.19-.29l-.37-.29c-1.88-.23-3.88-1.14-5.75-.41l-4.14-.47-.36-.31a33.13,33.13,0,0,0-6.66-.52c-2.26-.31-4.54-.37-6.77-.86-1.92-.18-3.87,0-5.74-.61a18.89,18.89,0,0,1-5.51-.4,8.85,8.85,0,0,0-5-.52,7.59,7.59,0,0,1-.65-.46c-2.92.24-5.93.59-8.82-.11-1.28,0-2.34-.92-3.63-.67a56.32,56.32,0,0,1-6.08-.45c-.85,0-1.6-.47-2.43-.57a6.58,6.58,0,0,1-3-.61c-.38-.06-.75-.12-1.11-.2l-.37.24a26.41,26.41,0,0,1-6.81-.83l-.08-.72c-1.16-.71-2.18.75-3.37.61-.56,0-1-.54-1.58-.39a6.08,6.08,0,0,1-2.25,0,13.83,13.83,0,0,1-4.88-.44c-1.53,0-3.06.48-4.56,0a12.8,12.8,0,0,1-3.38-1c-2.52.13-5.22.75-7.65-.25a32.1,32.1,0,0,0-8-.91c-2.35-.2-4.62-1-7-.87-2.37-.37-4.85.45-7.14-.41a42,42,0,0,1-5.67-1.21,2.56,2.56,0,0,0-1-1.61c-.52-.08-.63.56-.87.88l-.39.34-.31-.12c-.09.23-.19.45-.3.68-.55-.08-1-.52-1.48-.69a10.24,10.24,0,0,1-2,.21c-1.66-.28-3.38.24-5-.22a30.11,30.11,0,0,0-4.32-.79c-1.71.2-3.42-.31-5.11.1a21.37,21.37,0,0,1-5.76-1.5c-.51.13-1,.24-1.52.34a1.94,1.94,0,0,1-.79-1.77c-.42.49-.83,1-1.22,1.51a7.28,7.28,0,0,1-3.4-.32c-.33-.49-.64-1-.94-1.48l-.76.35c-.08.23-.15.45-.22.68-.74,0-1.33.15-2,.2l-.33-.36c-.81-.1-1.62-.24-2.42-.33-3.17.26-6.33-.22-9.49-.36a15.48,15.48,0,0,0-4.27-.63l-.34-.33c-.72,0-1.24.1-1.9.06a10.5,10.5,0,0,1-4.59-.51c-1.85-.24-3.55-1.12-5.42-1.22a7.35,7.35,0,0,1-4.79-.26c-.45-.21-.92.12-1.36.16-.3-.27-.6-.54-.88-.81a14,14,0,0,0-2.69.45c-1.19-.41-2.47,0-3.67-.25-2.38-.54-4.83-.54-7.2-1.1-2-.09-4.11.28-6-.54-.65-.48-1.35.13-2.06,0-1.54.11-3-.73-4.49-.61a9.35,9.35,0,0,1-5.07-.91c-.92,0-1.82.11-2.73,0-1.72-.2-3.45.25-5.17,0a22.27,22.27,0,0,1-3.33-.75c-1.67-.2-3.56.19-5.06-.71-1-.05-2,.4-3,.18A7.16,7.16,0,0,0,438,530c-1.37-.12-3,.14-4.06-.89,0-.16-.1-.46-.13-.61l-1.31-.4c.35.54.19,1.49-.58,1.43-2.63-.32-5.34,0-7.91-.71-.49-.1-.66-.62-.9-1-1.49,0-3,.52-4.47.18a26.39,26.39,0,0,1-4.44-.42l-.33-.42a11.18,11.18,0,0,0-2.71.5,15.73,15.73,0,0,0-2.21-.52c-1.42,0-2.8-.71-4.21-.24-3.65-1.07-7.49-.49-11.22-1-2.31-.43-4.57-1.21-7-1.14a15.7,15.7,0,0,1-3.75-.22,6.36,6.36,0,0,0-.66-1c-1.76,1-3.78.06-5.64.06a11.34,11.34,0,0,1-5.35-1.08,7.9,7.9,0,0,1-3.1-.28,29.28,29.28,0,0,1-4.76-.54c-1.07-.4-2.1.22-3.15.28-2,.09-3.91-.71-5.89-.95-1.52-.45-3.12,0-4.64-.41-.93.09-1.63-.78-2.54-.59-.59.09-1.19-.05-1.78,0-.89.13-2.32.23-2.63-.9l-.54-.68c-.3.67-1.09.87-1.7,1.2a10.31,10.31,0,0,1-4.44-.42c-1.85.08-3.59-.75-5.44-.74-1.49,0-3-.23-4.44-.41a12.59,12.59,0,0,1-.44-1.31c-.26.26-.5.54-.78.78a5.94,5.94,0,0,1-.59-.38c-.48.12-1,.26-1.44.37l-.61-.63-.6.08c-.07.24-.15.48-.22.72-1.34-.18-2.84.1-4.06-.62-2,.21-3.94-.81-5.88-.21-.95-.15-1.86-.51-2.82-.62a8.5,8.5,0,0,1-2.71-1.27,5.8,5.8,0,0,0-.52.47c-1.07.32-2.06-.25-3.11-.36l-.61-.54c-1.54-.3-3.19.77-4.58-.21,0-.17-.08-.49-.1-.65l-.93-.64a6.08,6.08,0,0,1-.43,1.17c-2.11,1-4.41,0-6.57-.22a17.44,17.44,0,0,1-3.54-.18,7.6,7.6,0,0,1-1.57.28,13.42,13.42,0,0,1-2.9-1c-.87-.5-1.85.51-2.73,0a11.37,11.37,0,0,0-3.29-.69,14.87,14.87,0,0,1-5.32-.22c-1-.14-2-.74-3.07-.57a10.89,10.89,0,0,1-3.12-.24,26,26,0,0,0-5.89-.7c-1.29-.08-2.56-1.14-3.82-.46a30.4,30.4,0,0,1-6.16-.8c-1.93-.48-3.93-.1-5.87.08l-.33-.36c-1-.11-2-.2-3-.33-1,.22-2.1.09-3.13.26-.33.29-.19.73-.18,1.12,1.4.72,2.86,1.33,4.3,1.93a16,16,0,0,1,5.76,1.63,3.59,3.59,0,0,1,2.13,2l-.5.4a3.59,3.59,0,0,0,1.87,3.4c1.38.49,2.1-1.18,1.73-2.23a4.7,4.7,0,0,0-.38-1.15,7.19,7.19,0,0,0-.9.39,6.31,6.31,0,0,1-1.79-1.38,10.74,10.74,0,0,1,2.06-.23,15.42,15.42,0,0,0,3.19,1.74l.4.78c1.8-.12,3.47.64,5.26.71,1.31-.38,2.52.57,3.34,1.51s2,.72,3,.61c1.47,0,2.85.68,4.31.85a3.09,3.09,0,0,1,3.12,1.62c.47-.12.94-.26,1.42-.34,1,.79,2.29.59,3.4,1,.84.33,1.7.59,2.51,1a21,21,0,0,1,5.35,1.38c.9.46,1.92.63,2.8,1.14.78,1.37,2.54.62,3.79,1,1,.28,1.76,1,2.74,1.19a7.84,7.84,0,0,1,3.75.59,21.18,21.18,0,0,1,3,1.17c1,.61,2.22.3,3.17,1,.29.34.61.66.93,1,1.4-.62,2.66.49,3.77,1.23a6,6,0,0,0,.49-.53,2.08,2.08,0,0,1,1.38.26c1.51.82,3.32.5,4.91,1.12a36.26,36.26,0,0,0,6.8,2.14,25.55,25.55,0,0,1,2.62.61,17.07,17.07,0,0,0,4.23,1.45,12.61,12.61,0,0,1,5.59,2.07c1.57.4,3,1.2,4.61,1.51,1.11.38,2.32.26,3.42.64a7.11,7.11,0,0,1,3.35,1.51,2.78,2.78,0,0,1,1.9.48l.58.07.36.31a12.42,12.42,0,0,1,1.49.21,8.74,8.74,0,0,0,3.58.75c.28.23.84.67,1.11.9,2.41-.32,4.5,1.14,6.73,1.74.91.46,1.79,1.18,2.88,1a7.45,7.45,0,0,1,4.69,1.39,3.12,3.12,0,0,1,2.83.63l.56.08c1.28,1.07,3.1.91,4.64,1.21s3.06.81,4.57,1.29a14,14,0,0,0,3.82.94c1.93,1,4.1,1.53,6.07,2.5,1.32.57,2.82.67,4.07,1.39.1.29.22.58.34.87,1-.1,2-.12,2.92-.31l1.38,1.17.6,0,.67.46c.77.6,1.64,1.37,2.71,1.2.39-.47.65-1.24,1.55-.86a6.2,6.2,0,0,0,1.91.8l.37.26c1.43-.41,2.67.5,4,.64,1.57.79,3.48.41,5,1.23s3.45.69,5,1.55c2.35,1.35,5.15,1.38,7.65,2.35,2,.82,4.11,1.12,6,2a6.86,6.86,0,0,0,1.6.54c.86-.65,1.8.09,2.62.39,1.36.73,3,.48,4.35,1.33,1.1.77,2.53.5,3.73,1,.95.25,1.75,1,2.78,1,.56.7,1.38.33,2.1.14.5.9,1.6,1,2.47,1.37a46.1,46.1,0,0,1,7.32,1.74c1.5,0,2.58,1.1,3.9,1.62a17.51,17.51,0,0,0,3.38,1.23c1,.35,2.17.07,3.22.38a6,6,0,0,1,1.82.82c2,.68,4.22.33,6,1.54a7.56,7.56,0,0,0,.66,1.3c.36-.26.7-.56,1.08-.81,1.23.36,2.24,1.28,3.51,1.55s2.59,1,4,1.05c1.45.25,2.86.69,4.3,1,2-.07,3.74.88,5.62,1.28,1.23.21,2.17,1.15,3.37,1.47a3.71,3.71,0,0,1,2.28.27,8.19,8.19,0,0,0,3,.71c1.06.93,2.57.83,3.86,1.14,1.62.3,3.1,1.11,4.72,1.37l.36.32h.62l.61.52c2,.53,4.08.72,6,1.64.78.29,1.44.83,2.23,1.09a18.11,18.11,0,0,1,2.7.78,29.54,29.54,0,0,1,3.7,1.07c.74.4,1.68-.09,2.4.41,1.29.76,2.84.82,4.19,1.47s3.36.33,4.62,1.5c1.7.2,3.18,1.12,4.85,1.46s3.23.15,4.71.87a35,35,0,0,0,5.43,1.52l1.12,1.35,1.25-.19c1.77.71,3.75.44,5.52,1.14a12.44,12.44,0,0,1,2.72,1.44,3.05,3.05,0,0,1,1.52.22,1.13,1.13,0,0,0,.72.45,10.5,10.5,0,0,1,4.83,1.45,2.47,2.47,0,0,0,1.39,1.69,7.76,7.76,0,0,0,.88-1c1.75-.65,3.14.93,4.75,1.19,1.74,0,3.28.9,4.92,1.38,2,.52,3.9,1.58,6,1.55a52.5,52.5,0,0,0,8.36,2.77,8.16,8.16,0,0,0,3.25.85c.71-.07,1,.63,1.46,1.05l.38-.26a13,13,0,0,1,3.91,1.08,13.52,13.52,0,0,1,3.55,1l.59.05.33.36h.63l.36.3a3.27,3.27,0,0,1,2.06,1.09c.36.85.55,1.77.89,2.64a2.87,2.87,0,0,0,.43-2.21,20.88,20.88,0,0,1,2.47.53l.64.48c1,0,2,.24,3,.18,1.67-.18,3.13.8,4.72,1.12a18.72,18.72,0,0,1,3,.61,30.14,30.14,0,0,1,4.3,2.39c1.27.07,2.5.34,3.77.5,1.59.83,3.72.31,5.16,1.57l.59,0,.35.32a15.59,15.59,0,0,1,4.64.71c1.15.13,2,1,3.14,1.25a16.05,16.05,0,0,1,4.17,1.57l1.48-.07c1.58.1,2.82,1.36,4.41,1.49,1.64-.49,3.1.51,4.07,1.73.36-.1.73-.21,1.09-.35a11,11,0,0,1,4.21,2.2,6.26,6.26,0,0,1,3.1,0l.36.29a16.94,16.94,0,0,1,6.24,1.82,12.57,12.57,0,0,1,2.59.39c1.11.45,2.09,1.29,3.36,1.26a3.25,3.25,0,0,1,1.19.56c.78.16,1.46.68,2.27.81a7.35,7.35,0,0,1,3.22.93,13.9,13.9,0,0,1,3.75.23,10.94,10.94,0,0,0,2.11,1,9,9,0,0,1,2.09.52,9.72,9.72,0,0,0,3.43.9,7.73,7.73,0,0,0,3.34.74l.62.5c1.3,0,2.41.83,3.72.81a11,11,0,0,1,3,.72,4.53,4.53,0,0,0,2.9.79l.38.26a12.59,12.59,0,0,1,2.9,1,18,18,0,0,1,5.12,1.59c.27-.09.54-.32.85-.22a32.47,32.47,0,0,1,5.83,2c2.52.83,5.24.84,7.73,1.76.32.46.66.91,1,1.38a7.5,7.5,0,0,1,4.27.65,12.88,12.88,0,0,1,3.5.28,15.36,15.36,0,0,0,3.24,1.13c1.31.12,2.48.8,3.78,1,3,.49,5.82,1.91,8.85,2.41a5,5,0,0,1,3.64,2.71,5.6,5.6,0,0,1-.55,2.42l0,.6A10.68,10.68,0,0,1,770,677c-1.32.35-2.66-.09-4-.15-.42-.53-.82-1-1.21-1.58-1-.42-1.92-.92-2.91-1.3a2.15,2.15,0,0,1-1-.91,7.39,7.39,0,0,0-1.07.33c-1.29-.49-2.65-.74-3.92-1.25s-2.6-.66-3.85-1.15l-.68-1.05a8.26,8.26,0,0,0-.87.34c-1.32-.34-2.54-1.05-3.94-1a7.66,7.66,0,0,1-3.31-1.53,9,9,0,0,1-3.72-.8,5.15,5.15,0,0,0-3.23-.65l-.34-.32a5.87,5.87,0,0,1-3.76-1.54c-1-.87-2.4-.43-3.6-.68-2-.21-3.84-1-5.79-1.34a3.27,3.27,0,0,0-1.71-.47l-.46-.4c-.12-.29-.19-.63-.52-.71-1.34-.06-2.44-1-3.79-1a14.23,14.23,0,0,0-3.61-.94c-.21-.17-.42-.33-.61-.5a8.15,8.15,0,0,1-4.63-.73,3.79,3.79,0,0,0-2.11-.73l-.62-.5c-.8-.12-1.62-.27-2.41-.36-1.63-.49-2.94-1.85-4.68-1.94-1.17,0-1.94-1-3-1.16a6.72,6.72,0,0,1-4.71-1.16,3.49,3.49,0,0,0-1.07,0c-1.27-.44-2.51-1-3.75-1.46a3.29,3.29,0,0,1-1.61-.58,5.65,5.65,0,0,1-3.23-.39c-1-.61-2.25-.75-3-1.73-.71-.08-1.37.25-2-.1-1.53-.74-3.39-.45-4.84-1.43a6.21,6.21,0,0,0-2.44-.59,4.5,4.5,0,0,1-.88-1c.31-.44,1-.78.77-1.42-.53-.47-1.25-.1-1.86-.1a9.59,9.59,0,0,0-.39,1.42,16.73,16.73,0,0,1-8-1.84,13.39,13.39,0,0,0-3.44-.88c-.42-.36-.77-.77-1.17-1.14-1.25.44-2.17-.54-3.28-.84a14.24,14.24,0,0,1-3.95-1.79c-1.45-.26-2.93-.19-4.37-.51-2.32-.35-4.46-1.44-6.81-1.62-1.22-.17-2.14-1-3.3-1.33-.7-.27-1.44-.39-2.12-.7-1.47-.49-3.12-.32-4.48-1.13-2.27-1.29-5-1.23-7.35-2.22-2.71-.26-5-1.88-7.62-2.43a8.87,8.87,0,0,0-3.66-.88c-.46-.38-1,.05-1.52-.17-.88-.4-1.9-.2-2.76-.65-.08-.31-.08-.72-.48-.75a5.81,5.81,0,0,1-2.58-.92,13,13,0,0,1-3.25-.34c-1.44-.59-3-.85-4.43-1.43l-.36-.65a2.74,2.74,0,0,1-1.61.25,18.18,18.18,0,0,1-4.62-2c-1.63-.21-3.19-.73-4.82-.88a12,12,0,0,1-2.41-.74,2.78,2.78,0,0,1-1.09-1c-.83-.14-2,.3-2.39-.68a16.17,16.17,0,0,1-4.35-.47c-1.43-.28-2.47-1.55-4-1.56-1.57-.38-3.17-.65-4.72-1.06a31.81,31.81,0,0,1-3.61-1.2,15.74,15.74,0,0,1-1.17-1.14,11.07,11.07,0,0,1-3.45-.34c-1-.36-2.16-.26-3.14-.76a5.82,5.82,0,0,0-2.24-.59,3.84,3.84,0,0,0-2.68-.8c-.39-.46-.77-.94-1.13-1.41-1.31-.23-2.7-.95-4-.39a14.53,14.53,0,0,1-3.38-.77c-.68-.3-.86-1.09-1.22-1.67A3.91,3.91,0,0,0,533,606c-3.23-.64-6.21-2.06-9.3-3.1-1.83-.9-3.89-1.1-5.76-1.85a36,36,0,0,1-3.72-1.61,21.66,21.66,0,0,1-3.13-.24,29,29,0,0,0-3-.61,8,8,0,0,0-2.06-.78c-1.41-.23-2.5-1.39-4-1.21-1.13.05-2-.74-3-1.13a14.91,14.91,0,0,0-2.78-.94c-1-.44-2.18-.37-3.07-1.06-1.31.31-2.32-.77-3.58-.76a9.6,9.6,0,0,1-3.75-1.2c-.75-.57-1.68.42-2.47-.08-1.67-1-3.68-1.17-5.46-2a5.12,5.12,0,0,0-1-2c-.54,0-.59.65-.83,1-2.43.88-4.27-1.54-6.62-1.51a25,25,0,0,1-5.94-1.65c-.73-.3-1.47-.8-2.31-.49-1.09.11-2-.64-3-.86a9.32,9.32,0,0,1-4-2c-1.53-.42-3.43,0-4.54-1.32-.32-.21-.63-.42-.93-.64a10.9,10.9,0,0,1-2.68-.54c-.33-.29-.59-.63-.88-.94-.35.13-.7.25-1.05.35-.1-.64-.2-1.28-.31-1.91-.14.31-.26.63-.38,1-.94.14-1.85.38-2.78.53a23,23,0,0,0-2.14-1.22,7.38,7.38,0,0,1-2.87-1.07c-1.76.09-3.71,0-5.16-1.09-1.06-1-3-.12-3.89-1.38a17.67,17.67,0,0,1-4.28-1.37c-.74-.46-1.66-.28-2.45-.57-.48-.37-.93-.73-1.38-1.12a19.7,19.7,0,0,0-2.76-.19c-1.57,0-2.94-.91-4.19-1.75s-2.76-.55-4-1.27c-1-.62-2.25-.74-3.28-1.34-1.22-1.08-2.25-2.35-3.49-3.4-.74-.23-1.46-.38-2.17-.65-1.36,0-2.73,0-4.09-.06-.64,0-1,.73-1.49,1-.74,1.06-2.08.62-3.07.3a4.45,4.45,0,0,0-.49-.48,13.17,13.17,0,0,0-2.93-.47c-.81,0-1.41-.72-2.19-.87a8,8,0,0,1-2-.61c-2.09-.13-4.63-.37-5.95-2.21-.48.11-1,.21-1.45.3-1.11-.93-2.7-.8-3.91-1.56q.07-.48.12-1a5.1,5.1,0,0,0-1.83.17,6.2,6.2,0,0,1-.54-.61,4.67,4.67,0,0,1,.5-1.06c0-.36-.07-1.09-.1-1.45-.3-.34-.76-.18-1.15-.18a3.71,3.71,0,0,0,.24,2.05,1.92,1.92,0,0,1-2.88,0c-1,.19-1.68-.46-2.39-1-.66,0-1.24.33-1.89.32-.92-.22-1.64-1-2.66-.8-.67-.13-.79-1-1.14-1.49a6.29,6.29,0,0,0-2,.43c-1.3.08-2.43-.57-3.66-.84-2.28-.73-4.59-1.34-6.89-2a14.43,14.43,0,0,0-2.45-1.09c-1.56-.38-3-1.14-4.52-1.6a8.35,8.35,0,0,1-3.78-1c-2.15-.55-4.24-1.27-6.32-2l-.42.35c-1.58-.68-3.17-1.28-4.79-1.84a4.74,4.74,0,0,1-2.52-1.24,11.34,11.34,0,0,1-3.32-.52,31.73,31.73,0,0,1-3.34-.78c-.92-.44-1.9-.71-2.83-1.1-.77-.33-1.66,0-2.41-.39-1.88-.9-4-1.12-5.92-1.91-.7-.29-1.45-.39-2.14-.69-2.25-.54-4.42-1.34-6.7-1.76-.85-.8-2.12-.56-3.13-1a16.77,16.77,0,0,0-3.45-.63l-1.93-.68a5.47,5.47,0,0,0-1.81-.85,32.68,32.68,0,0,0-4-1.26c-1.3-.24-2.38-1.12-3.67-1.38-1.11-.36-2.34-.33-3.33-1-.77-.43-1.57-.8-2.38-1.16l-.39-.59c-.76.06-1.56.62-2.3.3a12.91,12.91,0,0,0-5-1c-2.63-1.65-5.79-1.91-8.65-2.93a20.2,20.2,0,0,1-4-1.77,11.08,11.08,0,0,0-3.5-1.58l-.38-.57-1.51.1a4.47,4.47,0,0,0-.66-.77c-.51.13-.93.56-1.47.57-1.55-.26-2.93-1.09-4.46-1.42-1.41.07-2.59-.77-3.9-1.11a4.79,4.79,0,0,1-2.78-1.75c-.75,0-1.55.6-2.28.29-1.27-.6-2.68-.87-3.89-1.59a3.36,3.36,0,0,1-1.92-.72L221,512a32.77,32.77,0,0,0-6.39-1.64l-.36-.27a11.28,11.28,0,0,1-4.48-1.4.8.8,0,0,0-.69,0c-1.77-.38-3.59-.51-5.33-1.06a13.81,13.81,0,0,0-2.94-1.22c-.95-.79-.47-2.19-.5-3.23.05-1.73-.64-3.53,0-5.21.19-.61.94-.54,1.45-.71a9.87,9.87,0,0,1,1.16-1.34c1.75-.55,3.22-1.83,5.11-2a21.06,21.06,0,0,1,2.25.13,26.51,26.51,0,0,1,7.16-1.46c.84-.49,1.56-1.17,2.43-1.6.43-.15.83.12,1.22.26a4.94,4.94,0,0,1,2.26-1c1.14.05,2-.82,3.14-.82,1.21-1.51,3.4-1.38,5.08-1.92,2.31-1.14,4.93-1.42,7.44-1.91a38.92,38.92,0,0,0,5.28-1.76l4.57-.91c.15-.23.31-.45.46-.67l1.89-.61c.37.09.78.39,1.15.14a8,8,0,0,1,3.32-1.09,13.35,13.35,0,0,0,3.22-.27c.52-.34.89-.86,1.44-1.15,1.25-.45,2.51-.86,3.76-1.31a22.15,22.15,0,0,0,3.13-.82l3.29-.46.33.42.85-.11c.15-.23.31-.45.46-.67.87-.16,1.73-.4,2.59-.62a8.22,8.22,0,0,1,4.61-2.18c1.26.24,2.19-.65,3.27-1a36.49,36.49,0,0,1,4.38-1l.84.06a3.4,3.4,0,0,1,2.11-1.06,25.57,25.57,0,0,0,5.37-2.13c1.43-.32,2.83-.76,4.23-1.18,1.58-.54,3.23-.11,4.84-.24.65-.3.75-1.13,1.41-1.42,1-.18,2-.28,3.06-.41.06-.1.18-.31.23-.42a21.62,21.62,0,0,0,2.4-.46,8.64,8.64,0,0,1,.88.72,6.92,6.92,0,0,1,3.14-1.57,13.51,13.51,0,0,0,2.08-.36c.09.12.27.34.37.45.29-.24.58-.48.86-.74l3.3-.46c.07-.1.2-.3.27-.39,1.1-.28,2.1-1,3.25-1.05,2.82.6,5.6-.44,8.21-1.39,1-.42,1.91-1.13,2.91-1.6a27.1,27.1,0,0,0,3.62-1c2.07-.56,4.16-1.05,6.23-1.64a4.33,4.33,0,0,1,2-.25,13,13,0,0,0,3.71-.56c1.27-.34,2.36-1.14,3.65-1.42l3.24-.51a4.69,4.69,0,0,1,2.12-1.42c2.24-.61,4.54-1,6.8-1.59.07-.1.19-.32.25-.43a8.54,8.54,0,0,1,2.78-.43c.81.15,1.44-.52,2.13-.81.64-.51,1.46-.21,2.19-.26.64-1.24,2.21-1.18,3.39-1.49.5-.08,1,.06,1.51,0,.26-.27.5-.57.74-.87a46.16,46.16,0,0,1,6.27-2c.77-.4,1.32-1.24,2.33-1.05,1-.2,2.21-.1,3-.93a7,7,0,0,0,2.79-.88c2.45-.8,5-1.35,7.49-1.94a19.79,19.79,0,0,1,4.55-1.86c.54,0,1.06.2,1.61.23.52-.39.91-.93,1.45-1.3a1.46,1.46,0,0,0,.9.06c1.91-.52,3.62-1.61,5.58-2l.25-.41c1.06-.29,2.14-.47,3.22-.71a9.26,9.26,0,0,0,2.89-.79c1.38-.87,3.09-.66,4.51-1.36.79-.82,2-.94,3-1.33a43.46,43.46,0,0,1,5.8-2c1.46-.14,2.66-1.1,4.11-1.27a8.89,8.89,0,0,0,2.95-1.19c.83-.14,1.7-.15,2.54-.23a18.65,18.65,0,0,1,1.73-.87c1.2-.18,1.9-1.36,3.14-1.45,1.52-.49,3.07-.84,4.62-1.24l2.31-.43a14.64,14.64,0,0,1,1.45-1.15,18.51,18.51,0,0,0,3.9-1.2,10.64,10.64,0,0,1,4.25-.76c1.79-.83,3.73-1.26,5.46-2.24,1.57-.31,3-1,4.57-1.43a10.45,10.45,0,0,0,2.83-.5A17.69,17.69,0,0,1,482,411.8c1-.25,2-.95,3-.65.57.17,1-.3,1.54-.47l.3-.36c1.44-.41,2.69-1.28,4.15-1.66,2.5-.71,5-1.23,7.5-2.08.63-.21,1.35-.06,1.87-.57a7.13,7.13,0,0,1,3-1.13l2.38-.4.24-.41c1.7-.07,3.19-.92,4.81-1.35s2.72-1.36,4.25-1.62a35.63,35.63,0,0,0,3.42-1.34c1.67-.12,3.12-1.15,4.8-1.18,2.45,0,4.31-2.05,6.75-2.2,1.65.18,2.66-1.23,4.07-1.72,1.18-.35,2.44-.34,3.65-.6a11,11,0,0,1,3-1.31c1.8-.24,3.46-1,5.27-1.17,1.25.13,1.92-1.13,3.11-1.24,1.86-.56,3.44-1.82,5.4-2.08a15.86,15.86,0,0,0,5-1.61c1.57-.85,3.39-1,5-1.78a18.25,18.25,0,0,0,6.73-2.3,7.37,7.37,0,0,1,2.89-1.2c2-.49,3.94-1.41,6.05-1.57,1.21,0,2.24-.71,3.39-1,.55-.06,1.11,0,1.66-.05,2.28-.48,4.28-1.82,6.57-2.28.88-.21,1.75-.53,2.63-.81,1.17-.52,2.46.14,3.68-.11a8.92,8.92,0,0,0,2-1.74c.51-.13,1.26-.22,1.82-.4,2-.4,4.18-.45,6.21-1l.27-.41a12.26,12.26,0,0,1,3.1-1.24,6.32,6.32,0,0,0,2.41-.78c1-.57,2.24-.57,3.27-1.11,1.64-.87,3.55-.94,5.29-1.57q3-1,6-1.81a9,9,0,0,1,3.89-.61c1.17-.55,2.29-1.21,3.45-1.78a26,26,0,0,1,6.13-1.73,17.08,17.08,0,0,0,4.22-1.58c1.31-.57,2.88-.46,4.09-1.28a8.63,8.63,0,0,0,3.12-1,30.68,30.68,0,0,0,4.68-1.22c.59-.21,1.25.09,1.84-.18a17.12,17.12,0,0,0,2.83-1.29l2.39-.33c.6-.09,1-.66,1.52-.86a13.48,13.48,0,0,1,4.07-.94,23.17,23.17,0,0,1,2.48-1.27c2.31-.68,4.66-1.56,7.1-1.16,1.21-1.13,2.8-1.63,4.24-2.4a7.14,7.14,0,0,1,2.36-.42c2.63-.82,5.33-1.39,7.93-2.33a15.58,15.58,0,0,1,5.52-1.46c.54-.18,1-.53,1.57-.72.41-.06.84.07,1.26,0,.81-.43,1.42-1.21,2.33-1.45,2.21-.35,4.39-.87,6.58-1.35,1.18-1.34,3.29-.54,4.62-1.69a1.59,1.59,0,0,1,1.36-.38,30.21,30.21,0,0,1,4.76-.3c.55,0,1.32,0,1.93-.1.45-.74.94-1.47,1.43-2.19a44.93,44.93,0,0,1,4.47-1.12c.78.17,1.39-.46,2.1-.66a21.71,21.71,0,0,0,2.92-.78c1.24-.56,2.64-.67,3.9-1.22.67-.49,1.48-.24,2.22-.3a13,13,0,0,1,1.89-1,31.62,31.62,0,0,0,5.69-1.65c.86-.37,2-.26,2.71-.95,1.11-1,2.74-1,4.08-1.5,1.73-.66,3.55-1.05,5.25-1.8m-37,17.61h0M297,470.59c0,.29.05.58.07.88l.7-.07-.18-1.39-.59.58m-46.55,14.05c-.42.17-.15.76.25.65s.17-.91-.25-.65m-18.18,6.43a.6.6,0,0,0,.07.72c.55.14.43-1-.07-.72m8.35,1.08c0,.49-.35,1.24.36,1.35a6.37,6.37,0,0,0,1.54-1.73,19.35,19.35,0,0,0-1.9.38m-6.47,2.29a6.52,6.52,0,0,0,.38.68,1.36,1.36,0,0,0,.69-.52,7.67,7.67,0,0,0-1.07-.16m24.11-.72a.83.83,0,0,0,1,.82c0-.42-.07-.83-.11-1.23l-.9.41m-34,13.33.92-.1c.12-.26.27-.5.36-.76a4,4,0,0,0-.57-1.1c-1.64-.38-1.51,1.29-.71,2m26.77,1.28a2,2,0,0,0,1,.83c0-.35,0-.69,0-1l-1,.2M319,514.05c0,.56,0,1.14.62,1.48,0,.92.9.73,1.16.27,0-.83-.61-1.48-.94-2.19a1.46,1.46,0,0,0-.84.44m3.54,1.77.83,0-.2-.81a2.92,2.92,0,0,0-.63.78m7.6.95c-.23.25.12.79.42.51s-.14-.73-.42-.51m167.42,16a1.35,1.35,0,0,0,.24,1.1c.56.18.53-.53.6-.88l-.84-.22m3.2.83a3.31,3.31,0,0,0-.4,1c.28.36.68.87,1.19.78.61-.59.05-1.89-.79-1.73m-1.84.88a5,5,0,0,0,.4.65,1.42,1.42,0,0,0,.65-.46c-.35-.07-.7-.14-1.05-.19m30.41,2a5.34,5.34,0,0,0-.25,1.36c.25.21.5.52.88.42.55-.46-.19-1.35.11-1.84l-.74.06m48.54,5.31-.19.29c.24.65,1-.58.19-.29m-141,33c0,.2,0,.62,0,.83l.8-.2a2.92,2.92,0,0,0-.78-.63m303.84-19a6.91,6.91,0,0,0-.15.91l1-.07-.12-.64-.7-.2m30.84,6.83a1,1,0,0,0,1,.59c0-.2,0-.58,0-.78l-1,.19m-257.72,34.7c0,.34.12.68.19,1a1.05,1.05,0,0,0,.59-1h-.78M618.1,626.58a5.66,5.66,0,0,0,2,1,2.54,2.54,0,0,0-1.17-1.46c-.38-.13-.63.21-.88.43m68.74,21.58c0,.17.07.52.1.7.32.17.65.35,1,.5.39-.34.79-.67,1.2-1,0-.3,0-.6-.07-.9a4.77,4.77,0,0,0-2.23.71"></path><path class="cls-1" d="M283.08,489.69c1.31-.65,2.79-.31,4.17-.6a6,6,0,0,1,3.54,0,9.69,9.69,0,0,1,4.25-.45,36.1,36.1,0,0,0,5.15-1.13,6.42,6.42,0,0,1,.88,1l.86-.07c.16-.31.32-.62.46-.94a4.46,4.46,0,0,1,2,.11c1.61-.69,3.41-.69,5.11-1,1.42-.83,2.85.46,4.27,0,.63-.21,1.21.28,1.82.35a3.54,3.54,0,0,1,1.66-.51c.79.16,1.4-.4,2.12-.52a24.77,24.77,0,0,1,2.38,1.15c.23-.47.4-1.05,1-1.23a36.32,36.32,0,0,1,8.2-.56c1,0,1.67-.77,2.38-1.31a7,7,0,0,1,2.7.4l.34.62,1.59-.17c.06.59.14,1.18.22,1.78l.52.4.66,0a23,23,0,0,0-.54-3,4.86,4.86,0,0,0,2.08-.13c.52-.22,1,.15,1.47.34a1.43,1.43,0,0,1,1,.65c.48.3.9.07,1.25-.3l-.08-.7c.85-.84,2.19-.34,3.25-.68,2.18-.82,4.45.15,6.64-.47.68-.18,1.4-.3,2.08-.51,1.15.49,2.36-.05,3.51-.17a2.44,2.44,0,0,1,1.4.46l.12.63.51.41.86,0c0-.36-.08-1.06-.11-1.41.61.16,1.26.5,1.85.08.13.49.26,1,.4,1.47a11.18,11.18,0,0,1,2.4,1.19l.6-.35c.15-.51.31-1,.41-1.55-.74,0-1.38.12-2.09.19.06-.38.09-.77.12-1.15l-.75-.22c0-.16,0-.5-.06-.67l.52.14c1.38-.08,2.76-.31,4.15-.3a27.85,27.85,0,0,1,2.89,0c2.57-.59,5.13-1.41,7.8-1.12a13.2,13.2,0,0,0,2.73-.3,27.09,27.09,0,0,1,5.23-.56c.9-.4,1.61,1,2.37.25a1.31,1.31,0,0,1,1.72-.91,55.12,55.12,0,0,0,6.29-.24,12.27,12.27,0,0,1,3.28-.67c1,.06,2.19-.47,3.1.12,0,.36,0,.71,0,1.06.26.34.7.2,1.06.16.21-.46.2-1,.44-1.43,1.24-.11,2.51-.15,3.76-.34a7.2,7.2,0,0,0,3-.06c.55.07,1,.52,1.61.42a3,3,0,0,0,.26-1c3.59.09,7-1.6,10.58-1.5a30.42,30.42,0,0,1,5,0,7.54,7.54,0,0,1,3.25-.66,16.87,16.87,0,0,1,2.93,0c2.3.37,4.39-1.07,6.66-1.07a14.79,14.79,0,0,0,4.64-.38,8.78,8.78,0,0,1,2.29-.23c.25.39.49.79.71,1.21a6.19,6.19,0,0,1,1.88,3.31c-1.28.73-2.81.56-4.17,1-1.19.43-2.49.18-3.68.59a12.68,12.68,0,0,1-4.94.39l-1.48.05-.24.45c-1,.06-2,.52-3.05.27a14.28,14.28,0,0,0-5.09-.13,15.23,15.23,0,0,1-5.56.7,7.54,7.54,0,0,0-2.27-.15,13.41,13.41,0,0,1-4,.7,25.58,25.58,0,0,1-5.46.07c-.49,0-.79.44-1.13.7-1.68.32-3.51.68-5-.33-.82.43-1.5,1.23-2.52,1.14a22.61,22.61,0,0,0-4.27.39,26.12,26.12,0,0,0-4.16.5,7.94,7.94,0,0,1-1.79.21c-2.38,0-4.73.49-7.1.53a15.29,15.29,0,0,0-3.88.43,4.74,4.74,0,0,1-1.94.16,9.49,9.49,0,0,1-3.93.72c-3.5,0-6.95.7-10.44.57a7.68,7.68,0,0,0-2.26.68c-.62-.27-1.2-.64-1.81-.92-.86,1.18-2.48.9-3.75.69-1,0-2.06.24-3.08.32-1.07.52-2.1,1.29-3.36,1.2a10.06,10.06,0,0,0-3.94-.07c-.84.05-1.67-.16-2.51-.15l-.27.47a6.68,6.68,0,0,1-3,.73,11.44,11.44,0,0,0-4.44,0,27.85,27.85,0,0,1-4.62.77c-1.47,0-2.93.1-4.39,0a23.06,23.06,0,0,0-3,.35,10,10,0,0,1-2.12-1.25h-.61l.06,1.09a10.6,10.6,0,0,1-4.61.93c-2.37.13-4.72.59-7.08.82A5.09,5.09,0,0,0,309,492a5.86,5.86,0,0,1-3.34.37c-1.6-.14-3.15.48-4.74.23-.92-.08-1.79.37-2.71.29-2.73-.21-5.24,1.15-7.95,1.1l-3.24.11c-1.44,0-2.88.29-4.32.24a15.92,15.92,0,0,0-3.64.39c-2.41.25-4.88,1.1-7.3.56-.49-.09-.94.2-1.42.21a6.53,6.53,0,0,1-1-.52,18.16,18.16,0,0,0-.44-2.22,12,12,0,0,1,.76-1.68c1.61-.5,3.24.17,4.85-.2,1.18-.72,3.08.82,3.79-.75a8.51,8.51,0,0,1,2.08-.14,10.53,10.53,0,0,0,2.74-.31m59-5.2c-.07.33-.15.65-.21,1l1.23-.16a.85.85,0,0,0-1-.82m-19,2.89c-.23.26.12.79.42.51s-.14-.72-.42-.51"></path><path class="cls-1" d="M474,469.75c1,.22,1.87-.59,2.87-.55,1.17,0,2.33,0,3.51,0l.6.84a34.11,34.11,0,0,1,5.41-1.65,9.86,9.86,0,0,1,4.29-.12,30,30,0,0,0,7.45-.43,23.81,23.81,0,0,1,2.92-.39,8.93,8.93,0,0,1,4-.55l.31-.15c.37.11.77.42,1.15.16a4.72,4.72,0,0,1,3.07-.47c1.22.23,2.42-.42,3.65-.22,1.21-.66,2.63-.55,4-.68a23.67,23.67,0,0,0,3.7-.71,4.58,4.58,0,0,0,2.47-.52c2,.42,4-.12,6-.23.79-.05,1.57.44,2.36,0,1.6-1,3.53-.88,5.34-1,1.34-.23,2.73-.27,4.07-.51a20.07,20.07,0,0,0,5.74-.05,4.66,4.66,0,0,1,2.15.24,4.45,4.45,0,0,1,1.78-.62c.76-.15,1.43-.7,2.24-.57,3.3-.42,6.64-.63,9.94-.88a5.26,5.26,0,0,1,2-.46,9.7,9.7,0,0,0,3-.31,6.89,6.89,0,0,1,3.63-.37,13.38,13.38,0,0,0,2.74-.31,10.44,10.44,0,0,1,3-.33,15.15,15.15,0,0,0,3-.29,13.77,13.77,0,0,1,2.22-.29,11.11,11.11,0,0,0,3-.31,32.84,32.84,0,0,1,5.51-.61,12.66,12.66,0,0,0,2.44-.27,25.75,25.75,0,0,1,4.81-.52c1.43,0,2.88-.31,4.34-.24a21.88,21.88,0,0,0,4.55-.51c1.55-.24,3.18-.13,4.65-.79,1.64.53,3.25-.4,4.91-.23a7.94,7.94,0,0,0,3.55-.7l.33.07a4.67,4.67,0,0,1,4.14.27c1.38.26,2.09-1.37,3.46-1.21l1.32-.18.34.43c.8-.15,1.63-.63,2.46-.25,1.65.83,3.23-.6,4.92-.47a9,9,0,0,0,4.71-.75,64.63,64.63,0,0,1,9-.93c2.23-.36,4.57,0,6.73-.77.79-.27,1.65.26,2.43-.14a3.34,3.34,0,0,1,2.29-.05,13.42,13.42,0,0,1,6.7-.81c1.53-.05,3.1-.19,4.64-.24a38.14,38.14,0,0,1,9.56-1.39c.08.1.24.29.33.38,2.37-.57,4.85-.62,7.19-1.37,2.32-.1,4.58-.85,6.94-.73a6,6,0,0,0,2-.23,12.31,12.31,0,0,1,2.65-.2,19.2,19.2,0,0,0,2.42-.64,4.88,4.88,0,0,1,3,.64c.55.29,1.07.92,1.76.85.87-.59,1.55-1.42,2.44-2,2.46-.1,4.85-.85,7.34-.79a25.22,25.22,0,0,0,3.12-.34,12,12,0,0,0,3.21-.34,3.5,3.5,0,0,1,2.51,0l1-.06a5.71,5.71,0,0,1,.47-.39l1.24-.08a10.74,10.74,0,0,1,5.43-.09c1.19-.33,2.37-.73,3.53-1.16,2.24.1,4.46-.3,6.68-.4l.36-.21c1.16.23,2.62.85,3.67,0a6.62,6.62,0,0,1,1.79-.82,8,8,0,0,0,4.56-.07l.4.49a2.06,2.06,0,0,0,1.06-.81,17.38,17.38,0,0,1,5.47-.75c2.7,0,5.32-.76,8-.86,1.64.06,3.17-1.13,4.83-.66,1.93.39,3.69-.75,5.61-.8a18.09,18.09,0,0,0,3.25-.62c2.86-.43,5.79-.47,8.62-1.15,1-.32,2,.3,3,.61a7.81,7.81,0,0,1,1.17,2.14c0,.74-.26,1.45-.28,2.19a2.45,2.45,0,0,0-.77,1.08,9.7,9.7,0,0,1-5.69,1.78c-2,0-3.93.89-5.94.7-1.11,0-2.23,0-3.32,0s-2.15.2-3.22.12a5.82,5.82,0,0,0-1.81.19c-.72.08-1.34.43-2,.18-1.31-.53-2.55.57-3.88.49a25.54,25.54,0,0,0-5,.53c-1.69.41-3.48.29-5.12.86-.4-.09-.79-.19-1.17-.24a14.13,14.13,0,0,0-1.45.58c-.2-.29-.42-.57-.63-.85-1.57,1-3.56.71-5.26,1.39-1.05.23-2.13.11-3.17.31-3.42.91-6.92.39-10.38.17a2.44,2.44,0,0,1-1.85.86c-2.81.73-5.74.17-8.56.78-1.59.34-3.24.13-4.75.75-1.05.64-2.12-.3-3.17.11-3,.69-6.16.29-9.1,1.21a29.17,29.17,0,0,1-3.23.13,11.52,11.52,0,0,1-3.39.39,25.62,25.62,0,0,0-4.38.46c-1.9.33-3.84.44-5.71.9-1.4,0-2.85.45-4.17-.12-2.58,1.23-5.49,1-8.24,1.44-1.58.08-3.16,1-4.72.45-1.53-.37-3,.45-4.57.24a9.51,9.51,0,0,0-3.81.55c-2.08-.09-4.08.53-6.14.59a28.13,28.13,0,0,1-5.86.44c-1.38-.12-2.6.68-3.94.79a10.57,10.57,0,0,0-2.51-.12c-2.34.4-4.59,1.17-7,1.19-.27.27-.56.52-.85.76-.39-.09-.77-.15-1.16-.21l-.81-.45-1.23.21c-1.39,0-2.76.23-4.13.2a8,8,0,0,0-1.8.16,29,29,0,0,1-3,.61c-1.65,0-3.26.52-4.9.27a63.82,63.82,0,0,1-7.13.83,13.3,13.3,0,0,0-5.46.59,3.68,3.68,0,0,1-2.08,0,11.83,11.83,0,0,0-3.3.87c-3.18.3-6.37.49-9.55.76-1.34.34-2.71.88-4.09.56-1.18-.29-2.29.75-3.46.43s-2.16.23-3.24.14a5.56,5.56,0,0,0-1.82,0,6.18,6.18,0,0,1-2-.06c-2.76.37-5.49.94-8.27,1.18-3.27.22-6.49,1.09-9.77,1-1.47-.35-2.72,1.07-4.15.54a13.75,13.75,0,0,0-3.63.48c-1.42.57-3-.13-4.43.4-1.22.5-2.58-.21-3.81.25a51.44,51.44,0,0,1-7.57,1.4c-1.9,0-3.84.34-5.71-.13a2.6,2.6,0,0,1-2-.05,6,6,0,0,1-2.37.59c-1.71-.12-3.28.66-4.95.77-3,.08-5.86.43-8.79.65a10.57,10.57,0,0,1-2.62.6c-.92-.22-1.76.37-2.66.17-1.56-.22-3.11.34-4.62.61a3.8,3.8,0,0,1-2.31,0,21.24,21.24,0,0,0-2.65.27c-.93.18-1.86.33-2.77.54a14.25,14.25,0,0,1-1.57.18c-3.1.08-6.17.46-9.24.82-1.84-.22-3.53,1-5.35.52a14.25,14.25,0,0,1-3.74-.28,3.38,3.38,0,0,0-1-.79l-.61,1.56c-4.7.46-9.38,1.07-14.09,1.48-2.07,0-4,1-6.08.88-1.49-.05-3.17.2-4.5-.61,0-.3-.05-.59-.06-.88l.63-.33c-.05-.4-.14-1.19-.18-1.59-.43-.32-.9-.5-1.21.05l-.59.17c-.08-.63-.15-1.25-.2-1.88a12.43,12.43,0,0,0,1.89.47,28.29,28.29,0,0,1,4-1.3c1.59-.17,3.2,0,4.81-.14a44.2,44.2,0,0,1,6.3-.48,9.91,9.91,0,0,0,3.89-1M642.12,455.2c0,.36.11,1.08.14,1.44.78-.15,1.9.12,2.08-.91a9.69,9.69,0,0,0-2.22-.53m88.28-9.14q.18.31.39.63c.47.12.43-.45.59-.74a1.72,1.72,0,0,0-1,.11"></path></g></svg>